<svg width="103" height="70" viewBox="0 0 103 70" fill="none" xmlns="http://www.w3.org/2000/svg">
<path d="M11.952 66.656L11.5116 67.5538L11.952 66.656ZM3.792 59.84L2.96273 60.3989L2.96976 60.4093L2.97705 60.4195L3.792 59.84ZM0.144 49.856V48.856H-0.983946L-0.848795 49.9758L0.144 49.856ZM8.016 49.856L8.99526 49.6534L8.83028 48.856H8.016V49.856ZM13.392 58.88L12.7587 59.654L12.7695 59.6626L13.392 58.88ZM32.304 60.032L32.8424 60.8747L32.8506 60.8695L32.8587 60.8641L32.304 60.032ZM37.584 53.888L36.6896 53.4408L36.6851 53.4498L36.6807 53.4589L37.584 53.888ZM35.28 33.248L34.5428 33.9237L35.28 33.248ZM14.832 31.136L15.3675 31.9805L14.832 31.136ZM9.072 37.664V38.664H9.71718L9.98311 38.0762L9.072 37.664ZM1.392 37.664L0.403989 37.5096L0.223617 38.664H1.392V37.664ZM7.152 0.799995V-0.200005H6.29612L6.16399 0.645618L7.152 0.799995ZM42.384 0.799995H43.384V-0.200005H42.384V0.799995ZM42.384 7.808V8.808H43.384V7.808H42.384ZM13.392 7.808V6.808H12.5661L12.41 7.61898L13.392 7.808ZM9.456 28.256L8.47403 28.067L10.2264 28.8936L9.456 28.256ZM15.792 23.648L15.3878 22.7333L15.3798 22.7369L15.792 23.648ZM36.72 24.896L36.1885 25.7431L36.1959 25.7477L36.72 24.896ZM44.496 33.248L45.3806 32.7816H45.3806L44.496 33.248ZM44.496 57.152L43.6046 56.6985L43.5984 56.7111L44.496 57.152ZM36.528 65.888L36.0022 65.0374L35.9952 65.0418L36.528 65.888ZM23.952 68.152C19.4637 68.152 15.6205 67.3418 12.3924 65.7582L11.5116 67.5538C15.0675 69.2982 19.2243 70.152 23.952 70.152V68.152ZM12.3924 65.7582C9.13917 64.1623 6.5519 61.9956 4.60696 59.2605L2.97705 60.4195C5.12811 63.4445 7.98083 65.8217 11.5116 67.5538L12.3924 65.7582ZM4.62127 59.2811C2.73049 56.4755 1.56686 53.2996 1.1368 49.7362L-0.848795 49.9758C-0.382858 53.8364 0.885507 57.3165 2.96273 60.3989L4.62127 59.2811ZM0.144 50.856H8.016V48.856H0.144V50.856ZM7.03674 50.0586C7.84908 53.9849 9.75748 57.1984 12.7588 59.654L14.0252 58.106C11.3945 55.9536 9.71892 53.1511 8.99526 49.6534L7.03674 50.0586ZM12.7695 59.6626C15.7947 62.069 19.5789 63.24 24.048 63.24V61.24C19.9411 61.24 16.6213 60.171 14.0145 58.0974L12.7695 59.6626ZM24.048 63.24C27.4057 63.24 30.3518 62.4659 32.8424 60.8747L31.7656 59.1893C29.6482 60.5421 27.0903 61.24 24.048 61.24V63.24ZM32.8587 60.8641C35.3169 59.2253 37.1956 57.0364 38.4873 54.3171L36.6807 53.4589C35.5404 55.8596 33.8991 57.7667 31.7493 59.2L32.8587 60.8641ZM38.4784 54.3352C39.8343 51.6235 40.504 48.6201 40.504 45.344H38.504C38.504 48.3399 37.8937 51.0325 36.6896 53.4408L38.4784 54.3352ZM40.504 45.344C40.504 40.1541 39.0345 35.864 36.0172 32.5723L34.5428 33.9237C37.1575 36.776 38.504 40.5499 38.504 45.344H40.504ZM36.0172 32.5723C32.9964 29.2769 29.0727 27.64 24.336 27.64V29.64C28.5593 29.64 31.9316 31.0751 34.5428 33.9237L36.0172 32.5723ZM24.336 27.64C20.4717 27.64 17.1095 28.5076 14.2965 30.2915L15.3675 31.9805C17.8025 30.4364 20.7763 29.64 24.336 29.64V27.64ZM14.2965 30.2915C11.517 32.0541 9.46164 34.3765 8.16089 37.2518L9.98311 38.0762C11.1144 35.5755 12.899 33.5459 15.3675 31.9805L14.2965 30.2915ZM9.072 36.664H1.392V38.664H9.072V36.664ZM2.38001 37.8184L8.14001 0.954372L6.16399 0.645618L0.403989 37.5096L2.38001 37.8184ZM7.152 1.8H42.384V-0.200005H7.152V1.8ZM41.384 0.799995V7.808H43.384V0.799995H41.384ZM42.384 6.808H13.392V8.808H42.384V6.808ZM12.41 7.61898L8.47403 28.067L10.438 28.445L14.374 7.99702L12.41 7.61898ZM10.2264 28.8936C11.646 27.1782 13.6243 25.7262 16.2042 24.5591L15.3798 22.7369C12.5837 24.0018 10.338 25.6218 8.68561 27.6184L10.2264 28.8936ZM16.1962 24.5627C18.8011 23.4117 21.7958 22.824 25.2 22.824V20.824C21.5642 20.824 18.2869 21.4523 15.3878 22.7333L16.1962 24.5627ZM25.2 22.824C29.4561 22.824 33.106 23.8089 36.1885 25.7431L37.2515 24.0489C33.806 21.8871 29.7759 20.824 25.2 20.824V22.824ZM36.1959 25.7477C39.3685 27.7 41.8373 30.3497 43.6114 33.7144L45.3806 32.7816C43.4427 29.1063 40.7275 26.188 37.2441 24.0443L36.1959 25.7477ZM43.6114 33.7144C45.3825 37.0734 46.28 40.9098 46.28 45.248H48.28C48.28 40.6262 47.3215 36.4626 45.3806 32.7816L43.6114 33.7144ZM46.28 45.248C46.28 49.3861 45.3858 53.1978 43.6047 56.6985L45.3873 57.6055C47.3182 53.8102 48.28 49.6859 48.28 45.248H46.28ZM43.5984 56.7111C41.8909 60.1871 39.3653 62.9584 36.0022 65.0374L37.0538 66.7386C40.7307 64.4656 43.5171 61.4129 45.3936 57.5929L43.5984 56.7111ZM35.9952 65.0418C32.729 67.0983 28.7307 68.152 23.952 68.152V70.152C29.0293 70.152 33.415 69.0297 37.0608 66.7342L35.9952 65.0418ZM58.8292 43.52H57.8293V44.52H58.8292V43.52ZM58.8292 36.704V35.704H57.8293V36.704H58.8292ZM77.1653 36.704V37.704H78.1653V36.704H77.1653ZM77.1653 19.232V18.232H76.1653V19.232H77.1653ZM84.3652 19.232H85.3652V18.232H84.3652V19.232ZM84.3652 36.704H83.3652V37.704H84.3652V36.704ZM102.701 36.704H103.701V35.704H102.701V36.704ZM102.701 43.52V44.52H103.701V43.52H102.701ZM84.3652 43.52V42.52H83.3652V43.52H84.3652ZM84.3652 61.088V62.088H85.3652V61.088H84.3652ZM77.1653 61.088H76.1653V62.088H77.1653V61.088ZM77.1653 43.52H78.1653V42.52H77.1653V43.52ZM59.8292 43.52V36.704H57.8293V43.52H59.8292ZM58.8292 37.704H77.1653V35.704H58.8292V37.704ZM78.1653 36.704V19.232H76.1653V36.704H78.1653ZM77.1653 20.232H84.3652V18.232H77.1653V20.232ZM83.3652 19.232V36.704H85.3652V19.232H83.3652ZM84.3652 37.704H102.701V35.704H84.3652V37.704ZM101.701 36.704V43.52H103.701V36.704H101.701ZM102.701 42.52H84.3652V44.52H102.701V42.52ZM83.3652 43.52V61.088H85.3652V43.52H83.3652ZM84.3652 60.088H77.1653V62.088H84.3652V60.088ZM78.1653 61.088V43.52H76.1653V61.088H78.1653ZM77.1653 42.52H58.8292V44.52H77.1653V42.52Z" fill="#78D53F"/>
</svg>
