<svg width="230" height="82" viewBox="0 0 230 82" fill="none" xmlns="http://www.w3.org/2000/svg">
<path d="M7.15229 26.4445L6.18548 26.7L6.38224 27.4445H7.15229V26.4445ZM0.492285 1.24446V0.244456H-0.806335L-0.47452 1.49997L0.492285 1.24446ZM5.42428 1.24446L6.39964 1.02382L6.22334 0.244456H5.42428V1.24446ZM9.96029 21.2965L8.98493 21.5171L10.9268 21.5533L9.96029 21.2965ZM15.2883 1.24446V0.244456H14.5193L14.3218 0.987658L15.2883 1.24446ZM20.3643 1.24446L21.3325 0.994158L21.1386 0.244456H20.3643V1.24446ZM25.5483 21.2965L24.5801 21.5468L26.5236 21.5171L25.5483 21.2965ZM30.0843 1.24446V0.244456H29.2852L29.1089 1.02382L30.0843 1.24446ZM35.0523 1.24446L36.0174 1.50641L36.3599 0.244456H35.0523V1.24446ZM28.2123 26.4445V27.4445H28.977L29.1774 26.7064L28.2123 26.4445ZM22.7403 26.4445L21.7743 26.7032L21.9729 27.4445H22.7403V26.4445ZM17.7363 7.76046L18.7022 7.50175L17.75 3.94616L16.7722 7.49483L17.7363 7.76046ZM12.5883 26.4445V27.4445H13.35L13.5524 26.7101L12.5883 26.4445ZM8.11909 26.1889L1.45909 0.988943L-0.47452 1.49997L6.18548 26.7L8.11909 26.1889ZM0.492285 2.24446H5.42428V0.244456H0.492285V2.24446ZM4.44893 1.46509L8.98493 21.5171L10.9356 21.0758L6.39964 1.02382L4.44893 1.46509ZM10.9268 21.5533L16.2548 1.50126L14.3218 0.987658L8.99382 21.0397L10.9268 21.5533ZM15.2883 2.24446H20.3643V0.244456H15.2883V2.24446ZM19.3961 1.49475L24.5801 21.5468L26.5165 21.0462L21.3325 0.994158L19.3961 1.49475ZM26.5236 21.5171L31.0596 1.46509L29.1089 1.02382L24.5729 21.0758L26.5236 21.5171ZM30.0843 2.24446H35.0523V0.244456H30.0843V2.24446ZM34.0872 0.982506L27.2472 26.1825L29.1774 26.7064L36.0174 1.50641L34.0872 0.982506ZM28.2123 25.4445H22.7403V27.4445H28.2123V25.4445ZM23.7062 26.1858L18.7022 7.50175L16.7703 8.01916L21.7743 26.7032L23.7062 26.1858ZM16.7722 7.49483L11.6242 26.1788L13.5524 26.7101L18.7004 8.02609L16.7722 7.49483ZM12.5883 25.4445H7.15229V27.4445H12.5883V25.4445ZM40.2734 25.7245L40.7565 24.8489L40.2734 25.7245ZM36.9614 12.7285L36.0851 12.2465L36.0791 12.2579L36.9614 12.7285ZM40.2014 9.38046L40.7025 10.2459L40.7071 10.2432L40.2014 9.38046ZM49.7414 9.30846L49.2453 10.1767L49.7414 9.30846ZM52.8734 12.4765L51.9985 12.9608L52.0037 12.9701L52.0091 12.9794L52.8734 12.4765ZM53.9894 17.7325L52.9929 17.6494L52.9894 17.6909V17.7325H53.9894ZM53.9534 18.6325V19.6325H54.8794L54.9505 18.7092L53.9534 18.6325ZM40.3814 18.6325V17.6325H39.3101L39.3838 18.7013L40.3814 18.6325ZM41.8214 21.9085L41.1456 22.6457L41.1558 22.6548L41.8214 21.9085ZM47.3654 22.4845L47.9127 23.3215L47.9201 23.3165L47.3654 22.4845ZM48.8054 20.8285V19.8285H48.1672L47.8984 20.4073L48.8054 20.8285ZM53.4854 20.8285L54.4438 21.1139L54.8267 19.8285H53.4854V20.8285ZM51.7934 23.9245L51.03 23.2785L51.0285 23.2803L51.7934 23.9245ZM48.9134 26.0845L48.4967 25.1754L48.4895 25.1788L48.9134 26.0845ZM42.1094 12.8725L42.6949 13.6831L42.7022 13.6779L42.7094 13.6725L42.1094 12.8725ZM40.4534 15.7525L39.4701 15.5704L39.2512 16.7525H40.4534V15.7525ZM49.3454 15.7525V16.7525H50.4085L50.3435 15.6913L49.3454 15.7525ZM48.0494 12.9445L48.7095 12.1933V12.1933L48.0494 12.9445ZM45.0614 25.8765C43.4077 25.8765 41.9819 25.525 40.7565 24.8489L39.7903 26.6C41.3489 27.4599 43.1151 27.8765 45.0614 27.8765V25.8765ZM40.7565 24.8489C39.5271 24.1706 38.5682 23.223 37.8666 21.9899L36.1282 22.979C37.0107 24.5299 38.2357 25.7423 39.7903 26.6L40.7565 24.8489ZM37.8666 21.9899C37.1717 20.7686 36.8094 19.3355 36.8094 17.6605H34.8094C34.8094 19.6334 35.2392 21.4163 36.1282 22.979L37.8666 21.9899ZM36.8094 17.6605C36.8094 15.9546 37.1627 14.476 37.8438 13.199L36.0791 12.2579C35.2241 13.8609 34.8094 15.6703 34.8094 17.6605H36.8094ZM37.8376 13.2104C38.5455 11.9234 39.4985 10.9429 40.7024 10.2459L39.7004 8.51503C38.1683 9.40203 36.9613 10.6535 36.0852 12.2465L37.8376 13.2104ZM40.7071 10.2432C41.9227 9.53061 43.3744 9.15646 45.0974 9.15646V7.15646C43.0765 7.15646 41.2642 7.59831 39.6957 8.51776L40.7071 10.2432ZM45.0974 9.15646C46.6987 9.15646 48.0714 9.50593 49.2453 10.1767L50.2375 8.44021C48.7234 7.57498 47.0001 7.15646 45.0974 7.15646V9.15646ZM49.2453 10.1767C50.4315 10.8546 51.3439 11.7783 51.9985 12.9608L53.7483 11.9921C52.9149 10.4866 51.7393 9.29835 50.2375 8.44021L49.2453 10.1767ZM52.0091 12.9794C52.6821 14.1361 53.0254 15.4366 53.0254 16.9045H55.0254C55.0254 15.1084 54.6007 13.4568 53.7378 11.9736L52.0091 12.9794ZM53.0254 16.9045C53.0254 17.1383 53.0148 17.3865 52.9929 17.6494L54.986 17.8155C55.012 17.5024 55.0254 17.1986 55.0254 16.9045H53.0254ZM52.9894 17.7325C52.9894 17.9928 52.9786 18.2671 52.9564 18.5558L54.9505 18.7092C54.9763 18.3738 54.9894 18.0481 54.9894 17.7325H52.9894ZM53.9534 17.6325H40.3814V19.6325H53.9534V17.6325ZM39.3838 18.7013C39.4938 20.2972 40.0575 21.6481 41.1457 22.6456L42.4971 21.1713C41.8573 20.5848 41.461 19.7517 41.379 18.5637L39.3838 18.7013ZM41.1558 22.6548C42.2366 23.6187 43.545 24.0965 45.0254 24.0965V22.0965C44.0098 22.0965 43.1823 21.7822 42.487 21.1622L41.1558 22.6548ZM45.0254 24.0965C46.1062 24.0965 47.0889 23.86 47.9127 23.3214L46.8182 21.6475C46.3939 21.9249 45.8166 22.0965 45.0254 22.0965V24.0965ZM47.9201 23.3165C48.7129 22.788 49.319 22.097 49.7124 21.2496L47.8984 20.4073C47.6679 20.9039 47.3139 21.3169 46.8107 21.6524L47.9201 23.3165ZM48.8054 21.8285H53.4854V19.8285H48.8054V21.8285ZM52.527 20.543C52.2321 21.5331 51.7366 22.4434 51.03 23.2785L52.5568 24.5704C53.4342 23.5335 54.0667 22.3798 54.4438 21.1139L52.527 20.543ZM51.0285 23.2803C50.3615 24.0724 49.5232 24.705 48.4968 25.1754L49.3301 26.9935C50.6077 26.408 51.6893 25.6006 52.5583 24.5686L51.0285 23.2803ZM48.4895 25.1788C47.5134 25.6357 46.3777 25.8765 45.0614 25.8765V27.8765C46.6251 27.8765 48.0574 27.5893 49.3374 26.9901L48.4895 25.1788ZM45.0974 10.9005C43.7633 10.9005 42.5546 11.2886 41.5094 12.0725L42.7094 13.6725C43.3923 13.1603 44.1755 12.9005 45.0974 12.9005V10.9005ZM41.5239 12.0618C40.4047 12.8701 39.7453 14.0845 39.4701 15.5704L41.4367 15.9345C41.6415 14.8284 42.0861 14.1228 42.6949 13.6831L41.5239 12.0618ZM40.4534 16.7525H49.3454V14.7525H40.4534V16.7525ZM50.3435 15.6913C50.2574 14.2837 49.7259 13.0865 48.7095 12.1933L47.3893 13.6956C47.9569 14.1944 48.2895 14.8692 48.3473 15.8136L50.3435 15.6913ZM48.7095 12.1933C47.7136 11.3181 46.4863 10.9005 45.0974 10.9005V12.9005C46.0605 12.9005 46.8012 13.1788 47.3893 13.6956L48.7095 12.1933ZM62.509 23.9965L63.3343 23.4318L62.0045 21.4881L61.5296 23.7948L62.509 23.9965ZM62.005 26.4445V27.4445H62.8201L62.9845 26.6461L62.005 26.4445ZM57.901 26.4445H56.901V27.4445H57.901V26.4445ZM57.901 0.524457V-0.475543H56.901V0.524457H57.901ZM62.509 0.524457H63.509V-0.475543H62.509V0.524457ZM62.509 11.1445H61.509V14.2196L63.3178 11.7326L62.509 11.1445ZM64.777 9.05646L64.247 8.2084L64.2374 8.21458L64.777 9.05646ZM72.985 9.38046L73.5109 8.52986L72.985 9.38046ZM76.117 12.7285L75.238 13.2052L76.117 12.7285ZM76.117 22.3765L76.9926 22.8595L76.9961 22.8532L76.117 22.3765ZM72.985 25.6885L73.4996 26.546L73.5109 26.5391L72.985 25.6885ZM71.149 21.3685L71.8648 22.0668L71.149 21.3685ZM71.149 13.7005L71.8732 13.0108L71.149 13.7005ZM63.841 13.7005L63.1169 13.0108L63.1165 13.0112L63.841 13.7005ZM63.841 21.3685L63.1082 22.0489L63.1166 22.058L63.1253 22.0668L63.841 21.3685ZM68.485 25.8765C67.2666 25.8765 66.2491 25.6485 65.4043 25.226L64.5098 27.0149C65.681 27.6005 67.0154 27.8765 68.485 27.8765V25.8765ZM65.4043 25.226C64.5451 24.7965 63.8604 24.2006 63.3343 23.4318L61.6837 24.5611C62.4057 25.6163 63.353 26.4365 64.5098 27.0149L65.4043 25.226ZM61.5296 23.7948L61.0256 26.2428L62.9845 26.6461L63.4885 24.1981L61.5296 23.7948ZM62.005 25.4445H57.901V27.4445H62.005V25.4445ZM58.901 26.4445V0.524457H56.901V26.4445H58.901ZM57.901 1.52446H62.509V-0.475543H57.901V1.52446ZM61.509 0.524457V11.1445H63.509V0.524457H61.509ZM63.3178 11.7326C63.8114 11.0539 64.4713 10.4402 65.3167 9.89834L64.2374 8.21458C63.2107 8.87268 62.3586 9.65106 61.7003 10.5563L63.3178 11.7326ZM65.307 9.90446C66.0631 9.43188 67.0992 9.15646 68.485 9.15646V7.15646C66.8468 7.15646 65.4109 7.48103 64.247 8.20846L65.307 9.90446ZM68.485 9.15646C69.9952 9.15646 71.3102 9.52077 72.4592 10.2311L73.5109 8.52986C72.0198 7.60814 70.3349 7.15646 68.485 7.15646V9.15646ZM72.4592 10.2311C73.6251 10.9518 74.5498 11.9364 75.238 13.2052L76.9961 12.2517C76.1482 10.6885 74.9849 9.44112 73.5109 8.52986L72.4592 10.2311ZM75.238 13.2052C75.9176 14.4583 76.269 15.8991 76.269 17.5525H78.269C78.269 15.6058 77.8524 13.8306 76.9961 12.2517L75.238 13.2052ZM76.269 17.5525C76.269 19.2058 75.9176 20.6466 75.238 21.8997L76.9961 22.8532C77.8524 21.2743 78.269 19.4991 78.269 17.5525H76.269ZM75.2415 21.8934C74.5544 23.1387 73.6293 24.1145 72.4592 24.8379L73.5109 26.5391C74.9808 25.6304 76.1437 24.3982 76.9926 22.8595L75.2415 21.8934ZM72.4705 24.831C71.32 25.5213 70.0009 25.8765 68.485 25.8765V27.8765C70.3292 27.8765 72.0101 27.4396 73.4995 26.546L72.4705 24.831ZM67.513 23.8445C69.2271 23.8445 70.7034 23.2572 71.8648 22.0668L70.4333 20.6701C69.6746 21.4477 68.727 21.8445 67.513 21.8445V23.8445ZM71.8648 22.0668C73.032 20.8704 73.589 19.3353 73.589 17.5525H71.589C71.589 18.8897 71.186 19.8985 70.4333 20.6701L71.8648 22.0668ZM73.589 17.5525C73.589 15.7693 73.0322 14.2277 71.8732 13.0108L70.4249 14.3901C71.1859 15.1892 71.589 16.2156 71.589 17.5525H73.589ZM71.8732 13.0108C70.7138 11.7934 69.2348 11.1885 67.513 11.1885V13.1885C68.7192 13.1885 69.6643 13.5915 70.4249 14.3901L71.8732 13.0108ZM67.513 11.1885C65.7724 11.1885 64.2797 11.7899 63.1169 13.0108L64.5652 14.3901C65.3224 13.595 66.2776 13.1885 67.513 13.1885V11.1885ZM63.1165 13.0112C61.9772 14.2089 61.437 15.741 61.437 17.5165H63.437C63.437 16.172 63.8328 15.16 64.5656 14.3897L63.1165 13.0112ZM61.437 17.5165C61.437 19.2924 61.9772 20.8309 63.1082 22.0489L64.5738 20.688C63.8329 19.89 63.437 18.8605 63.437 17.5165H61.437ZM63.1253 22.0668C64.29 23.2606 65.7801 23.8445 67.513 23.8445V21.8445C66.2699 21.8445 65.3121 21.4443 64.5568 20.6701L63.1253 22.0668ZM5.64029 72.6525L6.16611 71.8019L5.64029 72.6525ZM2.50829 69.3045L1.62925 69.7812L2.50829 69.3045ZM2.50829 59.6925L3.38389 60.1755L3.38732 60.1692L2.50829 59.6925ZM5.64029 56.3805L6.15483 57.238L6.16611 57.231L5.64029 56.3805ZM13.6683 55.9125L14.1155 55.018L13.6683 55.9125ZM16.1163 58.0365L15.291 58.6011L17.1163 61.2689V58.0365H16.1163ZM16.1163 47.5245V46.5245H15.1163V47.5245H16.1163ZM20.7243 47.5245H21.7243V46.5245H20.7243V47.5245ZM20.7243 73.4445V74.4445H21.7243V73.4445H20.7243ZM16.6203 73.4445L15.6392 73.6379L15.7982 74.4445H16.6203V73.4445ZM16.1163 70.8885L17.0974 70.695L16.6544 68.4484L15.3075 70.3003L16.1163 70.8885ZM13.8123 72.9765L13.2823 72.1284L13.2726 72.1346L13.8123 72.9765ZM14.7483 68.3685L14.0241 67.6788L14.0237 67.6792L14.7483 68.3685ZM14.7483 60.7005L14.0155 61.3809L14.0239 61.39L14.0325 61.3988L14.7483 60.7005ZM7.47629 60.6645L8.19207 61.3628H8.19207L7.47629 60.6645ZM7.47629 68.3325L8.20042 67.6428L7.47629 68.3325ZM10.1403 72.8765C8.63011 72.8765 7.31509 72.5121 6.16611 71.8019L5.11446 73.5031C6.60548 74.4248 8.29046 74.8765 10.1403 74.8765V72.8765ZM6.16611 71.8019C5.00019 71.0811 4.07548 70.0965 3.38732 68.8277L1.62925 69.7812C2.47709 71.3444 3.64038 72.5918 5.11446 73.5031L6.16611 71.8019ZM3.38732 68.8277C2.70768 67.5746 2.35629 66.1338 2.35629 64.4805H0.356285C0.356285 66.4271 0.772895 68.2023 1.62925 69.7812L3.38732 68.8277ZM2.35629 64.4805C2.35629 62.8267 2.70777 61.4009 3.38386 60.1755L1.63271 59.2094C0.772799 60.768 0.356285 62.5342 0.356285 64.4805H2.35629ZM3.38732 60.1692C4.07417 58.9028 4.99542 57.9336 6.15478 57.238L5.12579 55.523C3.64515 56.4113 2.4784 57.6501 1.62925 59.2157L3.38732 60.1692ZM6.16611 57.231C7.31509 56.5208 8.63011 56.1565 10.1403 56.1565V54.1565C8.29046 54.1565 6.60548 54.6081 5.11446 55.5299L6.16611 57.231ZM10.1403 56.1565C11.3587 56.1565 12.3762 56.3845 13.2211 56.8069L14.1155 55.018C12.9444 54.4325 11.6099 54.1565 10.1403 54.1565V56.1565ZM13.2211 56.8069C14.0802 57.2365 14.7649 57.8323 15.291 58.6011L16.9416 57.4718C16.2197 56.4166 15.2724 55.5965 14.1155 55.018L13.2211 56.8069ZM17.1163 58.0365V47.5245H15.1163V58.0365H17.1163ZM16.1163 48.5245H20.7243V46.5245H16.1163V48.5245ZM19.7243 47.5245V73.4445H21.7243V47.5245H19.7243ZM20.7243 72.4445H16.6203V74.4445H20.7243V72.4445ZM17.6014 73.251L17.0974 70.695L15.1352 71.0819L15.6392 73.6379L17.6014 73.251ZM15.3075 70.3003C14.8178 70.9737 14.1503 71.5859 13.2823 72.1285L14.3423 73.8245C15.3942 73.167 16.2628 72.3872 16.925 71.4766L15.3075 70.3003ZM13.2726 72.1346C12.5459 72.6004 11.5277 72.8765 10.1403 72.8765V74.8765C11.7768 74.8765 13.2066 74.5525 14.352 73.8183L13.2726 72.1346ZM11.1123 70.8445C12.8451 70.8445 14.3289 70.2602 15.4728 69.0577L14.0237 67.6792C13.2956 68.4447 12.3554 68.8445 11.1123 68.8445V70.8445ZM15.4724 69.0581C16.6314 67.8412 17.1883 66.2996 17.1883 64.5165H15.1883C15.1883 65.8533 14.7852 66.8797 14.0241 67.6788L15.4724 69.0581ZM17.1883 64.5165C17.1883 62.7337 16.6313 61.1985 15.4641 60.0021L14.0325 61.3988C14.7853 62.1704 15.1883 63.1793 15.1883 64.5165H17.1883ZM15.4811 60.02C14.3393 58.7904 12.853 58.1885 11.1123 58.1885V60.1885C12.3476 60.1885 13.2853 60.5946 14.0155 61.3809L15.4811 60.02ZM11.1123 58.1885C9.39827 58.1885 7.92188 58.7757 6.7605 59.9661L8.19207 61.3628C8.95069 60.5852 9.8983 60.1885 11.1123 60.1885V58.1885ZM6.7605 59.9661C5.59328 61.1625 5.03629 62.6977 5.03629 64.4805H7.03629C7.03629 63.1433 7.4393 62.1344 8.19207 61.3628L6.7605 59.9661ZM5.03629 64.4805C5.03629 66.2636 5.59316 67.8052 6.75215 69.0221L8.20042 67.6428C7.43941 66.8437 7.03629 65.8173 7.03629 64.4805H5.03629ZM6.75215 69.0221C7.91156 70.2395 9.39048 70.8445 11.1123 70.8445V68.8445C9.90609 68.8445 8.96101 68.4414 8.20042 67.6428L6.75215 69.0221ZM29.3047 72.7245L29.7877 71.8489L29.3047 72.7245ZM25.9927 59.7285L25.1164 59.2465L25.1103 59.2579L25.9927 59.7285ZM29.2327 56.3805L29.7337 57.2459L29.7384 57.2432L29.2327 56.3805ZM38.7727 56.3085L38.2765 57.1767L38.7727 56.3085ZM41.9047 59.4765L41.0298 59.9608L41.0349 59.9701L41.0403 59.9794L41.9047 59.4765ZM43.0207 64.7325L42.0241 64.6494L42.0207 64.6909V64.7325H43.0207ZM42.9847 65.6325V66.6325H43.9107L43.9817 65.7092L42.9847 65.6325ZM29.4127 65.6325V64.6325H28.3413L28.415 65.7013L29.4127 65.6325ZM30.8527 68.9085L30.1769 69.6457L30.187 69.6548L30.8527 68.9085ZM36.3967 69.4845L36.9439 70.3215L36.9514 70.3165L36.3967 69.4845ZM37.8367 67.8285V66.8285H37.1984L36.9297 67.4073L37.8367 67.8285ZM42.5167 67.8285L43.475 68.1139L43.858 66.8285H42.5167V67.8285ZM40.8247 70.9245L40.0613 70.2785L40.0597 70.2803L40.8247 70.9245ZM37.9447 73.0845L37.528 72.1754L37.5207 72.1788L37.9447 73.0845ZM31.1407 59.8725L31.7262 60.6831L31.7335 60.6779L31.7407 60.6725L31.1407 59.8725ZM29.4847 62.7525L28.5014 62.5704L28.2825 63.7525H29.4847V62.7525ZM38.3767 62.7525V63.7525H39.4398L39.3748 62.6913L38.3767 62.7525ZM37.0807 59.9445L37.7408 59.1933L37.0807 59.9445ZM34.0927 72.8765C32.4389 72.8765 31.0132 72.525 29.7877 71.8489L28.8216 73.6C30.3802 74.4599 32.1464 74.8765 34.0927 74.8765V72.8765ZM29.7877 71.8489C28.5583 71.1706 27.5994 70.223 26.8978 68.9899L25.1595 69.979C26.0419 71.5299 27.267 72.7423 28.8216 73.6L29.7877 71.8489ZM26.8978 68.9899C26.2029 67.7686 25.8407 66.3355 25.8407 64.6605H23.8407C23.8407 66.6334 24.2704 68.4163 25.1595 69.979L26.8978 68.9899ZM25.8407 64.6605C25.8407 62.9546 26.194 61.476 26.875 60.199L25.1103 59.2579C24.2553 60.8609 23.8407 62.6703 23.8407 64.6605H25.8407ZM26.8689 60.2104C27.5767 58.9234 28.5298 57.9429 29.7337 57.2459L28.7316 55.515C27.1995 56.402 25.9926 57.6535 25.1164 59.2465L26.8689 60.2104ZM29.7384 57.2432C30.9539 56.5306 32.4056 56.1565 34.1287 56.1565V54.1565C32.1077 54.1565 30.2954 54.5983 28.7269 55.5178L29.7384 57.2432ZM34.1287 56.1565C35.73 56.1565 37.1027 56.5059 38.2765 57.1767L39.2688 55.4402C37.7546 54.575 36.0313 54.1565 34.1287 54.1565V56.1565ZM38.2765 57.1767C39.4628 57.8546 40.3752 58.7783 41.0298 59.9608L42.7796 58.9921C41.9461 57.4866 40.7705 56.2984 39.2688 55.4402L38.2765 57.1767ZM41.0403 59.9794C41.7134 61.1361 42.0567 62.4366 42.0567 63.9045H44.0567C44.0567 62.1084 43.632 60.4568 42.769 58.9736L41.0403 59.9794ZM42.0567 63.9045C42.0567 64.1383 42.046 64.3865 42.0241 64.6494L44.0172 64.8155C44.0433 64.5024 44.0567 64.1986 44.0567 63.9045H42.0567ZM42.0207 64.7325C42.0207 64.9928 42.0098 65.2671 41.9876 65.5558L43.9817 65.7092C44.0075 65.3738 44.0207 65.0481 44.0207 64.7325H42.0207ZM42.9847 64.6325H29.4127V66.6325H42.9847V64.6325ZM28.415 65.7013C28.5251 67.2972 29.0888 68.6481 30.1769 69.6456L31.5284 68.1713C30.8885 67.5848 30.4922 66.7517 30.4103 65.5637L28.415 65.7013ZM30.187 69.6548C31.2678 70.6187 32.5763 71.0965 34.0567 71.0965V69.0965C33.041 69.0965 32.2135 68.7822 31.5183 68.1622L30.187 69.6548ZM34.0567 71.0965C35.1375 71.0965 36.1202 70.86 36.9439 70.3214L35.8494 68.6475C35.4251 68.9249 34.8478 69.0965 34.0567 69.0965V71.0965ZM36.9514 70.3165C37.7442 69.788 38.3502 69.097 38.7437 68.2496L36.9297 67.4073C36.6991 67.9039 36.3452 68.3169 35.842 68.6524L36.9514 70.3165ZM37.8367 68.8285H42.5167V66.8285H37.8367V68.8285ZM41.5583 67.543C41.2633 68.5331 40.7679 69.4434 40.0613 70.2785L41.588 71.5704C42.4654 70.5335 43.098 69.3798 43.475 68.1139L41.5583 67.543ZM40.0597 70.2803C39.3928 71.0724 38.5544 71.705 37.528 72.1754L38.3613 73.9935C39.6389 73.408 40.7205 72.6006 41.5896 71.5686L40.0597 70.2803ZM37.5207 72.1788C36.5446 72.6357 35.409 72.8765 34.0927 72.8765V74.8765C35.6564 74.8765 37.0887 74.5893 38.3686 73.9902L37.5207 72.1788ZM34.1287 57.9005C32.7946 57.9005 31.5858 58.2886 30.5407 59.0725L31.7407 60.6725C32.4235 60.1603 33.2067 59.9005 34.1287 59.9005V57.9005ZM30.5552 59.0618C29.436 59.8701 28.7765 61.0845 28.5014 62.5704L30.4679 62.9345C30.6728 61.8284 31.1174 61.1228 31.7262 60.6831L30.5552 59.0618ZM29.4847 63.7525H38.3767V61.7525H29.4847V63.7525ZM39.3748 62.6913C39.2886 61.2837 38.7572 60.0865 37.7408 59.1933L36.4205 60.6956C36.9881 61.1944 37.3207 61.8692 37.3785 62.8136L39.3748 62.6913ZM37.7408 59.1933C36.7449 58.3181 35.5175 57.9005 34.1287 57.9005V59.9005C35.0918 59.9005 35.8325 60.1788 36.4205 60.6956L37.7408 59.1933ZM51.0532 73.4445L50.1144 73.7889L50.3549 74.4445H51.0532V73.4445ZM44.5012 55.5885V54.5885H43.069L43.5624 55.9329L44.5012 55.5885ZM49.3252 55.5885L50.2731 55.27L50.0441 54.5885H49.3252V55.5885ZM53.8612 69.0885L52.9132 69.407L53.8612 72.2282L54.8091 69.407L53.8612 69.0885ZM58.3972 55.5885V54.5885H57.6782L57.4492 55.27L58.3972 55.5885ZM63.2212 55.5885L64.1593 55.9346L64.656 54.5885H63.2212V55.5885ZM56.6332 73.4445V74.4445H57.3301L57.5713 73.7906L56.6332 73.4445ZM51.992 73.1L45.44 55.244L43.5624 55.9329L50.1144 73.7889L51.992 73.1ZM44.5012 56.5885H49.3252V54.5885H44.5012V56.5885ZM48.3772 55.907L52.9132 69.407L54.8091 68.77L50.2731 55.27L48.3772 55.907ZM54.8091 69.407L59.3451 55.907L57.4492 55.27L52.9132 68.77L54.8091 69.407ZM58.3972 56.5885H63.2212V54.5885H58.3972V56.5885ZM62.283 55.2423L55.695 73.0983L57.5713 73.7906L64.1593 55.9346L62.283 55.2423ZM56.6332 72.4445H51.0532V74.4445H56.6332V72.4445ZM69.1367 72.7245L69.6198 71.8489L69.1367 72.7245ZM65.8247 59.7285L64.9484 59.2465L64.9423 59.2579L65.8247 59.7285ZM69.0647 56.3805L69.5657 57.2459L69.5704 57.2432L69.0647 56.3805ZM78.6047 56.3085L78.1086 57.1767L78.6047 56.3085ZM81.7367 59.4765L80.8618 59.9608L80.867 59.9701L80.8723 59.9794L81.7367 59.4765ZM82.8527 64.7325L81.8561 64.6494L81.8527 64.6909V64.7325H82.8527ZM82.8167 65.6325V66.6325H83.7427L83.8137 65.7092L82.8167 65.6325ZM69.2447 65.6325V64.6325H68.1733L68.2471 65.7013L69.2447 65.6325ZM70.6847 68.9085L70.0089 69.6457L70.0191 69.6548L70.6847 68.9085ZM76.2287 69.4845L76.776 70.3215L76.7834 70.3165L76.2287 69.4845ZM77.6687 67.8285V66.8285H77.0305L76.7617 67.4073L77.6687 67.8285ZM82.3487 67.8285L83.3071 68.1139L83.69 66.8285H82.3487V67.8285ZM80.6567 70.9245L79.8933 70.2785L79.8918 70.2803L80.6567 70.9245ZM77.7767 73.0845L77.36 72.1754L77.3528 72.1788L77.7767 73.0845ZM70.9727 59.8725L71.5582 60.6831L71.5655 60.6779L71.5727 60.6725L70.9727 59.8725ZM69.3167 62.7525L68.3334 62.5704L68.1145 63.7525H69.3167V62.7525ZM78.2087 62.7525V63.7525H79.2718L79.2068 62.6913L78.2087 62.7525ZM76.9127 59.9445L77.5728 59.1933L76.9127 59.9445ZM73.9247 72.8765C72.271 72.8765 70.8452 72.525 69.6198 71.8489L68.6536 73.6C70.2122 74.4599 71.9784 74.8765 73.9247 74.8765V72.8765ZM69.6198 71.8489C68.3904 71.1706 67.4314 70.223 66.7299 68.9899L64.9915 69.979C65.8739 71.5299 67.099 72.7423 68.6536 73.6L69.6198 71.8489ZM66.7299 68.9899C66.0349 67.7686 65.6727 66.3355 65.6727 64.6605H63.6727C63.6727 66.6334 64.1024 68.4163 64.9915 69.979L66.7299 68.9899ZM65.6727 64.6605C65.6727 62.9546 66.026 61.476 66.707 60.199L64.9423 59.2579C64.0874 60.8609 63.6727 62.6703 63.6727 64.6605H65.6727ZM66.7009 60.2104C67.4088 58.9234 68.3618 57.9429 69.5657 57.2459L68.5637 55.515C67.0316 56.402 65.8246 57.6535 64.9485 59.2465L66.7009 60.2104ZM69.5704 57.2432C70.7859 56.5306 72.2376 56.1565 73.9607 56.1565V54.1565C71.9398 54.1565 70.1274 54.5983 68.559 55.5178L69.5704 57.2432ZM73.9607 56.1565C75.562 56.1565 76.9347 56.5059 78.1086 57.1767L79.1008 55.4402C77.5867 54.575 75.8634 54.1565 73.9607 54.1565V56.1565ZM78.1086 57.1767C79.2948 57.8546 80.2072 58.7783 80.8618 59.9608L82.6116 58.9921C81.7782 57.4866 80.6026 56.2984 79.1008 55.4402L78.1086 57.1767ZM80.8723 59.9794C81.5454 61.1361 81.8887 62.4366 81.8887 63.9045H83.8887C83.8887 62.1084 83.464 60.4568 82.601 58.9736L80.8723 59.9794ZM81.8887 63.9045C81.8887 64.1383 81.8781 64.3865 81.8561 64.6494L83.8492 64.8155C83.8753 64.5024 83.8887 64.1986 83.8887 63.9045H81.8887ZM81.8527 64.7325C81.8527 64.9928 81.8418 65.2671 81.8196 65.5558L83.8137 65.7092C83.8395 65.3738 83.8527 65.0481 83.8527 64.7325H81.8527ZM82.8167 64.6325H69.2447V66.6325H82.8167V64.6325ZM68.2471 65.7013C68.3571 67.2972 68.9208 68.6481 70.009 69.6456L71.3604 68.1713C70.7206 67.5848 70.3243 66.7517 70.2423 65.5637L68.2471 65.7013ZM70.0191 69.6548C71.0998 70.6187 72.4083 71.0965 73.8887 71.0965V69.0965C72.8731 69.0965 72.0455 68.7822 71.3503 68.1622L70.0191 69.6548ZM73.8887 71.0965C74.9695 71.0965 75.9522 70.86 76.7759 70.3214L75.6814 68.6475C75.2572 68.9249 74.6799 69.0965 73.8887 69.0965V71.0965ZM76.7834 70.3165C77.5762 69.788 78.1822 69.097 78.5757 68.2496L76.7617 67.4073C76.5312 67.9039 76.1772 68.3169 75.674 68.6524L76.7834 70.3165ZM77.6687 68.8285H82.3487V66.8285H77.6687V68.8285ZM81.3903 67.543C81.0954 68.5331 80.5999 69.4434 79.8933 70.2785L81.4201 71.5704C82.2975 70.5335 82.93 69.3798 83.3071 68.1139L81.3903 67.543ZM79.8918 70.2803C79.2248 71.0724 78.3864 71.705 77.36 72.1754L78.1933 73.9935C79.471 73.408 80.5526 72.6006 81.4216 71.5686L79.8918 70.2803ZM77.3528 72.1788C76.3767 72.6357 75.241 72.8765 73.9247 72.8765V74.8765C75.4884 74.8765 76.9207 74.5893 78.2006 73.9902L77.3528 72.1788ZM73.9607 57.9005C72.6266 57.9005 71.4178 58.2886 70.3727 59.0725L71.5727 60.6725C72.2555 60.1603 73.0388 59.9005 73.9607 59.9005V57.9005ZM70.3872 59.0618C69.268 59.8701 68.6086 61.0845 68.3334 62.5704L70.3 62.9345C70.5048 61.8284 70.9494 61.1228 71.5582 60.6831L70.3872 59.0618ZM69.3167 63.7525H78.2087V61.7525H69.3167V63.7525ZM79.2068 62.6913C79.1206 61.2837 78.5892 60.0865 77.5728 59.1933L76.2526 60.6956C76.8202 61.1944 77.1527 61.8692 77.2106 62.8136L79.2068 62.6913ZM77.5728 59.1933C76.5769 58.3181 75.3496 57.9005 73.9607 57.9005V59.9005C74.9238 59.9005 75.6645 60.1788 76.2526 60.6956L77.5728 59.1933ZM86.7643 73.4445H85.7643V74.4445H86.7643V73.4445ZM86.7643 47.5245V46.5245H85.7643V47.5245H86.7643ZM91.3723 47.5245H92.3723V46.5245H91.3723V47.5245ZM91.3723 73.4445V74.4445H92.3723V73.4445H91.3723ZM87.7643 73.4445V47.5245H85.7643V73.4445H87.7643ZM86.7643 48.5245H91.3723V46.5245H86.7643V48.5245ZM90.3723 47.5245V73.4445H92.3723V47.5245H90.3723ZM91.3723 72.4445H86.7643V74.4445H91.3723V72.4445ZM99.9687 72.6885L99.4677 73.5539L99.4742 73.5576L99.9687 72.6885ZM96.6927 69.4125L95.82 69.9006L95.8249 69.9094L95.83 69.9182L96.6927 69.4125ZM96.7287 59.6565L97.5914 60.1622L97.5952 60.1558L96.7287 59.6565ZM100.005 56.3445L99.5102 55.4753L99.5037 55.479L100.005 56.3445ZM109.293 56.3445L108.792 57.2099L108.798 57.2136L109.293 56.3445ZM112.569 59.6565L111.696 60.1446L111.701 60.1534L111.706 60.1622L112.569 59.6565ZM112.569 69.4125L111.702 68.9132L111.7 68.9179L112.569 69.4125ZM109.293 72.6885L108.798 71.8193L109.293 72.6885ZM107.781 68.5485L108.488 69.2556L108.497 69.2461L107.781 68.5485ZM107.781 60.5205L107.064 61.2181L107.074 61.2276L107.781 60.5205ZM101.517 60.5205L100.8 59.8228L100.8 59.8231L101.517 60.5205ZM101.517 68.5485L100.791 69.2362L100.8 69.246L100.81 69.2556L101.517 68.5485ZM104.649 72.8765C103.08 72.8765 101.693 72.5188 100.463 71.8193L99.4742 73.5576C101.029 74.4421 102.761 74.8765 104.649 74.8765V72.8765ZM100.47 71.823C99.2546 71.1195 98.2859 70.1528 97.5554 68.9067L95.83 69.9182C96.7316 71.4561 97.9468 72.6734 99.4677 73.5539L100.47 71.823ZM97.5655 68.9243C96.8679 67.6772 96.5047 66.2176 96.5047 64.5165H94.5047C94.5047 66.5113 94.9335 68.3157 95.82 69.9006L97.5655 68.9243ZM96.5047 64.5165C96.5047 62.82 96.8777 61.3796 97.5914 60.1622L95.866 59.1507C94.9477 60.7173 94.5047 62.5169 94.5047 64.5165H96.5047ZM97.5952 60.1558C98.3267 58.8864 99.2948 57.9109 100.506 57.2099L99.5037 55.479C97.9786 56.362 96.7628 57.5946 95.8623 59.1572L97.5952 60.1558ZM100.499 57.2136C101.729 56.5141 103.116 56.1565 104.685 56.1565V54.1565C102.797 54.1565 101.065 54.5908 99.5102 55.4753L100.499 57.2136ZM104.685 56.1565C106.227 56.1565 107.588 56.5129 108.792 57.2099L109.794 55.479C108.262 54.592 106.55 54.1565 104.685 54.1565V56.1565ZM108.798 57.2136C110.03 57.9142 110.992 58.8855 111.696 60.1446L113.441 59.1683C112.562 57.5954 111.34 56.3587 109.787 55.4753L108.798 57.2136ZM111.706 60.1622C112.42 61.3796 112.793 62.82 112.793 64.5165H114.793C114.793 62.5169 114.35 60.7173 113.431 59.1507L111.706 60.1622ZM112.793 64.5165C112.793 66.2125 112.42 67.668 111.702 68.9132L113.435 69.9118C114.35 68.3249 114.793 66.5164 114.793 64.5165H112.793ZM111.7 68.9179C110.996 70.1536 110.034 71.1162 108.798 71.8193L109.787 73.5576C111.336 72.6767 112.557 71.4553 113.438 69.907L111.7 68.9179ZM108.798 71.8193C107.567 72.52 106.191 72.8765 104.649 72.8765V74.8765C106.515 74.8765 108.235 74.4409 109.787 73.5576L108.798 71.8193ZM104.649 70.8805C106.127 70.8805 107.422 70.3214 108.488 69.2556L107.074 67.8414C106.363 68.5515 105.57 68.8805 104.649 68.8805V70.8805ZM108.497 69.2461C109.629 68.084 110.113 66.4488 110.113 64.5165H108.113C108.113 66.1361 107.709 67.1889 107.064 67.8508L108.497 69.2461ZM110.113 64.5165C110.113 62.5863 109.63 60.955 108.488 59.8133L107.074 61.2276C107.708 61.8619 108.113 62.8946 108.113 64.5165H110.113ZM108.497 59.8228C107.438 58.7352 106.154 58.1525 104.685 58.1525V60.1525C105.567 60.1525 106.347 60.4818 107.064 61.2181L108.497 59.8228ZM104.685 58.1525C103.179 58.1525 101.868 58.7262 100.8 59.8228L102.233 61.2181C102.941 60.4908 103.742 60.1525 104.685 60.1525V58.1525ZM100.8 59.8231C99.6884 60.9656 99.2207 62.5931 99.2207 64.5165H101.221C101.221 62.8878 101.617 61.8513 102.233 61.2178L100.8 59.8231ZM99.2207 64.5165C99.2207 66.4422 99.6893 68.0735 100.791 69.2362L102.243 67.8607C101.616 67.1994 101.221 66.1428 101.221 64.5165H99.2207ZM100.81 69.2556C101.875 70.3214 103.17 70.8805 104.649 70.8805V68.8805C103.727 68.8805 102.934 68.5515 102.224 67.8414L100.81 69.2556ZM117.913 81.3645H116.913V82.3645H117.913V81.3645ZM117.913 55.5885V54.5885H116.913V55.5885H117.913ZM122.017 55.5885L122.998 55.395L122.839 54.5885H122.017V55.5885ZM122.521 58.1445L121.54 58.3379L121.983 60.5845L123.329 58.7326L122.521 58.1445ZM124.789 56.0565L124.259 55.2084L124.249 55.2146L124.789 56.0565ZM132.997 56.3805L133.523 55.5299L132.997 56.3805ZM136.129 59.7285L135.25 60.2052L136.129 59.7285ZM136.129 69.3765L137.004 69.8596L137.008 69.8532L136.129 69.3765ZM132.997 72.6885L133.511 73.546L133.523 73.5391L132.997 72.6885ZM122.521 70.9965L123.346 70.4318L121.521 67.764V70.9965H122.521ZM122.521 81.3645V82.3645H123.521V81.3645H122.521ZM131.161 68.3685L131.877 69.0668L131.161 68.3685ZM131.161 60.7005L131.885 60.0108L131.161 60.7005ZM123.853 60.7005L123.129 60.0108L123.128 60.0112L123.853 60.7005ZM123.853 68.3685L123.12 69.0489L123.128 69.058L123.137 69.0668L123.853 68.3685ZM118.913 81.3645V55.5885H116.913V81.3645H118.913ZM117.913 56.5885H122.017V54.5885H117.913V56.5885ZM121.036 55.7819L121.54 58.3379L123.502 57.951L122.998 55.395L121.036 55.7819ZM123.329 58.7326C123.823 58.0539 124.483 57.4402 125.328 56.8983L124.249 55.2146C123.222 55.8727 122.37 56.6511 121.712 57.5563L123.329 58.7326ZM125.319 56.9045C126.075 56.4319 127.111 56.1565 128.497 56.1565V54.1565C126.859 54.1565 125.423 54.481 124.259 55.2085L125.319 56.9045ZM128.497 56.1565C130.007 56.1565 131.322 56.5208 132.471 57.231L133.523 55.5299C132.032 54.6081 130.347 54.1565 128.497 54.1565V56.1565ZM132.471 57.231C133.637 57.9518 134.562 58.9364 135.25 60.2052L137.008 59.2517C136.16 57.6885 134.997 56.4411 133.523 55.5299L132.471 57.231ZM135.25 60.2052C135.929 61.4583 136.281 62.8991 136.281 64.5525H138.281C138.281 62.6058 137.864 60.8306 137.008 59.2517L135.25 60.2052ZM136.281 64.5525C136.281 66.2058 135.929 67.6466 135.25 68.8997L137.008 69.8532C137.864 68.2743 138.281 66.4991 138.281 64.5525H136.281ZM135.253 68.8934C134.566 70.1387 133.641 71.1145 132.471 71.8379L133.523 73.5391C134.993 72.6304 136.155 71.3982 137.004 69.8595L135.253 68.8934ZM132.482 71.831C131.332 72.5213 130.013 72.8765 128.497 72.8765V74.8765C130.341 74.8765 132.022 74.4396 133.511 73.546L132.482 71.831ZM128.497 72.8765C127.278 72.8765 126.261 72.6485 125.416 72.226L124.522 74.0149C125.693 74.6005 127.027 74.8765 128.497 74.8765V72.8765ZM125.416 72.226C124.557 71.7965 123.872 71.2006 123.346 70.4318L121.695 71.5611C122.417 72.6163 123.365 73.4365 124.522 74.0149L125.416 72.226ZM121.521 70.9965V81.3645H123.521V70.9965H121.521ZM122.521 80.3645H117.913V82.3645H122.521V80.3645ZM127.525 70.8445C129.239 70.8445 130.715 70.2572 131.877 69.0668L130.445 67.6701C129.686 68.4477 128.739 68.8445 127.525 68.8445V70.8445ZM131.877 69.0668C133.044 67.8704 133.601 66.3353 133.601 64.5525H131.601C131.601 65.8897 131.198 66.8985 130.445 67.6701L131.877 69.0668ZM133.601 64.5525C133.601 62.7693 133.044 61.2277 131.885 60.0108L130.437 61.3901C131.198 62.1892 131.601 63.2156 131.601 64.5525H133.601ZM131.885 60.0108C130.725 58.7934 129.247 58.1885 127.525 58.1885V60.1885C128.731 60.1885 129.676 60.5915 130.437 61.3901L131.885 60.0108ZM127.525 58.1885C125.784 58.1885 124.291 58.7899 123.129 60.0108L124.577 61.3901C125.334 60.595 126.289 60.1885 127.525 60.1885V58.1885ZM123.128 60.0112C121.989 61.2089 121.449 62.741 121.449 64.5165H123.449C123.449 63.172 123.845 62.16 124.577 61.3897L123.128 60.0112ZM121.449 64.5165C121.449 66.2924 121.989 67.8309 123.12 69.0489L124.586 67.688C123.845 66.8901 123.449 65.8605 123.449 64.5165H121.449ZM123.137 69.0668C124.302 70.2606 125.792 70.8445 127.525 70.8445V68.8445C126.282 68.8445 125.324 68.4443 124.569 67.6701L123.137 69.0668ZM141.397 73.4445H140.397V74.4445H141.397V73.4445ZM141.397 55.5885V54.5885H140.397V55.5885H141.397ZM145.465 55.5885L146.452 55.4264L146.314 54.5885H145.465V55.5885ZM145.861 58.0005L144.874 58.1625L145.285 60.6667L146.693 58.5552L145.861 58.0005ZM148.129 55.9485L148.603 56.829L148.611 56.8247L148.129 55.9485ZM157.309 58.3605L156.429 58.8351L157.224 60.3085L158.144 58.9104L157.309 58.3605ZM159.901 56.0205L159.439 55.1338L159.431 55.1381L159.901 56.0205ZM168.865 57.2445L169.61 56.5769L168.865 57.2445ZM170.737 73.4445V74.4445H171.737V73.4445H170.737ZM166.129 73.4445H165.129V74.4445H166.129V73.4445ZM165.229 60.2685L164.412 60.8451L164.418 60.8531L164.423 60.8608L165.229 60.2685ZM159.505 60.4125L158.74 59.7683L158.735 59.7743L158.73 59.7803L159.505 60.4125ZM158.389 73.4445V74.4445H159.389V73.4445H158.389ZM153.781 73.4445H152.781V74.4445H153.781V73.4445ZM152.881 60.2685L152.075 60.8608L152.881 60.2685ZM147.121 60.4125L146.356 59.7683L146.351 59.7743L146.346 59.7803L147.121 60.4125ZM146.005 73.4445V74.4445H147.005V73.4445H146.005ZM142.397 73.4445V55.5885H140.397V73.4445H142.397ZM141.397 56.5885H145.465V54.5885H141.397V56.5885ZM144.478 55.7505L144.874 58.1625L146.848 57.8384L146.452 55.4264L144.478 55.7505ZM146.693 58.5552C147.176 57.8307 147.808 57.2572 148.603 56.8289L147.655 55.068C146.578 55.6477 145.698 56.4422 145.029 57.4458L146.693 58.5552ZM148.611 56.8247C149.404 56.3886 150.338 56.1565 151.441 56.1565V54.1565C150.048 54.1565 148.774 54.4523 147.647 55.0722L148.611 56.8247ZM151.441 56.1565C153.895 56.1565 155.479 57.0734 156.429 58.8351L158.189 57.8858C156.835 55.3755 154.507 54.1565 151.441 54.1565V56.1565ZM158.144 58.9104C158.697 58.0715 159.433 57.4034 160.372 56.9028L159.431 55.1381C158.209 55.7895 157.217 56.6814 156.474 57.8105L158.144 58.9104ZM160.364 56.907C161.319 56.4086 162.359 56.1565 163.501 56.1565V54.1565C162.051 54.1565 160.691 54.4803 159.439 55.1339L160.364 56.907ZM163.501 56.1565C165.62 56.1565 167.107 56.7816 168.121 57.912L169.61 56.5769C168.127 54.9233 166.038 54.1565 163.501 54.1565V56.1565ZM168.121 57.912C169.145 59.0542 169.737 60.8162 169.737 63.3645H171.737C171.737 60.5367 171.082 58.2187 169.61 56.5769L168.121 57.912ZM169.737 63.3645V73.4445H171.737V63.3645H169.737ZM170.737 72.4445H166.129V74.4445H170.737V72.4445ZM167.129 73.4445V63.7965H165.129V73.4445H167.129ZM167.129 63.7965C167.129 62.1513 166.811 60.7319 166.035 59.6761L164.423 60.8608C164.847 61.437 165.129 62.3696 165.129 63.7965H167.129ZM166.046 59.6918C165.24 58.5493 163.995 58.0445 162.529 58.0445V60.0445C163.511 60.0445 164.067 60.3557 164.412 60.8451L166.046 59.6918ZM162.529 58.0445C161.002 58.0445 159.708 58.6189 158.74 59.7683L160.27 61.0566C160.838 60.382 161.56 60.0445 162.529 60.0445V58.0445ZM158.73 59.7803C157.793 60.9289 157.389 62.4542 157.389 64.2285H159.389C159.389 62.7387 159.729 61.72 160.28 61.0446L158.73 59.7803ZM157.389 64.2285V73.4445H159.389V64.2285H157.389ZM158.389 72.4445H153.781V74.4445H158.389V72.4445ZM154.781 73.4445V63.7965H152.781V73.4445H154.781ZM154.781 63.7965C154.781 62.1513 154.463 60.7319 153.687 59.6761L152.075 60.8608C152.499 61.437 152.781 62.3696 152.781 63.7965H154.781ZM153.687 59.6761C152.854 58.5438 151.593 58.0445 150.109 58.0445V60.0445C151.122 60.0445 151.708 60.3611 152.075 60.8608L153.687 59.6761ZM150.109 58.0445C148.599 58.0445 147.32 58.6239 146.356 59.7683L147.886 61.0566C148.458 60.377 149.171 60.0445 150.109 60.0445V58.0445ZM146.346 59.7803C145.409 60.9289 145.005 62.4542 145.005 64.2285H147.005C147.005 62.7387 147.345 61.72 147.896 61.0446L146.346 59.7803ZM145.005 64.2285V73.4445H147.005V64.2285H145.005ZM146.005 72.4445H141.397V74.4445H146.005V72.4445ZM179 72.7245L179.483 71.8489L179 72.7245ZM175.688 59.7285L174.812 59.2465L174.806 59.2579L175.688 59.7285ZM178.928 56.3805L179.429 57.2459L179.434 57.2432L178.928 56.3805ZM188.468 56.3085L187.972 57.1767L188.468 56.3085ZM191.6 59.4765L190.725 59.9608L190.73 59.9701L190.736 59.9794L191.6 59.4765ZM192.716 64.7325L191.719 64.6494L191.716 64.6909V64.7325H192.716ZM192.68 65.6325V66.6325H193.606L193.677 65.7092L192.68 65.6325ZM179.108 65.6325V64.6325H178.037L178.11 65.7013L179.108 65.6325ZM180.548 68.9085L179.872 69.6457L179.882 69.6548L180.548 68.9085ZM186.092 69.4845L186.639 70.3215L186.647 70.3165L186.092 69.4845ZM187.532 67.8285V66.8285H186.894L186.625 67.4073L187.532 67.8285ZM192.212 67.8285L193.17 68.1139L193.553 66.8285H192.212V67.8285ZM190.52 70.9245L189.757 70.2785L189.755 70.2803L190.52 70.9245ZM187.64 73.0845L187.223 72.1754L187.216 72.1788L187.64 73.0845ZM180.836 59.8725L181.421 60.6831L181.429 60.6779L181.436 60.6725L180.836 59.8725ZM179.18 62.7525L178.197 62.5704L177.978 63.7525H179.18V62.7525ZM188.072 62.7525V63.7525H189.135L189.07 62.6913L188.072 62.7525ZM186.776 59.9445L187.436 59.1933L186.776 59.9445ZM183.788 72.8765C182.134 72.8765 180.708 72.525 179.483 71.8489L178.517 73.6C180.075 74.4599 181.842 74.8765 183.788 74.8765V72.8765ZM179.483 71.8489C178.254 71.1706 177.295 70.223 176.593 68.9899L174.855 69.979C175.737 71.5299 176.962 72.7423 178.517 73.6L179.483 71.8489ZM176.593 68.9899C175.898 67.7686 175.536 66.3355 175.536 64.6605H173.536C173.536 66.6334 173.966 68.4163 174.855 69.979L176.593 68.9899ZM175.536 64.6605C175.536 62.9546 175.889 61.476 176.57 60.199L174.806 59.2579C173.951 60.8609 173.536 62.6703 173.536 64.6605H175.536ZM176.564 60.2104C177.272 58.9234 178.225 57.9429 179.429 57.2459L178.427 55.515C176.895 56.402 175.688 57.6535 174.812 59.2465L176.564 60.2104ZM179.434 57.2432C180.649 56.5306 182.101 56.1565 183.824 56.1565V54.1565C181.803 54.1565 179.991 54.5983 178.422 55.5178L179.434 57.2432ZM183.824 56.1565C185.425 56.1565 186.798 56.5059 187.972 57.1767L188.964 55.4402C187.45 54.575 185.727 54.1565 183.824 54.1565V56.1565ZM187.972 57.1767C189.158 57.8546 190.07 58.7783 190.725 59.9608L192.475 58.9921C191.641 57.4866 190.466 56.2984 188.964 55.4402L187.972 57.1767ZM190.736 59.9794C191.409 61.1361 191.752 62.4366 191.752 63.9045H193.752C193.752 62.1084 193.327 60.4568 192.464 58.9736L190.736 59.9794ZM191.752 63.9045C191.752 64.1383 191.741 64.3865 191.719 64.6494L193.713 64.8155C193.739 64.5024 193.752 64.1986 193.752 63.9045H191.752ZM191.716 64.7325C191.716 64.9928 191.705 65.2671 191.683 65.5558L193.677 65.7092C193.703 65.3738 193.716 65.0481 193.716 64.7325H191.716ZM192.68 64.6325H179.108V66.6325H192.68V64.6325ZM178.11 65.7013C178.22 67.2972 178.784 68.6481 179.872 69.6456L181.224 68.1713C180.584 67.5848 180.188 66.7517 180.106 65.5637L178.11 65.7013ZM179.882 69.6548C180.963 70.6187 182.272 71.0965 183.752 71.0965V69.0965C182.736 69.0965 181.909 68.7822 181.214 68.1622L179.882 69.6548ZM183.752 71.0965C184.833 71.0965 185.815 70.86 186.639 70.3214L185.545 68.6475C185.12 68.9249 184.543 69.0965 183.752 69.0965V71.0965ZM186.647 70.3165C187.439 69.788 188.046 69.097 188.439 68.2496L186.625 67.4073C186.394 67.9039 186.04 68.3169 185.537 68.6524L186.647 70.3165ZM187.532 68.8285H192.212V66.8285H187.532V68.8285ZM191.254 67.543C190.959 68.5331 190.463 69.4434 189.757 70.2785L191.283 71.5704C192.161 70.5335 192.793 69.3798 193.17 68.1139L191.254 67.543ZM189.755 70.2803C189.088 71.0724 188.25 71.705 187.223 72.1754L188.057 73.9935C189.334 73.408 190.416 72.6006 191.285 71.5686L189.755 70.2803ZM187.216 72.1788C186.24 72.6357 185.104 72.8765 183.788 72.8765V74.8765C185.352 74.8765 186.784 74.5893 188.064 73.9902L187.216 72.1788ZM183.824 57.9005C182.49 57.9005 181.281 58.2886 180.236 59.0725L181.436 60.6725C182.119 60.1603 182.902 59.9005 183.824 59.9005V57.9005ZM180.25 59.0618C179.131 59.8701 178.472 61.0845 178.197 62.5704L180.163 62.9345C180.368 61.8284 180.813 61.1228 181.421 60.6831L180.25 59.0618ZM179.18 63.7525H188.072V61.7525H179.18V63.7525ZM189.07 62.6913C188.984 61.2837 188.452 60.0865 187.436 59.1933L186.116 60.6956C186.683 61.1944 187.016 61.8692 187.074 62.8136L189.07 62.6913ZM187.436 59.1933C186.44 58.3181 185.213 57.9005 183.824 57.9005V59.9005C184.787 59.9005 185.528 60.1788 186.116 60.6956L187.436 59.1933ZM196.628 73.4445H195.628V74.4445H196.628V73.4445ZM196.628 55.5885V54.5885H195.628V55.5885H196.628ZM200.696 55.5885L201.689 55.4702L201.584 54.5885H200.696V55.5885ZM201.056 58.6125L200.063 58.7307L200.445 61.9399L201.942 59.0757L201.056 58.6125ZM203.432 56.0925L202.923 55.2315L202.914 55.2367L203.432 56.0925ZM212.288 57.2445L211.537 57.9048L212.288 57.2445ZM214.124 73.4445V74.4445H215.124V73.4445H214.124ZM209.516 73.4445H208.516V74.4445H209.516V73.4445ZM208.58 60.2685L209.374 59.661V59.661L208.58 60.2685ZM202.46 60.4125L201.724 59.735L201.719 59.7403L201.714 59.7457L202.46 60.4125ZM201.236 73.4445V74.4445H202.236V73.4445H201.236ZM197.628 73.4445V55.5885H195.628V73.4445H197.628ZM196.628 56.5885H200.696V54.5885H196.628V56.5885ZM199.703 55.7067L200.063 58.7307L202.049 58.4942L201.689 55.4702L199.703 55.7067ZM201.942 59.0757C202.408 58.1839 203.072 57.4788 203.949 56.9482L202.914 55.2367C201.728 55.9542 200.807 56.9291 200.169 58.1492L201.942 59.0757ZM203.94 56.9534C204.82 56.4337 205.875 56.1565 207.14 56.1565V54.1565C205.573 54.1565 204.155 54.5032 202.923 55.2315L203.94 56.9534ZM207.14 56.1565C209.12 56.1565 210.539 56.7702 211.537 57.9048L213.039 56.5841C211.588 54.9348 209.575 54.1565 207.14 54.1565V56.1565ZM211.537 57.9048C212.541 59.0471 213.124 60.812 213.124 63.3645H215.124C215.124 60.5409 214.482 58.2258 213.039 56.5841L211.537 57.9048ZM213.124 63.3645V73.4445H215.124V63.3645H213.124ZM214.124 72.4445H209.516V74.4445H214.124V72.4445ZM210.516 73.4445V63.7965H208.516V73.4445H210.516ZM210.516 63.7965C210.516 62.1446 210.183 60.719 209.374 59.661L207.785 60.8759C208.224 61.45 208.516 62.3763 208.516 63.7965H210.516ZM209.374 59.661C208.509 58.5294 207.198 58.0445 205.664 58.0445V60.0445C206.769 60.0445 207.403 60.3755 207.785 60.8759L209.374 59.661ZM205.664 58.0445C204.102 58.0445 202.763 58.6071 201.724 59.735L203.195 61.0899C203.836 60.3938 204.633 60.0445 205.664 60.0445V58.0445ZM201.714 59.7457C200.686 60.8949 200.236 62.4338 200.236 64.2285H202.236C202.236 62.7591 202.601 61.754 203.205 61.0793L201.714 59.7457ZM200.236 64.2285V73.4445H202.236V64.2285H200.236ZM201.236 72.4445H196.628V74.4445H201.236V72.4445ZM221.986 72.0765L222.615 71.2988L221.986 72.0765ZM220.294 59.4405H221.294V58.4405H220.294V59.4405ZM217.234 59.4405H216.234V60.4405H217.234V59.4405ZM217.234 55.5885V54.5885H216.234V55.5885H217.234ZM220.294 55.5885V56.5885H221.188L221.288 55.7005L220.294 55.5885ZM220.834 50.8005V49.8005H219.94L219.84 50.6884L220.834 50.8005ZM224.902 50.8005H225.902V49.8005H224.902V50.8005ZM224.902 55.5885H223.902V56.5885H224.902V55.5885ZM229.726 55.5885H230.726V54.5885H229.726V55.5885ZM229.726 59.4405V60.4405H230.726V59.4405H229.726ZM224.902 59.4405V58.4405H223.902V59.4405H224.902ZM225.442 69.0525L224.76 69.7835L224.785 69.8069L224.811 69.8286L225.442 69.0525ZM229.618 69.5205H230.618V68.5205H229.618V69.5205ZM229.618 73.4445V74.4445H230.618V73.4445H229.618ZM226.486 72.4445C224.775 72.4445 223.519 72.0296 222.615 71.2988L221.357 72.8541C222.709 73.9473 224.452 74.4445 226.486 74.4445V72.4445ZM222.615 71.2988C221.833 70.6672 221.294 69.4241 221.294 67.2165H219.294C219.294 69.6648 219.882 71.6617 221.357 72.8541L222.615 71.2988ZM221.294 67.2165V59.4405H219.294V67.2165H221.294ZM220.294 58.4405H217.234V60.4405H220.294V58.4405ZM218.234 59.4405V55.5885H216.234V59.4405H218.234ZM217.234 56.5885H220.294V54.5885H217.234V56.5885ZM221.288 55.7005L221.828 50.9125L219.84 50.6884L219.3 55.4764L221.288 55.7005ZM220.834 51.8005H224.902V49.8005H220.834V51.8005ZM223.902 50.8005V55.5885H225.902V50.8005H223.902ZM224.902 56.5885H229.726V54.5885H224.902V56.5885ZM228.726 55.5885V59.4405H230.726V55.5885H228.726ZM229.726 58.4405H224.902V60.4405H229.726V58.4405ZM223.902 59.4405V67.2525H225.902V59.4405H223.902ZM223.902 67.2525C223.902 68.1983 224.089 69.1571 224.76 69.7835L226.124 68.3214C226.075 68.2758 225.902 68.0346 225.902 67.2525H223.902ZM224.811 69.8286C225.472 70.365 226.414 70.5205 227.386 70.5205V68.5205C226.534 68.5205 226.18 68.3639 226.073 68.2763L224.811 69.8286ZM227.386 70.5205H229.618V68.5205H227.386V70.5205ZM228.618 69.5205V73.4445H230.618V69.5205H228.618ZM229.618 72.4445H226.486V74.4445H229.618V72.4445Z" fill="white"/>
</svg>
