<svg width="146" height="75" viewBox="0 0 146 75" fill="none" xmlns="http://www.w3.org/2000/svg">
<path d="M1.12232 26.8427H0.122317V27.8427H1.12232V26.8427ZM1.12232 1.64265V0.64265H0.122317V1.64265H1.12232ZM16.9983 3.22665L16.5117 4.10029L16.5183 4.10393L16.5249 4.10748L16.9983 3.22665ZM21.2463 7.61865L20.3451 8.05212L20.3485 8.05902L20.3519 8.06586L21.2463 7.61865ZM21.2463 20.9027L20.3496 20.46L20.3473 20.4647L21.2463 20.9027ZM16.9983 25.2947L17.4764 26.173L17.4802 26.1709L16.9983 25.2947ZM5.73032 22.8827H4.73032V23.8827H5.73032V22.8827ZM14.5143 21.8747L14.9956 22.7512L15.0021 22.7476L15.0086 22.7439L14.5143 21.8747ZM17.1423 18.9227L18.0659 19.306L18.0684 19.2999L17.1423 18.9227ZM17.1423 9.59865L16.2162 9.97595L17.1423 9.59865ZM5.73032 5.56665V4.56665H4.73032V5.56665H5.73032ZM2.12232 26.8427V1.64265H0.122317V26.8427H2.12232ZM1.12232 2.64265H9.72632V0.64265H1.12232V2.64265ZM9.72632 2.64265C12.5667 2.64265 14.8085 3.15168 16.5117 4.10029L17.4849 2.35302C15.3961 1.18962 12.7899 0.64265 9.72632 0.64265V2.64265ZM16.5249 4.10748C18.2658 5.0432 19.5283 6.35394 20.3451 8.05212L22.1475 7.18518C21.1403 5.09136 19.5709 3.4741 17.4718 2.34583L16.5249 4.10748ZM20.3519 8.06586C21.2051 9.77225 21.6503 11.8209 21.6503 14.2427H23.6503C23.6503 11.5764 23.1596 9.20905 22.1407 7.17144L20.3519 8.06586ZM21.6503 14.2427C21.6503 16.6639 21.2052 18.7268 20.3496 20.46L22.143 21.3453C23.1594 19.2865 23.6503 16.9094 23.6503 14.2427H21.6503ZM20.3473 20.4647C19.5307 22.141 18.2655 23.4564 16.5164 24.4184L17.4802 26.1709C19.5711 25.0209 21.138 23.4083 22.1453 21.3406L20.3473 20.4647ZM16.5202 24.4163C14.8149 25.3445 12.5698 25.8427 9.72632 25.8427V27.8427C12.7868 27.8427 15.3897 27.3088 17.4764 26.173L16.5202 24.4163ZM9.72632 25.8427H1.12232V27.8427H9.72632V25.8427ZM5.73032 23.8827H9.51032V21.8827H5.73032V23.8827ZM9.51032 23.8827C11.7113 23.8827 13.5675 23.5353 14.9956 22.7512L14.0331 20.9981C13.0132 21.558 11.5333 21.8827 9.51032 21.8827V23.8827ZM15.0086 22.7439C16.421 21.9408 17.4507 20.7881 18.0659 19.306L16.2187 18.5393C15.7779 19.6012 15.0556 20.4165 14.02 21.0054L15.0086 22.7439ZM18.0684 19.2999C18.6576 17.8538 18.9343 16.1587 18.9343 14.2427H16.9343C16.9343 15.9746 16.6831 17.3995 16.2162 18.5454L18.0684 19.2999ZM18.9343 14.2427C18.9343 12.3487 18.657 10.6661 18.0684 9.22135L16.2162 9.97595C16.6836 11.1232 16.9343 12.5366 16.9343 14.2427H18.9343ZM18.0684 9.22135C17.4552 7.71617 16.4264 6.54753 15.0086 5.74136L14.02 7.47994C15.0503 8.06577 15.7734 8.88913 16.2162 9.97595L18.0684 9.22135ZM15.0086 5.74136C13.577 4.92729 11.7155 4.56665 9.51032 4.56665V6.56665C11.5291 6.56665 13.0037 6.90201 14.02 7.47994L15.0086 5.74136ZM9.51032 4.56665H5.73032V6.56665H9.51032V4.56665ZM4.73032 5.56665V22.8827H6.73032V5.56665H4.73032ZM30.4961 26.1227L30.9791 25.2471L30.4961 26.1227ZM27.1841 13.1267L26.3078 12.6447L26.3017 12.6561L27.1841 13.1267ZM30.4241 9.77865L30.9251 10.6441L30.9298 10.6413L30.4241 9.77865ZM39.9641 9.70665L39.4679 10.5749L39.9641 9.70665ZM43.0961 12.8747L42.2212 13.359L42.2263 13.3683L42.2317 13.3775L43.0961 12.8747ZM44.2121 18.1307L43.2155 18.0476L43.2121 18.0891V18.1307H44.2121ZM44.1761 19.0307V20.0307H45.1021L45.1731 19.1073L44.1761 19.0307ZM30.6041 19.0307V18.0307H29.5327L29.6064 19.0995L30.6041 19.0307ZM32.0441 22.3067L31.3683 23.0439L31.3785 23.0529L32.0441 22.3067ZM37.5881 22.8827L38.1353 23.7197L38.1428 23.7147L37.5881 22.8827ZM39.0281 21.2267V20.2267H38.3898L38.1211 20.8055L39.0281 21.2267ZM43.7081 21.2267L44.6665 21.5121L45.0494 20.2267H43.7081V21.2267ZM42.0161 24.3227L41.2527 23.6767L41.2512 23.6785L42.0161 24.3227ZM39.1361 26.4827L38.7194 25.5736L38.7121 25.577L39.1361 26.4827ZM32.3321 13.2707L32.9176 14.0813L32.9249 14.0761L32.9321 14.0707L32.3321 13.2707ZM30.6761 16.1507L29.6928 15.9686L29.4739 17.1507H30.6761V16.1507ZM39.5681 16.1507V17.1507H40.6312L40.5662 16.0895L39.5681 16.1507ZM38.2721 13.3426L38.9322 12.5915V12.5915L38.2721 13.3426ZM35.2841 26.2747C33.6303 26.2747 32.2046 25.9232 30.9791 25.2471L30.013 26.9982C31.5716 27.8581 33.3378 28.2747 35.2841 28.2747V26.2747ZM30.9791 25.2471C29.7497 24.5688 28.7908 23.6212 28.0892 22.3881L26.3509 23.3772C27.2333 24.9281 28.4584 26.1405 30.013 26.9982L30.9791 25.2471ZM28.0892 22.3881C27.3943 21.1668 27.0321 19.7337 27.0321 18.0587H25.0321C25.0321 20.0316 25.4618 21.8145 26.3509 23.3772L28.0892 22.3881ZM27.0321 18.0587C27.0321 16.3528 27.3854 14.8742 28.0664 13.5972L26.3017 12.6561C25.4467 14.2591 25.0321 16.0685 25.0321 18.0587H27.0321ZM28.0603 13.6086C28.7681 12.3216 29.7212 11.3411 30.9251 10.6441L29.923 8.91322C28.3909 9.80022 27.184 11.0517 26.3078 12.6447L28.0603 13.6086ZM30.9298 10.6413C32.1453 9.9288 33.597 9.55465 35.3201 9.55465V7.55465C33.2991 7.55465 31.4868 7.9965 29.9183 8.91595L30.9298 10.6413ZM35.3201 9.55465C36.9214 9.55465 38.2941 9.90413 39.4679 10.5749L40.4602 8.83841C38.9461 7.97318 37.2227 7.55465 35.3201 7.55465V9.55465ZM39.4679 10.5749C40.6542 11.2528 41.5666 12.1765 42.2212 13.359L43.971 12.3903C43.1375 10.8848 41.9619 9.69655 40.4602 8.83841L39.4679 10.5749ZM42.2317 13.3775C42.9048 14.5343 43.2481 15.8348 43.2481 17.3027H45.2481C45.2481 15.5065 44.8234 13.855 43.9604 12.3718L42.2317 13.3775ZM43.2481 17.3027C43.2481 17.5365 43.2374 17.7847 43.2155 18.0476L45.2086 18.2137C45.2347 17.9006 45.2481 17.5968 45.2481 17.3027H43.2481ZM43.2121 18.1307C43.2121 18.391 43.2012 18.6653 43.179 18.954L45.1731 19.1073C45.1989 18.772 45.2121 18.4463 45.2121 18.1307H43.2121ZM44.1761 18.0307H30.6041V20.0307H44.1761V18.0307ZM29.6064 19.0995C29.7165 20.6954 30.2802 22.0463 31.3683 23.0438L32.7198 21.5695C32.08 20.983 31.6836 20.1499 31.6017 18.9618L29.6064 19.0995ZM31.3785 23.0529C32.4592 24.0169 33.7677 24.4947 35.2481 24.4947V22.4947C34.2324 22.4947 33.4049 22.1804 32.7097 21.5604L31.3785 23.0529ZM35.2481 24.4947C36.3289 24.4947 37.3116 24.2582 38.1353 23.7196L37.0408 22.0457C36.6166 22.3231 36.0393 22.4947 35.2481 22.4947V24.4947ZM38.1428 23.7147C38.9356 23.1862 39.5416 22.4952 39.9351 21.6478L38.1211 20.8055C37.8905 21.3021 37.5366 21.7151 37.0334 22.0506L38.1428 23.7147ZM39.0281 22.2267H43.7081V20.2267H39.0281V22.2267ZM42.7497 20.9412C42.4547 21.9313 41.9593 22.8416 41.2527 23.6767L42.7795 24.9686C43.6568 23.9317 44.2894 22.778 44.6665 21.5121L42.7497 20.9412ZM41.2512 23.6785C40.5842 24.4705 39.7458 25.1032 38.7194 25.5736L39.5527 27.3917C40.8303 26.8061 41.912 25.9988 42.781 24.9668L41.2512 23.6785ZM38.7121 25.577C37.736 26.0339 36.6004 26.2747 35.2841 26.2747V28.2747C36.8478 28.2747 38.2801 27.9874 39.56 27.3883L38.7121 25.577ZM35.3201 11.2987C33.986 11.2987 32.7772 11.6868 31.7321 12.4707L32.9321 14.0707C33.6149 13.5585 34.3981 13.2987 35.3201 13.2987V11.2987ZM31.7466 12.46C30.6274 13.2683 29.9679 14.4827 29.6928 15.9686L31.6593 16.3327C31.8642 15.2266 32.3088 14.521 32.9176 14.0813L31.7466 12.46ZM30.6761 17.1507H39.5681V15.1507H30.6761V17.1507ZM40.5662 16.0895C40.48 14.6819 39.9486 13.4847 38.9322 12.5915L37.612 14.0938C38.1795 14.5926 38.5121 15.2674 38.5699 16.2118L40.5662 16.0895ZM38.9322 12.5915C37.9363 11.7163 36.7089 11.2987 35.3201 11.2987V13.2987C36.2832 13.2987 37.0239 13.577 37.612 14.0938L38.9322 12.5915ZM51.3277 26.5187L50.925 27.434L50.9327 27.4374L50.9405 27.4406L51.3277 26.5187ZM48.4477 24.3587L47.6628 24.9783L48.4477 24.3587ZM47.1517 21.1907V20.1907H46.0245L46.1588 21.3098L47.1517 21.1907ZM51.7957 21.1907L52.775 20.988L52.61 20.1907H51.7957V21.1907ZM52.9477 22.9907L52.3194 23.7686L52.3356 23.7817L52.3525 23.7942L52.9477 22.9907ZM57.6277 23.0987L56.98 22.3367L56.9704 22.3449L56.9609 22.3534L57.6277 23.0987ZM57.3397 20.1467L56.9458 21.0658L56.9598 21.0718L56.974 21.0774L57.3397 20.1467ZM54.5317 19.3187L54.7466 18.342L54.7454 18.3418L54.5317 19.3187ZM52.1917 18.7067L51.9017 19.6637L52.1917 18.7067ZM49.9957 17.8067L49.4859 18.6669L49.5045 18.6779L49.5235 18.6881L49.9957 17.8067ZM48.4117 16.3667L47.5848 16.929L47.5901 16.9369L47.5957 16.9447L48.4117 16.3667ZM49.6717 10.1747L49.0244 9.41232L49.0173 9.41848L49.6717 10.1747ZM60.0397 10.0307L59.4205 10.816L59.4278 10.8216L60.0397 10.0307ZM62.3077 14.0987V15.0987H63.4562L63.2982 13.9611L62.3077 14.0987ZM57.9517 14.0987L56.9711 14.2948L57.1319 15.0987H57.9517V14.0987ZM52.9477 12.6227L52.3742 11.8034L52.3643 11.8104L52.3545 11.8176L52.9477 12.6227ZM56.0797 16.0067L56.3046 15.0323L56.3031 15.0319L56.0797 16.0067ZM59.4997 16.9787L59.1703 17.9229L59.1833 17.9274L59.1965 17.9316L59.4997 16.9787ZM62.0197 18.5267L61.2751 19.1942L61.281 19.2007L61.2869 19.2071L62.0197 18.5267ZM62.9557 21.4427H61.9557V21.4535L61.9559 21.4644L62.9557 21.4427ZM62.0917 24.4307L61.2631 23.8708L62.0917 24.4307ZM59.4997 26.5187L59.0918 25.6056L59.4997 26.5187ZM55.5037 26.2747C54.0245 26.2747 52.7688 26.0393 51.7149 25.5967L50.9405 27.4406C52.2866 28.006 53.8148 28.2747 55.5037 28.2747V26.2747ZM51.7304 25.6033C50.6606 25.1326 49.8389 24.507 49.2326 23.739L47.6628 24.9783C48.4965 26.0343 49.5948 26.8487 50.925 27.434L51.7304 25.6033ZM49.2326 23.739C48.6314 22.9775 48.2676 22.0964 48.1446 21.0715L46.1588 21.3098C46.3238 22.6849 46.824 23.9158 47.6628 24.9783L49.2326 23.739ZM47.1517 22.1907H51.7957V20.1907H47.1517V22.1907ZM50.8164 21.3933C51.0133 22.3449 51.5399 23.139 52.3194 23.7686L53.576 22.2127C53.1075 21.8343 52.8661 21.4284 52.775 20.988L50.8164 21.3933ZM52.3525 23.7942C53.2117 24.4307 54.2637 24.7107 55.4317 24.7107V22.7107C54.5837 22.7107 53.9796 22.5106 53.5429 22.1871L52.3525 23.7942ZM55.4317 24.7107C56.5368 24.7107 57.5683 24.4937 58.2945 23.8439L56.9609 22.3534C56.7751 22.5196 56.3426 22.7107 55.4317 22.7107V24.7107ZM58.2753 23.8606C58.9313 23.303 59.3477 22.5732 59.3477 21.6947H57.3477C57.3477 21.8721 57.2841 22.0783 56.98 22.3367L58.2753 23.8606ZM59.3477 21.6947C59.3477 21.1648 59.2308 20.6423 58.9337 20.186C58.6335 19.725 58.2006 19.4105 57.7053 19.2159L56.974 21.0774C57.1508 21.1468 57.2219 21.2223 57.2577 21.2773C57.2966 21.337 57.3477 21.4565 57.3477 21.6947H59.3477ZM57.7336 19.2275C56.9781 18.9037 55.9726 18.6117 54.7466 18.342L54.3168 20.2953C55.4908 20.5536 56.3573 20.8136 56.9458 21.0658L57.7336 19.2275ZM54.7454 18.3418C54.0044 18.1797 53.2498 17.9824 52.4817 17.7496L51.9017 19.6637C52.7175 19.9109 53.523 20.1216 54.318 20.2956L54.7454 18.3418ZM52.4817 17.7496C51.7475 17.5271 51.0771 17.2515 50.4679 16.9252L49.5235 18.6881C50.2583 19.0818 51.0519 19.4062 51.9017 19.6637L52.4817 17.7496ZM50.5055 16.9464C49.97 16.629 49.5492 16.2425 49.2277 15.7886L47.5957 16.9447C48.0902 17.6428 48.7254 18.2163 49.4859 18.6669L50.5055 16.9464ZM49.2386 15.8043C48.9635 15.3997 48.7997 14.8731 48.7997 14.1707H46.7997C46.7997 15.1962 47.0439 16.1336 47.5848 16.929L49.2386 15.8043ZM48.7997 14.1707C48.7997 12.8905 49.2871 11.83 50.3261 10.9308L49.0173 9.41848C47.5603 10.6793 46.7997 12.2828 46.7997 14.1707H48.7997ZM50.3189 10.9369C51.3535 10.0586 52.8699 9.55465 54.9997 9.55465V7.55465C52.5695 7.55465 50.5339 8.13074 49.0245 9.41236L50.3189 10.9369ZM54.9997 9.55465C56.961 9.55465 58.3993 10.0107 59.4205 10.8159L60.6588 9.24538C59.1841 8.08256 57.2624 7.55465 54.9997 7.55465V9.55465ZM59.4278 10.8216C60.4746 11.6313 61.1098 12.743 61.3172 14.2362L63.2982 13.9611C63.0256 11.9983 62.1488 10.398 60.6516 9.23969L59.4278 10.8216ZM62.3077 13.0987H57.9517V15.0987H62.3077V13.0987ZM58.9323 13.9025C58.7553 13.0176 58.3079 12.2763 57.5591 11.7801C56.8394 11.3032 55.9408 11.1187 54.9637 11.1187V13.1187C55.7146 13.1187 56.178 13.2641 56.4543 13.4472C56.7015 13.6111 56.8841 13.8597 56.9711 14.2948L58.9323 13.9025ZM54.9637 11.1187C53.987 11.1187 53.0848 11.306 52.3742 11.8034L53.5212 13.4419C53.7706 13.2673 54.2124 13.1187 54.9637 13.1187V11.1187ZM52.3545 11.8176C51.6791 12.3152 51.2637 13.0182 51.2637 13.8827H53.2637C53.2637 13.7391 53.3042 13.6021 53.5409 13.4277L52.3545 11.8176ZM51.2637 13.8827C51.2637 14.9736 52.028 15.6649 52.8986 16.0552L53.7167 14.2301C53.4562 14.1134 53.34 14.0103 53.2947 13.9556C53.264 13.9186 53.2637 13.9054 53.2637 13.8827H51.2637ZM52.8986 16.0552C53.6775 16.4043 54.6712 16.7098 55.8563 16.9814L56.3031 15.0319C55.1842 14.7755 54.3299 14.505 53.7167 14.2301L52.8986 16.0552ZM55.8548 16.981C57.0733 17.2622 58.1778 17.5766 59.1703 17.9229L59.8291 16.0345C58.7576 15.6607 57.5821 15.3271 56.3046 15.0323L55.8548 16.981ZM59.1965 17.9316C60.1143 18.2236 60.7906 18.6537 61.2751 19.1942L62.7643 17.8591C62.0008 17.0076 60.9971 16.4057 59.8029 16.0257L59.1965 17.9316ZM61.2869 19.2071C61.6822 19.6328 61.9557 20.3247 61.9557 21.4427H63.9557C63.9557 20.0166 63.6052 18.7645 62.7525 17.8462L61.2869 19.2071ZM61.9559 21.4644C61.9756 22.3682 61.7435 23.1598 61.2631 23.8708L62.9203 24.9905C63.6398 23.9256 63.9838 22.7251 63.9555 21.4209L61.9559 21.4644ZM61.2631 23.8708C60.7828 24.5817 60.0759 25.1659 59.0918 25.6056L59.9076 27.4317C61.1795 26.8634 62.2006 26.0556 62.9203 24.9905L61.2631 23.8708ZM59.0918 25.6056C58.1193 26.0401 56.9323 26.2747 55.5037 26.2747V28.2747C57.1471 28.2747 58.6241 28.0052 59.9076 27.4317L59.0918 25.6056ZM67.4338 5.45865L66.7433 6.18201L66.7513 6.18966L66.7595 6.19713L67.4338 5.45865ZM67.4338 1.67865L68.1064 2.41859L68.108 2.41714L67.4338 1.67865ZM71.5738 1.67865L70.8833 2.40201L70.9001 2.41803L70.9176 2.43325L71.5738 1.67865ZM71.5738 5.45865L70.8995 4.72016L70.8913 4.72764L70.8833 4.73529L71.5738 5.45865ZM67.2178 26.8427H66.2178V27.8427H67.2178V26.8427ZM67.2178 8.98665V7.98665H66.2178V8.98665H67.2178ZM71.8258 8.98665H72.8258V7.98665H71.8258V8.98665ZM71.8258 26.8427V27.8427H72.8258V26.8427H71.8258ZM69.5218 5.21465C68.898 5.21465 68.4526 5.03477 68.108 4.72017L66.7595 6.19713C67.5189 6.89053 68.4655 7.21465 69.5218 7.21465V5.21465ZM68.1242 4.73529C67.8052 4.43074 67.6418 4.06134 67.6418 3.55065H65.6418C65.6418 4.57596 66.0063 5.47856 66.7433 6.18201L68.1242 4.73529ZM67.6418 3.55065C67.6418 3.04027 67.8041 2.69342 68.1064 2.41859L66.7611 0.93871C66.0074 1.62388 65.6418 2.52503 65.6418 3.55065H67.6418ZM68.108 2.41714C68.4526 2.10253 68.898 1.92265 69.5218 1.92265V-0.0773497C68.4655 -0.0773497 67.5189 0.246769 66.7595 0.940164L68.108 2.41714ZM69.5218 1.92265C70.1463 1.92265 70.5695 2.10245 70.8833 2.40201L72.2642 0.955293C71.5221 0.246853 70.5772 -0.0773497 69.5218 -0.0773497V1.92265ZM70.9176 2.43325C71.2391 2.7128 71.4018 3.05565 71.4018 3.55065H73.4018C73.4018 2.50965 73.0125 1.6045 72.2299 0.924045L70.9176 2.43325ZM71.4018 3.55065C71.4018 4.04642 71.2376 4.41146 70.8995 4.72016L72.248 6.19714C73.0139 5.49784 73.4018 4.59088 73.4018 3.55065H71.4018ZM70.8833 4.73529C70.5695 5.03485 70.1463 5.21465 69.5218 5.21465V7.21465C70.5772 7.21465 71.5221 6.89045 72.2642 6.182L70.8833 4.73529ZM68.2178 26.8427V8.98665H66.2178V26.8427H68.2178ZM67.2178 9.98665H71.8258V7.98665H67.2178V9.98665ZM70.8258 8.98665V26.8427H72.8258V8.98665H70.8258ZM71.8258 25.8427H67.2178V27.8427H71.8258V25.8427ZM81.7834 21.2267L82.0333 20.2584L81.4802 20.1156L81.0763 20.5195L81.7834 21.2267ZM80.4514 22.5587L79.7443 21.8515L78.7869 22.8089L79.9835 23.4424L80.4514 22.5587ZM82.1074 23.0987L81.9048 24.0779L82.1074 23.0987ZM85.4914 23.5307L85.3995 24.5264L85.4009 24.5265L85.4914 23.5307ZM90.6754 25.2227L90.0302 25.9867L90.6754 25.2227ZM91.4314 31.9907L90.5797 31.4665L90.5739 31.4762L91.4314 31.9907ZM88.7674 34.2947L88.3347 33.3931L88.3274 33.3966L88.3202 33.4002L88.7674 34.2947ZM78.0034 33.7547L78.5275 32.9029L78.5179 32.8972L78.0034 33.7547ZM78.0034 25.3307L78.6054 26.1292L79.9546 25.1121L78.4138 24.4187L78.0034 25.3307ZM76.7434 24.6467L76.1622 25.4604L76.1753 25.4698L76.1887 25.4787L76.7434 24.6467ZM75.8434 23.8907H74.8434V24.3049L75.1363 24.5978L75.8434 23.8907ZM75.8434 23.0627L75.1168 22.3756L74.8434 22.6647V23.0627H75.8434ZM78.9754 19.7507L79.702 20.4377L80.4144 19.6844L79.6357 18.9997L78.9754 19.7507ZM77.7514 11.7586L76.8976 11.238L76.8929 11.2457L76.8884 11.2535L77.7514 11.7586ZM80.2714 9.41865L79.8008 8.5363L80.2714 9.41865ZM87.0034 8.98665L86.6872 9.93533L86.8411 9.98665H87.0034V8.98665ZM93.7714 8.98665H94.7714V7.98665H93.7714V8.98665ZM93.7714 11.7947L93.8418 12.7922L94.7714 12.7266V11.7947H93.7714ZM90.7114 12.0107L90.641 11.0131L89.1131 11.121L89.8265 12.4764L90.7114 12.0107ZM88.0474 20.6507L87.5848 19.764L87.5768 19.7683L88.0474 20.6507ZM86.4994 17.2306L85.8711 16.4527L85.8636 16.4588L85.8562 16.4649L86.4994 17.2306ZM86.4994 12.9107L85.8562 13.6764L85.8636 13.6825L85.8711 13.6886L86.4994 12.9107ZM81.8194 12.9107L81.1762 12.1449L81.8194 12.9107ZM81.8194 17.2306L82.4626 16.4649L81.8194 17.2306ZM81.0994 31.0187L81.5765 30.1398L81.5673 30.1349L81.0994 31.0187ZM86.9674 30.9827L86.4324 30.1378L86.4225 30.1441L86.4127 30.1506L86.9674 30.9827ZM87.3274 27.4907L86.6397 28.2166L86.6489 28.2254L86.6584 28.2339L87.3274 27.4907ZM84.5554 26.6987L84.4824 27.696L84.4866 27.6963L84.5554 26.6987ZM81.8194 26.3747L81.9884 25.389L81.6431 25.3298L81.3363 25.4991L81.8194 26.3747ZM80.3074 27.6347L79.4821 27.07L79.4717 27.0851L79.4619 27.1007L80.3074 27.6347ZM84.1954 20.5147C83.4054 20.5147 82.6863 20.4269 82.0333 20.2584L81.5335 22.1949C82.3686 22.4104 83.2574 22.5147 84.1954 22.5147V20.5147ZM81.0763 20.5195L79.7443 21.8515L81.1585 23.2658L82.4905 21.9338L81.0763 20.5195ZM79.9835 23.4424C80.5072 23.7197 81.1604 23.9239 81.9048 24.0779L82.31 22.1194C81.6624 21.9854 81.2117 21.8296 80.9193 21.6749L79.9835 23.4424ZM81.9048 24.0779C82.6597 24.2341 83.8356 24.3821 85.3995 24.5264L85.5833 22.5349C84.0272 22.3912 82.9471 22.2512 82.31 22.1194L81.9048 24.0779ZM85.4009 24.5265C87.6988 24.7354 89.1818 25.2703 90.0302 25.9867L91.3206 24.4586C90.009 23.351 88.036 22.7579 85.5819 22.5348L85.4009 24.5265ZM90.0302 25.9867C90.8528 26.6813 91.2954 27.6438 91.2954 29.0027H93.2954C93.2954 27.1455 92.6581 25.588 91.3206 24.4586L90.0302 25.9867ZM91.2954 29.0027C91.2954 29.8658 91.0629 30.6814 90.5798 31.4666L92.2831 32.5147C92.9519 31.4279 93.2954 30.2515 93.2954 29.0027H91.2954ZM90.5739 31.4762C90.1163 32.2388 89.3922 32.8855 88.3347 33.3931L89.2001 35.1962C90.5427 34.5518 91.5945 33.6625 92.2889 32.5051L90.5739 31.4762ZM88.3202 33.4002C87.3028 33.9089 85.9339 34.1947 84.1594 34.1947V36.1947C86.1289 36.1947 87.832 35.8804 89.2146 35.1891L88.3202 33.4002ZM84.1594 34.1947C81.7315 34.1947 79.88 33.7353 78.5275 32.903L77.4793 34.6063C79.2468 35.694 81.4993 36.1947 84.1594 36.1947V34.1947ZM78.5179 32.8972C77.2743 32.151 76.6634 31.0695 76.6634 29.5067H74.6634C74.6634 31.7358 75.6125 33.4863 77.4889 34.6121L78.5179 32.8972ZM76.6634 29.5067C76.6634 28.281 77.2358 27.1617 78.6054 26.1292L77.4014 24.5321C75.6511 25.8517 74.6634 27.5163 74.6634 29.5067H76.6634ZM78.4138 24.4187C77.9737 24.2207 77.6037 24.0183 77.2981 23.8146L76.1887 25.4787C76.6031 25.755 77.0732 26.0086 77.593 26.2426L78.4138 24.4187ZM77.3246 23.8329C77.0288 23.6216 76.7717 23.4048 76.5505 23.1835L75.1363 24.5978C75.4431 24.9045 75.786 25.1917 76.1622 25.4604L77.3246 23.8329ZM76.8434 23.8907V23.0627H74.8434V23.8907H76.8434ZM76.57 23.7497L79.702 20.4377L78.2488 19.0636L75.1168 22.3756L76.57 23.7497ZM79.6357 18.9997C78.4683 17.9732 77.8874 16.6789 77.8874 15.0347H75.8874C75.8874 17.2304 76.6985 19.0801 78.3151 20.5016L79.6357 18.9997ZM77.8874 15.0347C77.8874 14.0025 78.1329 13.0864 78.6144 12.2638L76.8884 11.2535C76.2179 12.3989 75.8874 13.6668 75.8874 15.0347H77.8874ZM78.6052 12.2793C79.1063 11.4575 79.8096 10.7983 80.742 10.301L79.8008 8.5363C78.5732 9.19102 77.5965 10.0918 76.8976 11.238L78.6052 12.2793ZM80.742 10.301C81.6448 9.81948 82.7825 9.55465 84.1954 9.55465V7.55465C82.5363 7.55465 81.058 7.86582 79.8008 8.5363L80.742 10.301ZM84.1954 9.55465C85.1073 9.55465 85.9354 9.68475 86.6872 9.93533L87.3196 8.03797C86.3434 7.71255 85.2995 7.55465 84.1954 7.55465V9.55465ZM87.0034 9.98665H93.7714V7.98665H87.0034V9.98665ZM92.7714 8.98665V11.7947H94.7714V8.98665H92.7714ZM93.701 10.7971L90.641 11.0131L90.7818 13.0082L93.8418 12.7922L93.701 10.7971ZM89.8265 12.4764C90.2256 13.2346 90.4314 14.0811 90.4314 15.0347H92.4314C92.4314 13.7802 92.1573 12.6107 91.5963 11.5449L89.8265 12.4764ZM90.4314 15.0347C90.4314 16.0668 90.1859 16.9829 89.7044 17.8055L91.4304 18.8158C92.1009 17.6704 92.4314 16.4025 92.4314 15.0347H90.4314ZM89.7044 17.8055C89.2321 18.6124 88.5381 19.2667 87.5848 19.7641L88.51 21.5372C89.7647 20.8826 90.7508 19.9769 91.4304 18.8158L89.7044 17.8055ZM87.5768 19.7683C86.6697 20.2521 85.5543 20.5147 84.1954 20.5147V22.5147C85.8125 22.5147 87.2651 22.2012 88.518 21.533L87.5768 19.7683ZM84.1954 18.9867C85.3189 18.9867 86.3289 18.6798 87.1426 17.9964L85.8562 16.4649C85.4699 16.7895 84.9439 16.9867 84.1954 16.9867V18.9867ZM87.1277 18.0086C88.0274 17.2819 88.4354 16.2524 88.4354 15.0707H86.4354C86.4354 15.7609 86.2194 16.1714 85.8711 16.4527L87.1277 18.0086ZM88.4354 15.0707C88.4354 13.8889 88.0274 12.8594 87.1277 12.1327L85.8711 13.6886C86.2194 13.9699 86.4354 14.3804 86.4354 15.0707H88.4354ZM87.1426 12.1449C86.3289 11.4615 85.3189 11.1546 84.1954 11.1546V13.1546C84.9439 13.1546 85.4699 13.3518 85.8562 13.6764L87.1426 12.1449ZM84.1954 11.1546C83.038 11.1546 81.9987 11.4541 81.1762 12.1449L82.4626 13.6764C82.8401 13.3592 83.3848 13.1546 84.1954 13.1546V11.1546ZM81.1762 12.1449C80.3056 12.8763 79.9194 13.9026 79.9194 15.0707H81.9194C81.9194 14.3667 82.1332 13.953 82.4626 13.6764L81.1762 12.1449ZM79.9194 15.0707C79.9194 16.2387 80.3056 17.265 81.1762 17.9964L82.4626 16.4649C82.1332 16.1883 81.9194 15.7746 81.9194 15.0707H79.9194ZM81.1762 17.9964C81.9987 18.6872 83.038 18.9867 84.1954 18.9867V16.9867C83.3848 16.9867 82.8401 16.7821 82.4626 16.4649L81.1762 17.9964ZM78.8754 29.0387C78.8754 29.641 79.0157 30.2157 79.3308 30.7255C79.6447 31.2332 80.0964 31.6191 80.6315 31.9024L81.5673 30.1349C81.2864 29.9862 81.1262 29.8261 81.032 29.6738C80.9391 29.5236 80.8754 29.3243 80.8754 29.0387H78.8754ZM80.6223 31.8975C81.6416 32.4508 82.8346 32.7027 84.1594 32.7027V30.7027C83.0843 30.7027 82.2373 30.4985 81.5765 30.1398L80.6223 31.8975ZM84.1594 32.7027C85.4447 32.7027 86.5916 32.4351 87.5221 31.8147L86.4127 30.1506C85.9033 30.4902 85.1781 30.7027 84.1594 30.7027V32.7027ZM87.5025 31.8275C88.4856 31.2048 89.0474 30.2754 89.0474 29.1107H87.0474C87.0474 29.5299 86.8893 29.8485 86.4324 30.1378L87.5025 31.8275ZM89.0474 29.1107C89.0474 28.1803 88.6879 27.3697 87.9964 26.7474L86.6584 28.2339C86.9269 28.4756 87.0474 28.745 87.0474 29.1107H89.0474ZM88.0152 26.7647C87.6247 26.3948 87.1091 26.162 86.5671 26.0071C86.0153 25.8495 85.3616 25.7519 84.6242 25.701L84.4866 27.6963C85.1412 27.7414 85.6455 27.8238 86.0177 27.9302C86.3997 28.0393 86.5741 28.1545 86.6397 28.2166L88.0152 26.7647ZM84.6284 25.7013C83.6717 25.6313 82.7921 25.5268 81.9884 25.389L81.6504 27.3603C82.5267 27.5105 83.4712 27.622 84.4824 27.696L84.6284 25.7013ZM81.3363 25.4991C80.5594 25.9277 79.9124 26.4411 79.4821 27.07L81.1327 28.1993C81.3264 27.9162 81.6874 27.5896 82.3025 27.2502L81.3363 25.4991ZM79.4619 27.1007C79.0858 27.6961 78.8754 28.3469 78.8754 29.0387H80.8754C80.8754 28.7704 80.953 28.4852 81.1529 28.1686L79.4619 27.1007ZM97.1315 26.8427H96.1315V27.8427H97.1315V26.8427ZM97.1315 8.98665V7.98665H96.1315V8.98665H97.1315ZM101.2 8.98665L102.192 8.86844L102.088 7.98665H101.2V8.98665ZM101.56 12.0107L100.567 12.1289L100.949 15.3381L102.446 12.4739L101.56 12.0107ZM103.936 9.49065L103.427 8.62968L103.418 8.63492L103.936 9.49065ZM112.792 10.6427L112.041 11.303L112.792 10.6427ZM114.628 26.8427V27.8427H115.628V26.8427H114.628ZM110.02 26.8427H109.02V27.8427H110.02V26.8427ZM109.084 13.6667L109.878 13.0592L109.084 13.6667ZM102.964 13.8106L102.228 13.1332L102.223 13.1385L102.218 13.1439L102.964 13.8106ZM101.74 26.8427V27.8427H102.74V26.8427H101.74ZM98.1315 26.8427V8.98665H96.1315V26.8427H98.1315ZM97.1315 9.98665H101.2V7.98665H97.1315V9.98665ZM100.207 9.10486L100.567 12.1289L102.552 11.8924L102.192 8.86844L100.207 9.10486ZM102.446 12.4739C102.912 11.5821 103.575 10.877 104.453 10.3464L103.418 8.63492C102.232 9.35235 101.311 10.3272 100.673 11.5474L102.446 12.4739ZM104.444 10.3516C105.324 9.83191 106.378 9.55465 107.644 9.55465V7.55465C106.077 7.55465 104.659 7.9014 103.427 8.62972L104.444 10.3516ZM107.644 9.55465C109.624 9.55465 111.043 10.1683 112.041 11.303L113.542 9.98232C112.092 8.33295 110.079 7.55465 107.644 7.55465V9.55465ZM112.041 11.303C113.045 12.4453 113.628 14.2102 113.628 16.7627H115.628C115.628 13.9391 114.986 11.624 113.542 9.98232L112.041 11.303ZM113.628 16.7627V26.8427H115.628V16.7627H113.628ZM114.628 25.8427H110.02V27.8427H114.628V25.8427ZM111.02 26.8427V17.1947H109.02V26.8427H111.02ZM111.02 17.1947C111.02 15.5428 110.687 14.1172 109.878 13.0592L108.289 14.2741C108.728 14.8482 109.02 15.7745 109.02 17.1947H111.02ZM109.878 13.0592C109.013 11.9276 107.702 11.4427 106.168 11.4427V13.4427C107.273 13.4427 107.906 13.7737 108.289 14.2741L109.878 13.0592ZM106.168 11.4427C104.606 11.4427 103.267 12.0053 102.228 13.1332L103.699 14.4881C104.34 13.792 105.137 13.4427 106.168 13.4427V11.4427ZM102.218 13.1439C101.19 14.2931 100.74 15.832 100.74 17.6267H102.74C102.74 16.1573 103.105 15.1522 103.709 14.4774L102.218 13.1439ZM100.74 17.6267V26.8427H102.74V17.6267H100.74ZM101.74 25.8427H97.1315V27.8427H101.74V25.8427ZM4.83032 73.3387L4.41415 74.248L4.42706 74.2537L4.83032 73.3387ZM1.48232 70.6027L0.655353 71.165L0.660728 71.1727L1.48232 70.6027ZM0.222317 66.2467V65.2467H-0.791867L-0.777584 66.2607L0.222317 66.2467ZM5.08232 66.2467L6.08148 66.2059L6.04233 65.2467H5.08232V66.2467ZM6.34232 69.2346L5.62474 69.9311L5.63513 69.9418L5.64584 69.9522L6.34232 69.2346ZM12.6063 69.5587L13.231 70.3395L13.2388 70.3333L13.2465 70.3269L12.6063 69.5587ZM12.7143 64.7707L12.036 65.5055L12.0429 65.5118L12.05 65.5181L12.7143 64.7707ZM10.1943 63.3667L9.87164 64.3132H9.87164L10.1943 63.3667ZM6.81032 62.2147L6.4836 63.1598L6.48841 63.1614L6.81032 62.2147ZM2.34632 59.6227L1.62291 60.3132L1.63113 60.3216L2.34632 59.6227ZM0.834316 55.4107H1.83432V55.4026L1.83419 55.3945L0.834316 55.4107ZM1.87832 51.5947L1.0548 51.0273L1.05209 51.0313L1.87832 51.5947ZM4.90232 49.1106L5.31482 50.0216L5.3219 50.0184L5.32894 50.0151L4.90232 49.1106ZM13.7223 49.1106L13.2957 50.0151L13.3022 50.0181L13.7223 49.1106ZM16.7463 51.6306L15.9143 52.1853L15.9185 52.1917L15.9228 52.198L16.7463 51.6306ZM17.9343 55.4827V56.4827H18.9671L18.9338 55.4504L17.9343 55.4827ZM13.0023 55.4827L12.0027 55.5097L12.029 56.4827H13.0023V55.4827ZM11.9583 53.1427L11.2264 53.8241L11.2386 53.8371L11.2512 53.8498L11.9583 53.1427ZM9.22232 52.0987L9.19851 53.0984L9.21041 53.0987H9.22232V52.0987ZM6.66632 52.8547L7.26632 53.6547L7.2707 53.6513L6.66632 52.8547ZM6.45032 57.1027L5.75984 57.826L5.76864 57.8344L5.77764 57.8426L6.45032 57.1027ZM8.61032 58.3267L8.95602 57.3883L8.61032 58.3267ZM11.7423 59.4066L12.0694 58.4617L12.0611 58.4588L12.0527 58.456L11.7423 59.4066ZM15.1623 60.9186L15.6497 60.0455H15.6497L15.1623 60.9186ZM17.6463 63.2226L16.8078 63.7677L16.8143 63.7774L17.6463 63.2226ZM17.5743 70.5307L18.4334 71.0425H18.4334L17.5743 70.5307ZM14.5863 73.2667L15.04 74.1578L15.0464 74.1546L15.0527 74.1512L14.5863 73.2667ZM9.72632 73.2747C7.99065 73.2747 6.5003 72.9818 5.23357 72.4236L4.42706 74.2537C5.99234 74.9435 7.76598 75.2747 9.72632 75.2747V73.2747ZM5.24644 72.4293C3.97876 71.8492 3.00872 71.0483 2.3039 70.0326L0.660728 71.1727C1.58791 72.509 2.84987 73.5321 4.41419 74.248L5.24644 72.4293ZM2.30924 70.0403C1.62139 69.0288 1.24395 67.7757 1.22222 66.2326L-0.777584 66.2607C-0.751318 68.1256 -0.28876 69.7765 0.65539 71.165L2.30924 70.0403ZM0.222317 67.2467H5.08232V65.2467H0.222317V67.2467ZM4.08315 66.2874C4.14079 67.6997 4.65495 68.932 5.62474 69.9311L7.0599 68.5382C6.44568 67.9053 6.11984 67.1456 6.08148 66.2059L4.08315 66.2874ZM5.64584 69.9522C6.69163 70.9673 8.0814 71.4227 9.69032 71.4227V69.4227C8.46723 69.4227 7.625 69.086 7.03879 68.5171L5.64584 69.9522ZM9.69032 71.4227C11.0668 71.4227 12.2831 71.0978 13.231 70.3395L11.9816 68.7778C11.4895 69.1715 10.7618 69.4227 9.69032 69.4227V71.4227ZM13.2465 70.3269C14.2072 69.5263 14.6863 68.4464 14.6863 67.1826H12.6863C12.6863 67.8869 12.4454 68.391 11.9661 68.7904L13.2465 70.3269ZM14.6863 67.1826C14.6863 65.9245 14.2809 64.8252 13.3787 64.0232L12.05 65.5181C12.4437 65.8681 12.6863 66.3768 12.6863 67.1826H14.6863ZM13.3926 64.0359C12.6394 63.3405 11.6655 62.8117 10.517 62.4201L9.87164 64.3132C10.8351 64.6416 11.5413 65.0488 12.036 65.5055L13.3926 64.0359ZM10.517 62.4201C9.4607 62.06 8.33244 61.676 7.13222 61.2679L6.48841 63.1614C7.68819 63.5694 8.81593 63.9533 9.87164 64.3132L10.517 62.4201ZM7.13703 61.2695C5.28555 60.6295 3.95081 59.8337 3.0615 58.9237L1.63113 60.3216C2.80582 61.5236 4.44708 62.4558 6.48361 63.1598L7.13703 61.2695ZM3.06967 58.9322C2.27372 58.0983 1.83432 56.9602 1.83432 55.4107H-0.165684C-0.165684 57.3651 0.402916 59.035 1.62296 60.3131L3.06967 58.9322ZM1.83419 55.3945C1.81295 54.078 2.11912 53.0166 2.70454 52.158L1.05209 51.0313C0.197509 52.2847 -0.192319 53.7673 -0.165553 55.4268L1.83419 55.3945ZM2.70182 52.162C3.3359 51.2415 4.19737 50.5276 5.31482 50.0216L4.48981 48.1997C3.06326 48.8457 1.90874 49.7878 1.05481 51.0273L2.70182 52.162ZM5.32894 50.0151C6.44588 49.4882 7.75987 49.2107 9.29432 49.2107V47.2107C7.51676 47.2107 5.90275 47.5331 4.4757 48.2062L5.32894 50.0151ZM9.29432 49.2107C10.8551 49.2107 12.1806 49.4891 13.2957 50.0151L14.1489 48.2062C12.7201 47.5322 11.0935 47.2107 9.29432 47.2107V49.2107ZM13.3022 50.0181C14.4483 50.5487 15.3065 51.2738 15.9143 52.1853L17.5784 51.076C16.7461 49.8275 15.5883 48.8726 14.1424 48.2032L13.3022 50.0181ZM15.9228 52.198C16.5439 53.0996 16.8922 54.1918 16.9348 55.5149L18.9338 55.4504C18.8805 53.7975 18.4367 52.3217 17.5698 51.0633L15.9228 52.198ZM17.9343 54.4827H13.0023V56.4827H17.9343V54.4827ZM14.002 55.4556C13.9705 54.2929 13.5045 53.2746 12.6654 52.4355L11.2512 53.8498C11.7562 54.3547 11.9861 54.8964 12.0027 55.5097L14.002 55.4556ZM12.6902 52.4612C11.8099 51.5157 10.6055 51.0987 9.22232 51.0987V53.0987C10.1911 53.0987 10.8108 53.3776 11.2264 53.8241L12.6902 52.4612ZM9.24612 51.0989C8.04837 51.0704 6.96545 51.3725 6.06193 52.058L7.2707 53.6513C7.75918 53.2808 8.38027 53.0789 9.19851 53.0984L9.24612 51.0989ZM6.06632 52.0546C5.09733 52.7814 4.65832 53.849 4.65832 55.0866H6.65832C6.65832 54.3563 6.8913 53.9359 7.26632 53.6547L6.06632 52.0546ZM4.65832 55.0866C4.65832 56.1549 5.0038 57.1043 5.75984 57.826L7.14079 56.3793C6.84083 56.093 6.65832 55.6984 6.65832 55.0866H4.65832ZM5.77764 57.8426C6.42856 58.4343 7.27284 58.8996 8.26461 59.265L8.95602 57.3883C8.1238 57.0817 7.52808 56.731 7.12299 56.3627L5.77764 57.8426ZM8.26461 59.265C9.19094 59.6063 10.2471 59.9704 11.4319 60.3573L12.0527 58.456C10.8855 58.0749 9.85369 57.719 8.95602 57.3883L8.26461 59.265ZM11.4152 60.3516C12.6141 60.7667 13.6997 61.2475 14.675 61.7918L15.6497 60.0455C14.5609 59.4378 13.3665 58.9107 12.0694 58.4617L11.4152 60.3516ZM14.675 61.7918C15.5697 62.2913 16.2754 62.9484 16.8079 63.7676L18.4848 62.6777C17.7692 61.5769 16.8189 60.698 15.6497 60.0455L14.675 61.7918ZM16.8143 63.7774C17.2985 64.5037 17.5823 65.5055 17.5823 66.8587H19.5823C19.5823 65.2358 19.2421 63.8136 18.4784 62.668L16.8143 63.7774ZM17.5823 66.8587C17.5823 67.9995 17.2945 69.0465 16.7152 70.0188L18.4334 71.0425C19.1982 69.7588 19.5823 68.3578 19.5823 66.8587H17.5823ZM16.7152 70.0188C16.1497 70.9681 15.2999 71.7599 14.1199 72.3821L15.0527 74.1512C16.5127 73.3814 17.655 72.3492 18.4334 71.0425L16.7152 70.0188ZM14.1326 72.3755C12.9885 72.9579 11.5338 73.2747 9.72632 73.2747V75.2747C11.7589 75.2747 13.5441 74.9194 15.04 74.1578L14.1326 72.3755ZM26.3828 73.1227L26.8659 72.2471L26.3828 73.1227ZM23.0708 60.1266L22.1945 59.6447L22.1884 59.6561L23.0708 60.1266ZM26.3108 56.7786L26.8118 57.6441L26.8165 57.6413L26.3108 56.7786ZM35.8508 56.7066L35.3546 57.5749L35.8508 56.7066ZM38.9828 59.8746L38.1079 60.359L38.1131 60.3683L38.1184 60.3775L38.9828 59.8746ZM40.0988 65.1307L39.1022 65.0476L39.0988 65.0891V65.1307H40.0988ZM40.0628 66.0307V67.0307H40.9888L41.0598 66.1073L40.0628 66.0307ZM26.4908 66.0307V65.0307H25.4194L25.4932 66.0995L26.4908 66.0307ZM27.9308 69.3066L27.255 70.0439L27.2652 70.0529L27.9308 69.3066ZM33.4748 69.8827L34.0221 70.7197L34.0295 70.7147L33.4748 69.8827ZM34.9148 68.2267V67.2267H34.2765L34.0078 67.8055L34.9148 68.2267ZM39.5948 68.2267L40.5532 68.5121L40.9361 67.2267H39.5948V68.2267ZM37.9028 71.3227L37.1394 70.6767L37.1379 70.6785L37.9028 71.3227ZM35.0228 73.4827L34.6061 72.5736L34.5988 72.577L35.0228 73.4827ZM28.2188 60.2707L28.8043 61.0813L28.8116 61.0761L28.8188 61.0706L28.2188 60.2707ZM26.5628 63.1507L25.5795 62.9686L25.3606 64.1507H26.5628V63.1507ZM35.4548 63.1507V64.1507H36.5179L36.4529 63.0895L35.4548 63.1507ZM34.1588 60.3427L34.8189 59.5915L34.1588 60.3427ZM31.1708 73.2747C29.5171 73.2747 28.0913 72.9232 26.8659 72.2471L25.8997 73.9982C27.4583 74.8581 29.2245 75.2747 31.1708 75.2747V73.2747ZM26.8659 72.2471C25.6365 71.5688 24.6775 70.6212 23.9759 69.3881L22.2376 70.3772C23.12 71.9281 24.3451 73.1405 25.8997 73.9982L26.8659 72.2471ZM23.9759 69.3881C23.281 68.1668 22.9188 66.7337 22.9188 65.0586H20.9188C20.9188 67.0316 21.3485 68.8145 22.2376 70.3772L23.9759 69.3881ZM22.9188 65.0586C22.9188 63.3528 23.2721 61.8742 23.9531 60.5972L22.1884 59.6561C21.3335 61.2591 20.9188 63.0685 20.9188 65.0586H22.9188ZM23.947 60.6086C24.6549 59.3216 25.6079 58.3411 26.8118 57.6441L25.8097 55.9132C24.2777 56.8002 23.0707 58.0517 22.1946 59.6447L23.947 60.6086ZM26.8165 57.6413C28.032 56.9288 29.4837 56.5546 31.2068 56.5546V54.5546C29.1858 54.5546 27.3735 54.9965 25.8051 55.916L26.8165 57.6413ZM31.2068 56.5546C32.8081 56.5546 34.1808 56.9041 35.3546 57.5749L36.3469 55.8384C34.8328 54.9732 33.1095 54.5546 31.2068 54.5546V56.5546ZM35.3546 57.5749C36.5409 58.2528 37.4533 59.1765 38.1079 60.359L39.8577 59.3903C39.0243 57.8848 37.8487 56.6965 36.3469 55.8384L35.3546 57.5749ZM38.1184 60.3775C38.7915 61.5343 39.1348 62.8348 39.1348 64.3027H41.1348C41.1348 62.5065 40.7101 60.855 39.8471 59.3718L38.1184 60.3775ZM39.1348 64.3027C39.1348 64.5365 39.1241 64.7847 39.1022 65.0476L41.0953 65.2137C41.1214 64.9006 41.1348 64.5968 41.1348 64.3027H39.1348ZM39.0988 65.1307C39.0988 65.391 39.0879 65.6653 39.0657 65.954L41.0598 66.1073C41.0856 65.772 41.0988 65.4463 41.0988 65.1307H39.0988ZM40.0628 65.0307H26.4908V67.0307H40.0628V65.0307ZM25.4932 66.0995C25.6032 67.6954 26.1669 69.0463 27.2551 70.0438L28.6065 68.5695C27.9667 67.983 27.5704 67.1499 27.4884 65.9618L25.4932 66.0995ZM27.2652 70.0529C28.3459 71.0169 29.6544 71.4947 31.1348 71.4947V69.4947C30.1192 69.4947 29.2916 69.1804 28.5964 68.5604L27.2652 70.0529ZM31.1348 71.4947C32.2156 71.4947 33.1983 71.2582 34.022 70.7196L32.9275 69.0457C32.5033 69.3231 31.926 69.4947 31.1348 69.4947V71.4947ZM34.0295 70.7147C34.8223 70.1862 35.4283 69.4952 35.8218 68.6478L34.0078 67.8055C33.7772 68.3021 33.4233 68.7151 32.9201 69.0506L34.0295 70.7147ZM34.9148 69.2267H39.5948V67.2267H34.9148V69.2267ZM38.6364 67.9412C38.3415 68.9313 37.846 69.8416 37.1394 70.6767L38.6662 71.9686C39.5436 70.9317 40.1761 69.778 40.5532 68.5121L38.6364 67.9412ZM37.1379 70.6785C36.4709 71.4706 35.6325 72.1032 34.6061 72.5736L35.4394 74.3917C36.717 73.8061 37.7987 72.9988 38.6677 71.9668L37.1379 70.6785ZM34.5988 72.577C33.6228 73.0339 32.4871 73.2747 31.1708 73.2747V75.2747C32.7345 75.2747 34.1668 74.9874 35.4467 74.3883L34.5988 72.577ZM31.2068 58.2987C29.8727 58.2987 28.6639 58.6868 27.6188 59.4706L28.8188 61.0706C29.5016 60.5585 30.2849 60.2987 31.2068 60.2987V58.2987ZM27.6333 59.46C26.5141 60.2683 25.8547 61.4827 25.5795 62.9686L27.5461 63.3327C27.7509 62.2266 28.1955 61.521 28.8043 61.0813L27.6333 59.46ZM26.5628 64.1507H35.4548V62.1507H26.5628V64.1507ZM36.4529 63.0895C36.3667 61.6819 35.8353 60.4847 34.8189 59.5915L33.4987 61.0938C34.0663 61.5926 34.3988 62.2674 34.4567 63.2118L36.4529 63.0895ZM34.8189 59.5915C33.823 58.7163 32.5957 58.2987 31.2068 58.2987V60.2987C32.1699 60.2987 32.9106 60.577 33.4987 61.0938L34.8189 59.5915ZM44.0104 73.8427H43.0104V74.8427H44.0104V73.8427ZM44.0104 55.9866V54.9866H43.0104V55.9866H44.0104ZM48.1144 55.9866L49.1062 55.8587L48.9937 54.9866H48.1144V55.9866ZM48.5464 59.3346L47.5546 59.4626L47.9403 62.4518L49.418 59.8249L48.5464 59.3346ZM51.1744 56.5986L51.6944 57.4529L51.6995 57.4497L51.1744 56.5986ZM55.1344 55.5546H56.1344V54.5546H55.1344V55.5546ZM55.1344 60.4146V61.4146H56.1344V60.4146H55.1344ZM51.1384 60.8827L51.5049 61.8131L51.1384 60.8827ZM49.2664 62.5026L48.4066 61.9921L48.4006 62.0022L48.3948 62.0124L49.2664 62.5026ZM48.6184 73.8427V74.8427H49.6184V73.8427H48.6184ZM45.0104 73.8427V55.9866H43.0104V73.8427H45.0104ZM44.0104 56.9866H48.1144V54.9866H44.0104V56.9866ZM47.1226 56.1146L47.5546 59.4626L49.5382 59.2067L49.1062 55.8587L47.1226 56.1146ZM49.418 59.8249C49.9839 58.8188 50.7403 58.0336 51.6944 57.4529L50.6545 55.7445C49.4006 56.5077 48.4049 57.5465 47.6748 58.8444L49.418 59.8249ZM51.6995 57.4497C52.6484 56.8642 53.7812 56.5546 55.1344 56.5546V54.5546C53.4636 54.5546 51.9564 54.9411 50.6493 55.7476L51.6995 57.4497ZM54.1344 55.5546V60.4146H56.1344V55.5546H54.1344ZM55.1344 59.4146H53.8384V61.4146H55.1344V59.4146ZM53.8384 59.4146C52.7276 59.4146 51.7 59.5866 50.7719 59.9522L51.5049 61.8131C52.1608 61.5547 52.9332 61.4146 53.8384 61.4146V59.4146ZM50.7719 59.9522C49.7627 60.3498 48.9699 61.0434 48.4066 61.9921L50.1263 63.0132C50.475 62.4259 50.9301 62.0395 51.5049 61.8131L50.7719 59.9522ZM48.3948 62.0124C47.8445 62.9907 47.6184 64.2534 47.6184 65.7066H49.6184C49.6184 64.4239 49.8243 63.5506 50.138 62.9929L48.3948 62.0124ZM47.6184 65.7066V73.8427H49.6184V65.7066H47.6184ZM48.6184 72.8427H44.0104V74.8427H48.6184V72.8427ZM63.1078 73.8427L62.1691 74.1871L62.4096 74.8427H63.1078V73.8427ZM56.5558 55.9866V54.9866H55.1237L55.6171 56.3311L56.5558 55.9866ZM61.3798 55.9866L62.3278 55.6682L62.0988 54.9866H61.3798V55.9866ZM65.9158 69.4866L64.9679 69.8052L65.9158 72.6264L66.8638 69.8052L65.9158 69.4866ZM70.4519 55.9866V54.9866H69.7329L69.5039 55.6682L70.4519 55.9866ZM75.2758 55.9866L76.214 56.3328L76.7107 54.9866H75.2758V55.9866ZM68.6879 73.8427V74.8427H69.3848L69.626 74.1888L68.6879 73.8427ZM64.0466 73.4982L57.4946 55.6422L55.6171 56.3311L62.1691 74.1871L64.0466 73.4982ZM56.5558 56.9866H61.3798V54.9866H56.5558V56.9866ZM60.4319 56.3052L64.9679 69.8052L66.8638 69.1682L62.3278 55.6682L60.4319 56.3052ZM66.8638 69.8052L71.3998 56.3052L69.5039 55.6682L64.9679 69.1682L66.8638 69.8052ZM70.4519 56.9866H75.2758V54.9866H70.4519V56.9866ZM74.3377 55.6405L67.7497 73.4965L69.626 74.1888L76.214 56.3328L74.3377 55.6405ZM68.6879 72.8427H63.1078V74.8427H68.6879V72.8427ZM78.5783 52.4586L77.8878 53.182L77.8958 53.1897L77.904 53.1971L78.5783 52.4586ZM78.5783 48.6786L79.251 49.4186L79.2526 49.4171L78.5783 48.6786ZM82.7183 48.6786L82.0278 49.402L82.0446 49.418L82.0621 49.4333L82.7183 48.6786ZM82.7183 52.4586L82.044 51.7202L82.0358 51.7276L82.0278 51.7353L82.7183 52.4586ZM78.3623 73.8427H77.3623V74.8427H78.3623V73.8427ZM78.3623 55.9866V54.9866H77.3623V55.9866H78.3623ZM82.9703 55.9866H83.9703V54.9866H82.9703V55.9866ZM82.9703 73.8427V74.8427H83.9703V73.8427H82.9703ZM80.6663 52.2146C80.0425 52.2146 79.5971 52.0348 79.2526 51.7202L77.904 53.1971C78.6634 53.8905 79.61 54.2146 80.6663 54.2146V52.2146ZM79.2688 51.7353C78.9497 51.4307 78.7863 51.0613 78.7863 50.5507H76.7863C76.7863 51.576 77.1509 52.4786 77.8878 53.182L79.2688 51.7353ZM78.7863 50.5507C78.7863 50.0403 78.9486 49.6934 79.251 49.4186L77.9056 47.9387C77.1519 48.6239 76.7863 49.525 76.7863 50.5507H78.7863ZM79.2526 49.4171C79.5971 49.1025 80.0425 48.9226 80.6663 48.9226V46.9226C79.61 46.9226 78.6635 47.2468 77.904 47.9402L79.2526 49.4171ZM80.6663 48.9226C81.2909 48.9226 81.714 49.1024 82.0278 49.402L83.4088 47.9553C82.6666 47.2469 81.7217 46.9226 80.6663 46.9226V48.9226ZM82.0621 49.4333C82.3836 49.7128 82.5463 50.0556 82.5463 50.5507H84.5463C84.5463 49.5097 84.157 48.6045 83.3745 47.924L82.0621 49.4333ZM82.5463 50.5507C82.5463 51.0464 82.3821 51.4115 82.044 51.7202L83.3926 53.1971C84.1584 52.4978 84.5463 51.5909 84.5463 50.5507H82.5463ZM82.0278 51.7353C81.714 52.0349 81.2909 52.2146 80.6663 52.2146V54.2146C81.7217 54.2146 82.6666 53.8904 83.4088 53.182L82.0278 51.7353ZM79.3623 73.8427V55.9866H77.3623V73.8427H79.3623ZM78.3623 56.9866H82.9703V54.9866H78.3623V56.9866ZM81.9703 55.9866V73.8427H83.9703V55.9866H81.9703ZM82.9703 72.8427H78.3623V74.8427H82.9703V72.8427ZM91.7039 73.0867L92.1985 72.2175L91.7039 73.0867ZM88.3919 69.7747L87.5191 70.2628L87.5255 70.2739L88.3919 69.7747ZM88.3919 60.0546L87.5254 59.5553L87.5192 59.5665L88.3919 60.0546ZM91.7039 56.7427L92.1985 57.6118L91.7039 56.7427ZM102.288 57.3547L101.678 58.1473L101.686 58.1532L102.288 57.3547ZM105.276 62.2506V63.2506H106.504L106.255 62.048L105.276 62.2506ZM100.416 62.2506L99.4524 62.5183L99.6559 63.2506H100.416V62.2506ZM98.9759 60.2346L98.3894 61.0446L98.4051 61.056L98.4212 61.0667L98.9759 60.2346ZM93.2519 60.9186L92.5178 60.2396L93.2519 60.9186ZM93.2519 68.9107L93.986 68.2316L93.2519 68.9107ZM98.9759 69.6307L98.4212 68.7986L98.4147 68.803L98.4082 68.8074L98.9759 69.6307ZM100.416 67.5787V66.5787H99.6503L99.4506 67.3177L100.416 67.5787ZM105.276 67.5787L106.254 67.7882L106.513 66.5787H105.276V67.5787ZM102.288 72.4387L101.671 71.6519L102.288 72.4387ZM96.5279 73.2747C94.8529 73.2747 93.4198 72.9124 92.1985 72.2175L91.2094 73.9558C92.772 74.8449 94.555 75.2747 96.5279 75.2747V73.2747ZM92.1985 72.2175C90.9644 71.5154 89.9874 70.5405 89.2584 69.2754L87.5255 70.2739C88.4285 71.8408 89.6595 73.0739 91.2094 73.9558L92.1985 72.2175ZM89.2647 69.2865C88.5661 68.0375 88.2039 66.5893 88.2039 64.9146H86.2039C86.2039 66.888 86.6338 68.6798 87.5192 70.2628L89.2647 69.2865ZM88.2039 64.9146C88.2039 63.24 88.5661 61.7918 89.2647 60.5428L87.5192 59.5665C86.6338 61.1495 86.2039 62.9414 86.2039 64.9146H88.2039ZM89.2584 60.5539C89.9874 59.2888 90.9644 58.3139 92.1985 57.6118L91.2094 55.8735C89.6595 56.7554 88.4285 57.9885 87.5255 59.5554L89.2584 60.5539ZM92.1985 57.6118C93.4198 56.9169 94.8529 56.5546 96.5279 56.5546V54.5546C94.555 54.5546 92.7721 54.9844 91.2094 55.8735L92.1985 57.6118ZM96.5279 56.5546C98.6238 56.5546 100.32 57.1024 101.678 58.1473L102.898 56.562C101.136 55.2069 98.992 54.5546 96.5279 54.5546V56.5546ZM101.686 58.1532C103.034 59.1691 103.909 60.5796 104.297 62.4533L106.255 62.048C105.779 59.7457 104.662 57.8922 102.89 56.5561L101.686 58.1532ZM105.276 61.2506H100.416V63.2506H105.276V61.2506ZM101.379 61.983C101.078 60.8971 100.458 60.0208 99.5306 59.4026L98.4212 61.0667C98.9339 61.4085 99.2741 61.8762 99.4524 62.5183L101.379 61.983ZM99.5625 59.4247C98.6761 58.7828 97.6368 58.4787 96.4919 58.4787V60.4787C97.2671 60.4787 97.8838 60.6785 98.3894 61.0446L99.5625 59.4247ZM96.4919 58.4787C94.9325 58.4787 93.5891 59.0815 92.5178 60.2396L93.986 61.5977C94.6908 60.8358 95.5074 60.4787 96.4919 60.4787V58.4787ZM92.5178 60.2396C91.4122 61.435 90.9199 63.0374 90.9199 64.9146H92.9199C92.9199 63.3839 93.3157 62.3223 93.986 61.5977L92.5178 60.2396ZM90.9199 64.9146C90.9199 66.7919 91.4122 68.3944 92.5178 69.5897L93.986 68.2316C93.3157 67.507 92.9199 66.4454 92.9199 64.9146H90.9199ZM92.5178 69.5897C93.5891 70.7478 94.9325 71.3507 96.4919 71.3507V69.3507C95.5074 69.3507 94.6908 68.9935 93.986 68.2316L92.5178 69.5897ZM96.4919 71.3507C97.6263 71.3507 98.6588 71.0642 99.5437 70.4539L98.4082 68.8074C97.9011 69.1571 97.2776 69.3507 96.4919 69.3507V71.3507ZM99.5306 70.4627C100.466 69.8394 101.082 68.9454 101.381 67.8396L99.4506 67.3177C99.2694 67.9879 98.9263 68.4619 98.4212 68.7986L99.5306 70.4627ZM100.416 68.5787H105.276V66.5787H100.416V68.5787ZM104.298 67.3691C103.913 69.1664 103.039 70.5784 101.671 71.6519L102.905 73.2254C104.657 71.8509 105.775 70.0229 106.254 67.7882L104.298 67.3691ZM101.671 71.6519C100.313 72.7175 98.6193 73.2747 96.5279 73.2747V75.2747C98.9966 75.2747 101.143 74.6078 102.905 73.2254L101.671 71.6519ZM113.254 73.1227L113.737 72.2471L113.254 73.1227ZM109.942 60.1266L109.066 59.6447L109.06 59.6561L109.942 60.1266ZM113.182 56.7786L113.683 57.6441L113.688 57.6413L113.182 56.7786ZM122.722 56.7066L122.226 57.5749L122.722 56.7066ZM125.854 59.8746L124.979 60.359L124.984 60.3683L124.99 60.3775L125.854 59.8746ZM126.97 65.1307L125.973 65.0476L125.97 65.0891V65.1307H126.97ZM126.934 66.0307V67.0307H127.86L127.931 66.1073L126.934 66.0307ZM113.362 66.0307V65.0307H112.291L112.364 66.0995L113.362 66.0307ZM114.802 69.3066L114.126 70.0439L114.136 70.0529L114.802 69.3066ZM120.346 69.8827L120.893 70.7197L120.901 70.7147L120.346 69.8827ZM121.786 68.2267V67.2267H121.148L120.879 67.8055L121.786 68.2267ZM126.466 68.2267L127.424 68.5121L127.807 67.2267H126.466V68.2267ZM124.774 71.3227L124.01 70.6767L124.009 70.6785L124.774 71.3227ZM121.894 73.4827L121.477 72.5736L121.47 72.577L121.894 73.4827ZM115.09 60.2707L115.675 61.0813L115.683 61.0761L115.69 61.0706L115.09 60.2707ZM113.434 63.1507L112.451 62.9686L112.232 64.1507H113.434V63.1507ZM122.326 63.1507V64.1507H123.389L123.324 63.0895L122.326 63.1507ZM121.03 60.3427L121.69 59.5915L121.03 60.3427ZM118.042 73.2747C116.388 73.2747 114.962 72.9232 113.737 72.2471L112.771 73.9982C114.329 74.8581 116.096 75.2747 118.042 75.2747V73.2747ZM113.737 72.2471C112.508 71.5688 111.549 70.6212 110.847 69.3881L109.109 70.3772C109.991 71.9281 111.216 73.1405 112.771 73.9982L113.737 72.2471ZM110.847 69.3881C110.152 68.1668 109.79 66.7337 109.79 65.0586H107.79C107.79 67.0316 108.22 68.8145 109.109 70.3772L110.847 69.3881ZM109.79 65.0586C109.79 63.3528 110.143 61.8742 110.824 60.5972L109.06 59.6561C108.205 61.2591 107.79 63.0685 107.79 65.0586H109.79ZM110.818 60.6086C111.526 59.3216 112.479 58.3411 113.683 57.6441L112.681 55.9132C111.149 56.8002 109.942 58.0517 109.066 59.6447L110.818 60.6086ZM113.688 57.6413C114.903 56.9288 116.355 56.5546 118.078 56.5546V54.5546C116.057 54.5546 114.245 54.9965 112.676 55.916L113.688 57.6413ZM118.078 56.5546C119.679 56.5546 121.052 56.9041 122.226 57.5749L123.218 55.8384C121.704 54.9732 119.981 54.5546 118.078 54.5546V56.5546ZM122.226 57.5749C123.412 58.2528 124.324 59.1765 124.979 60.359L126.729 59.3903C125.895 57.8848 124.72 56.6965 123.218 55.8384L122.226 57.5749ZM124.99 60.3775C125.663 61.5343 126.006 62.8348 126.006 64.3027H128.006C128.006 62.5065 127.581 60.855 126.718 59.3718L124.99 60.3775ZM126.006 64.3027C126.006 64.5365 125.995 64.7847 125.973 65.0476L127.966 65.2137C127.993 64.9006 128.006 64.5968 128.006 64.3027H126.006ZM125.97 65.1307C125.97 65.391 125.959 65.6653 125.937 65.954L127.931 66.1073C127.957 65.772 127.97 65.4463 127.97 65.1307H125.97ZM126.934 65.0307H113.362V67.0307H126.934V65.0307ZM112.364 66.0995C112.474 67.6954 113.038 69.0463 114.126 70.0438L115.478 68.5695C114.838 67.983 114.441 67.1499 114.36 65.9618L112.364 66.0995ZM114.136 70.0529C115.217 71.0169 116.526 71.4947 118.006 71.4947V69.4947C116.99 69.4947 116.163 69.1804 115.467 68.5604L114.136 70.0529ZM118.006 71.4947C119.087 71.4947 120.069 71.2582 120.893 70.7196L119.799 69.0457C119.374 69.3231 118.797 69.4947 118.006 69.4947V71.4947ZM120.901 70.7147C121.693 70.1862 122.299 69.4952 122.693 68.6478L120.879 67.8055C120.648 68.3021 120.294 68.7151 119.791 69.0506L120.901 70.7147ZM121.786 69.2267H126.466V67.2267H121.786V69.2267ZM125.507 67.9412C125.213 68.9313 124.717 69.8416 124.01 70.6767L125.537 71.9686C126.415 70.9317 127.047 69.778 127.424 68.5121L125.507 67.9412ZM124.009 70.6785C123.342 71.4706 122.504 72.1032 121.477 72.5736L122.311 74.3917C123.588 73.8061 124.67 72.9988 125.539 71.9668L124.009 70.6785ZM121.47 72.577C120.494 73.0339 119.358 73.2747 118.042 73.2747V75.2747C119.606 75.2747 121.038 74.9874 122.318 74.3883L121.47 72.577ZM118.078 58.2987C116.744 58.2987 115.535 58.6868 114.49 59.4706L115.69 61.0706C116.373 60.5585 117.156 60.2987 118.078 60.2987V58.2987ZM114.504 59.46C113.385 60.2683 112.726 61.4827 112.451 62.9686L114.417 63.3327C114.622 62.2266 115.067 61.521 115.675 61.0813L114.504 59.46ZM113.434 64.1507H122.326V62.1507H113.434V64.1507ZM123.324 63.0895C123.238 61.6819 122.706 60.4847 121.69 59.5915L120.37 61.0938C120.937 61.5926 121.27 62.2674 121.328 63.2118L123.324 63.0895ZM121.69 59.5915C120.694 58.7163 119.467 58.2987 118.078 58.2987V60.2987C119.041 60.2987 119.782 60.577 120.37 61.0938L121.69 59.5915ZM134.086 73.5187L133.683 74.434L133.69 74.4374L133.698 74.4406L134.086 73.5187ZM131.206 71.3587L130.421 71.9783L131.206 71.3587ZM129.91 68.1907V67.1907H128.782L128.917 68.3098L129.91 68.1907ZM134.553 68.1907L135.533 67.988L135.368 67.1907H134.553V68.1907ZM135.706 69.9907L135.077 70.7686L135.093 70.7817L135.11 70.7942L135.706 69.9907ZM140.385 70.0986L139.738 69.3367L139.728 69.3449L139.719 69.3534L140.385 70.0986ZM140.098 67.1467L139.704 68.0658L139.718 68.0718L139.732 68.0774L140.098 67.1467ZM137.29 66.3186L137.504 65.342L137.503 65.3418L137.29 66.3186ZM134.95 65.7066L134.66 66.6637L134.95 65.7066ZM132.754 64.8066L132.244 65.6669L132.262 65.6779L132.281 65.6881L132.754 64.8066ZM131.17 63.3667L130.343 63.929L130.348 63.9369L130.353 63.9447L131.17 63.3667ZM132.43 57.1747L131.782 56.4123L131.775 56.4185L132.43 57.1747ZM142.798 57.0307L142.178 57.816L142.186 57.8216L142.798 57.0307ZM145.066 61.0986V62.0986H146.214L146.056 60.9611L145.066 61.0986ZM140.71 61.0986L139.729 61.2948L139.89 62.0986H140.71V61.0986ZM135.706 59.6227L135.132 58.8034L135.122 58.8104L135.112 58.8176L135.706 59.6227ZM138.838 63.0067L139.062 62.0323L139.061 62.0319L138.838 63.0067ZM142.258 63.9787L141.928 64.9229L141.941 64.9274L141.954 64.9316L142.258 63.9787ZM144.778 65.5266L144.033 66.1942L144.039 66.2007L144.045 66.2071L144.778 65.5266ZM145.714 68.4426H144.714V68.4535L144.714 68.4644L145.714 68.4426ZM144.85 71.4306L144.021 70.8708L144.85 71.4306ZM142.258 73.5187L141.85 72.6056L142.258 73.5187ZM138.262 73.2747C136.782 73.2747 135.527 73.0393 134.473 72.5967L133.698 74.4406C135.044 75.006 136.573 75.2747 138.262 75.2747V73.2747ZM134.488 72.6033C133.418 72.1326 132.597 71.507 131.99 70.739L130.421 71.9783C131.254 73.0343 132.353 73.8487 133.683 74.434L134.488 72.6033ZM131.99 70.739C131.389 69.9775 131.025 69.0964 130.902 68.0715L128.917 68.3098C129.082 69.6849 129.582 70.9158 130.421 71.9783L131.99 70.739ZM129.91 69.1907H134.553V67.1907H129.91V69.1907ZM133.574 68.3933C133.771 69.3449 134.298 70.139 135.077 70.7686L136.334 69.2127C135.865 68.8343 135.624 68.4284 135.533 67.988L133.574 68.3933ZM135.11 70.7942C135.97 71.4307 137.021 71.7106 138.189 71.7106V69.7106C137.342 69.7106 136.737 69.5106 136.301 69.1871L135.11 70.7942ZM138.189 71.7106C139.295 71.7106 140.326 71.4937 141.052 70.8439L139.719 69.3534C139.533 69.5196 139.1 69.7106 138.189 69.7106V71.7106ZM141.033 70.8606C141.689 70.303 142.105 69.5732 142.105 68.6946H140.105C140.105 68.8721 140.042 69.0783 139.738 69.3367L141.033 70.8606ZM142.105 68.6946C142.105 68.1648 141.989 67.6423 141.691 67.186C141.391 66.725 140.958 66.4105 140.463 66.2159L139.732 68.0774C139.909 68.1468 139.98 68.2223 140.016 68.2773C140.054 68.337 140.105 68.4565 140.105 68.6946H142.105ZM140.491 66.2275C139.736 65.9037 138.73 65.6117 137.504 65.342L137.075 67.2953C138.249 67.5536 139.115 67.8136 139.704 68.0658L140.491 66.2275ZM137.503 65.3418C136.762 65.1797 136.008 64.9824 135.24 64.7496L134.66 66.6637C135.475 66.9109 136.281 67.1216 137.076 67.2955L137.503 65.3418ZM135.24 64.7496C134.505 64.5271 133.835 64.2515 133.226 63.9252L132.281 65.6881C133.016 66.0818 133.81 66.4062 134.66 66.6637L135.24 64.7496ZM133.263 63.9464C132.728 63.629 132.307 63.2425 131.986 62.7886L130.353 63.9447C130.848 64.6428 131.483 65.2163 132.244 65.6669L133.263 63.9464ZM131.996 62.8043C131.721 62.3997 131.558 61.8731 131.558 61.1706H129.558C129.558 62.1962 129.802 63.1336 130.343 63.929L131.996 62.8043ZM131.558 61.1706C131.558 59.8905 132.045 58.83 133.084 57.9308L131.775 56.4185C130.318 57.6793 129.558 59.2828 129.558 61.1706H131.558ZM133.077 57.9369C134.111 57.0586 135.628 56.5546 137.758 56.5546V54.5546C135.327 54.5546 133.292 55.1307 131.782 56.4124L133.077 57.9369ZM137.758 56.5546C139.719 56.5546 141.157 57.0107 142.178 57.8159L143.417 56.2454C141.942 55.0826 140.02 54.5546 137.758 54.5546V56.5546ZM142.186 57.8216C143.232 58.6313 143.868 59.743 144.075 61.2362L146.056 60.9611C145.783 58.9983 144.907 57.3979 143.409 56.2397L142.186 57.8216ZM145.066 60.0986H140.71V62.0986H145.066V60.0986ZM141.69 60.9025C141.513 60.0176 141.066 59.2763 140.317 58.7801C139.597 58.3032 138.699 58.1187 137.722 58.1187V60.1187C138.472 60.1187 138.936 60.2641 139.212 60.4472C139.459 60.6111 139.642 60.8597 139.729 61.2948L141.69 60.9025ZM137.722 58.1187C136.745 58.1187 135.843 58.306 135.132 58.8034L136.279 60.4419C136.528 60.2673 136.97 60.1187 137.722 60.1187V58.1187ZM135.112 58.8176C134.437 59.3152 134.021 60.0182 134.021 60.8827H136.021C136.021 60.7391 136.062 60.6021 136.299 60.4277L135.112 58.8176ZM134.021 60.8827C134.021 61.9736 134.786 62.6649 135.656 63.0552L136.475 61.2301C136.214 61.1134 136.098 61.0104 136.053 60.9556C136.022 60.9186 136.021 60.9054 136.021 60.8827H134.021ZM135.656 63.0552C136.435 63.4043 137.429 63.7098 138.614 63.9814L139.061 62.0319C137.942 61.7755 137.088 61.505 136.475 61.2301L135.656 63.0552ZM138.613 63.981C139.831 64.2622 140.936 64.5766 141.928 64.9229L142.587 63.0344C141.515 62.6607 140.34 62.3271 139.062 62.0323L138.613 63.981ZM141.954 64.9316C142.872 65.2236 143.548 65.6537 144.033 66.1942L145.522 64.8591C144.759 64.0076 143.755 63.4057 142.561 63.0257L141.954 64.9316ZM144.045 66.2071C144.44 66.6328 144.714 67.3247 144.714 68.4426H146.714C146.714 67.0166 146.363 65.7645 145.51 64.8462L144.045 66.2071ZM144.714 68.4644C144.733 69.3682 144.501 70.1598 144.021 70.8708L145.678 71.9905C146.398 70.9256 146.742 69.7251 146.713 68.4209L144.714 68.4644ZM144.021 70.8708C143.541 71.5817 142.834 72.1659 141.85 72.6056L142.665 74.4317C143.937 73.8634 144.958 73.0556 145.678 71.9905L144.021 70.8708ZM141.85 72.6056C140.877 73.0401 139.69 73.2747 138.262 73.2747V75.2747C139.905 75.2747 141.382 75.0052 142.665 74.4317L141.85 72.6056Z" fill="white"/>
</svg>
