<svg width="299" height="35" viewBox="0 0 299 35" fill="none" xmlns="http://www.w3.org/2000/svg">
<path d="M6.80219 26L5.83538 26.2555L6.03214 27H6.80219V26ZM0.142188 0.799998V-0.200002H-1.15643L-0.824618 1.05551L0.142188 0.799998ZM5.07419 0.799998L6.04954 0.579361L5.87324 -0.200002H5.07419V0.799998ZM9.61019 20.852L8.63483 21.0726L10.5767 21.1088L9.61019 20.852ZM14.9382 0.799998V-0.200002H14.1692L13.9717 0.5432L14.9382 0.799998ZM20.0142 0.799998L20.9824 0.5497L20.7885 -0.200002H20.0142V0.799998ZM25.1982 20.852L24.23 21.1023L26.1735 21.0726L25.1982 20.852ZM29.7342 0.799998V-0.200002H28.9351L28.7588 0.579361L29.7342 0.799998ZM34.7022 0.799998L35.6673 1.06195L36.0098 -0.200002H34.7022V0.799998ZM27.8622 26V27H28.6269L28.8273 26.262L27.8622 26ZM22.3902 26L21.4242 26.2587L21.6228 27H22.3902V26ZM17.3862 7.316L18.3521 7.05729L17.3999 3.5017L16.4221 7.05037L17.3862 7.316ZM12.2382 26V27H12.9999L13.2023 26.2656L12.2382 26ZM7.76899 25.7445L1.10899 0.544485L-0.824618 1.05551L5.83538 26.2555L7.76899 25.7445ZM0.142188 1.8H5.07419V-0.200002H0.142188V1.8ZM4.09883 1.02064L8.63483 21.0726L10.5855 20.6314L6.04954 0.579361L4.09883 1.02064ZM10.5767 21.1088L15.9047 1.0568L13.9717 0.5432L8.64372 20.5952L10.5767 21.1088ZM14.9382 1.8H20.0142V-0.200002H14.9382V1.8ZM19.046 1.0503L24.23 21.1023L26.1664 20.6017L20.9824 0.5497L19.046 1.0503ZM26.1735 21.0726L30.7095 1.02064L28.7588 0.579361L24.2228 20.6314L26.1735 21.0726ZM29.7342 1.8H34.7022V-0.200002H29.7342V1.8ZM33.7371 0.538048L26.8971 25.738L28.8273 26.262L35.6673 1.06195L33.7371 0.538048ZM27.8622 25H22.3902V27H27.8622V25ZM23.3561 25.7413L18.3521 7.05729L16.4202 7.5747L21.4242 26.2587L23.3561 25.7413ZM16.4221 7.05037L11.2741 25.7344L13.2023 26.2656L18.3503 7.58163L16.4221 7.05037ZM12.2382 25H6.80219V27H12.2382V25ZM39.9233 25.28L40.4064 24.4044L39.9233 25.28ZM36.6113 12.284L35.735 11.802L35.729 11.8134L36.6113 12.284ZM39.8513 8.936L40.3524 9.80144L40.357 9.7987L39.8513 8.936ZM49.3913 8.864L48.8952 9.73224L49.3913 8.864ZM52.5233 12.032L51.6484 12.5163L51.6536 12.5257L51.659 12.5349L52.5233 12.032ZM53.6393 17.288L52.6428 17.205L52.6393 17.2464V17.288H53.6393ZM53.6033 18.188V19.188H54.5293L54.6004 18.2647L53.6033 18.188ZM40.0313 18.188V17.188H38.96L39.0337 18.2568L40.0313 18.188ZM41.4713 21.464L40.7955 22.2012L40.8057 22.2103L41.4713 21.464ZM47.0153 22.04L47.5626 22.877L47.57 22.8721L47.0153 22.04ZM48.4553 20.384V19.384H47.8171L47.5483 19.9629L48.4553 20.384ZM53.1353 20.384L54.0937 20.6695L54.4766 19.384H53.1353V20.384ZM51.4433 23.48L50.6799 22.8341L50.6784 22.8359L51.4433 23.48ZM48.5633 25.64L48.1466 24.7309L48.1394 24.7343L48.5633 25.64ZM41.7593 12.428L42.3448 13.2387L42.3521 13.2334L42.3593 13.228L41.7593 12.428ZM40.1033 15.308L39.12 15.1259L38.9011 16.308H40.1033V15.308ZM48.9953 15.308V16.308H50.0584L49.9934 15.2469L48.9953 15.308ZM47.6993 12.5L48.3594 11.7488V11.7488L47.6993 12.5ZM44.7113 25.432C43.0576 25.432 41.6318 25.0805 40.4064 24.4044L39.4402 26.1556C40.9988 27.0155 42.765 27.432 44.7113 27.432V25.432ZM40.4064 24.4044C39.177 23.7261 38.2181 22.7786 37.5165 21.5455L35.7781 22.5345C36.6606 24.0854 37.8856 25.2979 39.4402 26.1556L40.4064 24.4044ZM37.5165 21.5455C36.8216 20.3241 36.4593 18.8911 36.4593 17.216H34.4593C34.4593 19.1889 34.8891 20.9719 35.7781 22.5345L37.5165 21.5455ZM36.4593 17.216C36.4593 15.5102 36.8126 14.0315 37.4937 12.7546L35.729 11.8134C34.874 13.4165 34.4593 15.2258 34.4593 17.216H36.4593ZM37.4875 12.7659C38.1954 11.4789 39.1484 10.4984 40.3523 9.80142L39.3503 8.07057C37.8182 8.95757 36.6112 10.2091 35.7351 11.8021L37.4875 12.7659ZM40.357 9.7987C41.5726 9.08615 43.0243 8.712 44.7473 8.712V6.712C42.7264 6.712 40.9141 7.15385 39.3456 8.0733L40.357 9.7987ZM44.7473 8.712C46.3486 8.712 47.7213 9.06147 48.8952 9.73224L49.8875 7.99576C48.3733 7.13052 46.65 6.712 44.7473 6.712V8.712ZM48.8952 9.73224C50.0814 10.4101 50.9938 11.3339 51.6484 12.5163L53.3982 11.5477C52.5648 10.0421 51.3892 8.8539 49.8875 7.99576L48.8952 9.73224ZM51.659 12.5349C52.332 13.6917 52.6753 14.9921 52.6753 16.46H54.6753C54.6753 14.6639 54.2506 13.0123 53.3877 11.5291L51.659 12.5349ZM52.6753 16.46C52.6753 16.6938 52.6647 16.942 52.6428 17.205L54.6359 17.371C54.6619 17.058 54.6753 16.7542 54.6753 16.46H52.6753ZM52.6393 17.288C52.6393 17.5483 52.6285 17.8227 52.6063 18.1113L54.6004 18.2647C54.6262 17.9293 54.6393 17.6037 54.6393 17.288H52.6393ZM53.6033 17.188H40.0313V19.188H53.6033V17.188ZM39.0337 18.2568C39.1437 19.8527 39.7074 21.2037 40.7956 22.2012L42.147 20.7268C41.5072 20.1403 41.1109 19.3073 41.0289 18.1192L39.0337 18.2568ZM40.8057 22.2103C41.8865 23.1742 43.1949 23.652 44.6753 23.652V21.652C43.6597 21.652 42.8322 21.3378 42.1369 20.7177L40.8057 22.2103ZM44.6753 23.652C45.7561 23.652 46.7388 23.4156 47.5626 22.877L46.4681 21.203C46.0438 21.4804 45.4665 21.652 44.6753 21.652V23.652ZM47.57 22.8721C48.3628 22.3435 48.9689 21.6526 49.3623 20.8051L47.5483 19.9629C47.3178 20.4594 46.9638 20.8725 46.4606 21.2079L47.57 22.8721ZM48.4553 21.384H53.1353V19.384H48.4553V21.384ZM52.1769 20.0985C51.882 21.0887 51.3865 21.999 50.6799 22.8341L52.2067 24.1259C53.0841 23.089 53.7166 21.9353 54.0937 20.6695L52.1769 20.0985ZM50.6784 22.8359C50.0114 23.6279 49.1731 24.2605 48.1467 24.7309L48.98 26.5491C50.2576 25.9635 51.3392 25.1561 52.2082 24.1241L50.6784 22.8359ZM48.1394 24.7343C47.1633 25.1912 46.0276 25.432 44.7113 25.432V27.432C46.275 27.432 47.7073 27.1448 48.9873 26.5457L48.1394 24.7343ZM44.7473 10.456C43.4132 10.456 42.2045 10.8441 41.1593 11.628L42.3593 13.228C43.0422 12.7159 43.8254 12.456 44.7473 12.456V10.456ZM41.1738 11.6173C40.0546 12.4256 39.3952 13.64 39.12 15.1259L41.0866 15.4901C41.2914 14.384 41.736 13.6784 42.3448 13.2387L41.1738 11.6173ZM40.1033 16.308H48.9953V14.308H40.1033V16.308ZM49.9934 15.2469C49.9073 13.8392 49.3758 12.642 48.3594 11.7488L47.0392 13.2512C47.6068 13.75 47.9394 14.4248 47.9972 15.3691L49.9934 15.2469ZM48.3594 11.7488C47.3635 10.8736 46.1362 10.456 44.7473 10.456V12.456C45.7104 12.456 46.4511 12.7344 47.0392 13.2512L48.3594 11.7488ZM62.1589 23.552L62.9842 22.9873L61.6544 21.0437L61.1795 23.3503L62.1589 23.552ZM61.6549 26V27H62.47L62.6344 26.2017L61.6549 26ZM57.5509 26H56.5509V27H57.5509V26ZM57.5509 0.079999V-0.920001H56.5509V0.079999H57.5509ZM62.1589 0.079999H63.1589V-0.920001H62.1589V0.079999ZM62.1589 10.7H61.1589V13.7752L62.9677 11.2882L62.1589 10.7ZM64.4269 8.612L63.8969 7.76395L63.8873 7.77012L64.4269 8.612ZM72.6349 8.936L73.1608 8.0854L72.6349 8.936ZM75.7669 12.284L74.8879 12.7608L75.7669 12.284ZM75.7669 21.932L76.6425 22.4151L76.646 22.4088L75.7669 21.932ZM72.6349 25.244L73.1495 26.1016L73.1608 26.0946L72.6349 25.244ZM70.7989 20.924L71.5147 21.6223L70.7989 20.924ZM70.7989 13.256L71.5231 12.5663L70.7989 13.256ZM63.4909 13.256L62.7668 12.5663L62.7664 12.5668L63.4909 13.256ZM63.4909 20.924L62.7581 21.6045L62.7665 21.6135L62.7752 21.6223L63.4909 20.924ZM68.1349 25.432C66.9165 25.432 65.899 25.204 65.0542 24.7816L64.1597 26.5704C65.3309 27.156 66.6653 27.432 68.1349 27.432V25.432ZM65.0542 24.7816C64.195 24.352 63.5103 23.7562 62.9842 22.9873L61.3336 24.1167C62.0556 25.1718 63.0029 25.992 64.1597 26.5704L65.0542 24.7816ZM61.1795 23.3503L60.6755 25.7983L62.6344 26.2017L63.1384 23.7537L61.1795 23.3503ZM61.6549 25H57.5509V27H61.6549V25ZM58.5509 26V0.079999H56.5509V26H58.5509ZM57.5509 1.08H62.1589V-0.920001H57.5509V1.08ZM61.1589 0.079999V10.7H63.1589V0.079999H61.1589ZM62.9677 11.2882C63.4613 10.6094 64.1212 9.99578 64.9666 9.45388L63.8873 7.77012C62.8606 8.42822 62.0085 9.2066 61.3502 10.1118L62.9677 11.2882ZM64.9569 9.46C65.7131 8.98742 66.7491 8.712 68.1349 8.712V6.712C66.4967 6.712 65.0608 7.03657 63.8969 7.764L64.9569 9.46ZM68.1349 8.712C69.6451 8.712 70.9601 9.07631 72.1091 9.78659L73.1608 8.0854C71.6697 7.16369 69.9848 6.712 68.1349 6.712V8.712ZM72.1091 9.78659C73.275 10.5073 74.1997 11.492 74.8879 12.7608L76.646 11.8072C75.7981 10.244 74.6348 8.99666 73.1608 8.0854L72.1091 9.78659ZM74.8879 12.7608C75.5676 14.0139 75.9189 15.4546 75.9189 17.108H77.9189C77.9189 15.1614 77.5023 13.3861 76.646 11.8072L74.8879 12.7608ZM75.9189 17.108C75.9189 18.7614 75.5676 20.2021 74.8879 21.4552L76.646 22.4088C77.5023 20.8299 77.9189 19.0546 77.9189 17.108H75.9189ZM74.8914 21.4489C74.2043 22.6942 73.2792 23.6701 72.1091 24.3934L73.1608 26.0946C74.6307 25.1859 75.7936 23.9538 76.6425 22.4151L74.8914 21.4489ZM72.1204 24.3865C70.9699 25.0768 69.6508 25.432 68.1349 25.432V27.432C69.9791 27.432 71.66 26.9952 73.1494 26.1015L72.1204 24.3865ZM67.1629 23.4C68.877 23.4 70.3533 22.8127 71.5147 21.6223L70.0832 20.2257C69.3245 21.0033 68.3769 21.4 67.1629 21.4V23.4ZM71.5147 21.6223C72.6819 20.4259 73.2389 18.8908 73.2389 17.108H71.2389C71.2389 18.4452 70.8359 19.4541 70.0832 20.2257L71.5147 21.6223ZM73.2389 17.108C73.2389 15.3248 72.6821 13.7833 71.5231 12.5663L70.0748 13.9457C70.8358 14.7447 71.2389 15.7712 71.2389 17.108H73.2389ZM71.5231 12.5663C70.3637 11.349 68.8847 10.744 67.1629 10.744V12.744C68.3691 12.744 69.3142 13.147 70.0748 13.9457L71.5231 12.5663ZM67.1629 10.744C65.4223 10.744 63.9296 11.3454 62.7668 12.5663L64.2151 13.9457C64.9723 13.1506 65.9276 12.744 67.1629 12.744V10.744ZM62.7664 12.5668C61.6271 13.7644 61.0869 15.2965 61.0869 17.072H63.0869C63.0869 15.7275 63.4827 14.7155 64.2155 13.9452L62.7664 12.5668ZM61.0869 17.072C61.0869 18.848 61.6271 20.3864 62.7581 21.6045L64.2237 20.2435C63.4828 19.4456 63.0869 18.416 63.0869 17.072H61.0869ZM62.7752 21.6223C63.9399 22.8162 65.43 23.4 67.1629 23.4V21.4C65.9198 21.4 64.962 20.9998 64.2067 20.2257L62.7752 21.6223ZM89.7214 26H88.7214V27H89.7214V26ZM89.7214 0.799998V-0.200002H88.7214V0.799998H89.7214ZM106.173 0.799998H107.173V-0.200002H106.173V0.799998ZM106.173 4.508V5.508H107.173V4.508H106.173ZM94.3294 4.508V3.508H93.3294V4.508H94.3294ZM94.3294 11.42H93.3294V12.42H94.3294V11.42ZM105.093 11.42H106.093V10.42H105.093V11.42ZM105.093 15.02V16.02H106.093V15.02H105.093ZM94.3294 15.02V14.02H93.3294V15.02H94.3294ZM94.3294 22.292H93.3294V23.292H94.3294V22.292ZM106.173 22.292H107.173V21.292H106.173V22.292ZM106.173 26V27H107.173V26H106.173ZM90.7214 26V0.799998H88.7214V26H90.7214ZM89.7214 1.8H106.173V-0.200002H89.7214V1.8ZM105.173 0.799998V4.508H107.173V0.799998H105.173ZM106.173 3.508H94.3294V5.508H106.173V3.508ZM93.3294 4.508V11.42H95.3294V4.508H93.3294ZM94.3294 12.42H105.093V10.42H94.3294V12.42ZM104.093 11.42V15.02H106.093V11.42H104.093ZM105.093 14.02H94.3294V16.02H105.093V14.02ZM93.3294 15.02V22.292H95.3294V15.02H93.3294ZM94.3294 23.292H106.173V21.292H94.3294V23.292ZM105.173 22.292V26H107.173V22.292H105.173ZM106.173 25H89.7214V27H106.173V25ZM110.426 26H109.426V27H110.426V26ZM110.426 8.144V7.144H109.426V8.144H110.426ZM114.494 8.144L115.487 8.02579L115.382 7.144H114.494V8.144ZM114.854 11.168L113.861 11.2862L114.243 14.4954L115.74 11.6313L114.854 11.168ZM117.23 8.648L116.721 7.78703L116.713 7.79227L117.23 8.648ZM126.086 9.8L125.335 10.4603L126.086 9.8ZM127.922 26V27H128.922V26H127.922ZM123.314 26H122.314V27H123.314V26ZM122.378 12.824L123.172 12.2165L122.378 12.824ZM116.258 12.968L115.522 12.2905L115.518 12.2958L115.513 12.3012L116.258 12.968ZM115.034 26V27H116.034V26H115.034ZM111.426 26V8.144H109.426V26H111.426ZM110.426 9.144H114.494V7.144H110.426V9.144ZM113.501 8.26221L113.861 11.2862L115.847 11.0498L115.487 8.02579L113.501 8.26221ZM115.74 11.6313C116.206 10.7394 116.87 10.0343 117.747 9.50373L116.713 7.79227C115.526 8.5097 114.606 9.4846 113.968 10.7047L115.74 11.6313ZM117.739 9.50893C118.618 8.98925 119.673 8.712 120.938 8.712V6.712C119.371 6.712 117.954 7.05874 116.721 7.78707L117.739 9.50893ZM120.938 8.712C122.919 8.712 124.337 9.3257 125.335 10.4603L126.837 9.13966C125.387 7.4903 123.373 6.712 120.938 6.712V8.712ZM125.335 10.4603C126.339 11.6026 126.922 13.3675 126.922 15.92H128.922C128.922 13.0965 128.28 10.7814 126.837 9.13966L125.335 10.4603ZM126.922 15.92V26H128.922V15.92H126.922ZM127.922 25H123.314V27H127.922V25ZM124.314 26V16.352H122.314V26H124.314ZM124.314 16.352C124.314 14.7002 123.981 13.2745 123.172 12.2165L121.584 13.4314C122.023 14.0055 122.314 14.9318 122.314 16.352H124.314ZM123.172 12.2165C122.307 11.085 120.996 10.6 119.462 10.6V12.6C120.568 12.6 121.201 12.931 121.584 13.4314L123.172 12.2165ZM119.462 10.6C117.901 10.6 116.561 11.1627 115.522 12.2905L116.993 13.6455C117.635 12.9493 118.431 12.6 119.462 12.6V10.6ZM115.513 12.3012C114.484 13.4504 114.034 14.9894 114.034 16.784H116.034C116.034 15.3146 116.399 14.3096 117.003 13.6348L115.513 12.3012ZM114.034 16.784V26H116.034V16.784H114.034ZM115.034 25H110.426V27H115.034V25ZM135.784 24.632L136.413 23.8544L135.784 24.632ZM134.092 11.996H135.092V10.996H134.092V11.996ZM131.032 11.996H130.032V12.996H131.032V11.996ZM131.032 8.144V7.144H130.032V8.144H131.032ZM134.092 8.144V9.144H134.986L135.086 8.25607L134.092 8.144ZM134.632 3.356V2.356H133.739L133.639 3.24393L134.632 3.356ZM138.7 3.356H139.7V2.356H138.7V3.356ZM138.7 8.144H137.7V9.144H138.7V8.144ZM143.524 8.144H144.524V7.144H143.524V8.144ZM143.524 11.996V12.996H144.524V11.996H143.524ZM138.7 11.996V10.996H137.7V11.996H138.7ZM139.24 21.608L138.558 22.3391L138.583 22.3625L138.61 22.3841L139.24 21.608ZM143.416 22.076H144.416V21.076H143.416V22.076ZM143.416 26V27H144.416V26H143.416ZM140.284 25C138.574 25 137.317 24.5852 136.413 23.8544L135.156 25.4096C136.508 26.5028 138.251 27 140.284 27V25ZM136.413 23.8544C135.632 23.2227 135.092 21.9797 135.092 19.772H133.092C133.092 22.2203 133.681 24.2173 135.156 25.4096L136.413 23.8544ZM135.092 19.772V11.996H133.092V19.772H135.092ZM134.092 10.996H131.032V12.996H134.092V10.996ZM132.032 11.996V8.144H130.032V11.996H132.032ZM131.032 9.144H134.092V7.144H131.032V9.144ZM135.086 8.25607L135.626 3.46807L133.639 3.24393L133.099 8.03193L135.086 8.25607ZM134.632 4.356H138.7V2.356H134.632V4.356ZM137.7 3.356V8.144H139.7V3.356H137.7ZM138.7 9.144H143.524V7.144H138.7V9.144ZM142.524 8.144V11.996H144.524V8.144H142.524ZM143.524 10.996H138.7V12.996H143.524V10.996ZM137.7 11.996V19.808H139.7V11.996H137.7ZM137.7 19.808C137.7 20.7539 137.887 21.7127 138.558 22.3391L139.923 20.8769C139.874 20.8313 139.7 20.5901 139.7 19.808H137.7ZM138.61 22.3841C139.27 22.9206 140.213 23.076 141.184 23.076V21.076C140.332 21.076 139.979 20.9194 139.871 20.8319L138.61 22.3841ZM141.184 23.076H143.416V21.076H141.184V23.076ZM142.416 22.076V26H144.416V22.076H142.416ZM143.416 25H140.284V27H143.416V25ZM150.973 26L150.013 26.2806L150.223 27H150.973V26ZM145.753 8.144V7.144H144.418L144.793 8.42459L145.753 8.144ZM150.325 8.144L151.297 7.9098L151.112 7.144H150.325V8.144ZM153.421 20.996L152.448 21.2302L153.348 24.9635L154.384 21.2657L153.421 20.996ZM157.021 8.144V7.144H156.262L156.058 7.87427L157.021 8.144ZM162.133 8.144L163.096 7.87427L162.891 7.144H162.133V8.144ZM165.733 20.996L164.77 21.2657L165.8 24.9435L166.704 21.2328L165.733 20.996ZM168.865 8.144V7.144H168.079L167.893 7.90723L168.865 8.144ZM173.437 8.144L174.396 8.42637L174.773 7.144H173.437V8.144ZM168.181 26V27H168.929L169.14 26.2824L168.181 26ZM163.393 26L162.431 26.2747L162.638 27H163.393V26ZM159.577 12.644L160.538 12.3693L159.577 9.00394L158.615 12.3693L159.577 12.644ZM155.761 26V27H156.515L156.722 26.2747L155.761 26ZM151.932 25.7194L146.712 7.86341L144.793 8.42459L150.013 26.2806L151.932 25.7194ZM145.753 9.144H150.325V7.144H145.753V9.144ZM149.352 8.3782L152.448 21.2302L154.393 20.7618L151.297 7.9098L149.352 8.3782ZM154.384 21.2657L157.984 8.41373L156.058 7.87427L152.458 20.7263L154.384 21.2657ZM157.021 9.144H162.133V7.144H157.021V9.144ZM161.17 8.41373L164.77 21.2657L166.696 20.7263L163.096 7.87427L161.17 8.41373ZM166.704 21.2328L169.836 8.38077L167.893 7.90723L164.761 20.7592L166.704 21.2328ZM168.865 9.144H173.437V7.144H168.865V9.144ZM172.477 7.86162L167.221 25.7176L169.14 26.2824L174.396 8.42637L172.477 7.86162ZM168.181 25H163.393V27H168.181V25ZM164.354 25.7253L160.538 12.3693L158.615 12.9187L162.431 26.2747L164.354 25.7253ZM158.615 12.3693L154.799 25.7253L156.722 26.2747L160.538 12.9187L158.615 12.3693ZM155.761 25H150.973V27H155.761V25ZM176.74 4.616L176.049 5.33935L176.057 5.34701L176.066 5.35448L176.74 4.616ZM176.74 0.835998L177.413 1.57594L177.414 1.57448L176.74 0.835998ZM180.88 0.835998L180.189 1.55935L180.206 1.57538L180.224 1.5906L180.88 0.835998ZM180.88 4.616L180.206 3.87751L180.197 3.88499L180.189 3.89264L180.88 4.616ZM176.524 26H175.524V27H176.524V26ZM176.524 8.144V7.144H175.524V8.144H176.524ZM181.132 8.144H182.132V7.144H181.132V8.144ZM181.132 26V27H182.132V26H181.132ZM178.828 4.372C178.204 4.372 177.759 4.19212 177.414 3.87751L176.066 5.35448C176.825 6.04788 177.772 6.372 178.828 6.372V4.372ZM177.43 3.89264C177.111 3.58809 176.948 3.21869 176.948 2.708H174.948C174.948 3.73331 175.312 4.63591 176.049 5.33935L177.43 3.89264ZM176.948 2.708C176.948 2.19762 177.11 1.85077 177.413 1.57594L176.067 0.0960588C175.314 0.781225 174.948 1.68238 174.948 2.708H176.948ZM177.414 1.57448C177.759 1.25988 178.204 1.08 178.828 1.08V-0.920001C177.772 -0.920001 176.825 -0.595882 176.066 0.0975122L177.414 1.57448ZM178.828 1.08C179.452 1.08 179.876 1.2598 180.189 1.55935L181.57 0.112641C180.828 -0.595798 179.883 -0.920001 178.828 -0.920001V1.08ZM180.224 1.5906C180.545 1.87015 180.708 2.213 180.708 2.708H182.708C182.708 1.667 182.319 0.761848 181.536 0.0813932L180.224 1.5906ZM180.708 2.708C180.708 3.20377 180.544 3.56881 180.206 3.87751L181.554 5.35448C182.32 4.65519 182.708 3.74823 182.708 2.708H180.708ZM180.189 3.89264C179.876 4.1922 179.452 4.372 178.828 4.372V6.372C179.883 6.372 180.828 6.0478 181.57 5.33935L180.189 3.89264ZM177.524 26V8.144H175.524V26H177.524ZM176.524 9.144H181.132V7.144H176.524V9.144ZM180.132 8.144V26H182.132V8.144H180.132ZM181.132 25H176.524V27H181.132V25ZM189.866 25.244L190.36 24.3748L189.866 25.244ZM186.554 21.932L185.681 22.4202L185.687 22.4313L186.554 21.932ZM186.554 12.212L185.687 11.7127L185.681 11.7238L186.554 12.212ZM189.866 8.9L190.36 9.76916L189.866 8.9ZM200.45 9.512L199.84 10.3047L199.848 10.3105L200.45 9.512ZM203.438 14.408V15.408H204.666L204.417 14.2054L203.438 14.408ZM198.578 14.408L197.614 14.6756L197.817 15.408H198.578V14.408ZM197.138 12.392L196.551 13.2019L196.567 13.2133L196.583 13.224L197.138 12.392ZM191.414 13.076L190.679 12.397L191.414 13.076ZM191.414 21.068L192.148 20.389L191.414 21.068ZM197.138 21.788L196.583 20.9559L196.576 20.9603L196.57 20.9648L197.138 21.788ZM198.578 19.736V18.736H197.812L197.612 19.4751L198.578 19.736ZM203.438 19.736L204.415 19.9455L204.675 18.736H203.438V19.736ZM200.45 24.596L199.832 23.8093L200.45 24.596ZM194.69 25.432C193.014 25.432 191.581 25.0698 190.36 24.3748L189.371 26.1132C190.934 27.0023 192.717 27.432 194.69 27.432V25.432ZM190.36 24.3748C189.126 23.6727 188.149 22.6978 187.42 21.4327L185.687 22.4313C186.59 23.9982 187.821 25.2313 189.371 26.1132L190.36 24.3748ZM187.426 21.4438C186.728 20.1948 186.366 18.7467 186.366 17.072H184.366C184.366 19.0453 184.795 20.8372 185.681 22.4202L187.426 21.4438ZM186.366 17.072C186.366 15.3973 186.728 13.9492 187.426 12.7002L185.681 11.7238C184.795 13.3068 184.366 15.0987 184.366 17.072H186.366ZM187.42 12.7113C188.149 11.4462 189.126 10.4713 190.36 9.76916L189.371 8.03084C187.821 8.91271 186.59 10.1458 185.687 11.7127L187.42 12.7113ZM190.36 9.76916C191.581 9.07425 193.014 8.712 194.69 8.712V6.712C192.717 6.712 190.934 7.14175 189.371 8.03084L190.36 9.76916ZM194.69 8.712C196.785 8.712 198.482 9.25974 199.84 10.3046L201.059 8.71938C199.298 7.36426 197.154 6.712 194.69 6.712V8.712ZM199.848 10.3105C201.195 11.3265 202.071 12.737 202.458 14.6106L204.417 14.2054C203.94 11.903 202.824 10.0495 201.052 8.71348L199.848 10.3105ZM203.438 13.408H198.578V15.408H203.438V13.408ZM199.541 14.1404C199.239 13.0544 198.62 12.1782 197.692 11.5599L196.583 13.224C197.096 13.5658 197.436 14.0336 197.614 14.6756L199.541 14.1404ZM197.724 11.5821C196.838 10.9402 195.798 10.636 194.654 10.636V12.636C195.429 12.636 196.045 12.8358 196.551 13.2019L197.724 11.5821ZM194.654 10.636C193.094 10.636 191.751 11.2388 190.679 12.397L192.148 13.755C192.852 12.9931 193.669 12.636 194.654 12.636V10.636ZM190.679 12.397C189.574 13.5923 189.082 15.1948 189.082 17.072H191.082C191.082 15.5412 191.477 14.4797 192.148 13.755L190.679 12.397ZM189.082 17.072C189.082 18.9492 189.574 20.5517 190.679 21.747L192.148 20.389C191.477 19.6643 191.082 18.6028 191.082 17.072H189.082ZM190.679 21.747C191.751 22.9052 193.094 23.508 194.654 23.508V21.508C193.669 21.508 192.852 21.1509 192.148 20.389L190.679 21.747ZM194.654 23.508C195.788 23.508 196.82 23.2215 197.705 22.6112L196.57 20.9648C196.063 21.3145 195.439 21.508 194.654 21.508V23.508ZM197.692 22.62C198.627 21.9968 199.244 21.1027 199.543 19.9969L197.612 19.4751C197.431 20.1453 197.088 20.6192 196.583 20.9559L197.692 22.62ZM198.578 20.736H203.438V18.736H198.578V20.736ZM202.46 19.5265C202.075 21.3237 201.201 22.7357 199.832 23.8093L201.067 25.3827C202.819 24.0083 203.936 22.1803 204.415 19.9455L202.46 19.5265ZM199.832 23.8093C198.474 24.8749 196.781 25.432 194.69 25.432V27.432C197.158 27.432 199.305 26.7651 201.067 25.3827L199.832 23.8093ZM207.527 26H206.527V27H207.527V26ZM207.527 0.079999V-0.920001H206.527V0.079999H207.527ZM212.135 0.079999H213.135V-0.920001H212.135V0.079999ZM212.135 15.38H211.135V18.04L212.888 16.0388L212.135 15.38ZM218.471 8.144V7.144H218.018L217.719 7.48523L218.471 8.144ZM223.943 8.144L224.687 8.81224L226.186 7.144H223.943V8.144ZM216.635 16.28L215.892 15.6118L215.299 16.271L215.883 16.9381L216.635 16.28ZM225.132 26V27H227.334L225.884 25.3419L225.132 26ZM219.372 26L218.593 26.6281L218.894 27H219.372V26ZM212.135 17.036L212.914 16.4079L211.135 14.2051V17.036H212.135ZM212.135 26V27H213.135V26H212.135ZM208.527 26V0.079999H206.527V26H208.527ZM207.527 1.08H212.135V-0.920001H207.527V1.08ZM211.135 0.079999V15.38H213.135V0.079999H211.135ZM212.888 16.0388L219.224 8.80277L217.719 7.48523L211.383 14.7212L212.888 16.0388ZM218.471 9.144H223.943V7.144H218.471V9.144ZM223.2 7.47576L215.892 15.6118L217.379 16.9482L224.687 8.81224L223.2 7.47576ZM215.883 16.9381L224.379 26.6581L225.884 25.3419L217.388 15.6219L215.883 16.9381ZM225.132 25H219.372V27H225.132V25ZM220.15 25.3719L212.914 16.4079L211.357 17.6641L218.593 26.6281L220.15 25.3719ZM211.135 17.036V26H213.135V17.036H211.135ZM212.135 25H207.527V27H212.135V25ZM227.988 26H226.988V27H227.988V26ZM227.988 0.079999V-0.920001H226.988V0.079999H227.988ZM232.596 0.079999H233.596V-0.920001H232.596V0.079999ZM232.596 26V27H233.596V26H232.596ZM228.988 26V0.079999H226.988V26H228.988ZM227.988 1.08H232.596V-0.920001H227.988V1.08ZM231.596 0.079999V26H233.596V0.079999H231.596ZM232.596 25H227.988V27H232.596V25ZM238.817 24.344L238.059 24.997L238.066 25.0043L238.817 24.344ZM237.017 8.144V7.144H236.017V8.144H237.017ZM241.589 8.144H242.589V7.144H241.589V8.144ZM242.525 21.32L241.73 21.9275L242.525 21.32ZM248.609 21.176L247.873 20.4985L247.868 20.5038L247.864 20.5092L248.609 21.176ZM249.869 8.144V7.144H248.869V8.144H249.869ZM254.477 8.144H255.477V7.144H254.477V8.144ZM254.477 26V27H255.477V26H254.477ZM250.409 26L249.416 26.1182L249.521 27H250.409V26ZM250.049 22.976L251.042 22.8578L250.66 19.6486L249.163 22.5127L250.049 22.976ZM247.637 25.496L247.128 24.635L247.119 24.6403L247.637 25.496ZM244.001 25.432C241.992 25.432 240.563 24.8159 239.568 23.6837L238.066 25.0043C239.518 26.6561 241.545 27.432 244.001 27.432V25.432ZM239.574 23.6911C238.589 22.5486 238.017 20.7806 238.017 18.224H236.017C236.017 21.0434 236.644 23.3554 238.059 24.9969L239.574 23.6911ZM238.017 18.224V8.144H236.017V18.224H238.017ZM237.017 9.144H241.589V7.144H237.017V9.144ZM240.589 8.144V17.792H242.589V8.144H240.589ZM240.589 17.792C240.589 19.4438 240.921 20.8695 241.73 21.9275L243.319 20.7125C242.88 20.1385 242.589 19.2122 242.589 17.792H240.589ZM241.73 21.9275C242.599 23.0635 243.926 23.544 245.477 23.544V21.544C244.34 21.544 243.698 21.2085 243.319 20.7125L241.73 21.9275ZM245.477 23.544C247.021 23.544 248.34 22.9761 249.354 21.8428L247.864 20.5092C247.246 21.1999 246.477 21.544 245.477 21.544V23.544ZM249.344 21.8535C250.403 20.7046 250.869 19.1616 250.869 17.36H248.869C248.869 18.8224 248.495 19.8234 247.873 20.4985L249.344 21.8535ZM250.869 17.36V8.144H248.869V17.36H250.869ZM249.869 9.144H254.477V7.144H249.869V9.144ZM253.477 8.144V26H255.477V8.144H253.477ZM254.477 25H250.409V27H254.477V25ZM251.402 25.8818L251.042 22.8578L249.056 23.0942L249.416 26.1182L251.402 25.8818ZM249.163 22.5127C248.7 23.3986 248.029 24.1029 247.128 24.6351L248.146 26.3569C249.357 25.6411 250.294 24.6654 250.935 23.4393L249.163 22.5127ZM247.119 24.6403C246.266 25.1561 245.239 25.432 244.001 25.432V27.432C245.547 27.432 246.943 27.0839 248.154 26.3517L247.119 24.6403ZM259.207 26H258.207V27H259.207V26ZM259.207 8.144V7.144H258.207V8.144H259.207ZM263.275 8.144L264.268 8.02579L264.163 7.144H263.275V8.144ZM263.635 11.168L262.642 11.2862L263.024 14.4954L264.521 11.6313L263.635 11.168ZM266.011 8.648L265.502 7.78703L265.494 7.79227L266.011 8.648ZM274.867 9.8L274.116 10.4603L274.867 9.8ZM276.703 26V27H277.703V26H276.703ZM272.095 26H271.095V27H272.095V26ZM271.159 12.824L271.954 12.2165L271.159 12.824ZM265.039 12.968L264.304 12.2905L264.299 12.2958L264.294 12.3012L265.039 12.968ZM263.815 26V27H264.815V26H263.815ZM260.207 26V8.144H258.207V26H260.207ZM259.207 9.144H263.275V7.144H259.207V9.144ZM262.282 8.26221L262.642 11.2862L264.628 11.0498L264.268 8.02579L262.282 8.26221ZM264.521 11.6313C264.988 10.7394 265.651 10.0343 266.529 9.50373L265.494 7.79227C264.307 8.5097 263.387 9.4846 262.749 10.7047L264.521 11.6313ZM266.52 9.50893C267.399 8.98925 268.454 8.712 269.719 8.712V6.712C268.152 6.712 266.735 7.05874 265.502 7.78707L266.52 9.50893ZM269.719 8.712C271.7 8.712 273.119 9.3257 274.116 10.4603L275.618 9.13966C274.168 7.4903 272.154 6.712 269.719 6.712V8.712ZM274.116 10.4603C275.121 11.6026 275.703 13.3675 275.703 15.92H277.703C277.703 13.0965 277.062 10.7814 275.618 9.13966L274.116 10.4603ZM275.703 15.92V26H277.703V15.92H275.703ZM276.703 25H272.095V27H276.703V25ZM273.095 26V16.352H271.095V26H273.095ZM273.095 16.352C273.095 14.7002 272.763 13.2745 271.954 12.2165L270.365 13.4314C270.804 14.0055 271.095 14.9318 271.095 16.352H273.095ZM271.954 12.2165C271.088 11.085 269.777 10.6 268.243 10.6V12.6C269.349 12.6 269.982 12.931 270.365 13.4314L271.954 12.2165ZM268.243 10.6C266.682 10.6 265.342 11.1627 264.304 12.2905L265.775 13.6455C266.416 12.9493 267.212 12.6 268.243 12.6V10.6ZM264.294 12.3012C263.266 13.4504 262.815 14.9894 262.815 16.784H264.815C264.815 15.3146 265.181 14.3096 265.784 13.6348L264.294 12.3012ZM262.815 16.784V26H264.815V16.784H262.815ZM263.815 25H259.207V27H263.815V25ZM286.258 20.384L286.507 19.4157L285.954 19.273L285.55 19.6769L286.258 20.384ZM284.926 21.716L284.218 21.0089L283.261 21.9663L284.458 22.5998L284.926 21.716ZM286.582 22.256L286.379 23.2353L286.582 22.256ZM289.966 22.688L289.874 23.6838L289.875 23.6839L289.966 22.688ZM295.15 24.38L294.504 25.144L295.15 24.38ZM295.906 31.148L295.054 30.6239L295.048 30.6335L295.906 31.148ZM293.242 33.452L292.809 32.5505L292.802 32.554L292.794 32.5576L293.242 33.452ZM282.478 32.912L283.002 32.0603L282.992 32.0545L282.478 32.912ZM282.478 24.488L283.079 25.2865L284.429 24.2694L282.888 23.5761L282.478 24.488ZM281.218 23.804L280.636 24.6177L280.649 24.6271L280.663 24.6361L281.218 23.804ZM280.318 23.048H279.318V23.4622L279.61 23.7551L280.318 23.048ZM280.318 22.22L279.591 21.5329L279.318 21.8221V22.22H280.318ZM283.45 18.908L284.176 19.5951L284.889 18.8417L284.11 18.157L283.45 18.908ZM282.226 10.916L281.372 10.3954L281.367 10.4031L281.363 10.4108L282.226 10.916ZM284.746 8.576L284.275 7.69365L284.746 8.576ZM291.478 8.144L291.161 9.09268L291.315 9.144H291.478V8.144ZM298.246 8.144H299.246V7.144H298.246V8.144ZM298.246 10.952L298.316 11.9495L299.246 11.8839V10.952H298.246ZM295.186 11.168L295.115 10.1705L293.587 10.2783L294.301 11.6337L295.186 11.168ZM292.522 19.808L292.059 18.9214L292.051 18.9256L292.522 19.808ZM290.974 16.388L290.345 15.6101L290.338 15.6161L290.33 15.6223L290.974 16.388ZM290.974 12.068L290.33 12.8337L290.338 12.8399L290.345 12.8459L290.974 12.068ZM286.294 12.068L285.65 11.3023L286.294 12.068ZM286.294 16.388L286.937 15.6223L286.294 16.388ZM285.574 30.176L286.051 29.2971L286.041 29.2922L285.574 30.176ZM291.442 30.14L290.906 29.2952L290.897 29.3014L290.887 29.3079L291.442 30.14ZM291.802 26.648L291.114 27.374L291.123 27.3827L291.133 27.3913L291.802 26.648ZM289.03 25.856L288.957 26.8533L288.961 26.8536L289.03 25.856ZM286.294 25.532L286.462 24.5464L286.117 24.4872L285.81 24.6564L286.294 25.532ZM284.782 26.792L283.956 26.2273L283.946 26.2425L283.936 26.258L284.782 26.792ZM288.67 19.672C287.88 19.672 287.16 19.5842 286.507 19.4157L286.008 21.3523C286.843 21.5678 287.732 21.672 288.67 21.672V19.672ZM285.55 19.6769L284.218 21.0089L285.633 22.4231L286.965 21.0911L285.55 19.6769ZM284.458 22.5998C284.981 22.877 285.635 23.0813 286.379 23.2353L286.784 21.2767C286.137 21.1427 285.686 20.987 285.393 20.8322L284.458 22.5998ZM286.379 23.2353C287.134 23.3915 288.31 23.5394 289.874 23.6838L290.057 21.6922C288.501 21.5486 287.421 21.4085 286.784 21.2767L286.379 23.2353ZM289.875 23.6839C292.173 23.8928 293.656 24.4276 294.504 25.144L295.795 23.616C294.483 22.5084 292.51 21.9152 290.056 21.6921L289.875 23.6839ZM294.504 25.144C295.327 25.8386 295.77 26.8012 295.77 28.16H297.77C297.77 26.3028 297.132 24.7454 295.795 23.616L294.504 25.144ZM295.77 28.16C295.77 29.0232 295.537 29.8388 295.054 30.6239L296.757 31.6721C297.426 30.5852 297.77 29.4088 297.77 28.16H295.77ZM295.048 30.6335C294.59 31.3962 293.866 32.0429 292.809 32.5505L293.674 34.3535C295.017 33.7091 296.069 32.8198 296.763 31.6625L295.048 30.6335ZM292.794 32.5576C291.777 33.0663 290.408 33.352 288.634 33.352V35.352C290.603 35.352 292.306 35.0377 293.689 34.3464L292.794 32.5576ZM288.634 33.352C286.206 33.352 284.354 32.8926 283.002 32.0603L281.953 33.7637C283.721 34.8514 285.973 35.352 288.634 35.352V33.352ZM282.992 32.0545C281.748 31.3084 281.138 30.2268 281.138 28.664H279.138C279.138 30.8932 280.087 32.6436 281.963 33.7695L282.992 32.0545ZM281.138 28.664C281.138 27.4384 281.71 26.319 283.079 25.2865L281.876 23.6895C280.125 25.009 279.138 26.6736 279.138 28.664H281.138ZM282.888 23.5761C282.448 23.378 282.078 23.1757 281.772 22.972L280.663 24.6361C281.077 24.9123 281.547 25.166 282.067 25.3999L282.888 23.5761ZM281.799 22.9903C281.503 22.779 281.246 22.5621 281.025 22.3409L279.61 23.7551C279.917 24.0619 280.26 24.349 280.636 24.6177L281.799 22.9903ZM281.318 23.048V22.22H279.318V23.048H281.318ZM281.044 22.9071L284.176 19.5951L282.723 18.2209L279.591 21.5329L281.044 22.9071ZM284.11 18.157C282.942 17.1305 282.362 15.8362 282.362 14.192H280.362C280.362 16.3878 281.173 18.2375 282.789 19.659L284.11 18.157ZM282.362 14.192C282.362 13.1599 282.607 12.2438 283.089 11.4212L281.363 10.4108C280.692 11.5562 280.362 12.8241 280.362 14.192H282.362ZM283.079 11.4366C283.58 10.6148 284.284 9.95563 285.216 9.45835L284.275 7.69365C283.047 8.34837 282.071 9.24916 281.372 10.3954L283.079 11.4366ZM285.216 9.45835C286.119 8.97683 287.257 8.712 288.67 8.712V6.712C287.01 6.712 285.532 7.02316 284.275 7.69365L285.216 9.45835ZM288.67 8.712C289.581 8.712 290.41 8.8421 291.161 9.09268L291.794 7.19532C290.818 6.8699 289.774 6.712 288.67 6.712V8.712ZM291.478 9.144H298.246V7.144H291.478V9.144ZM297.246 8.144V10.952H299.246V8.144H297.246ZM298.175 9.95448L295.115 10.1705L295.256 12.1655L298.316 11.9495L298.175 9.95448ZM294.301 11.6337C294.7 12.392 294.906 13.2384 294.906 14.192H296.906C296.906 12.9376 296.631 11.768 296.07 10.7023L294.301 11.6337ZM294.906 14.192C294.906 15.2241 294.66 16.1402 294.179 16.9628L295.905 17.9732C296.575 16.8278 296.906 15.5599 296.906 14.192H294.906ZM294.179 16.9628C293.706 17.7697 293.012 18.4241 292.059 18.9214L292.984 20.6946C294.239 20.0399 295.225 19.1343 295.905 17.9732L294.179 16.9628ZM292.051 18.9256C291.144 19.4094 290.028 19.672 288.67 19.672V21.672C290.287 21.672 291.739 21.3586 292.992 20.6904L292.051 18.9256ZM288.67 18.144C289.793 18.144 290.803 17.8372 291.617 17.1537L290.33 15.6223C289.944 15.9468 289.418 16.144 288.67 16.144V18.144ZM291.602 17.1659C292.502 16.4393 292.91 15.4097 292.91 14.228H290.91C290.91 14.9183 290.693 15.3287 290.345 15.6101L291.602 17.1659ZM292.91 14.228C292.91 13.0463 292.502 12.0167 291.602 11.2901L290.345 12.8459C290.693 13.1273 290.91 13.5377 290.91 14.228H292.91ZM291.617 11.3023C290.803 10.6188 289.793 10.312 288.67 10.312V12.312C289.418 12.312 289.944 12.5092 290.33 12.8337L291.617 11.3023ZM288.67 10.312C287.512 10.312 286.473 10.6114 285.65 11.3023L286.937 12.8337C287.314 12.5166 287.859 12.312 288.67 12.312V10.312ZM285.65 11.3023C284.78 12.0336 284.394 13.06 284.394 14.228H286.394C286.394 13.524 286.607 13.1104 286.937 12.8337L285.65 11.3023ZM284.394 14.228C284.394 15.396 284.78 16.4224 285.65 17.1537L286.937 15.6223C286.607 15.3456 286.394 14.932 286.394 14.228H284.394ZM285.65 17.1537C286.473 17.8446 287.512 18.144 288.67 18.144V16.144C287.859 16.144 287.314 15.9394 286.937 15.6223L285.65 17.1537ZM283.35 28.196C283.35 28.7983 283.49 29.373 283.805 29.8828C284.119 30.3905 284.571 30.7765 285.106 31.0598L286.041 29.2922C285.761 29.1435 285.6 28.9835 285.506 28.8312C285.413 28.681 285.35 28.4817 285.35 28.196H283.35ZM285.096 31.0549C286.116 31.6082 287.309 31.86 288.634 31.86V29.86C287.558 29.86 286.711 29.6558 286.051 29.2971L285.096 31.0549ZM288.634 31.86C289.919 31.86 291.066 31.5924 291.996 30.972L290.887 29.3079C290.377 29.6476 289.652 29.86 288.634 29.86V31.86ZM291.977 30.9848C292.96 30.3622 293.522 29.4328 293.522 28.268H291.522C291.522 28.6872 291.363 29.0058 290.906 29.2952L291.977 30.9848ZM293.522 28.268C293.522 27.3376 293.162 26.5271 292.47 25.9047L291.133 27.3913C291.401 27.6329 291.522 27.9024 291.522 28.268H293.522ZM292.489 25.922C292.099 25.5522 291.583 25.3193 291.041 25.1645C290.489 25.0068 289.836 24.9092 289.098 24.8584L288.961 26.8536C289.615 26.8988 290.12 26.9812 290.492 27.0875C290.874 27.1967 291.048 27.3118 291.114 27.374L292.489 25.922ZM289.103 24.8587C288.146 24.7887 287.266 24.6842 286.462 24.5464L286.125 26.5176C287.001 26.6678 287.945 26.7793 288.957 26.8533L289.103 24.8587ZM285.81 24.6564C285.034 25.0851 284.387 25.5984 283.956 26.2273L285.607 27.3567C285.801 27.0736 286.162 26.7469 286.777 26.4076L285.81 24.6564ZM283.936 26.258C283.56 26.8535 283.35 27.5043 283.35 28.196H285.35C285.35 27.9277 285.427 27.6425 285.627 27.326L283.936 26.258Z" fill="white"/>
</svg>
