<svg width="204" height="129" viewBox="0 0 204 129" fill="none" xmlns="http://www.w3.org/2000/svg">
<path d="M0.448 26H-0.552V27H0.448V26ZM0.448 0.799998V-0.200002H-0.552V0.799998H0.448ZM16.324 2.384L15.8374 3.25763L15.844 3.26128L15.8506 3.26482L16.324 2.384ZM20.572 6.776L19.6708 7.20947L19.6742 7.21637L19.6776 7.22321L20.572 6.776ZM20.572 20.06L19.6753 19.6173L19.673 19.622L20.572 20.06ZM16.324 24.452L16.8021 25.3303L16.8059 25.3282L16.324 24.452ZM5.056 22.04H4.056V23.04H5.056V22.04ZM13.84 21.032L14.3213 21.9086L14.3278 21.905L14.3343 21.9013L13.84 21.032ZM16.468 18.08L17.3916 18.4634L17.3941 18.4573L16.468 18.08ZM16.468 8.756L15.5419 9.1333L15.5419 9.1333L16.468 8.756ZM5.056 4.724V3.724H4.056V4.724H5.056ZM1.448 26V0.799998H-0.552V26H1.448ZM0.448 1.8H9.052V-0.200002H0.448V1.8ZM9.052 1.8C11.8924 1.8 14.1342 2.30902 15.8374 3.25763L16.8106 1.51036C14.7218 0.346973 12.1156 -0.200002 9.052 -0.200002V1.8ZM15.8506 3.26482C17.5914 4.20055 18.854 5.51128 19.6708 7.20947L21.4732 6.34253C20.466 4.24871 18.8966 2.63145 16.7974 1.50317L15.8506 3.26482ZM19.6776 7.22321C20.5308 8.9296 20.976 10.9783 20.976 13.4H22.976C22.976 10.7337 22.4852 8.3664 21.4664 6.32879L19.6776 7.22321ZM20.976 13.4C20.976 15.8213 20.5309 17.8842 19.6753 19.6173L21.4687 20.5027C22.4851 18.4438 22.976 16.0667 22.976 13.4H20.976ZM19.673 19.622C18.8563 21.2983 17.5912 22.6138 15.8421 23.5758L16.8059 25.3282C18.8968 24.1782 20.4637 22.5657 21.471 20.498L19.673 19.622ZM15.8459 23.5737C14.1406 24.5019 11.8955 25 9.052 25V27C12.1125 27 14.7154 26.4661 16.8021 25.3303L15.8459 23.5737ZM9.052 25H0.448V27H9.052V25ZM5.056 23.04H8.836V21.04H5.056V23.04ZM8.836 23.04C11.037 23.04 12.8932 22.6926 14.3213 21.9086L13.3587 20.1554C12.3388 20.7154 10.859 21.04 8.836 21.04V23.04ZM14.3343 21.9013C15.7467 21.0981 16.7764 19.9454 17.3916 18.4634L15.5444 17.6966C15.1036 18.7586 14.3813 19.5739 13.3457 20.1627L14.3343 21.9013ZM17.3941 18.4573C17.9833 17.0112 18.26 15.316 18.26 13.4H16.26C16.26 15.132 16.0087 16.5568 15.5419 17.7027L17.3941 18.4573ZM18.26 13.4C18.26 11.506 17.9827 9.82342 17.3941 8.3787L15.5419 9.1333C16.0093 10.2806 16.26 11.694 16.26 13.4H18.26ZM17.3941 8.3787C16.7809 6.87352 15.752 5.70488 14.3343 4.89871L13.3457 6.63729C14.376 7.22312 15.0991 8.04648 15.5419 9.1333L17.3941 8.3787ZM14.3343 4.89871C12.9027 4.08464 11.0412 3.724 8.836 3.724V5.724C10.8548 5.724 12.3293 6.05936 13.3457 6.63729L14.3343 4.89871ZM8.836 3.724H5.056V5.724H8.836V3.724ZM4.056 4.724V22.04H6.056V4.724H4.056ZM29.8218 25.28L30.3048 24.4044L30.3048 24.4044L29.8218 25.28ZM26.5098 12.284L25.6335 11.802L25.6274 11.8134L26.5098 12.284ZM29.7498 8.936L30.2508 9.80144L30.2555 9.7987L29.7498 8.936ZM39.2898 8.864L38.7936 9.73224L38.7936 9.73224L39.2898 8.864ZM42.4218 12.032L41.5469 12.5163L41.552 12.5257L41.5574 12.5349L42.4218 12.032ZM43.5378 17.288L42.5412 17.205L42.5378 17.2464V17.288H43.5378ZM43.5018 18.188V19.188H44.4278L44.4988 18.2647L43.5018 18.188ZM29.9298 18.188V17.188H28.8584L28.9321 18.2568L29.9298 18.188ZM31.3698 21.464L30.694 22.2012L30.7041 22.2103L31.3698 21.464ZM36.9138 22.04L37.461 22.877L37.4685 22.8721L36.9138 22.04ZM38.3538 20.384V19.384H37.7155L37.4467 19.9629L38.3538 20.384ZM43.0338 20.384L43.9921 20.6695L44.375 19.384H43.0338V20.384ZM41.3418 23.48L40.5784 22.8341L40.5768 22.8359L41.3418 23.48ZM38.4618 25.64L38.0451 24.7309L38.0378 24.7343L38.4618 25.64ZM31.6578 12.428L32.2432 13.2387L32.2505 13.2334L32.2578 13.228L31.6578 12.428ZM30.0018 15.308L29.0185 15.1259L28.7996 16.308H30.0018V15.308ZM38.8938 15.308V16.308H39.9568L39.8919 15.2469L38.8938 15.308ZM37.5978 12.5L38.2579 11.7488L38.2579 11.7488L37.5978 12.5ZM34.6098 25.432C32.956 25.432 31.5302 25.0805 30.3048 24.4044L29.3387 26.1556C30.8973 27.0155 32.6635 27.432 34.6098 27.432V25.432ZM30.3048 24.4044C29.0754 23.7261 28.1165 22.7786 27.4149 21.5455L25.6766 22.5345C26.559 24.0854 27.7841 25.2979 29.3387 26.1556L30.3048 24.4044ZM27.4149 21.5455C26.72 20.3241 26.3578 18.8911 26.3578 17.216H24.3578C24.3578 19.1889 24.7875 20.9719 25.6766 22.5345L27.4149 21.5455ZM26.3578 17.216C26.3578 15.5102 26.7111 14.0315 27.3921 12.7546L25.6274 11.8134C24.7724 13.4165 24.3578 15.2258 24.3578 17.216H26.3578ZM27.386 12.7659C28.0938 11.4789 29.0469 10.4984 30.2508 9.80142L29.2487 8.07057C27.7166 8.95757 26.5097 10.2091 25.6335 11.8021L27.386 12.7659ZM30.2555 9.7987C31.471 9.08615 32.9227 8.712 34.6458 8.712V6.712C32.6248 6.712 30.8125 7.15385 29.244 8.0733L30.2555 9.7987ZM34.6458 8.712C36.2471 8.712 37.6198 9.06147 38.7936 9.73224L39.7859 7.99576C38.2717 7.13052 36.5484 6.712 34.6458 6.712V8.712ZM38.7936 9.73224C39.9799 10.4101 40.8923 11.3339 41.5469 12.5163L43.2966 11.5477C42.4632 10.0421 41.2876 8.85389 39.7859 7.99576L38.7936 9.73224ZM41.5574 12.5349C42.2304 13.6917 42.5738 14.9921 42.5738 16.46H44.5738C44.5738 14.6639 44.1491 13.0123 43.2861 11.5291L41.5574 12.5349ZM42.5738 16.46C42.5738 16.6938 42.5631 16.942 42.5412 17.205L44.5343 17.371C44.5604 17.058 44.5738 16.7542 44.5738 16.46H42.5738ZM42.5378 17.288C42.5378 17.5483 42.5269 17.8227 42.5047 18.1113L44.4988 18.2647C44.5246 17.9293 44.5378 17.6037 44.5378 17.288H42.5378ZM43.5018 17.188H29.9298V19.188H43.5018V17.188ZM28.9321 18.2568C29.0422 19.8527 29.6059 21.2037 30.694 22.2012L32.0455 20.7268C31.4056 20.1403 31.0093 19.3073 30.9274 18.1192L28.9321 18.2568ZM30.7041 22.2103C31.7849 23.1742 33.0934 23.652 34.5738 23.652V21.652C33.5581 21.652 32.7306 21.3378 32.0354 20.7177L30.7041 22.2103ZM34.5738 23.652C35.6546 23.652 36.6373 23.4156 37.461 22.877L36.3665 21.203C35.9422 21.4804 35.3649 21.652 34.5738 21.652V23.652ZM37.4685 22.8721C38.2613 22.3435 38.8673 21.6526 39.2608 20.8051L37.4467 19.9629C37.2162 20.4594 36.8623 20.8725 36.3591 21.2079L37.4685 22.8721ZM38.3538 21.384H43.0338V19.384H38.3538V21.384ZM42.0754 20.0985C41.7804 21.0887 41.285 21.999 40.5784 22.8341L42.1051 24.1259C42.9825 23.089 43.6151 21.9353 43.9921 20.6695L42.0754 20.0985ZM40.5768 22.8359C39.9099 23.6279 39.0715 24.2605 38.0451 24.7309L38.8784 26.5491C40.156 25.9635 41.2376 25.1561 42.1067 24.1241L40.5768 22.8359ZM38.0378 24.7343C37.0617 25.1912 35.926 25.432 34.6098 25.432V27.432C36.1735 27.432 37.6058 27.1448 38.8857 26.5457L38.0378 24.7343ZM34.6458 10.456C33.3117 10.456 32.1029 10.8441 31.0578 11.628L32.2578 13.228C32.9406 12.7159 33.7238 12.456 34.6458 12.456V10.456ZM31.0723 11.6173C29.953 12.4256 29.2936 13.64 29.0185 15.1259L30.985 15.4901C31.1899 14.384 31.6345 13.6784 32.2432 13.2387L31.0723 11.6173ZM30.0018 16.308H38.8938V14.308H30.0018V16.308ZM39.8919 15.2469C39.8057 13.8392 39.2743 12.642 38.2579 11.7488L36.9376 13.2512C37.5052 13.75 37.8378 14.4248 37.8956 15.3691L39.8919 15.2469ZM38.2579 11.7488C37.262 10.8736 36.0346 10.456 34.6458 10.456V12.456C35.6089 12.456 36.3495 12.7344 36.9376 13.2512L38.2579 11.7488ZM50.6534 25.676L50.2506 26.5913L50.2584 26.5947L50.2661 26.598L50.6534 25.676ZM47.7734 23.516L46.9885 24.1356L46.9885 24.1356L47.7734 23.516ZM46.4774 20.348V19.348H45.3502L45.4845 20.4671L46.4774 20.348ZM51.1214 20.348L52.1006 20.1454L51.9357 19.348H51.1214V20.348ZM52.2734 22.148L51.645 22.9259L51.6613 22.9391L51.6781 22.9516L52.2734 22.148ZM56.9534 22.256L56.3057 21.4941L56.296 21.5023L56.2866 21.5108L56.9534 22.256ZM56.6654 19.304L56.2715 20.2231L56.2855 20.2292L56.2997 20.2348L56.6654 19.304ZM53.8574 18.476L54.0722 17.4994L54.0711 17.4991L53.8574 18.476ZM51.5174 17.864L51.2274 18.821L51.2274 18.821L51.5174 17.864ZM49.3214 16.964L48.8116 17.8243L48.8301 17.8353L48.8492 17.8455L49.3214 16.964ZM47.7374 15.524L46.9104 16.0863L46.9158 16.0942L46.9214 16.102L47.7374 15.524ZM48.9974 9.332L48.3501 8.56967L48.343 8.57583L48.9974 9.332ZM59.3654 9.188L58.7462 9.9733L58.7535 9.97896L59.3654 9.188ZM61.6334 13.256V14.256H62.7819L62.6239 13.1184L61.6334 13.256ZM57.2774 13.256L56.2968 13.4521L56.4576 14.256H57.2774V13.256ZM52.2734 11.78L51.6999 10.9608L51.69 10.9677L51.6802 10.9749L52.2734 11.78ZM55.4054 15.164L55.6302 14.1896L55.6288 14.1893L55.4054 15.164ZM58.8254 16.136L58.496 17.0802L58.509 17.0847L58.5222 17.0889L58.8254 16.136ZM61.3454 17.684L60.6008 18.3515L60.6066 18.358L60.6126 18.3645L61.3454 17.684ZM62.2814 20.6H61.2814V20.6109L61.2816 20.6217L62.2814 20.6ZM61.4174 23.588L60.5888 23.0281L60.5888 23.0281L61.4174 23.588ZM58.8254 25.676L58.4174 24.763L58.4174 24.763L58.8254 25.676ZM54.8294 25.432C53.3502 25.432 52.0945 25.1966 51.0406 24.754L50.2661 26.598C51.6123 27.1634 53.1405 27.432 54.8294 27.432V25.432ZM51.0561 24.7607C49.9863 24.29 49.1646 23.6643 48.5583 22.8964L46.9885 24.1356C47.8222 25.1917 48.9204 26.006 50.2506 26.5913L51.0561 24.7607ZM48.5583 22.8964C47.957 22.1348 47.5932 21.2538 47.4703 20.2289L45.4845 20.4671C45.6495 21.8422 46.1497 23.0732 46.9885 24.1356L48.5583 22.8964ZM46.4774 21.348H51.1214V19.348H46.4774V21.348ZM50.1421 20.5506C50.339 21.5023 50.8655 22.2964 51.645 22.9259L52.9017 21.3701C52.4332 20.9916 52.1917 20.5857 52.1006 20.1454L50.1421 20.5506ZM51.6781 22.9516C52.5374 23.5881 53.5893 23.868 54.7574 23.868V21.868C53.9094 21.868 53.3053 21.6679 52.8686 21.3444L51.6781 22.9516ZM54.7574 23.868C55.8624 23.868 56.8939 23.651 57.6202 23.0012L56.2866 21.5108C56.1008 21.677 55.6683 21.868 54.7574 21.868V23.868ZM57.601 23.0179C58.257 22.4604 58.6734 21.7305 58.6734 20.852H56.6734C56.6734 21.0295 56.6097 21.2356 56.3057 21.4941L57.601 23.0179ZM58.6734 20.852C58.6734 20.3222 58.5565 19.7996 58.2594 19.3433C57.9592 18.8823 57.5263 18.5678 57.031 18.3732L56.2997 20.2348C56.4765 20.3042 56.5476 20.3797 56.5834 20.4347C56.6222 20.4944 56.6734 20.6138 56.6734 20.852H58.6734ZM57.0593 18.3849C56.3038 18.0611 55.2983 17.7691 54.0722 17.4994L53.6425 19.4526C54.8165 19.7109 55.683 19.9709 56.2715 20.2231L57.0593 18.3849ZM54.0711 17.4991C53.3301 17.337 52.5755 17.1397 51.8074 16.907L51.2274 18.821C52.0432 19.0683 52.8487 19.279 53.6437 19.4529L54.0711 17.4991ZM51.8074 16.907C51.0731 16.6845 50.4028 16.4089 49.7936 16.0825L48.8492 17.8455C49.584 18.2391 50.3776 18.5635 51.2274 18.821L51.8074 16.907ZM49.8312 16.1037C49.2957 15.7864 48.8749 15.3999 48.5534 14.946L46.9214 16.102C47.4158 16.8001 48.0511 17.3736 48.8116 17.8243L49.8312 16.1037ZM48.5643 14.9617C48.2892 14.5571 48.1254 14.0305 48.1254 13.328H46.1254C46.1254 14.3535 46.3696 15.2909 46.9104 16.0863L48.5643 14.9617ZM48.1254 13.328C48.1254 12.0479 48.6127 10.9873 49.6518 10.0882L48.343 8.57583C46.886 9.83668 46.1254 11.4401 46.1254 13.328H48.1254ZM49.6446 10.0943C50.6792 9.21591 52.1956 8.712 54.3254 8.712V6.712C51.8951 6.712 49.8596 7.28809 48.3501 8.5697L49.6446 10.0943ZM54.3254 8.712C56.2866 8.712 57.725 9.16809 58.7462 9.97327L59.9845 8.40273C58.5097 7.23991 56.5881 6.712 54.3254 6.712V8.712ZM58.7535 9.97896C59.8002 10.7887 60.4355 11.9003 60.6429 13.3936L62.6239 13.1184C62.3513 11.1557 61.4745 9.5553 59.9772 8.39704L58.7535 9.97896ZM61.6334 12.256H57.2774V14.256H61.6334V12.256ZM58.258 13.0599C58.081 12.175 57.6336 11.4336 56.8848 10.9374C56.1651 10.4605 55.2665 10.276 54.2894 10.276V12.276C55.0403 12.276 55.5037 12.4215 55.78 12.6046C56.0272 12.7684 56.2098 13.017 56.2968 13.4521L58.258 13.0599ZM54.2894 10.276C53.3127 10.276 52.4105 10.4634 51.6999 10.9608L52.8468 12.5992C53.0963 12.4246 53.5381 12.276 54.2894 12.276V10.276ZM51.6802 10.9749C51.0048 11.4726 50.5894 12.1755 50.5894 13.04H52.5894C52.5894 12.8965 52.6299 12.7594 52.8666 12.5851L51.6802 10.9749ZM50.5894 13.04C50.5894 14.131 51.3537 14.8222 52.2243 15.2125L53.0424 13.3875C52.7819 13.2707 52.6657 13.1677 52.6204 13.113C52.5897 13.0759 52.5894 13.0628 52.5894 13.04H50.5894ZM52.2243 15.2125C53.0032 15.5616 53.9969 15.8671 55.182 16.1387L55.6288 14.1893C54.5099 13.9329 53.6556 13.6624 53.0424 13.3875L52.2243 15.2125ZM55.1805 16.1384C56.399 16.4196 57.5035 16.734 58.496 17.0802L59.1547 15.1918C58.0833 14.818 56.9078 14.4844 55.6302 14.1896L55.1805 16.1384ZM58.5222 17.0889C59.44 17.3809 60.1163 17.8111 60.6008 18.3515L62.0899 17.0165C61.3265 16.1649 60.3228 15.563 59.1286 15.1831L58.5222 17.0889ZM60.6126 18.3645C61.0079 18.7902 61.2814 19.482 61.2814 20.6H63.2814C63.2814 19.174 62.9308 17.9218 62.0782 17.0035L60.6126 18.3645ZM61.2816 20.6217C61.3013 21.5255 61.0692 22.3171 60.5888 23.0281L62.246 24.1479C62.9655 23.0829 63.3095 21.8825 63.2811 20.5783L61.2816 20.6217ZM60.5888 23.0281C60.1085 23.739 59.4016 24.3233 58.4174 24.763L59.2333 26.589C60.5052 26.0207 61.5263 25.213 62.246 24.1479L60.5888 23.0281ZM58.4174 24.763C57.445 25.1975 56.258 25.432 54.8294 25.432V27.432C56.4727 27.432 57.9497 27.1625 59.2333 26.589L58.4174 24.763ZM66.7594 4.616L66.069 5.33935L66.077 5.34701L66.0852 5.35448L66.7594 4.616ZM66.7594 0.835998L67.4321 1.57594L67.4337 1.57448L66.7594 0.835998ZM70.8994 0.835998L70.209 1.55935L70.2257 1.57538L70.2433 1.5906L70.8994 0.835998ZM70.8994 4.616L70.2252 3.87751L70.217 3.88499L70.209 3.89264L70.8994 4.616ZM66.5434 26H65.5434V27H66.5434V26ZM66.5434 8.144V7.144H65.5434V8.144H66.5434ZM71.1514 8.144H72.1514V7.144H71.1514V8.144ZM71.1514 26V27H72.1514V26H71.1514ZM68.8474 4.372C68.2237 4.372 67.7783 4.19212 67.4337 3.87751L66.0852 5.35448C66.8446 6.04788 67.7912 6.372 68.8474 6.372V4.372ZM67.4499 3.89264C67.1309 3.58809 66.9674 3.21869 66.9674 2.708H64.9674C64.9674 3.73331 65.332 4.63591 66.069 5.33935L67.4499 3.89264ZM66.9674 2.708C66.9674 2.19762 67.1298 1.85077 67.4321 1.57594L66.0868 0.0960584C65.3331 0.781225 64.9674 1.68238 64.9674 2.708H66.9674ZM67.4337 1.57448C67.7783 1.25988 68.2237 1.08 68.8474 1.08V-0.920001C67.7912 -0.920001 66.8446 -0.595882 66.0852 0.0975118L67.4337 1.57448ZM68.8474 1.08C69.472 1.08 69.8951 1.2598 70.209 1.55935L71.5899 0.112642C70.8477 -0.595798 69.9029 -0.920001 68.8474 -0.920001V1.08ZM70.2433 1.5906C70.5647 1.87015 70.7274 2.213 70.7274 2.708H72.7274C72.7274 1.667 72.3381 0.761848 71.5556 0.0813929L70.2433 1.5906ZM70.7274 2.708C70.7274 3.20377 70.5633 3.56881 70.2252 3.87751L71.5737 5.35448C72.3396 4.65519 72.7274 3.74823 72.7274 2.708H70.7274ZM70.209 3.89264C69.8951 4.1922 69.472 4.372 68.8474 4.372V6.372C69.9029 6.372 70.8477 6.0478 71.5899 5.33935L70.209 3.89264ZM67.5434 26V8.144H65.5434V26H67.5434ZM66.5434 9.144H71.1514V7.144H66.5434V9.144ZM70.1514 8.144V26H72.1514V8.144H70.1514ZM71.1514 25H66.5434V27H71.1514V25ZM81.1091 20.384L81.359 19.4157L80.8059 19.273L80.402 19.6769L81.1091 20.384ZM79.7771 21.716L79.07 21.0089L78.1126 21.9663L79.3092 22.5998L79.7771 21.716ZM81.4331 22.256L81.2305 23.2353L81.2305 23.2353L81.4331 22.256ZM84.8171 22.688L84.7252 23.6838L84.7266 23.6839L84.8171 22.688ZM90.0011 24.38L89.3559 25.144L90.0011 24.38ZM90.7571 31.148L89.9054 30.6239L89.8996 30.6335L90.7571 31.148ZM88.0931 33.452L87.6604 32.5505L87.6531 32.554L87.6459 32.5576L88.0931 33.452ZM77.3291 32.912L77.8532 32.0603L77.8436 32.0545L77.3291 32.912ZM77.3291 24.488L77.9311 25.2865L79.2803 24.2694L77.7395 23.5761L77.3291 24.488ZM76.0691 23.804L75.4879 24.6177L75.501 24.6271L75.5144 24.6361L76.0691 23.804ZM75.1691 23.048H74.1691V23.4622L74.462 23.7551L75.1691 23.048ZM75.1691 22.22L74.4425 21.5329L74.1691 21.8221V22.22H75.1691ZM78.3011 18.908L79.0277 19.5951L79.7401 18.8417L78.9614 18.157L78.3011 18.908ZM77.0771 10.916L76.2233 10.3954L76.2186 10.4031L76.2141 10.4108L77.0771 10.916ZM79.5971 8.576L79.1265 7.69365L79.1265 7.69365L79.5971 8.576ZM86.3291 8.144L86.0129 9.09268L86.1668 9.144H86.3291V8.144ZM93.0971 8.144H94.0971V7.144H93.0971V8.144ZM93.0971 10.952L93.1675 11.9495L94.0971 11.8839V10.952H93.0971ZM90.0371 11.168L89.9667 10.1705L88.4388 10.2783L89.1522 11.6337L90.0371 11.168ZM87.3731 19.808L86.9105 18.9214L86.9025 18.9256L87.3731 19.808ZM85.8251 16.388L85.1968 15.6101L85.1893 15.6161L85.1819 15.6223L85.8251 16.388ZM85.8251 12.068L85.1819 12.8337L85.1893 12.8399L85.1968 12.8459L85.8251 12.068ZM81.1451 12.068L80.5019 11.3023L80.5019 11.3023L81.1451 12.068ZM81.1451 16.388L81.7883 15.6223L81.7883 15.6223L81.1451 16.388ZM80.4251 30.176L80.9022 29.2971L80.893 29.2922L80.4251 30.176ZM86.2931 30.14L85.758 29.2952L85.7481 29.3015L85.7384 29.3079L86.2931 30.14ZM86.6531 26.648L85.9653 27.374L85.9746 27.3827L85.9841 27.3913L86.6531 26.648ZM83.8811 25.856L83.8081 26.8533L83.8123 26.8536L83.8811 25.856ZM81.1451 25.532L81.3141 24.5464L80.9688 24.4872L80.662 24.6564L81.1451 25.532ZM79.6331 26.792L78.8078 26.2273L78.7974 26.2425L78.7876 26.258L79.6331 26.792ZM83.5211 19.672C82.7311 19.672 82.012 19.5842 81.359 19.4157L80.8592 21.3523C81.6942 21.5678 82.5831 21.672 83.5211 21.672V19.672ZM80.402 19.6769L79.07 21.0089L80.4842 22.4231L81.8162 21.0911L80.402 19.6769ZM79.3092 22.5998C79.8329 22.877 80.4861 23.0813 81.2305 23.2353L81.6357 21.2767C80.9881 21.1427 80.5373 20.987 80.245 20.8322L79.3092 22.5998ZM81.2305 23.2353C81.9854 23.3915 83.1613 23.5394 84.7252 23.6838L84.909 21.6922C83.3529 21.5486 82.2728 21.4085 81.6357 21.2767L81.2305 23.2353ZM84.7266 23.6839C87.0245 23.8928 88.5075 24.4276 89.3559 25.144L90.6463 23.616C89.3347 22.5084 87.3617 21.9152 84.9076 21.6921L84.7266 23.6839ZM89.3559 25.144C90.1784 25.8386 90.6211 26.8012 90.6211 28.16H92.6211C92.6211 26.3028 91.9838 24.7454 90.6463 23.616L89.3559 25.144ZM90.6211 28.16C90.6211 29.0232 90.3886 29.8388 89.9054 30.6239L91.6088 31.6721C92.2776 30.5852 92.6211 29.4088 92.6211 28.16H90.6211ZM89.8996 30.6335C89.442 31.3962 88.7178 32.0429 87.6604 32.5505L88.5258 34.3535C89.8683 33.7091 90.9202 32.8198 91.6146 31.6625L89.8996 30.6335ZM87.6459 32.5576C86.6285 33.0663 85.2596 33.352 83.4851 33.352V35.352C85.4546 35.352 87.1577 35.0377 88.5403 34.3464L87.6459 32.5576ZM83.4851 33.352C81.0572 33.352 79.2057 32.8926 77.8532 32.0603L76.805 33.7637C78.5725 34.8514 80.825 35.352 83.4851 35.352V33.352ZM77.8436 32.0545C76.6 31.3084 75.9891 30.2268 75.9891 28.664H73.9891C73.9891 30.8932 74.9382 32.6436 76.8146 33.7695L77.8436 32.0545ZM75.9891 28.664C75.9891 27.4384 76.5614 26.319 77.9311 25.2865L76.7271 23.6895C74.9767 25.009 73.9891 26.6736 73.9891 28.664H75.9891ZM77.7395 23.5761C77.2993 23.378 76.9294 23.1757 76.6238 22.9719L75.5144 24.6361C75.9288 24.9123 76.3988 25.166 76.9187 25.3999L77.7395 23.5761ZM76.6503 22.9903C76.3545 22.779 76.0974 22.5621 75.8762 22.3409L74.462 23.7551C74.7688 24.0619 75.1117 24.349 75.4879 24.6177L76.6503 22.9903ZM76.1691 23.048V22.22H74.1691V23.048H76.1691ZM75.8957 22.9071L79.0277 19.5951L77.5745 18.2209L74.4425 21.5329L75.8957 22.9071ZM78.9614 18.157C77.794 17.1305 77.2131 15.8362 77.2131 14.192H75.2131C75.2131 16.3878 76.0242 18.2375 77.6408 19.659L78.9614 18.157ZM77.2131 14.192C77.2131 13.1599 77.4586 12.2438 77.9401 11.4212L76.2141 10.4108C75.5436 11.5562 75.2131 12.8241 75.2131 14.192H77.2131ZM77.9309 11.4366C78.432 10.6148 79.1353 9.95563 80.0677 9.45835L79.1265 7.69365C77.8989 8.34837 76.9222 9.24916 76.2233 10.3954L77.9309 11.4366ZM80.0677 9.45835C80.9705 8.97683 82.1082 8.712 83.5211 8.712V6.712C81.862 6.712 80.3837 7.02317 79.1265 7.69365L80.0677 9.45835ZM83.5211 8.712C84.433 8.712 85.2611 8.8421 86.0129 9.09268L86.6453 7.19532C85.6691 6.8699 84.6252 6.712 83.5211 6.712V8.712ZM86.3291 9.144H93.0971V7.144H86.3291V9.144ZM92.0971 8.144V10.952H94.0971V8.144H92.0971ZM93.0267 9.95448L89.9667 10.1705L90.1075 12.1655L93.1675 11.9495L93.0267 9.95448ZM89.1522 11.6337C89.5513 12.392 89.7571 13.2384 89.7571 14.192H91.7571C91.7571 12.9376 91.4829 11.768 90.922 10.7023L89.1522 11.6337ZM89.7571 14.192C89.7571 15.2241 89.5116 16.1402 89.0301 16.9628L90.7561 17.9732C91.4266 16.8278 91.7571 15.5599 91.7571 14.192H89.7571ZM89.0301 16.9628C88.5577 17.7697 87.8638 18.4241 86.9105 18.9214L87.8357 20.6946C89.0904 20.0399 90.0764 19.1343 90.7561 17.9732L89.0301 16.9628ZM86.9025 18.9256C85.9954 19.4094 84.88 19.672 83.5211 19.672V21.672C85.1382 21.672 86.5908 21.3586 87.8437 20.6904L86.9025 18.9256ZM83.5211 18.144C84.6446 18.144 85.6546 17.8372 86.4683 17.1537L85.1819 15.6223C84.7956 15.9468 84.2696 16.144 83.5211 16.144V18.144ZM86.4534 17.1659C87.3531 16.4393 87.7611 15.4097 87.7611 14.228H85.7611C85.7611 14.9183 85.5451 15.3287 85.1968 15.6101L86.4534 17.1659ZM87.7611 14.228C87.7611 13.0463 87.3531 12.0167 86.4534 11.2901L85.1968 12.8459C85.5451 13.1273 85.7611 13.5377 85.7611 14.228H87.7611ZM86.4683 11.3023C85.6546 10.6188 84.6446 10.312 83.5211 10.312V12.312C84.2696 12.312 84.7956 12.5092 85.1819 12.8337L86.4683 11.3023ZM83.5211 10.312C82.3637 10.312 81.3244 10.6114 80.5019 11.3023L81.7883 12.8337C82.1658 12.5166 82.7105 12.312 83.5211 12.312V10.312ZM80.5019 11.3023C79.6313 12.0336 79.2451 13.06 79.2451 14.228H81.2451C81.2451 13.524 81.4589 13.1104 81.7883 12.8337L80.5019 11.3023ZM79.2451 14.228C79.2451 15.396 79.6313 16.4224 80.5019 17.1537L81.7883 15.6223C81.4589 15.3456 81.2451 14.932 81.2451 14.228H79.2451ZM80.5019 17.1537C81.3244 17.8446 82.3637 18.144 83.5211 18.144V16.144C82.7105 16.144 82.1658 15.9394 81.7883 15.6223L80.5019 17.1537ZM78.2011 28.196C78.2011 28.7983 78.3414 29.373 78.6565 29.8828C78.9703 30.3905 79.4221 30.7765 79.9572 31.0598L80.893 29.2922C80.6121 29.1435 80.4518 28.9835 80.3577 28.8312C80.2648 28.681 80.2011 28.4817 80.2011 28.196H78.2011ZM79.948 31.0549C80.9672 31.6082 82.1602 31.86 83.4851 31.86V29.86C82.4099 29.86 81.5629 29.6558 80.9022 29.2971L79.948 31.0549ZM83.4851 31.86C84.7704 31.86 85.9172 31.5924 86.8478 30.9721L85.7384 29.3079C85.2289 29.6476 84.5038 29.86 83.4851 29.86V31.86ZM86.8281 30.9848C87.8112 30.3622 88.3731 29.4328 88.3731 28.268H86.3731C86.3731 28.6872 86.215 29.0058 85.758 29.2952L86.8281 30.9848ZM88.3731 28.268C88.3731 27.3376 88.0136 26.5271 87.3221 25.9047L85.9841 27.3913C86.2526 27.6329 86.3731 27.9024 86.3731 28.268H88.3731ZM87.3408 25.922C86.9504 25.5522 86.4348 25.3193 85.8928 25.1645C85.341 25.0068 84.6873 24.9092 83.9499 24.8584L83.8123 26.8536C84.4669 26.8988 84.9712 26.9812 85.3434 27.0875C85.7254 27.1967 85.8998 27.3118 85.9653 27.374L87.3408 25.922ZM83.9541 24.8587C82.9974 24.7887 82.1178 24.6842 81.3141 24.5464L80.9761 26.5176C81.8524 26.6678 82.7968 26.7793 83.8081 26.8533L83.9541 24.8587ZM80.662 24.6564C79.8851 25.0851 79.2381 25.5984 78.8078 26.2273L80.4584 27.3567C80.6521 27.0736 81.0131 26.7469 81.6282 26.4076L80.662 24.6564ZM78.7876 26.258C78.4115 26.8535 78.2011 27.5043 78.2011 28.196H80.2011C80.2011 27.9277 80.2787 27.6425 80.4786 27.326L78.7876 26.258ZM96.4572 26H95.4572V27H96.4572V26ZM96.4572 8.144V7.144H95.4572V8.144H96.4572ZM100.525 8.144L101.518 8.02579L101.413 7.144H100.525V8.144ZM100.885 11.168L99.8922 11.2862L100.274 14.4954L101.771 11.6313L100.885 11.168ZM103.261 8.648L102.752 7.78703L102.744 7.79227L103.261 8.648ZM112.117 9.8L111.366 10.4603L111.366 10.4603L112.117 9.8ZM113.953 26V27H114.953V26H113.953ZM109.345 26H108.345V27H109.345V26ZM108.409 12.824L109.204 12.2165L109.204 12.2165L108.409 12.824ZM102.289 12.968L101.554 12.2905L101.549 12.2958L101.544 12.3012L102.289 12.968ZM101.065 26V27H102.065V26H101.065ZM97.4572 26V8.144H95.4572V26H97.4572ZM96.4572 9.144H100.525V7.144H96.4572V9.144ZM99.5322 8.26221L99.8922 11.2862L101.878 11.0498L101.518 8.02579L99.5322 8.26221ZM101.771 11.6313C102.238 10.7394 102.901 10.0343 103.779 9.50373L102.744 7.79227C101.557 8.5097 100.637 9.4846 99.999 10.7047L101.771 11.6313ZM103.77 9.50893C104.649 8.98925 105.704 8.712 106.969 8.712V6.712C105.402 6.712 103.985 7.05874 102.752 7.78707L103.77 9.50893ZM106.969 8.712C108.95 8.712 110.369 9.3257 111.366 10.4603L112.868 9.13966C111.418 7.4903 109.404 6.712 106.969 6.712V8.712ZM111.366 10.4603C112.371 11.6026 112.953 13.3675 112.953 15.92H114.953C114.953 13.0965 114.312 10.7814 112.868 9.13966L111.366 10.4603ZM112.953 15.92V26H114.953V15.92H112.953ZM113.953 25H109.345V27H113.953V25ZM110.345 26V16.352H108.345V26H110.345ZM110.345 16.352C110.345 14.7002 110.013 13.2745 109.204 12.2165L107.615 13.4314C108.054 14.0055 108.345 14.9318 108.345 16.352H110.345ZM109.204 12.2165C108.338 11.085 107.027 10.6 105.493 10.6V12.6C106.599 12.6 107.232 12.931 107.615 13.4314L109.204 12.2165ZM105.493 10.6C103.932 10.6 102.592 11.1627 101.554 12.2905L103.025 13.6455C103.666 12.9493 104.462 12.6 105.493 12.6V10.6ZM101.544 12.3012C100.516 13.4504 100.065 14.9894 100.065 16.784H102.065C102.065 15.3146 102.431 14.3096 103.034 13.6348L101.544 12.3012ZM100.065 16.784V26H102.065V16.784H100.065ZM101.065 25H96.4572V27H101.065V25ZM117.964 17.504H116.964V18.504H117.964V17.504ZM117.964 13.652V12.652H116.964V13.652H117.964ZM133.048 13.652H134.048V12.652H133.048V13.652ZM133.048 17.504V18.504H134.048V17.504H133.048ZM118.964 17.504V13.652H116.964V17.504H118.964ZM117.964 14.652H133.048V12.652H117.964V14.652ZM132.048 13.652V17.504H134.048V13.652H132.048ZM133.048 16.504H117.964V18.504H133.048V16.504ZM0.448 73H-0.552V74H0.448V73ZM0.448 47.8V46.8H-0.552V47.8H0.448ZM16.324 49.384L15.8374 50.2576L15.844 50.2613L15.8506 50.2648L16.324 49.384ZM20.572 53.776L19.6708 54.2095L19.6742 54.2164L19.6776 54.2232L20.572 53.776ZM20.572 67.06L19.6753 66.6173L19.673 66.622L20.572 67.06ZM16.324 71.452L16.8021 72.3303L16.8059 72.3282L16.324 71.452ZM5.056 69.04H4.056V70.04H5.056V69.04ZM13.84 68.032L14.3213 68.9086L14.3278 68.905L14.3343 68.9013L13.84 68.032ZM16.468 65.08L17.3916 65.4634L17.3941 65.4573L16.468 65.08ZM16.468 55.756L15.5419 56.1333L15.5419 56.1333L16.468 55.756ZM5.056 51.724V50.724H4.056V51.724H5.056ZM1.448 73V47.8H-0.552V73H1.448ZM0.448 48.8H9.052V46.8H0.448V48.8ZM9.052 48.8C11.8924 48.8 14.1342 49.309 15.8374 50.2576L16.8106 48.5104C14.7218 47.347 12.1156 46.8 9.052 46.8V48.8ZM15.8506 50.2648C17.5914 51.2005 18.854 52.5113 19.6708 54.2095L21.4732 53.3425C20.466 51.2487 18.8966 49.6314 16.7974 48.5032L15.8506 50.2648ZM19.6776 54.2232C20.5308 55.9296 20.976 57.9783 20.976 60.4H22.976C22.976 57.7337 22.4852 55.3664 21.4664 53.3288L19.6776 54.2232ZM20.976 60.4C20.976 62.8213 20.5309 64.8842 19.6753 66.6173L21.4687 67.5027C22.4851 65.4438 22.976 63.0667 22.976 60.4H20.976ZM19.673 66.622C18.8563 68.2983 17.5912 69.6138 15.8421 70.5758L16.8059 72.3282C18.8968 71.1782 20.4637 69.5657 21.471 67.498L19.673 66.622ZM15.8459 70.5737C14.1406 71.5019 11.8955 72 9.052 72V74C12.1125 74 14.7154 73.4661 16.8021 72.3303L15.8459 70.5737ZM9.052 72H0.448V74H9.052V72ZM5.056 70.04H8.836V68.04H5.056V70.04ZM8.836 70.04C11.037 70.04 12.8932 69.6926 14.3213 68.9086L13.3587 67.1554C12.3388 67.7154 10.859 68.04 8.836 68.04V70.04ZM14.3343 68.9013C15.7467 68.0981 16.7764 66.9454 17.3916 65.4634L15.5444 64.6966C15.1036 65.7586 14.3813 66.5739 13.3457 67.1627L14.3343 68.9013ZM17.3941 65.4573C17.9833 64.0112 18.26 62.316 18.26 60.4H16.26C16.26 62.132 16.0087 63.5568 15.5419 64.7027L17.3941 65.4573ZM18.26 60.4C18.26 58.506 17.9827 56.8234 17.3941 55.3787L15.5419 56.1333C16.0093 57.2806 16.26 58.694 16.26 60.4H18.26ZM17.3941 55.3787C16.7809 53.8735 15.752 52.7049 14.3343 51.8987L13.3457 53.6373C14.376 54.2231 15.0991 55.0465 15.5419 56.1333L17.3941 55.3787ZM14.3343 51.8987C12.9027 51.0846 11.0412 50.724 8.836 50.724V52.724C10.8548 52.724 12.3293 53.0594 13.3457 53.6373L14.3343 51.8987ZM8.836 50.724H5.056V52.724H8.836V50.724ZM4.056 51.724V69.04H6.056V51.724H4.056ZM26.3298 51.616L25.6393 52.3394L25.6473 52.347L25.6555 52.3545L26.3298 51.616ZM26.3298 47.836L27.0024 48.5759L27.004 48.5745L26.3298 47.836ZM30.4698 47.836L29.7793 48.5594L29.7961 48.5754L29.8136 48.5906L30.4698 47.836ZM30.4698 51.616L29.7955 50.8775L29.7873 50.885L29.7793 50.8926L30.4698 51.616ZM26.1138 73H25.1138V74H26.1138V73ZM26.1138 55.144V54.144H25.1138V55.144H26.1138ZM30.7218 55.144H31.7218V54.144H30.7218V55.144ZM30.7218 73V74H31.7218V73H30.7218ZM28.4178 51.372C27.794 51.372 27.3486 51.1921 27.004 50.8775L25.6555 52.3545C26.4149 53.0479 27.3615 53.372 28.4178 53.372V51.372ZM27.0202 50.8926C26.7012 50.5881 26.5378 50.2187 26.5378 49.708H24.5378C24.5378 50.7333 24.9023 51.6359 25.6393 52.3394L27.0202 50.8926ZM26.5378 49.708C26.5378 49.1976 26.7001 48.8508 27.0024 48.5759L25.6571 47.0961C24.9034 47.7812 24.5378 48.6824 24.5378 49.708H26.5378ZM27.004 48.5745C27.3486 48.2599 27.794 48.08 28.4178 48.08V46.08C27.3615 46.08 26.4149 46.4041 25.6555 47.0975L27.004 48.5745ZM28.4178 48.08C29.0423 48.08 29.4655 48.2598 29.7793 48.5594L31.1602 47.1126C30.418 46.4042 29.4732 46.08 28.4178 46.08V48.08ZM29.8136 48.5906C30.135 48.8701 30.2978 49.213 30.2978 49.708H32.2978C32.2978 48.667 31.9085 47.7618 31.1259 47.0814L29.8136 48.5906ZM30.2978 49.708C30.2978 50.2038 30.1336 50.5688 29.7955 50.8775L31.144 52.3545C31.9099 51.6552 32.2978 50.7482 32.2978 49.708H30.2978ZM29.7793 50.8926C29.4655 51.1922 29.0423 51.372 28.4178 51.372V53.372C29.4732 53.372 30.4181 53.0478 31.1602 52.3394L29.7793 50.8926ZM27.1138 73V55.144H25.1138V73H27.1138ZM26.1138 56.144H30.7218V54.144H26.1138V56.144ZM29.7218 55.144V73H31.7218V55.144H29.7218ZM30.7218 72H26.1138V74H30.7218V72ZM39.4194 72.28L39.9025 71.4044L39.9025 71.4044L39.4194 72.28ZM36.1074 59.284L35.2311 58.802L35.2251 58.8134L36.1074 59.284ZM39.3474 55.936L39.8485 56.8014L39.8531 56.7987L39.3474 55.936ZM48.8874 55.864L48.3913 56.7322L48.3913 56.7322L48.8874 55.864ZM52.0194 59.032L51.1445 59.5163L51.1497 59.5257L51.1551 59.5349L52.0194 59.032ZM53.1354 64.288L52.1389 64.205L52.1354 64.2464V64.288H53.1354ZM53.0994 65.188V66.188H54.0254L54.0965 65.2647L53.0994 65.188ZM39.5274 65.188V64.188H38.4561L38.5298 65.2568L39.5274 65.188ZM40.9674 68.464L40.2916 69.2012L40.3018 69.2103L40.9674 68.464ZM46.5114 69.04L47.0587 69.877L47.0661 69.8721L46.5114 69.04ZM47.9514 67.384V66.384H47.3132L47.0444 66.9629L47.9514 67.384ZM52.6314 67.384L53.5898 67.6695L53.9727 66.384H52.6314V67.384ZM50.9394 70.48L50.176 69.8341L50.1745 69.8359L50.9394 70.48ZM48.0594 72.64L47.6427 71.7309L47.6355 71.7343L48.0594 72.64ZM41.2554 59.428L41.8409 60.2387L41.8482 60.2334L41.8554 60.228L41.2554 59.428ZM39.5994 62.308L38.6161 62.1259L38.3972 63.308H39.5994V62.308ZM48.4914 62.308V63.308H49.5545L49.4895 62.2469L48.4914 62.308ZM47.1954 59.5L47.8555 58.7488L47.8555 58.7488L47.1954 59.5ZM44.2074 72.432C42.5537 72.432 41.1279 72.0805 39.9025 71.4044L38.9363 73.1556C40.4949 74.0155 42.2611 74.432 44.2074 74.432V72.432ZM39.9025 71.4044C38.6731 70.7261 37.7142 69.7786 37.0126 68.5455L35.2742 69.5345C36.1567 71.0854 37.3817 72.2979 38.9363 73.1556L39.9025 71.4044ZM37.0126 68.5455C36.3177 67.3241 35.9554 65.8911 35.9554 64.216H33.9554C33.9554 66.1889 34.3852 67.9719 35.2742 69.5345L37.0126 68.5455ZM35.9554 64.216C35.9554 62.5102 36.3087 61.0315 36.9898 59.7546L35.2251 58.8134C34.3701 60.4165 33.9554 62.2258 33.9554 64.216H35.9554ZM36.9836 59.7659C37.6915 58.4789 38.6445 57.4984 39.8484 56.8014L38.8464 55.0706C37.3143 55.9576 36.1073 57.2091 35.2312 58.8021L36.9836 59.7659ZM39.8531 56.7987C41.0687 56.0861 42.5203 55.712 44.2434 55.712V53.712C42.2225 53.712 40.4102 54.1539 38.8417 55.0733L39.8531 56.7987ZM44.2434 55.712C45.8447 55.712 47.2174 56.0615 48.3913 56.7322L49.3835 54.9958C47.8694 54.1305 46.1461 53.712 44.2434 53.712V55.712ZM48.3913 56.7322C49.5775 57.4101 50.4899 58.3339 51.1445 59.5163L52.8943 58.5477C52.0609 57.0421 50.8853 55.8539 49.3835 54.9958L48.3913 56.7322ZM51.1551 59.5349C51.8281 60.6917 52.1714 61.9921 52.1714 63.46H54.1714C54.1714 61.6639 53.7467 60.0123 52.8838 58.5291L51.1551 59.5349ZM52.1714 63.46C52.1714 63.6938 52.1608 63.942 52.1389 64.205L54.132 64.371C54.158 64.058 54.1714 63.7542 54.1714 63.46H52.1714ZM52.1354 64.288C52.1354 64.5483 52.1246 64.8227 52.1024 65.1113L54.0965 65.2647C54.1223 64.9293 54.1354 64.6037 54.1354 64.288H52.1354ZM53.0994 64.188H39.5274V66.188H53.0994V64.188ZM38.5298 65.2568C38.6398 66.8527 39.2035 68.2037 40.2917 69.2012L41.6431 67.7268C41.0033 67.1403 40.607 66.3073 40.525 65.1192L38.5298 65.2568ZM40.3018 69.2103C41.3826 70.1742 42.691 70.652 44.1714 70.652V68.652C43.1558 68.652 42.3283 68.3378 41.633 67.7177L40.3018 69.2103ZM44.1714 70.652C45.2522 70.652 46.2349 70.4156 47.0587 69.877L45.9642 68.203C45.5399 68.4804 44.9626 68.652 44.1714 68.652V70.652ZM47.0661 69.8721C47.8589 69.3435 48.465 68.6526 48.8584 67.8051L47.0444 66.9629C46.8139 67.4594 46.4599 67.8725 45.9567 68.2079L47.0661 69.8721ZM47.9514 68.384H52.6314V66.384H47.9514V68.384ZM51.673 67.0985C51.3781 68.0887 50.8826 68.999 50.176 69.8341L51.7028 71.1259C52.5802 70.089 53.2127 68.9353 53.5898 67.6695L51.673 67.0985ZM50.1745 69.8359C49.5075 70.6279 48.6691 71.2605 47.6428 71.7309L48.4761 73.5491C49.7537 72.9635 50.8353 72.1561 51.7043 71.1241L50.1745 69.8359ZM47.6355 71.7343C46.6594 72.1912 45.5237 72.432 44.2074 72.432V74.432C45.7711 74.432 47.2034 74.1448 48.4833 73.5457L47.6355 71.7343ZM44.2434 57.456C42.9093 57.456 41.7006 57.8441 40.6554 58.628L41.8554 60.228C42.5383 59.7159 43.3215 59.456 44.2434 59.456V57.456ZM40.6699 58.6173C39.5507 59.4256 38.8913 60.64 38.6161 62.1259L40.5827 62.4901C40.7875 61.384 41.2321 60.6784 41.8409 60.2387L40.6699 58.6173ZM39.5994 63.308H48.4914V61.308H39.5994V63.308ZM49.4895 62.2469C49.4034 60.8392 48.8719 59.642 47.8555 58.7488L46.5353 60.2512C47.1029 60.75 47.4355 61.4248 47.4933 62.3691L49.4895 62.2469ZM47.8555 58.7488C46.8596 57.8736 45.6323 57.456 44.2434 57.456V59.456C45.2065 59.456 45.9472 59.7344 46.5353 60.2512L47.8555 58.7488ZM57.047 73H56.047V74H57.047V73ZM57.047 55.144V54.144H56.047V55.144H57.047ZM61.115 55.144L62.108 55.0258L62.003 54.144H61.115V55.144ZM61.475 58.168L60.482 58.2862L60.8641 61.4954L62.3613 58.6313L61.475 58.168ZM63.851 55.648L63.3423 54.787L63.3336 54.7923L63.851 55.648ZM72.707 56.8L71.9561 57.4603L71.9561 57.4603L72.707 56.8ZM74.543 73V74H75.543V73H74.543ZM69.935 73H68.935V74H69.935V73ZM68.999 59.824L69.7934 59.2165L69.7934 59.2165L68.999 59.824ZM62.879 59.968L62.1435 59.2905L62.1386 59.2958L62.1338 59.3012L62.879 59.968ZM61.655 73V74H62.655V73H61.655ZM58.047 73V55.144H56.047V73H58.047ZM57.047 56.144H61.115V54.144H57.047V56.144ZM60.122 55.2622L60.482 58.2862L62.468 58.0498L62.108 55.0258L60.122 55.2622ZM62.3613 58.6313C62.8275 57.7394 63.491 57.0343 64.3685 56.5037L63.3336 54.7923C62.1471 55.5097 61.2266 56.4846 60.5888 57.7047L62.3613 58.6313ZM64.3598 56.5089C65.2392 55.9893 66.2939 55.712 67.559 55.712V53.712C65.9921 53.712 64.5749 54.0587 63.3423 54.7871L64.3598 56.5089ZM67.559 55.712C69.5397 55.712 70.9584 56.3257 71.9561 57.4603L73.458 56.1397C72.0077 54.4903 69.9943 53.712 67.559 53.712V55.712ZM71.9561 57.4603C72.9605 58.6026 73.543 60.3675 73.543 62.92H75.543C75.543 60.0965 74.9016 57.7814 73.458 56.1397L71.9561 57.4603ZM73.543 62.92V73H75.543V62.92H73.543ZM74.543 72H69.935V74H74.543V72ZM70.935 73V63.352H68.935V73H70.935ZM70.935 63.352C70.935 61.7002 70.6024 60.2745 69.7934 59.2165L68.2047 60.4314C68.6437 61.0055 68.935 61.9318 68.935 63.352H70.935ZM69.7934 59.2165C68.9281 58.085 67.6173 57.6 66.083 57.6V59.6C67.1888 59.6 67.822 59.931 68.2047 60.4314L69.7934 59.2165ZM66.083 57.6C64.5218 57.6 63.1823 58.1627 62.1435 59.2905L63.6146 60.6455C64.2558 59.9493 65.0522 59.6 66.083 59.6V57.6ZM62.1338 59.3012C61.1055 60.4504 60.655 61.9894 60.655 63.784H62.655C62.655 62.3146 63.0205 61.3096 63.6243 60.6348L62.1338 59.3012ZM60.655 63.784V73H62.655V63.784H60.655ZM61.655 72H57.047V74H61.655V72ZM82.1534 72.676L81.7506 73.5913L81.7584 73.5947L81.7661 73.598L82.1534 72.676ZM79.2734 70.516L78.4885 71.1356L78.4885 71.1356L79.2734 70.516ZM77.9774 67.348V66.348H76.8502L76.9845 67.4671L77.9774 67.348ZM82.6214 67.348L83.6006 67.1454L83.4357 66.348H82.6214V67.348ZM83.7734 69.148L83.145 69.9259L83.1613 69.9391L83.1781 69.9516L83.7734 69.148ZM88.4534 69.256L87.8057 68.4941L87.796 68.5023L87.7866 68.5108L88.4534 69.256ZM88.1654 66.304L87.7715 67.2231L87.7855 67.2292L87.7997 67.2348L88.1654 66.304ZM85.3574 65.476L85.5722 64.4994L85.5711 64.4991L85.3574 65.476ZM83.0174 64.864L82.7274 65.821L82.7274 65.821L83.0174 64.864ZM80.8214 63.964L80.3116 64.8243L80.3301 64.8353L80.3492 64.8455L80.8214 63.964ZM79.2374 62.524L78.4104 63.0863L78.4158 63.0942L78.4214 63.102L79.2374 62.524ZM80.4974 56.332L79.8501 55.5697L79.843 55.5758L80.4974 56.332ZM90.8654 56.188L90.2462 56.9733L90.2535 56.979L90.8654 56.188ZM93.1334 60.256V61.256H94.2819L94.1239 60.1184L93.1334 60.256ZM88.7774 60.256L87.7968 60.4521L87.9576 61.256H88.7774V60.256ZM83.7734 58.78L83.1999 57.9608L83.19 57.9677L83.1802 57.9749L83.7734 58.78ZM86.9054 62.164L87.1302 61.1896L87.1288 61.1893L86.9054 62.164ZM90.3254 63.136L89.996 64.0802L90.009 64.0847L90.0222 64.0889L90.3254 63.136ZM92.8454 64.684L92.1008 65.3515L92.1066 65.358L92.1126 65.3645L92.8454 64.684ZM93.7814 67.6H92.7814V67.6109L92.7816 67.6217L93.7814 67.6ZM92.9174 70.588L92.0888 70.0281L92.0888 70.0281L92.9174 70.588ZM90.3254 72.676L89.9174 71.763L89.9174 71.763L90.3254 72.676ZM86.3294 72.432C84.8502 72.432 83.5945 72.1966 82.5406 71.754L81.7661 73.598C83.1123 74.1634 84.6405 74.432 86.3294 74.432V72.432ZM82.5561 71.7607C81.4863 71.29 80.6646 70.6643 80.0583 69.8964L78.4885 71.1356C79.3222 72.1917 80.4204 73.006 81.7506 73.5913L82.5561 71.7607ZM80.0583 69.8964C79.457 69.1348 79.0932 68.2538 78.9703 67.2289L76.9845 67.4671C77.1495 68.8422 77.6497 70.0732 78.4885 71.1356L80.0583 69.8964ZM77.9774 68.348H82.6214V66.348H77.9774V68.348ZM81.6421 67.5506C81.839 68.5023 82.3655 69.2964 83.145 69.9259L84.4017 68.3701C83.9332 67.9916 83.6917 67.5857 83.6006 67.1454L81.6421 67.5506ZM83.1781 69.9516C84.0374 70.5881 85.0893 70.868 86.2574 70.868V68.868C85.4094 68.868 84.8053 68.6679 84.3686 68.3444L83.1781 69.9516ZM86.2574 70.868C87.3624 70.868 88.3939 70.651 89.1202 70.0012L87.7866 68.5108C87.6008 68.677 87.1683 68.868 86.2574 68.868V70.868ZM89.101 70.0179C89.757 69.4604 90.1734 68.7305 90.1734 67.852H88.1734C88.1734 68.0295 88.1097 68.2356 87.8057 68.4941L89.101 70.0179ZM90.1734 67.852C90.1734 67.3222 90.0565 66.7996 89.7594 66.3433C89.4592 65.8823 89.0263 65.5678 88.531 65.3732L87.7997 67.2348C87.9765 67.3042 88.0476 67.3797 88.0834 67.4347C88.1222 67.4944 88.1734 67.6138 88.1734 67.852H90.1734ZM88.5593 65.3849C87.8038 65.0611 86.7983 64.7691 85.5722 64.4994L85.1425 66.4526C86.3165 66.7109 87.183 66.9709 87.7715 67.2231L88.5593 65.3849ZM85.5711 64.4991C84.8301 64.337 84.0755 64.1397 83.3074 63.907L82.7274 65.821C83.5432 66.0683 84.3487 66.279 85.1437 66.4529L85.5711 64.4991ZM83.3074 63.907C82.5731 63.6845 81.9028 63.4089 81.2936 63.0825L80.3492 64.8455C81.084 65.2391 81.8776 65.5635 82.7274 65.821L83.3074 63.907ZM81.3312 63.1037C80.7957 62.7864 80.3749 62.3999 80.0534 61.946L78.4214 63.102C78.9158 63.8001 79.5511 64.3736 80.3116 64.8243L81.3312 63.1037ZM80.0643 61.9617C79.7892 61.5571 79.6254 61.0305 79.6254 60.328H77.6254C77.6254 61.3535 77.8696 62.2909 78.4104 63.0863L80.0643 61.9617ZM79.6254 60.328C79.6254 59.0479 80.1127 57.9873 81.1518 57.0882L79.843 55.5758C78.386 56.8367 77.6254 58.4401 77.6254 60.328H79.6254ZM81.1446 57.0943C82.1792 56.2159 83.6956 55.712 85.8254 55.712V53.712C83.3951 53.712 81.3596 54.2881 79.8501 55.5697L81.1446 57.0943ZM85.8254 55.712C87.7866 55.712 89.225 56.1681 90.2462 56.9733L91.4845 55.4027C90.0097 54.2399 88.0881 53.712 85.8254 53.712V55.712ZM90.2535 56.979C91.3002 57.7887 91.9355 58.9003 92.1429 60.3936L94.1239 60.1184C93.8513 58.1557 92.9745 56.5553 91.4772 55.397L90.2535 56.979ZM93.1334 59.256H88.7774V61.256H93.1334V59.256ZM89.758 60.0599C89.581 59.175 89.1336 58.4336 88.3848 57.9374C87.6651 57.4605 86.7665 57.276 85.7894 57.276V59.276C86.5403 59.276 87.0037 59.4215 87.28 59.6046C87.5272 59.7684 87.7098 60.017 87.7968 60.4521L89.758 60.0599ZM85.7894 57.276C84.8127 57.276 83.9105 57.4634 83.1999 57.9608L84.3468 59.5992C84.5963 59.4246 85.0381 59.276 85.7894 59.276V57.276ZM83.1802 57.9749C82.5048 58.4726 82.0894 59.1755 82.0894 60.04H84.0894C84.0894 59.8965 84.1299 59.7594 84.3666 59.5851L83.1802 57.9749ZM82.0894 60.04C82.0894 61.131 82.8537 61.8222 83.7243 62.2125L84.5424 60.3875C84.2819 60.2707 84.1657 60.1677 84.1204 60.113C84.0897 60.0759 84.0894 60.0628 84.0894 60.04H82.0894ZM83.7243 62.2125C84.5032 62.5616 85.4969 62.8671 86.682 63.1387L87.1288 61.1893C86.0099 60.9329 85.1556 60.6624 84.5424 60.3875L83.7243 62.2125ZM86.6805 63.1384C87.899 63.4196 89.0035 63.734 89.996 64.0802L90.6547 62.1918C89.5833 61.818 88.4078 61.4844 87.1302 61.1896L86.6805 63.1384ZM90.0222 64.0889C90.94 64.3809 91.6163 64.8111 92.1008 65.3515L93.5899 64.0165C92.8265 63.1649 91.8228 62.563 90.6286 62.1831L90.0222 64.0889ZM92.1126 65.3645C92.5079 65.7902 92.7814 66.482 92.7814 67.6H94.7814C94.7814 66.174 94.4308 64.9218 93.5782 64.0035L92.1126 65.3645ZM92.7816 67.6217C92.8013 68.5255 92.5692 69.3171 92.0888 70.0281L93.746 71.1479C94.4655 70.0829 94.8095 68.8825 94.7811 67.5783L92.7816 67.6217ZM92.0888 70.0281C91.6085 70.739 90.9016 71.3233 89.9174 71.763L90.7333 73.589C92.0052 73.0207 93.0263 72.213 93.746 71.1479L92.0888 70.0281ZM89.9174 71.763C88.945 72.1975 87.758 72.432 86.3294 72.432V74.432C87.9727 74.432 89.4497 74.1625 90.7333 73.589L89.9174 71.763ZM100.757 71.632L101.386 70.8544L101.386 70.8544L100.757 71.632ZM99.0649 58.996H100.065V57.996H99.0649V58.996ZM96.0049 58.996H95.0049V59.996H96.0049V58.996ZM96.0049 55.144V54.144H95.0049V55.144H96.0049ZM99.0649 55.144V56.144H99.9585L100.059 55.2561L99.0649 55.144ZM99.6049 50.356V49.356H98.7114L98.6112 50.2439L99.6049 50.356ZM103.673 50.356H104.673V49.356H103.673V50.356ZM103.673 55.144H102.673V56.144H103.673V55.144ZM108.497 55.144H109.497V54.144H108.497V55.144ZM108.497 58.996V59.996H109.497V58.996H108.497ZM103.673 58.996V57.996H102.673V58.996H103.673ZM104.213 68.608L103.531 69.3391L103.556 69.3625L103.582 69.3841L104.213 68.608ZM108.389 69.076H109.389V68.076H108.389V69.076ZM108.389 73V74H109.389V73H108.389ZM105.257 72C103.546 72 102.29 71.5852 101.386 70.8544L100.128 72.4096C101.48 73.5028 103.223 74 105.257 74V72ZM101.386 70.8544C100.604 70.2227 100.065 68.9797 100.065 66.772H98.0649C98.0649 69.2203 98.6534 71.2173 100.128 72.4096L101.386 70.8544ZM100.065 66.772V58.996H98.0649V66.772H100.065ZM99.0649 57.996H96.0049V59.996H99.0649V57.996ZM97.0049 58.996V55.144H95.0049V58.996H97.0049ZM96.0049 56.144H99.0649V54.144H96.0049V56.144ZM100.059 55.2561L100.599 50.4681L98.6112 50.2439L98.0712 55.0319L100.059 55.2561ZM99.6049 51.356H103.673V49.356H99.6049V51.356ZM102.673 50.356V55.144H104.673V50.356H102.673ZM103.673 56.144H108.497V54.144H103.673V56.144ZM107.497 55.144V58.996H109.497V55.144H107.497ZM108.497 57.996H103.673V59.996H108.497V57.996ZM102.673 58.996V66.808H104.673V58.996H102.673ZM102.673 66.808C102.673 67.7539 102.86 68.7127 103.531 69.3391L104.895 67.8769C104.846 67.8313 104.673 67.5901 104.673 66.808H102.673ZM103.582 69.3841C104.243 69.9206 105.185 70.076 106.157 70.076V68.076C105.305 68.076 104.951 67.9194 104.844 67.8319L103.582 69.3841ZM106.157 70.076H108.389V68.076H106.157V70.076ZM107.389 69.076V73H109.389V69.076H107.389ZM108.389 72H105.257V74H108.389V72ZM112.453 73H111.453V74H112.453V73ZM112.453 47.08V46.08H111.453V47.08H112.453ZM117.061 47.08H118.061V46.08H117.061V47.08ZM117.061 73V74H118.061V73H117.061ZM113.453 73V47.08H111.453V73H113.453ZM112.453 48.08H117.061V46.08H112.453V48.08ZM116.061 47.08V73H118.061V47.08H116.061ZM117.061 72H112.453V74H117.061V72ZM125.658 72.28L126.141 71.4044L126.141 71.4044L125.658 72.28ZM122.346 59.284L121.469 58.802L121.463 58.8134L122.346 59.284ZM125.586 55.936L126.087 56.8014L126.091 56.7987L125.586 55.936ZM135.126 55.864L134.63 56.7322L134.63 56.7322L135.126 55.864ZM138.258 59.032L137.383 59.5163L137.388 59.5257L137.393 59.5349L138.258 59.032ZM139.374 64.288L138.377 64.205L138.374 64.2464V64.288H139.374ZM139.338 65.188V66.188H140.264L140.335 65.2647L139.338 65.188ZM125.766 65.188V64.188H124.694L124.768 65.2568L125.766 65.188ZM127.206 68.464L126.53 69.2012L126.54 69.2103L127.206 68.464ZM132.75 69.04L133.297 69.877L133.304 69.8721L132.75 69.04ZM134.19 67.384V66.384H133.551L133.283 66.9629L134.19 67.384ZM138.87 67.384L139.828 67.6695L140.211 66.384H138.87V67.384ZM137.178 70.48L136.414 69.8341L136.413 69.8359L137.178 70.48ZM134.298 72.64L133.881 71.7309L133.874 71.7343L134.298 72.64ZM127.494 59.428L128.079 60.2387L128.086 60.2334L128.094 60.228L127.494 59.428ZM125.838 62.308L124.854 62.1259L124.636 63.308H125.838V62.308ZM134.73 62.308V63.308H135.793L135.728 62.2469L134.73 62.308ZM133.434 59.5L134.094 58.7488L134.094 58.7488L133.434 59.5ZM130.446 72.432C128.792 72.432 127.366 72.0805 126.141 71.4044L125.175 73.1556C126.733 74.0155 128.499 74.432 130.446 74.432V72.432ZM126.141 71.4044C124.911 70.7261 123.952 69.7786 123.251 68.5455L121.513 69.5345C122.395 71.0854 123.62 72.2979 125.175 73.1556L126.141 71.4044ZM123.251 68.5455C122.556 67.3241 122.194 65.8911 122.194 64.216H120.194C120.194 66.1889 120.623 67.9719 121.513 69.5345L123.251 68.5455ZM122.194 64.216C122.194 62.5102 122.547 61.0315 123.228 59.7546L121.463 58.8134C120.608 60.4165 120.194 62.2258 120.194 64.216H122.194ZM123.222 59.7659C123.93 58.4789 124.883 57.4984 126.087 56.8014L125.085 55.0706C123.553 55.9576 122.346 57.2091 121.469 58.8021L123.222 59.7659ZM126.091 56.7987C127.307 56.0861 128.759 55.712 130.482 55.712V53.712C128.461 53.712 126.648 54.1539 125.08 55.0733L126.091 56.7987ZM130.482 55.712C132.083 55.712 133.456 56.0615 134.63 56.7322L135.622 54.9958C134.108 54.1305 132.384 53.712 130.482 53.712V55.712ZM134.63 56.7322C135.816 57.4101 136.728 58.3339 137.383 59.5163L139.133 58.5477C138.299 57.0421 137.124 55.8539 135.622 54.9958L134.63 56.7322ZM137.393 59.5349C138.066 60.6917 138.41 61.9921 138.41 63.46H140.41C140.41 61.6639 139.985 60.0123 139.122 58.5291L137.393 59.5349ZM138.41 63.46C138.41 63.6938 138.399 63.942 138.377 64.205L140.37 64.371C140.396 64.058 140.41 63.7542 140.41 63.46H138.41ZM138.374 64.288C138.374 64.5483 138.363 64.8227 138.341 65.1113L140.335 65.2647C140.361 64.9293 140.374 64.6037 140.374 64.288H138.374ZM139.338 64.188H125.766V66.188H139.338V64.188ZM124.768 65.2568C124.878 66.8527 125.442 68.2037 126.53 69.2012L127.881 67.7268C127.242 67.1403 126.845 66.3073 126.763 65.1192L124.768 65.2568ZM126.54 69.2103C127.621 70.1742 128.929 70.652 130.41 70.652V68.652C129.394 68.652 128.567 68.3378 127.871 67.7177L126.54 69.2103ZM130.41 70.652C131.491 70.652 132.473 70.4156 133.297 69.877L132.202 68.203C131.778 68.4804 131.201 68.652 130.41 68.652V70.652ZM133.304 69.8721C134.097 69.3435 134.703 68.6526 135.097 67.8051L133.283 66.9629C133.052 67.4594 132.698 67.8725 132.195 68.2079L133.304 69.8721ZM134.19 68.384H138.87V66.384H134.19V68.384ZM137.911 67.0985C137.616 68.0887 137.121 68.999 136.414 69.8341L137.941 71.1259C138.818 70.089 139.451 68.9353 139.828 67.6695L137.911 67.0985ZM136.413 69.8359C135.746 70.6279 134.907 71.2605 133.881 71.7309L134.714 73.5491C135.992 72.9635 137.074 72.1561 137.943 71.1241L136.413 69.8359ZM133.874 71.7343C132.898 72.1912 131.762 72.432 130.446 72.432V74.432C132.009 74.432 133.442 74.1448 134.722 73.5457L133.874 71.7343ZM130.482 57.456C129.148 57.456 127.939 57.8441 126.894 58.628L128.094 60.228C128.777 59.7159 129.56 59.456 130.482 59.456V57.456ZM126.908 58.6173C125.789 59.4256 125.13 60.64 124.854 62.1259L126.821 62.4901C127.026 61.384 127.47 60.6784 128.079 60.2387L126.908 58.6173ZM125.838 63.308H134.73V61.308H125.838V63.308ZM135.728 62.2469C135.642 60.8392 135.11 59.642 134.094 58.7488L132.774 60.2512C133.341 60.75 133.674 61.4248 133.732 62.3691L135.728 62.2469ZM134.094 58.7488C133.098 57.8736 131.871 57.456 130.482 57.456V59.456C131.445 59.456 132.185 59.7344 132.774 60.2512L134.094 58.7488ZM143.681 51.616L142.991 52.3394L142.999 52.347L143.007 52.3545L143.681 51.616ZM143.681 47.836L144.354 48.5759L144.356 48.5745L143.681 47.836ZM147.821 47.836L147.131 48.5594L147.148 48.5754L147.165 48.5906L147.821 47.836ZM147.821 51.616L147.147 50.8775L147.139 50.885L147.131 50.8926L147.821 51.616ZM143.465 73H142.465V74H143.465V73ZM143.465 55.144V54.144H142.465V55.144H143.465ZM148.073 55.144H149.073V54.144H148.073V55.144ZM148.073 73V74H149.073V73H148.073ZM145.769 51.372C145.146 51.372 144.7 51.1921 144.356 50.8775L143.007 52.3545C143.766 53.0479 144.713 53.372 145.769 53.372V51.372ZM144.372 50.8926C144.053 50.5881 143.889 50.2187 143.889 49.708H141.889C141.889 50.7333 142.254 51.6359 142.991 52.3394L144.372 50.8926ZM143.889 49.708C143.889 49.1976 144.052 48.8508 144.354 48.5759L143.009 47.0961C142.255 47.7812 141.889 48.6824 141.889 49.708H143.889ZM144.356 48.5745C144.7 48.2599 145.146 48.08 145.769 48.08V46.08C144.713 46.08 143.766 46.4041 143.007 47.0975L144.356 48.5745ZM145.769 48.08C146.394 48.08 146.817 48.2598 147.131 48.5594L148.512 47.1126C147.77 46.4042 146.825 46.08 145.769 46.08V48.08ZM147.165 48.5906C147.487 48.8701 147.649 49.213 147.649 49.708H149.649C149.649 48.667 149.26 47.7618 148.477 47.0814L147.165 48.5906ZM147.649 49.708C147.649 50.2038 147.485 50.5688 147.147 50.8775L148.496 52.3545C149.261 51.6552 149.649 50.7482 149.649 49.708H147.649ZM147.131 50.8926C146.817 51.1922 146.394 51.372 145.769 51.372V53.372C146.825 53.372 147.77 53.0478 148.512 52.3394L147.131 50.8926ZM144.465 73V55.144H142.465V73H144.465ZM143.465 56.144H148.073V54.144H143.465V56.144ZM147.073 55.144V73H149.073V55.144H147.073ZM148.073 72H143.465V74H148.073V72ZM156.087 72.676L155.684 73.5913L155.692 73.5947L155.7 73.598L156.087 72.676ZM153.207 70.516L152.422 71.1356L152.422 71.1356L153.207 70.516ZM151.911 67.348V66.348H150.784L150.918 67.4671L151.911 67.348ZM156.555 67.348L157.534 67.1454L157.369 66.348H156.555V67.348ZM157.707 69.148L157.079 69.9259L157.095 69.9391L157.112 69.9516L157.707 69.148ZM162.387 69.256L161.739 68.4941L161.73 68.5023L161.72 68.5108L162.387 69.256ZM162.099 66.304L161.705 67.2231L161.719 67.2292L161.733 67.2348L162.099 66.304ZM159.291 65.476L159.506 64.4994L159.505 64.4991L159.291 65.476ZM156.951 64.864L156.661 65.821L156.661 65.821L156.951 64.864ZM154.755 63.964L154.245 64.8243L154.264 64.8353L154.283 64.8455L154.755 63.964ZM153.171 62.524L152.344 63.0863L152.349 63.0942L152.355 63.102L153.171 62.524ZM154.431 56.332L153.784 55.5697L153.777 55.5758L154.431 56.332ZM164.799 56.188L164.18 56.9733L164.187 56.979L164.799 56.188ZM167.067 60.256V61.256H168.215L168.057 60.1184L167.067 60.256ZM162.711 60.256L161.73 60.4521L161.891 61.256H162.711V60.256ZM157.707 58.78L157.134 57.9608L157.124 57.9677L157.114 57.9749L157.707 58.78ZM160.839 62.164L161.064 61.1896L161.062 61.1893L160.839 62.164ZM164.259 63.136L163.93 64.0802L163.943 64.0847L163.956 64.0889L164.259 63.136ZM166.779 64.684L166.034 65.3515L166.04 65.358L166.046 65.3645L166.779 64.684ZM167.715 67.6H166.715V67.6109L166.715 67.6217L167.715 67.6ZM166.851 70.588L166.022 70.0281L166.022 70.0281L166.851 70.588ZM164.259 72.676L163.851 71.763L163.851 71.763L164.259 72.676ZM160.263 72.432C158.784 72.432 157.528 72.1966 156.474 71.754L155.7 73.598C157.046 74.1634 158.574 74.432 160.263 74.432V72.432ZM156.49 71.7607C155.42 71.29 154.598 70.6643 153.992 69.8964L152.422 71.1356C153.256 72.1917 154.354 73.006 155.684 73.5913L156.49 71.7607ZM153.992 69.8964C153.391 69.1348 153.027 68.2538 152.904 67.2289L150.918 67.4671C151.083 68.8422 151.583 70.0732 152.422 71.1356L153.992 69.8964ZM151.911 68.348H156.555V66.348H151.911V68.348ZM155.576 67.5506C155.773 68.5023 156.299 69.2964 157.079 69.9259L158.335 68.3701C157.867 67.9916 157.625 67.5857 157.534 67.1454L155.576 67.5506ZM157.112 69.9516C157.971 70.5881 159.023 70.868 160.191 70.868V68.868C159.343 68.868 158.739 68.6679 158.302 68.3444L157.112 69.9516ZM160.191 70.868C161.296 70.868 162.328 70.651 163.054 70.0012L161.72 68.5108C161.534 68.677 161.102 68.868 160.191 68.868V70.868ZM163.035 70.0179C163.691 69.4604 164.107 68.7305 164.107 67.852H162.107C162.107 68.0295 162.043 68.2356 161.739 68.4941L163.035 70.0179ZM164.107 67.852C164.107 67.3222 163.99 66.7996 163.693 66.3433C163.393 65.8823 162.96 65.5678 162.465 65.3732L161.733 67.2348C161.91 67.3042 161.981 67.3797 162.017 67.4347C162.056 67.4944 162.107 67.6138 162.107 67.852H164.107ZM162.493 65.3849C161.737 65.0611 160.732 64.7691 159.506 64.4994L159.076 66.4526C160.25 66.7109 161.117 66.9709 161.705 67.2231L162.493 65.3849ZM159.505 64.4991C158.764 64.337 158.009 64.1397 157.241 63.907L156.661 65.821C157.477 66.0683 158.282 66.279 159.077 66.4529L159.505 64.4991ZM157.241 63.907C156.507 63.6845 155.836 63.4089 155.227 63.0825L154.283 64.8455C155.018 65.2391 155.811 65.5635 156.661 65.821L157.241 63.907ZM155.265 63.1037C154.729 62.7864 154.309 62.3999 153.987 61.946L152.355 63.102C152.849 63.8001 153.485 64.3736 154.245 64.8243L155.265 63.1037ZM153.998 61.9617C153.723 61.5571 153.559 61.0305 153.559 60.328H151.559C151.559 61.3535 151.803 62.2909 152.344 63.0863L153.998 61.9617ZM153.559 60.328C153.559 59.0479 154.046 57.9873 155.085 57.0882L153.777 55.5758C152.32 56.8367 151.559 58.4401 151.559 60.328H153.559ZM155.078 57.0943C156.113 56.2159 157.629 55.712 159.759 55.712V53.712C157.329 53.712 155.293 54.2881 153.784 55.5697L155.078 57.0943ZM159.759 55.712C161.72 55.712 163.159 56.1681 164.18 56.9733L165.418 55.4027C163.943 54.2399 162.022 53.712 159.759 53.712V55.712ZM164.187 56.979C165.234 57.7887 165.869 58.9003 166.076 60.3936L168.057 60.1184C167.785 58.1557 166.908 56.5553 165.411 55.397L164.187 56.979ZM167.067 59.256H162.711V61.256H167.067V59.256ZM163.692 60.0599C163.515 59.175 163.067 58.4336 162.318 57.9374C161.599 57.4605 160.7 57.276 159.723 57.276V59.276C160.474 59.276 160.937 59.4215 161.214 59.6046C161.461 59.7684 161.643 60.017 161.73 60.4521L163.692 60.0599ZM159.723 57.276C158.746 57.276 157.844 57.4634 157.134 57.9608L158.28 59.5992C158.53 59.4246 158.972 59.276 159.723 59.276V57.276ZM157.114 57.9749C156.438 58.4726 156.023 59.1755 156.023 60.04H158.023C158.023 59.8965 158.064 59.7594 158.3 59.5851L157.114 57.9749ZM156.023 60.04C156.023 61.131 156.787 61.8222 157.658 62.2125L158.476 60.3875C158.216 60.2707 158.099 60.1677 158.054 60.113C158.023 60.0759 158.023 60.0628 158.023 60.04H156.023ZM157.658 62.2125C158.437 62.5616 159.43 62.8671 160.616 63.1387L161.062 61.1893C159.943 60.9329 159.089 60.6624 158.476 60.3875L157.658 62.2125ZM160.614 63.1384C161.833 63.4196 162.937 63.734 163.93 64.0802L164.588 62.1918C163.517 61.818 162.341 61.4844 161.064 61.1896L160.614 63.1384ZM163.956 64.0889C164.874 64.3809 165.55 64.8111 166.034 65.3515L167.524 64.0165C166.76 63.1649 165.756 62.563 164.562 62.1831L163.956 64.0889ZM166.046 65.3645C166.441 65.7902 166.715 66.482 166.715 67.6H168.715C168.715 66.174 168.364 64.9218 167.512 64.0035L166.046 65.3645ZM166.715 67.6217C166.735 68.5255 166.503 69.3171 166.022 70.0281L167.68 71.1479C168.399 70.0829 168.743 68.8825 168.715 67.5783L166.715 67.6217ZM166.022 70.0281C165.542 70.739 164.835 71.3233 163.851 71.763L164.667 73.589C165.939 73.0207 166.96 72.213 167.68 71.1479L166.022 70.0281ZM163.851 71.763C162.879 72.1975 161.692 72.432 160.263 72.432V74.432C161.906 74.432 163.383 74.1625 164.667 73.589L163.851 71.763ZM174.691 71.632L175.319 70.8544L175.319 70.8544L174.691 71.632ZM172.999 58.996H173.999V57.996H172.999V58.996ZM169.939 58.996H168.939V59.996H169.939V58.996ZM169.939 55.144V54.144H168.939V55.144H169.939ZM172.999 55.144V56.144H173.892L173.992 55.2561L172.999 55.144ZM173.539 50.356V49.356H172.645L172.545 50.2439L173.539 50.356ZM177.607 50.356H178.607V49.356H177.607V50.356ZM177.607 55.144H176.607V56.144H177.607V55.144ZM182.431 55.144H183.431V54.144H182.431V55.144ZM182.431 58.996V59.996H183.431V58.996H182.431ZM177.607 58.996V57.996H176.607V58.996H177.607ZM178.147 68.608L177.464 69.3391L177.489 69.3625L177.516 69.3841L178.147 68.608ZM182.323 69.076H183.323V68.076H182.323V69.076ZM182.323 73V74H183.323V73H182.323ZM179.191 72C177.48 72 176.223 71.5852 175.319 70.8544L174.062 72.4096C175.414 73.5028 177.157 74 179.191 74V72ZM175.319 70.8544C174.538 70.2227 173.999 68.9797 173.999 66.772H171.999C171.999 69.2203 172.587 71.2173 174.062 72.4096L175.319 70.8544ZM173.999 66.772V58.996H171.999V66.772H173.999ZM172.999 57.996H169.939V59.996H172.999V57.996ZM170.939 58.996V55.144H168.939V58.996H170.939ZM169.939 56.144H172.999V54.144H169.939V56.144ZM173.992 55.2561L174.532 50.4681L172.545 50.2439L172.005 55.0319L173.992 55.2561ZM173.539 51.356H177.607V49.356H173.539V51.356ZM176.607 50.356V55.144H178.607V50.356H176.607ZM177.607 56.144H182.431V54.144H177.607V56.144ZM181.431 55.144V58.996H183.431V55.144H181.431ZM182.431 57.996H177.607V59.996H182.431V57.996ZM176.607 58.996V66.808H178.607V58.996H176.607ZM176.607 66.808C176.607 67.7539 176.793 68.7127 177.464 69.3391L178.829 67.8769C178.78 67.8313 178.607 67.5901 178.607 66.808H176.607ZM177.516 69.3841C178.176 69.9206 179.119 70.076 180.091 70.076V68.076C179.238 68.076 178.885 67.9194 178.777 67.8319L177.516 69.3841ZM180.091 70.076H182.323V68.076H180.091V70.076ZM181.323 69.076V73H183.323V69.076H181.323ZM182.323 72H179.191V74H182.323V72ZM187.899 71.344L187.141 71.997L187.148 72.0043L187.899 71.344ZM186.099 55.144V54.144H185.099V55.144H186.099ZM190.671 55.144H191.671V54.144H190.671V55.144ZM191.607 68.32L190.813 68.9274L190.813 68.9274L191.607 68.32ZM197.691 68.176L196.955 67.4985L196.95 67.5038L196.946 67.5092L197.691 68.176ZM198.951 55.144V54.144H197.951V55.144H198.951ZM203.559 55.144H204.559V54.144H203.559V55.144ZM203.559 73V74H204.559V73H203.559ZM199.491 73L198.498 73.1182L198.603 74H199.491V73ZM199.131 69.976L200.124 69.8578L199.742 66.6486L198.245 69.5127L199.131 69.976ZM196.719 72.496L196.21 71.635L196.201 71.6403L196.719 72.496ZM193.083 72.432C191.074 72.432 189.645 71.8159 188.65 70.6837L187.148 72.0043C188.6 73.6561 190.627 74.432 193.083 74.432V72.432ZM188.656 70.6911C187.671 69.5486 187.099 67.7806 187.099 65.224H185.099C185.099 68.0434 185.726 70.3554 187.141 71.9969L188.656 70.6911ZM187.099 65.224V55.144H185.099V65.224H187.099ZM186.099 56.144H190.671V54.144H186.099V56.144ZM189.671 55.144V64.792H191.671V55.144H189.671ZM189.671 64.792C189.671 66.4438 190.003 67.8695 190.813 68.9274L192.401 67.7125C191.962 67.1385 191.671 66.2122 191.671 64.792H189.671ZM190.813 68.9274C191.681 70.0635 193.008 70.544 194.559 70.544V68.544C193.422 68.544 192.78 68.2085 192.401 67.7125L190.813 68.9274ZM194.559 70.544C196.103 70.544 197.422 69.9761 198.436 68.8428L196.946 67.5092C196.328 68.1999 195.559 68.544 194.559 68.544V70.544ZM198.426 68.8535C199.485 67.7046 199.951 66.1616 199.951 64.36H197.951C197.951 65.8224 197.577 66.8234 196.955 67.4985L198.426 68.8535ZM199.951 64.36V55.144H197.951V64.36H199.951ZM198.951 56.144H203.559V54.144H198.951V56.144ZM202.559 55.144V73H204.559V55.144H202.559ZM203.559 72H199.491V74H203.559V72ZM200.484 72.8818L200.124 69.8578L198.138 70.0942L198.498 73.1182L200.484 72.8818ZM198.245 69.5127C197.782 70.3986 197.111 71.1029 196.21 71.6351L197.228 73.3569C198.439 72.6411 199.376 71.6654 200.017 70.4393L198.245 69.5127ZM196.201 71.6403C195.348 72.1561 194.321 72.432 193.083 72.432V74.432C194.629 74.432 196.025 74.0839 197.236 73.3517L196.201 71.6403ZM0.34 120H-0.66V121H0.34V120ZM0.34 102.144V101.144H-0.66V102.144H0.34ZM4.408 102.144L5.40099 102.026L5.29601 101.144H4.408V102.144ZM4.768 105.168L3.77501 105.286L4.15706 108.495L5.65423 105.631L4.768 105.168ZM7.144 102.648L6.63525 101.787L6.62658 101.792L7.144 102.648ZM16 103.8L15.249 104.46L15.249 104.46L16 103.8ZM17.836 120V121H18.836V120H17.836ZM13.228 120H12.228V121H13.228V120ZM12.292 106.824L13.0864 106.217L13.0864 106.217L12.292 106.824ZM6.172 106.968L5.43646 106.291L5.43157 106.296L5.42676 106.301L6.172 106.968ZM4.948 120V121H5.948V120H4.948ZM1.34 120V102.144H-0.66V120H1.34ZM0.34 103.144H4.408V101.144H0.34V103.144ZM3.41501 102.262L3.77501 105.286L5.76099 105.05L5.40099 102.026L3.41501 102.262ZM5.65423 105.631C6.12042 104.739 6.78394 104.034 7.66142 103.504L6.62658 101.792C5.44006 102.51 4.51958 103.485 3.88177 104.705L5.65423 105.631ZM7.65273 103.509C8.53217 102.989 9.58692 102.712 10.852 102.712V100.712C9.28508 100.712 7.86783 101.059 6.63527 101.787L7.65273 103.509ZM10.852 102.712C12.8327 102.712 14.2513 103.326 15.249 104.46L16.751 103.14C15.3007 101.49 13.2873 100.712 10.852 100.712V102.712ZM15.249 104.46C16.2535 105.603 16.836 107.368 16.836 109.92H18.836C18.836 107.096 18.1945 104.781 16.751 103.14L15.249 104.46ZM16.836 109.92V120H18.836V109.92H16.836ZM17.836 119H13.228V121H17.836V119ZM14.228 120V110.352H12.228V120H14.228ZM14.228 110.352C14.228 108.7 13.8954 107.274 13.0864 106.217L11.4976 107.431C11.9366 108.005 12.228 108.932 12.228 110.352H14.228ZM13.0864 106.217C12.221 105.085 10.9103 104.6 9.376 104.6V106.6C10.4817 106.6 11.115 106.931 11.4976 107.431L13.0864 106.217ZM9.376 104.6C7.8148 104.6 6.47526 105.163 5.43646 106.291L6.90755 107.645C7.54874 106.949 8.3452 106.6 9.376 106.6V104.6ZM5.42676 106.301C4.39851 107.45 3.948 108.989 3.948 110.784H5.948C5.948 109.315 6.31349 108.31 6.91724 107.635L5.42676 106.301ZM3.948 110.784V120H5.948V110.784H3.948ZM4.948 119H0.34V121H4.948V119ZM27.3903 114.384L27.6402 113.416L27.0871 113.273L26.6832 113.677L27.3903 114.384ZM26.0583 115.716L25.3512 115.009L24.3938 115.966L25.5905 116.6L26.0583 115.716ZM27.7143 116.256L27.5117 117.235L27.5117 117.235L27.7143 116.256ZM31.0983 116.688L31.0064 117.684L31.0078 117.684L31.0983 116.688ZM36.2823 118.38L35.6372 119.144L36.2823 118.38ZM37.0383 125.148L36.1866 124.624L36.1809 124.634L37.0383 125.148ZM34.3743 127.452L33.9416 126.55L33.9343 126.554L33.9271 126.558L34.3743 127.452ZM23.6103 126.912L24.1345 126.06L24.1248 126.055L23.6103 126.912ZM23.6103 118.488L24.2123 119.287L25.5615 118.269L24.0207 117.576L23.6103 118.488ZM22.3503 117.804L21.7691 118.618L21.7822 118.627L21.7956 118.636L22.3503 117.804ZM21.4503 117.048H20.4503V117.462L20.7432 117.755L21.4503 117.048ZM21.4503 116.22L20.7238 115.533L20.4503 115.822V116.22H21.4503ZM24.5823 112.908L25.3089 113.595L26.0213 112.842L25.2427 112.157L24.5823 112.908ZM23.3583 104.916L22.5045 104.395L22.4999 104.403L22.4953 104.411L23.3583 104.916ZM25.8783 102.576L25.4078 101.694L25.4078 101.694L25.8783 102.576ZM32.6103 102.144L32.2941 103.093L32.4481 103.144H32.6103V102.144ZM39.3783 102.144H40.3783V101.144H39.3783V102.144ZM39.3783 104.952L39.4488 105.95L40.3783 105.884V104.952H39.3783ZM36.3183 105.168L36.2479 104.17L34.7201 104.278L35.4334 105.634L36.3183 105.168ZM33.6543 113.808L33.1918 112.921L33.1838 112.926L33.6543 113.808ZM32.1063 110.388L31.478 109.61L31.4705 109.616L31.4632 109.622L32.1063 110.388ZM32.1063 106.068L31.4632 106.834L31.4705 106.84L31.478 106.846L32.1063 106.068ZM27.4263 106.068L26.7832 105.302L26.7832 105.302L27.4263 106.068ZM27.4263 110.388L28.0695 109.622L28.0695 109.622L27.4263 110.388ZM26.7063 124.176L27.1835 123.297L27.1742 123.292L26.7063 124.176ZM32.5743 124.14L32.0393 123.295L32.0294 123.301L32.0196 123.308L32.5743 124.14ZM32.9343 120.648L32.2466 121.374L32.2559 121.383L32.2654 121.391L32.9343 120.648ZM30.1623 119.856L30.0894 120.853L30.0935 120.854L30.1623 119.856ZM27.4263 119.532L27.5953 118.546L27.25 118.487L26.9433 118.656L27.4263 119.532ZM25.9143 120.792L25.089 120.227L25.0787 120.242L25.0689 120.258L25.9143 120.792ZM29.8023 113.672C29.0124 113.672 28.2932 113.584 27.6402 113.416L27.1405 115.352C27.9755 115.568 28.8643 115.672 29.8023 115.672V113.672ZM26.6832 113.677L25.3512 115.009L26.7655 116.423L28.0975 115.091L26.6832 113.677ZM25.5905 116.6C26.1141 116.877 26.7674 117.081 27.5117 117.235L27.9169 115.277C27.2693 115.143 26.8186 114.987 26.5262 114.832L25.5905 116.6ZM27.5117 117.235C28.2667 117.391 29.4425 117.539 31.0064 117.684L31.1903 115.692C29.6342 115.549 28.554 115.409 27.9169 115.277L27.5117 117.235ZM31.0078 117.684C33.3057 117.893 34.7888 118.428 35.6372 119.144L36.9275 117.616C35.6159 116.508 33.643 115.915 31.1889 115.692L31.0078 117.684ZM35.6372 119.144C36.4597 119.839 36.9023 120.801 36.9023 122.16H38.9023C38.9023 120.303 38.265 118.745 36.9275 117.616L35.6372 119.144ZM36.9023 122.16C36.9023 123.023 36.6698 123.839 36.1867 124.624L37.89 125.672C38.5588 124.585 38.9023 123.409 38.9023 122.16H36.9023ZM36.1809 124.634C35.7233 125.396 34.9991 126.043 33.9416 126.55L34.8071 128.354C36.1496 127.709 37.2014 126.82 37.8958 125.662L36.1809 124.634ZM33.9271 126.558C32.9098 127.066 31.5408 127.352 29.7663 127.352V129.352C31.7359 129.352 33.4389 129.038 34.8216 128.346L33.9271 126.558ZM29.7663 127.352C27.3384 127.352 25.4869 126.893 24.1344 126.06L23.0862 127.764C24.8538 128.851 27.1062 129.352 29.7663 129.352V127.352ZM24.1248 126.055C22.8813 125.308 22.2703 124.227 22.2703 122.664H20.2703C20.2703 124.893 21.2194 126.644 23.0958 127.769L24.1248 126.055ZM22.2703 122.664C22.2703 121.438 22.8427 120.319 24.2123 119.287L23.0084 117.689C21.258 119.009 20.2703 120.674 20.2703 122.664H22.2703ZM24.0207 117.576C23.5806 117.378 23.2107 117.176 22.905 116.972L21.7956 118.636C22.21 118.912 22.6801 119.166 23.2 119.4L24.0207 117.576ZM22.9316 116.99C22.6358 116.779 22.3787 116.562 22.1575 116.341L20.7432 117.755C21.05 118.062 21.3929 118.349 21.7691 118.618L22.9316 116.99ZM22.4503 117.048V116.22H20.4503V117.048H22.4503ZM22.1769 116.907L25.3089 113.595L23.8558 112.221L20.7238 115.533L22.1769 116.907ZM25.2427 112.157C24.0753 111.131 23.4943 109.836 23.4943 108.192H21.4943C21.4943 110.388 22.3054 112.237 23.922 113.659L25.2427 112.157ZM23.4943 108.192C23.4943 107.16 23.7398 106.244 24.2214 105.421L22.4953 104.411C21.8249 105.556 21.4943 106.824 21.4943 108.192H23.4943ZM24.2121 105.437C24.7132 104.615 25.4165 103.956 26.3489 103.458L25.4078 101.694C24.1801 102.348 23.2035 103.249 22.5045 104.395L24.2121 105.437ZM26.3489 103.458C27.2518 102.977 28.3895 102.712 29.8023 102.712V100.712C28.1432 100.712 26.6649 101.023 25.4078 101.694L26.3489 103.458ZM29.8023 102.712C30.7143 102.712 31.5424 102.842 32.2941 103.093L32.9266 101.195C31.9503 100.87 30.9064 100.712 29.8023 100.712V102.712ZM32.6103 103.144H39.3783V101.144H32.6103V103.144ZM38.3783 102.144V104.952H40.3783V102.144H38.3783ZM39.3079 103.954L36.2479 104.17L36.3888 106.166L39.4488 105.95L39.3079 103.954ZM35.4334 105.634C35.8325 106.392 36.0383 107.238 36.0383 108.192H38.0383C38.0383 106.938 37.7642 105.768 37.2033 104.702L35.4334 105.634ZM36.0383 108.192C36.0383 109.224 35.7929 110.14 35.3113 110.963L37.0374 111.973C37.7078 110.828 38.0383 109.56 38.0383 108.192H36.0383ZM35.3113 110.963C34.839 111.77 34.145 112.424 33.1918 112.921L34.1169 114.695C35.3717 114.04 36.3577 113.134 37.0374 111.973L35.3113 110.963ZM33.1838 112.926C32.2767 113.409 31.1613 113.672 29.8023 113.672V115.672C31.4194 115.672 32.872 115.359 34.1249 114.69L33.1838 112.926ZM29.8023 112.144C30.9258 112.144 31.9359 111.837 32.7495 111.154L31.4632 109.622C31.0768 109.947 30.5509 110.144 29.8023 110.144V112.144ZM32.7347 111.166C33.6344 110.439 34.0423 109.41 34.0423 108.228H32.0423C32.0423 108.918 31.8263 109.329 31.478 109.61L32.7347 111.166ZM34.0423 108.228C34.0423 107.046 33.6344 106.017 32.7347 105.29L31.478 106.846C31.8263 107.127 32.0423 107.538 32.0423 108.228H34.0423ZM32.7495 105.302C31.9359 104.619 30.9258 104.312 29.8023 104.312V106.312C30.5509 106.312 31.0768 106.509 31.4632 106.834L32.7495 105.302ZM29.8023 104.312C28.6449 104.312 27.6056 104.611 26.7832 105.302L28.0695 106.834C28.4471 106.517 28.9918 106.312 29.8023 106.312V104.312ZM26.7832 105.302C25.9125 106.034 25.5263 107.06 25.5263 108.228H27.5263C27.5263 107.524 27.7402 107.11 28.0695 106.834L26.7832 105.302ZM25.5263 108.228C25.5263 109.396 25.9125 110.422 26.7832 111.154L28.0695 109.622C27.7402 109.346 27.5263 108.932 27.5263 108.228H25.5263ZM26.7832 111.154C27.6056 111.845 28.6449 112.144 29.8023 112.144V110.144C28.9918 110.144 28.4471 109.939 28.0695 109.622L26.7832 111.154ZM24.4823 122.196C24.4823 122.798 24.6226 123.373 24.9377 123.883C25.2516 124.391 25.7033 124.776 26.2385 125.06L27.1742 123.292C26.8934 123.144 26.7331 122.983 26.6389 122.831C26.5461 122.681 26.4823 122.482 26.4823 122.196H24.4823ZM26.2293 125.055C27.2485 125.608 28.4415 125.86 29.7663 125.86V123.86C28.6912 123.86 27.8442 123.656 27.1834 123.297L26.2293 125.055ZM29.7663 125.86C31.0516 125.86 32.1985 125.592 33.129 124.972L32.0196 123.308C31.5102 123.648 30.7851 123.86 29.7663 123.86V125.86ZM33.1094 124.985C34.0925 124.362 34.6543 123.433 34.6543 122.268H32.6543C32.6543 122.687 32.4962 123.006 32.0393 123.295L33.1094 124.985ZM34.6543 122.268C34.6543 121.338 34.2949 120.527 33.6033 119.905L32.2654 121.391C32.5338 121.633 32.6543 121.902 32.6543 122.268H34.6543ZM33.6221 119.922C33.2317 119.552 32.716 119.319 32.1741 119.164C31.6222 119.007 30.9686 118.909 30.2311 118.858L30.0935 120.854C30.7481 120.899 31.2525 120.981 31.6246 121.088C32.0067 121.197 32.181 121.312 32.2466 121.374L33.6221 119.922ZM30.2353 118.859C29.2786 118.789 28.399 118.684 27.5953 118.546L27.2574 120.518C28.1337 120.668 29.0781 120.779 30.0894 120.853L30.2353 118.859ZM26.9433 118.656C26.1663 119.085 25.5193 119.598 25.089 120.227L26.7397 121.357C26.9334 121.074 27.2944 120.747 27.9094 120.408L26.9433 118.656ZM25.0689 120.258C24.6928 120.853 24.4823 121.504 24.4823 122.196H26.4823C26.4823 121.928 26.5599 121.643 26.7598 121.326L25.0689 120.258ZM45.9233 119.28L46.4064 118.404L46.4064 118.404L45.9233 119.28ZM42.6113 106.284L41.735 105.802L41.729 105.813L42.6113 106.284ZM45.8513 102.936L46.3524 103.801L46.357 103.799L45.8513 102.936ZM55.3913 102.864L54.8952 103.732L54.8952 103.732L55.3913 102.864ZM58.5233 106.032L57.6484 106.516L57.6536 106.526L57.659 106.535L58.5233 106.032ZM59.6393 111.288L58.6428 111.205L58.6393 111.246V111.288H59.6393ZM59.6033 112.188V113.188H60.5293L60.6004 112.265L59.6033 112.188ZM46.0313 112.188V111.188H44.96L45.0337 112.257L46.0313 112.188ZM47.4713 115.464L46.7955 116.201L46.8057 116.21L47.4713 115.464ZM53.0153 116.04L53.5626 116.877L53.57 116.872L53.0153 116.04ZM54.4553 114.384V113.384H53.8171L53.5483 113.963L54.4553 114.384ZM59.1353 114.384L60.0937 114.669L60.4766 113.384H59.1353V114.384ZM57.4433 117.48L56.6799 116.834L56.6784 116.836L57.4433 117.48ZM54.5633 119.64L54.1466 118.731L54.1394 118.734L54.5633 119.64ZM47.7593 106.428L48.3448 107.239L48.3521 107.233L48.3593 107.228L47.7593 106.428ZM46.1033 109.308L45.12 109.126L44.9011 110.308H46.1033V109.308ZM54.9953 109.308V110.308H56.0584L55.9934 109.247L54.9953 109.308ZM53.6993 106.5L54.3594 105.749L54.3594 105.749L53.6993 106.5ZM50.7113 119.432C49.0576 119.432 47.6318 119.081 46.4064 118.404L45.4402 120.156C46.9988 121.015 48.765 121.432 50.7113 121.432V119.432ZM46.4064 118.404C45.177 117.726 44.2181 116.779 43.5165 115.545L41.7781 116.535C42.6606 118.085 43.8856 119.298 45.4402 120.156L46.4064 118.404ZM43.5165 115.545C42.8216 114.324 42.4593 112.891 42.4593 111.216H40.4593C40.4593 113.189 40.8891 114.972 41.7781 116.535L43.5165 115.545ZM42.4593 111.216C42.4593 109.51 42.8126 108.032 43.4937 106.755L41.729 105.813C40.874 107.416 40.4593 109.226 40.4593 111.216H42.4593ZM43.4875 106.766C44.1954 105.479 45.1484 104.498 46.3523 103.801L45.3503 102.071C43.8182 102.958 42.6112 104.209 41.7351 105.802L43.4875 106.766ZM46.357 103.799C47.5726 103.086 49.0243 102.712 50.7473 102.712V100.712C48.7264 100.712 46.9141 101.154 45.3456 102.073L46.357 103.799ZM50.7473 102.712C52.3486 102.712 53.7213 103.061 54.8952 103.732L55.8875 101.996C54.3733 101.131 52.65 100.712 50.7473 100.712V102.712ZM54.8952 103.732C56.0814 104.41 56.9938 105.334 57.6484 106.516L59.3982 105.548C58.5648 104.042 57.3892 102.854 55.8875 101.996L54.8952 103.732ZM57.659 106.535C58.332 107.692 58.6753 108.992 58.6753 110.46H60.6753C60.6753 108.664 60.2506 107.012 59.3877 105.529L57.659 106.535ZM58.6753 110.46C58.6753 110.694 58.6647 110.942 58.6428 111.205L60.6359 111.371C60.6619 111.058 60.6753 110.754 60.6753 110.46H58.6753ZM58.6393 111.288C58.6393 111.548 58.6285 111.823 58.6063 112.111L60.6004 112.265C60.6262 111.929 60.6393 111.604 60.6393 111.288H58.6393ZM59.6033 111.188H46.0313V113.188H59.6033V111.188ZM45.0337 112.257C45.1437 113.853 45.7074 115.204 46.7956 116.201L48.147 114.727C47.5072 114.14 47.1109 113.307 47.0289 112.119L45.0337 112.257ZM46.8057 116.21C47.8865 117.174 49.1949 117.652 50.6753 117.652V115.652C49.6597 115.652 48.8322 115.338 48.1369 114.718L46.8057 116.21ZM50.6753 117.652C51.7561 117.652 52.7388 117.416 53.5626 116.877L52.4681 115.203C52.0438 115.48 51.4665 115.652 50.6753 115.652V117.652ZM53.57 116.872C54.3628 116.344 54.9689 115.653 55.3623 114.805L53.5483 113.963C53.3178 114.459 52.9638 114.872 52.4606 115.208L53.57 116.872ZM54.4553 115.384H59.1353V113.384H54.4553V115.384ZM58.1769 114.099C57.882 115.089 57.3865 115.999 56.6799 116.834L58.2067 118.126C59.0841 117.089 59.7166 115.935 60.0937 114.669L58.1769 114.099ZM56.6784 116.836C56.0114 117.628 55.1731 118.261 54.1467 118.731L54.98 120.549C56.2576 119.963 57.3392 119.156 58.2082 118.124L56.6784 116.836ZM54.1394 118.734C53.1633 119.191 52.0276 119.432 50.7113 119.432V121.432C52.275 121.432 53.7073 121.145 54.9873 120.546L54.1394 118.734ZM50.7473 104.456C49.4132 104.456 48.2045 104.844 47.1593 105.628L48.3593 107.228C49.0422 106.716 49.8254 106.456 50.7473 106.456V104.456ZM47.1738 105.617C46.0546 106.426 45.3952 107.64 45.12 109.126L47.0866 109.49C47.2914 108.384 47.736 107.678 48.3448 107.239L47.1738 105.617ZM46.1033 110.308H54.9953V108.308H46.1033V110.308ZM55.9934 109.247C55.9073 107.839 55.3758 106.642 54.3594 105.749L53.0392 107.251C53.6068 107.75 53.9394 108.425 53.9972 109.369L55.9934 109.247ZM54.3594 105.749C53.3635 104.874 52.1362 104.456 50.7473 104.456V106.456C51.7104 106.456 52.4511 106.734 53.0392 107.251L54.3594 105.749ZM63.5509 120H62.5509V121H63.5509V120ZM63.5509 102.144V101.144H62.5509V102.144H63.5509ZM67.6189 102.144L68.6119 102.026L68.507 101.144H67.6189V102.144ZM67.9789 105.168L66.9859 105.286L67.368 108.495L68.8652 105.631L67.9789 105.168ZM70.3549 102.648L69.8462 101.787L69.8375 101.792L70.3549 102.648ZM79.2109 103.8L78.46 104.46L78.46 104.46L79.2109 103.8ZM81.0469 120V121H82.0469V120H81.0469ZM76.4389 120H75.4389V121H76.4389V120ZM75.5029 106.824L76.2973 106.217L76.2973 106.217L75.5029 106.824ZM69.3829 106.968L68.6474 106.291L68.6425 106.296L68.6377 106.301L69.3829 106.968ZM68.1589 120V121H69.1589V120H68.1589ZM64.5509 120V102.144H62.5509V120H64.5509ZM63.5509 103.144H67.6189V101.144H63.5509V103.144ZM66.6259 102.262L66.9859 105.286L68.9719 105.05L68.6119 102.026L66.6259 102.262ZM68.8652 105.631C69.3314 104.739 69.9949 104.034 70.8724 103.504L69.8375 101.792C68.651 102.51 67.7305 103.485 67.0927 104.705L68.8652 105.631ZM70.8637 103.509C71.7431 102.989 72.7979 102.712 74.0629 102.712V100.712C72.496 100.712 71.0788 101.059 69.8462 101.787L70.8637 103.509ZM74.0629 102.712C76.0437 102.712 77.4623 103.326 78.46 104.46L79.9619 103.14C78.5116 101.49 76.4982 100.712 74.0629 100.712V102.712ZM78.46 104.46C79.4644 105.603 80.0469 107.368 80.0469 109.92H82.0469C82.0469 107.096 81.4055 104.781 79.9619 103.14L78.46 104.46ZM80.0469 109.92V120H82.0469V109.92H80.0469ZM81.0469 119H76.4389V121H81.0469V119ZM77.4389 120V110.352H75.4389V120H77.4389ZM77.4389 110.352C77.4389 108.7 77.1063 107.274 76.2973 106.217L74.7086 107.431C75.1476 108.005 75.4389 108.932 75.4389 110.352H77.4389ZM76.2973 106.217C75.432 105.085 74.1212 104.6 72.5869 104.6V106.6C73.6927 106.6 74.3259 106.931 74.7086 107.431L76.2973 106.217ZM72.5869 104.6C71.0257 104.6 69.6862 105.163 68.6474 106.291L70.1185 107.645C70.7597 106.949 71.5561 106.6 72.5869 106.6V104.6ZM68.6377 106.301C67.6094 107.45 67.1589 108.989 67.1589 110.784H69.1589C69.1589 109.315 69.5244 108.31 70.1282 107.635L68.6377 106.301ZM67.1589 110.784V120H69.1589V110.784H67.1589ZM68.1589 119H63.5509V121H68.1589V119Z" fill="white"/>
</svg>
