<svg width="424" height="46" viewBox="0 0 424 46" fill="none" xmlns="http://www.w3.org/2000/svg">
<path d="M9.32194 35L8.35514 35.2555L8.5519 36H9.32194V35ZM0.441943 1.4V0.399998H-0.856676L-0.524862 1.65551L0.441943 1.4ZM7.01794 1.4L7.9933 1.17936L7.817 0.399998H7.01794V1.4ZM13.0659 28.136L12.0906 28.3566L14.0324 28.3928L13.0659 28.136ZM20.1699 1.4V0.399998H19.401L19.2035 1.1432L20.1699 1.4ZM26.9379 1.4L27.9061 1.1497L27.7123 0.399998H26.9379V1.4ZM33.8499 28.136L32.8818 28.3863L34.8253 28.3566L33.8499 28.136ZM39.8979 1.4V0.399998H39.0989L38.9226 1.17936L39.8979 1.4ZM46.5219 1.4L47.487 1.66195L47.8296 0.399998H46.5219V1.4ZM37.4019 35V36H38.1667L38.367 35.262L37.4019 35ZM30.1059 35L29.14 35.2587L29.3385 36H30.1059V35ZM23.4339 10.088L24.3999 9.82929L23.4476 6.2737L22.4699 9.82237L23.4339 10.088ZM16.5699 35V36H17.3317L17.534 35.2656L16.5699 35ZM10.2887 34.7445L1.40875 1.14448L-0.524862 1.65551L8.35514 35.2555L10.2887 34.7445ZM0.441943 2.4H7.01794V0.399998H0.441943V2.4ZM6.04259 1.62064L12.0906 28.3566L14.0413 27.9154L7.9933 1.17936L6.04259 1.62064ZM14.0324 28.3928L21.1364 1.6568L19.2035 1.1432L12.0995 27.8792L14.0324 28.3928ZM20.1699 2.4H26.9379V0.399998H20.1699V2.4ZM25.9698 1.6503L32.8818 28.3863L34.8181 27.8857L27.9061 1.1497L25.9698 1.6503ZM34.8253 28.3566L40.8733 1.62064L38.9226 1.17936L32.8746 27.9154L34.8253 28.3566ZM39.8979 2.4H46.5219V0.399998H39.8979V2.4ZM45.5569 1.13805L36.4369 34.738L38.367 35.262L47.487 1.66195L45.5569 1.13805ZM37.4019 34H30.1059V36H37.4019V34ZM31.0719 34.7413L24.3999 9.82929L22.468 10.3467L29.14 35.2587L31.0719 34.7413ZM22.4699 9.82237L15.6059 34.7344L17.534 35.2656L24.398 10.3536L22.4699 9.82237ZM16.5699 34H9.32194V36H16.5699V34ZM53.4834 34.04L53.9665 33.1644L53.4834 34.04ZM49.0674 16.712L48.1912 16.23L48.1851 16.2414L49.0674 16.712ZM53.3874 12.248L53.8885 13.1134L53.8932 13.1107L53.3874 12.248ZM66.1074 12.152L65.6113 13.0202L66.1074 12.152ZM70.2834 16.376L69.4085 16.8603L69.4137 16.8697L69.4191 16.8789L70.2834 16.376ZM71.7714 23.384L70.7749 23.301L70.7714 23.3424V23.384H71.7714ZM71.7234 24.584V25.584H72.6495L72.7205 24.6607L71.7234 24.584ZM53.6274 24.584V23.584H52.5561L52.6298 24.6528L53.6274 24.584ZM55.5474 28.952L54.8717 29.6892L54.8818 29.6983L55.5474 28.952ZM62.9394 29.72L63.4867 30.557L63.4941 30.5521L62.9394 29.72ZM64.8594 27.512V26.512H64.2212L63.9524 27.0909L64.8594 27.512ZM71.0994 27.512L72.0578 27.7975L72.4407 26.512H71.0994V27.512ZM68.8434 31.64L68.0801 30.9941L68.0785 30.9959L68.8434 31.64ZM65.0034 34.52L64.5868 33.6109L64.5795 33.6143L65.0034 34.52ZM55.9314 16.904L56.5169 17.7147L56.5242 17.7094L56.5314 17.704L55.9314 16.904ZM53.7234 20.744L52.7402 20.5619L52.5213 21.744H53.7234V20.744ZM65.5794 20.744V21.744H66.6425L66.5776 20.6829L65.5794 20.744ZM63.8514 17L64.5116 16.2488V16.2488L63.8514 17ZM59.8674 34.576C57.6137 34.576 55.6559 34.0965 53.9665 33.1644L53.0004 34.9156C55.0229 36.0315 57.3212 36.576 59.8674 36.576V34.576ZM53.9665 33.1644C52.2731 32.2301 50.9502 30.9226 49.9846 29.2255L48.2463 30.2145C49.3927 32.2294 50.9818 33.8019 53.0004 34.9156L53.9665 33.1644ZM49.9846 29.2255C49.0257 27.5401 48.5314 25.5711 48.5314 23.288H46.5314C46.5314 25.8689 47.0932 28.1879 48.2463 30.2145L49.9846 29.2255ZM48.5314 23.288C48.5314 20.9662 49.0128 18.9395 49.9498 17.1826L48.1851 16.2414C47.0741 18.3245 46.5314 20.6818 46.5314 23.288H48.5314ZM49.9437 17.1939C50.9155 15.4269 52.2286 14.0744 53.8885 13.1134L52.8864 11.3826C50.8983 12.5336 49.3314 14.1571 48.1912 16.2301L49.9437 17.1939ZM53.8932 13.1107C55.5727 12.1261 57.5684 11.616 59.9154 11.616V9.616C57.2705 9.616 54.9142 10.1939 52.8817 11.3853L53.8932 13.1107ZM59.9154 11.616C62.1008 11.616 63.9895 12.0935 65.6113 13.0202L66.6036 11.2838C64.6414 10.1625 62.4021 9.616 59.9154 9.616V11.616ZM65.6113 13.0202C67.2456 13.9541 68.506 15.2299 69.4085 16.8603L71.1583 15.8917C70.0769 13.9381 68.5533 12.3979 66.6036 11.2838L65.6113 13.0202ZM69.4191 16.8789C70.3481 18.4757 70.8194 20.2681 70.8194 22.28H72.8194C72.8194 19.9399 72.2668 17.7963 71.1478 15.8731L69.4191 16.8789ZM70.8194 22.28C70.8194 22.6018 70.8048 22.942 70.7749 23.301L72.768 23.467C72.8021 23.058 72.8194 22.6622 72.8194 22.28H70.8194ZM70.7714 23.384C70.7714 23.7403 70.7566 24.1147 70.7264 24.5073L72.7205 24.6607C72.7543 24.2213 72.7714 23.7957 72.7714 23.384H70.7714ZM71.7234 23.584H53.6274V25.584H71.7234V23.584ZM52.6298 24.6528C52.7719 26.7127 53.4956 28.4277 54.8717 29.6892L56.2232 28.2148C55.2953 27.3643 54.739 26.1673 54.6251 24.5152L52.6298 24.6528ZM54.8818 29.6983C56.2586 30.9262 57.9231 31.536 59.8194 31.536V29.536C58.3878 29.536 57.2043 29.0898 56.2131 28.2057L54.8818 29.6983ZM59.8194 31.536C61.2123 31.536 62.455 31.2316 63.4867 30.557L62.3922 28.883C61.7599 29.2964 60.9226 29.536 59.8194 29.536V31.536ZM63.4941 30.5521C64.5029 29.8795 65.269 29.0046 65.7665 27.9331L63.9524 27.0909C63.6179 27.8114 63.1039 28.4085 62.3847 28.888L63.4941 30.5521ZM64.8594 28.512H71.0994V26.512H64.8594V28.512ZM70.1411 27.2265C69.7341 28.5927 69.0507 29.847 68.0801 30.9941L69.6068 32.2859C70.7482 30.937 71.5688 29.4393 72.0578 27.7975L70.1411 27.2265ZM68.0785 30.9959C67.1556 32.0919 65.9972 32.9645 64.5868 33.6109L65.4201 35.4291C67.0817 34.6675 68.4833 33.6201 69.6084 32.2841L68.0785 30.9959ZM64.5795 33.6143C63.2274 34.2472 61.6637 34.576 59.8674 34.576V36.576C61.9112 36.576 63.7715 36.2008 65.4274 35.4257L64.5795 33.6143ZM59.9154 14.608C58.2054 14.608 56.6646 15.1041 55.3314 16.104L56.5314 17.704C57.5023 16.9759 58.6175 16.608 59.9154 16.608V14.608ZM55.346 16.0933C53.9387 17.1096 53.0953 18.644 52.7402 20.5619L54.7067 20.9261C54.9916 19.388 55.6202 18.3624 56.5169 17.7147L55.346 16.0933ZM53.7234 21.744H65.5794V19.744H53.7234V21.744ZM66.5776 20.6829C66.4674 18.8832 65.792 17.374 64.5116 16.2488L63.1913 17.7512C64.0229 18.482 64.4995 19.4688 64.5813 20.8051L66.5776 20.6829ZM64.5116 16.2488C63.2517 15.1416 61.6963 14.608 59.9154 14.608V16.608C61.2706 16.608 62.3392 17.0024 63.1913 17.7512L64.5116 16.2488ZM83.1309 31.736L83.9563 31.1713L82.6264 29.2277L82.1515 31.5343L83.1309 31.736ZM82.4589 35V36H83.274L83.4384 35.2017L82.4589 35ZM76.9869 35H75.9869V36H76.9869V35ZM76.9869 0.439999V-0.560001H75.9869V0.439999H76.9869ZM83.1309 0.439999H84.1309V-0.560001H83.1309V0.439999ZM83.1309 14.6H82.1309V17.6752L83.9397 15.1882L83.1309 14.6ZM86.1549 11.816L85.6249 10.9679L85.6153 10.9741L86.1549 11.816ZM97.0989 12.248L97.6248 11.3974L97.0989 12.248ZM101.275 16.712L100.396 17.1888L101.275 16.712ZM101.275 29.576L102.151 30.0591L102.154 30.0528L101.275 29.576ZM97.0989 33.992L97.6135 34.8496L97.6248 34.8426L97.0989 33.992ZM94.6509 28.232L95.3667 28.9303L94.6509 28.232ZM94.6509 18.008L95.3751 17.3183L94.6509 18.008ZM84.9069 18.008L84.1828 17.3183L84.1824 17.3188L84.9069 18.008ZM84.9069 28.232L84.1741 28.9124L84.1825 28.9215L84.1912 28.9303L84.9069 28.232ZM91.0989 34.576C89.4325 34.576 88.023 34.264 86.8422 33.6736L85.9477 35.4624C87.4549 36.216 89.1813 36.576 91.0989 36.576V34.576ZM86.8422 33.6736C85.647 33.076 84.6903 32.2442 83.9563 31.1713L82.3056 32.3007C83.2356 33.6598 84.4549 34.716 85.9477 35.4624L86.8422 33.6736ZM82.1515 31.5343L81.4795 34.7983L83.4384 35.2017L84.1104 31.9377L82.1515 31.5343ZM82.4589 34H76.9869V36H82.4589V34ZM77.9869 35V0.439999H75.9869V35H77.9869ZM76.9869 1.44H83.1309V-0.560001H76.9869V1.44ZM82.1309 0.439999V14.6H84.1309V0.439999H82.1309ZM83.9397 15.1882C84.6253 14.2454 85.5372 13.3998 86.6946 12.6579L85.6153 10.9741C84.2766 11.8322 83.1726 12.8426 82.3222 14.0118L83.9397 15.1882ZM86.6849 12.664C87.7611 11.9914 89.2092 11.616 91.0989 11.616V9.616C88.9567 9.616 87.1088 10.0406 85.6249 10.968L86.6849 12.664ZM91.0989 11.616C93.1691 11.616 94.9841 12.1163 96.5731 13.0986L97.6248 11.3974C95.6937 10.2037 93.5088 9.616 91.0989 9.616V11.616ZM96.5731 13.0986C98.179 14.0913 99.4518 15.448 100.396 17.1888L102.154 16.2352C101.05 14.2 99.5389 12.5807 97.6248 11.3974L96.5731 13.0986ZM100.396 17.1888C101.332 18.9139 101.811 20.8906 101.811 23.144H103.811C103.811 20.5974 103.266 18.2861 102.154 16.2352L100.396 17.1888ZM101.811 23.144C101.811 25.3974 101.332 27.3741 100.396 29.0992L102.154 30.0528C103.266 28.0019 103.811 25.6906 103.811 23.144H101.811ZM100.399 29.0929C99.4563 30.8022 98.1832 32.1461 96.5731 33.1414L97.6248 34.8426C99.5347 33.6619 101.046 32.0618 102.151 30.0591L100.399 29.0929ZM96.5844 33.1345C94.9939 34.0888 93.1748 34.576 91.0989 34.576V36.576C93.5031 36.576 95.684 36.0072 97.6134 34.8495L96.5844 33.1345ZM89.8029 31.2C92.005 31.2 93.8853 30.4487 95.3667 28.9303L93.9352 27.5337C92.8565 28.6393 91.5049 29.2 89.8029 29.2V31.2ZM95.3667 28.9303C96.854 27.4059 97.5709 25.4468 97.5709 23.144H95.5709C95.5709 25.0012 95.0079 26.4341 93.9352 27.5337L95.3667 28.9303ZM97.5709 23.144C97.5709 20.8408 96.8541 18.8713 95.3751 17.3183L93.9268 18.6977C95.0078 19.8327 95.5709 21.2872 95.5709 23.144H97.5709ZM95.3751 17.3183C93.8957 15.765 92.0127 14.992 89.8029 14.992V16.992C91.4971 16.992 92.8462 17.563 93.9268 18.6977L95.3751 17.3183ZM89.8029 14.992C87.5663 14.992 85.6656 15.7614 84.1828 17.3183L85.6311 18.6977C86.7083 17.5666 88.0716 16.992 89.8029 16.992V14.992ZM84.1824 17.3188C82.7311 18.8444 82.0349 20.8005 82.0349 23.096H84.0349C84.0349 21.2315 84.5867 19.7955 85.6315 18.6972L84.1824 17.3188ZM82.0349 23.096C82.0349 25.392 82.7311 27.3584 84.1741 28.9124L85.6397 27.5515C84.5868 26.4176 84.0349 24.96 84.0349 23.096H82.0349ZM84.1912 28.9303C85.6759 30.4522 87.5741 31.2 89.8029 31.2V29.2C88.0638 29.2 86.698 28.6358 85.6227 27.5337L84.1912 28.9303ZM124.681 33.944L125.207 33.0934L124.681 33.944ZM120.505 29.48L119.626 29.9568L120.505 29.48ZM120.505 16.664L121.381 17.1471L121.384 17.1408L120.505 16.664ZM124.681 12.248L125.195 13.1056L125.207 13.0986L124.681 12.248ZM135.385 11.624L135.832 10.7296L135.385 11.624ZM138.649 14.456L137.824 15.0207L139.649 17.6884V14.456H138.649ZM138.649 0.439999V-0.560001H137.649V0.439999H138.649ZM144.793 0.439999H145.793V-0.560001H144.793V0.439999ZM144.793 35V36H145.793V35H144.793ZM139.321 35L138.34 35.1935L138.499 36H139.321V35ZM138.649 31.592L139.63 31.3985L139.187 29.1519L137.84 31.0038L138.649 31.592ZM135.577 34.376L135.047 33.5279L135.037 33.5341L135.577 34.376ZM136.825 28.232L136.101 27.5423L136.1 27.5428L136.825 28.232ZM136.825 18.008L136.092 18.6885L136.101 18.6975L136.109 18.7063L136.825 18.008ZM127.129 17.96L127.845 18.6583L127.129 17.96ZM127.129 28.184L127.853 27.4943L127.129 28.184ZM130.681 34.576C128.611 34.576 126.796 34.0757 125.207 33.0934L124.155 34.7946C126.086 35.9883 128.271 36.576 130.681 36.576V34.576ZM125.207 33.0934C123.601 32.1007 122.328 30.744 121.384 29.0032L119.626 29.9568C120.73 31.992 122.241 33.6113 124.155 34.7946L125.207 33.0934ZM121.384 29.0032C120.448 27.2781 119.969 25.3014 119.969 23.048H117.969C117.969 25.5946 118.514 27.9059 119.626 29.9568L121.384 29.0032ZM119.969 23.048C119.969 20.7943 120.448 18.8365 121.381 17.1471L119.629 16.1809C118.513 18.2035 117.969 20.5017 117.969 23.048H119.969ZM121.384 17.1408C122.327 15.4024 123.596 14.0651 125.195 13.1055L124.166 11.3905C122.246 12.5429 120.731 14.1496 119.626 16.1872L121.384 17.1408ZM125.207 13.0986C126.796 12.1163 128.611 11.616 130.681 11.616V9.616C128.271 9.616 126.086 10.2037 124.155 11.3974L125.207 13.0986ZM130.681 11.616C132.347 11.616 133.757 11.928 134.938 12.5184L135.832 10.7296C134.325 9.976 132.599 9.616 130.681 9.616V11.616ZM134.938 12.5184C136.133 13.116 137.09 13.9478 137.824 15.0207L139.474 13.8913C138.544 12.5322 137.325 11.476 135.832 10.7296L134.938 12.5184ZM139.649 14.456V0.439999H137.649V14.456H139.649ZM138.649 1.44H144.793V-0.560001H138.649V1.44ZM143.793 0.439999V35H145.793V0.439999H143.793ZM144.793 34H139.321V36H144.793V34ZM140.302 34.8065L139.63 31.3985L137.668 31.7855L138.34 35.1935L140.302 34.8065ZM137.84 31.0038C137.158 31.9413 136.235 32.7855 135.047 33.528L136.107 35.224C137.479 34.3665 138.603 33.3547 139.458 32.1802L137.84 31.0038ZM135.037 33.5341C133.999 34.2 132.572 34.576 130.681 34.576V36.576C132.822 36.576 134.659 36.152 136.117 35.2179L135.037 33.5341ZM131.977 31.2C134.206 31.2 136.094 30.4518 137.549 28.9212L136.1 27.5428C135.06 28.6362 133.716 29.2 131.977 29.2V31.2ZM137.549 28.9217C139.028 27.3687 139.745 25.3992 139.745 23.096H137.745C137.745 24.9528 137.182 26.4073 136.101 27.5423L137.549 28.9217ZM139.745 23.096C139.745 20.7932 139.028 18.8341 137.541 17.3097L136.109 18.7063C137.182 19.8059 137.745 21.2388 137.745 23.096H139.745ZM137.558 17.3275C136.104 15.7619 134.214 14.992 131.977 14.992V16.992C133.708 16.992 135.05 17.5661 136.092 18.6885L137.558 17.3275ZM131.977 14.992C129.775 14.992 127.895 15.7433 126.413 17.2617L127.845 18.6583C128.923 17.5527 130.275 16.992 131.977 16.992V14.992ZM126.413 17.2617C124.926 18.7861 124.209 20.7452 124.209 23.048H126.209C126.209 21.1908 126.772 19.7579 127.845 18.6583L126.413 17.2617ZM124.209 23.048C124.209 25.3512 124.926 27.3207 126.405 28.8737L127.853 27.4943C126.772 26.3593 126.209 24.9048 126.209 23.048H124.209ZM126.405 28.8737C127.884 30.427 129.767 31.2 131.977 31.2V29.2C130.283 29.2 128.934 28.629 127.853 27.4943L126.405 28.8737ZM156.233 34.04L156.717 33.1644L156.233 34.04ZM151.817 16.712L150.941 16.23L150.935 16.2414L151.817 16.712ZM156.137 12.248L156.638 13.1134L156.643 13.1107L156.137 12.248ZM168.857 12.152L168.361 13.0202L168.857 12.152ZM173.033 16.376L172.159 16.8603L172.164 16.8697L172.169 16.8789L173.033 16.376ZM174.521 23.384L173.525 23.301L173.521 23.3424V23.384H174.521ZM174.473 24.584V25.584H175.399L175.471 24.6607L174.473 24.584ZM156.377 24.584V23.584H155.306L155.38 24.6528L156.377 24.584ZM158.297 28.952L157.622 29.6892L157.632 29.6983L158.297 28.952ZM165.689 29.72L166.237 30.557L166.244 30.5521L165.689 29.72ZM167.609 27.512V26.512H166.971L166.702 27.0909L167.609 27.512ZM173.849 27.512L174.808 27.7975L175.191 26.512H173.849V27.512ZM171.593 31.64L170.83 30.9941L170.829 30.9959L171.593 31.64ZM167.753 34.52L167.337 33.6109L167.329 33.6143L167.753 34.52ZM158.681 16.904L159.267 17.7147L159.274 17.7094L159.281 17.704L158.681 16.904ZM156.473 20.744L155.49 20.5619L155.271 21.744H156.473V20.744ZM168.329 20.744V21.744H169.393L169.328 20.6829L168.329 20.744ZM166.601 17L167.262 16.2488V16.2488L166.601 17ZM162.617 34.576C160.364 34.576 158.406 34.0965 156.717 33.1644L155.75 34.9156C157.773 36.0315 160.071 36.576 162.617 36.576V34.576ZM156.717 33.1644C155.023 32.2301 153.7 30.9226 152.735 29.2255L150.996 30.2145C152.143 32.2294 153.732 33.8019 155.75 34.9156L156.717 33.1644ZM152.735 29.2255C151.776 27.5401 151.281 25.5711 151.281 23.288H149.281C149.281 25.8689 149.843 28.1879 150.996 30.2145L152.735 29.2255ZM151.281 23.288C151.281 20.9662 151.763 18.9395 152.7 17.1826L150.935 16.2414C149.824 18.3245 149.281 20.6818 149.281 23.288H151.281ZM152.694 17.1939C153.666 15.4269 154.979 14.0744 156.638 13.1134L155.636 11.3826C153.648 12.5336 152.081 14.1571 150.941 16.2301L152.694 17.1939ZM156.643 13.1107C158.323 12.1261 160.318 11.616 162.665 11.616V9.616C160.021 9.616 157.664 10.1939 155.632 11.3853L156.643 13.1107ZM162.665 11.616C164.851 11.616 166.739 12.0935 168.361 13.0202L169.354 11.2838C167.391 10.1625 165.152 9.616 162.665 9.616V11.616ZM168.361 13.0202C169.996 13.9541 171.256 15.2299 172.159 16.8603L173.908 15.8917C172.827 13.9381 171.303 12.3979 169.354 11.2838L168.361 13.0202ZM172.169 16.8789C173.098 18.4757 173.569 20.2681 173.569 22.28H175.569C175.569 19.9399 175.017 17.7963 173.898 15.8731L172.169 16.8789ZM173.569 22.28C173.569 22.6018 173.555 22.942 173.525 23.301L175.518 23.467C175.552 23.058 175.569 22.6622 175.569 22.28H173.569ZM173.521 23.384C173.521 23.7403 173.507 24.1147 173.476 24.5073L175.471 24.6607C175.504 24.2213 175.521 23.7957 175.521 23.384H173.521ZM174.473 23.584H156.377V25.584H174.473V23.584ZM155.38 24.6528C155.522 26.7127 156.246 28.4277 157.622 29.6892L158.973 28.2148C158.045 27.3643 157.489 26.1673 157.375 24.5152L155.38 24.6528ZM157.632 29.6983C159.009 30.9262 160.673 31.536 162.569 31.536V29.536C161.138 29.536 159.954 29.0898 158.963 28.2057L157.632 29.6983ZM162.569 31.536C163.962 31.536 165.205 31.2316 166.237 30.557L165.142 28.883C164.51 29.2964 163.673 29.536 162.569 29.536V31.536ZM166.244 30.5521C167.253 29.8795 168.019 29.0046 168.516 27.9331L166.702 27.0909C166.368 27.8114 165.854 28.4085 165.135 28.888L166.244 30.5521ZM167.609 28.512H173.849V26.512H167.609V28.512ZM172.891 27.2265C172.484 28.5927 171.801 29.847 170.83 30.9941L172.357 32.2859C173.498 30.937 174.319 29.4393 174.808 27.7975L172.891 27.2265ZM170.829 30.9959C169.906 32.0919 168.747 32.9645 167.337 33.6109L168.17 35.4291C169.832 34.6675 171.233 33.6201 172.358 32.2841L170.829 30.9959ZM167.329 33.6143C165.977 34.2472 164.414 34.576 162.617 34.576V36.576C164.661 36.576 166.521 36.2008 168.177 35.4257L167.329 33.6143ZM162.665 14.608C160.955 14.608 159.415 15.1041 158.081 16.104L159.281 17.704C160.252 16.9759 161.368 16.608 162.665 16.608V14.608ZM158.096 16.0933C156.689 17.1096 155.845 18.644 155.49 20.5619L157.457 20.9261C157.742 19.388 158.37 18.3624 159.267 17.7147L158.096 16.0933ZM156.473 21.744H168.329V19.744H156.473V21.744ZM169.328 20.6829C169.217 18.8832 168.542 17.374 167.262 16.2488L165.941 17.7512C166.773 18.482 167.249 19.4688 167.331 20.8051L169.328 20.6829ZM167.262 16.2488C166.002 15.1416 164.446 14.608 162.665 14.608V16.608C164.021 16.608 165.089 17.0024 165.941 17.7512L167.262 16.2488ZM185.231 35L184.293 35.3445L184.533 36H185.231V35ZM176.495 11.192V10.192H175.063L175.557 11.5365L176.495 11.192ZM182.927 11.192L183.875 10.8735L183.646 10.192H182.927V11.192ZM188.975 29.192L188.028 29.5105L188.975 32.3317L189.923 29.5105L188.975 29.192ZM195.023 11.192V10.192H194.305L194.076 10.8735L195.023 11.192ZM201.455 11.192L202.394 11.5381L202.89 10.192H201.455V11.192ZM192.671 35V36H193.368L193.61 35.3461L192.671 35ZM186.17 34.6555L177.434 10.8475L175.557 11.5365L184.293 35.3445L186.17 34.6555ZM176.495 12.192H182.927V10.192H176.495V12.192ZM181.98 11.5105L188.028 29.5105L189.923 28.8735L183.875 10.8735L181.98 11.5105ZM189.923 29.5105L195.971 11.5105L194.076 10.8735L188.028 28.8735L189.923 29.5105ZM195.023 12.192H201.455V10.192H195.023V12.192ZM200.517 10.8459L191.733 34.6539L193.61 35.3461L202.394 11.5381L200.517 10.8459ZM192.671 34H185.231V36H192.671V34ZM209.343 34.04L209.826 33.1644L209.343 34.04ZM204.927 16.712L204.051 16.23L204.044 16.2414L204.927 16.712ZM209.247 12.248L209.748 13.1134L209.753 13.1107L209.247 12.248ZM221.967 12.152L221.471 13.0202L221.967 12.152ZM226.143 16.376L225.268 16.8603L225.273 16.8697L225.278 16.8789L226.143 16.376ZM227.631 23.384L226.634 23.301L226.631 23.3424V23.384H227.631ZM227.583 24.584V25.584H228.509L228.58 24.6607L227.583 24.584ZM209.487 24.584V23.584H208.415L208.489 24.6528L209.487 24.584ZM211.407 28.952L210.731 29.6892L210.741 29.6983L211.407 28.952ZM218.799 29.72L219.346 30.557L219.354 30.5521L218.799 29.72ZM220.719 27.512V26.512H220.081L219.812 27.0909L220.719 27.512ZM226.959 27.512L227.917 27.7975L228.3 26.512H226.959V27.512ZM224.703 31.64L223.939 30.9941L223.938 30.9959L224.703 31.64ZM220.863 34.52L220.446 33.6109L220.439 33.6143L220.863 34.52ZM211.791 16.904L212.376 17.7147L212.384 17.7094L212.391 17.704L211.791 16.904ZM209.583 20.744L208.6 20.5619L208.381 21.744H209.583V20.744ZM221.439 20.744V21.744H222.502L222.437 20.6829L221.439 20.744ZM219.711 17L220.371 16.2488V16.2488L219.711 17ZM215.727 34.576C213.473 34.576 211.515 34.0965 209.826 33.1644L208.86 34.9156C210.882 36.0315 213.181 36.576 215.727 36.576V34.576ZM209.826 33.1644C208.132 32.2301 206.81 30.9226 205.844 29.2255L204.106 30.2145C205.252 32.2294 206.841 33.8019 208.86 34.9156L209.826 33.1644ZM205.844 29.2255C204.885 27.5401 204.391 25.5711 204.391 23.288H202.391C202.391 25.8689 202.953 28.1879 204.106 30.2145L205.844 29.2255ZM204.391 23.288C204.391 20.9662 204.872 18.9395 205.809 17.1826L204.044 16.2414C202.934 18.3245 202.391 20.6818 202.391 23.288H204.391ZM205.803 17.1939C206.775 15.4269 208.088 14.0744 209.748 13.1134L208.746 11.3826C206.758 12.5336 205.191 14.1571 204.051 16.2301L205.803 17.1939ZM209.753 13.1107C211.432 12.1261 213.428 11.616 215.775 11.616V9.616C213.13 9.616 210.774 10.1939 208.741 11.3853L209.753 13.1107ZM215.775 11.616C217.96 11.616 219.849 12.0935 221.471 13.0202L222.463 11.2838C220.501 10.1625 218.261 9.616 215.775 9.616V11.616ZM221.471 13.0202C223.105 13.9541 224.365 15.2299 225.268 16.8603L227.018 15.8917C225.936 13.9381 224.413 12.3979 222.463 11.2838L221.471 13.0202ZM225.278 16.8789C226.208 18.4757 226.679 20.2681 226.679 22.28H228.679C228.679 19.9399 228.126 17.7963 227.007 15.8731L225.278 16.8789ZM226.679 22.28C226.679 22.6018 226.664 22.942 226.634 23.301L228.627 23.467C228.661 23.058 228.679 22.6622 228.679 22.28H226.679ZM226.631 23.384C226.631 23.7403 226.616 24.1147 226.586 24.5073L228.58 24.6607C228.614 24.2213 228.631 23.7957 228.631 23.384H226.631ZM227.583 23.584H209.487V25.584H227.583V23.584ZM208.489 24.6528C208.631 26.7127 209.355 28.4277 210.731 29.6892L212.083 28.2148C211.155 27.3643 210.598 26.1673 210.484 24.5152L208.489 24.6528ZM210.741 29.6983C212.118 30.9262 213.782 31.536 215.679 31.536V29.536C214.247 29.536 213.064 29.0898 212.072 28.2057L210.741 29.6983ZM215.679 31.536C217.072 31.536 218.314 31.2316 219.346 30.557L218.252 28.883C217.619 29.2964 216.782 29.536 215.679 29.536V31.536ZM219.354 30.5521C220.362 29.8795 221.128 29.0046 221.626 27.9331L219.812 27.0909C219.477 27.8114 218.963 28.4085 218.244 28.888L219.354 30.5521ZM220.719 28.512H226.959V26.512H220.719V28.512ZM226 27.2265C225.594 28.5927 224.91 29.847 223.939 30.9941L225.466 32.2859C226.608 30.937 227.428 29.4393 227.917 27.7975L226 27.2265ZM223.938 30.9959C223.015 32.0919 221.857 32.9645 220.446 33.6109L221.279 35.4291C222.941 34.6675 224.343 33.6201 225.468 32.2841L223.938 30.9959ZM220.439 33.6143C219.087 34.2472 217.523 34.576 215.727 34.576V36.576C217.771 36.576 219.631 36.2008 221.287 35.4257L220.439 33.6143ZM215.775 14.608C214.065 14.608 212.524 15.1041 211.191 16.104L212.391 17.704C213.362 16.9759 214.477 16.608 215.775 16.608V14.608ZM211.205 16.0933C209.798 17.1096 208.955 18.644 208.6 20.5619L210.566 20.9261C210.851 19.388 211.48 18.3624 212.376 17.7147L211.205 16.0933ZM209.583 21.744H221.439V19.744H209.583V21.744ZM222.437 20.6829C222.327 18.8832 221.651 17.374 220.371 16.2488L219.051 17.7512C219.882 18.482 220.359 19.4688 220.441 20.8051L222.437 20.6829ZM220.371 16.2488C219.111 15.1416 217.556 14.608 215.775 14.608V16.608C217.13 16.608 218.199 17.0024 219.051 17.7512L220.371 16.2488ZM232.846 35H231.846V36H232.846V35ZM232.846 0.439999V-0.560001H231.846V0.439999H232.846ZM238.99 0.439999H239.99V-0.560001H238.99V0.439999ZM238.99 35V36H239.99V35H238.99ZM233.846 35V0.439999H231.846V35H233.846ZM232.846 1.44H238.99V-0.560001H232.846V1.44ZM237.99 0.439999V35H239.99V0.439999H237.99ZM238.99 34H232.846V36H238.99V34ZM250.452 33.992L249.951 34.8575L249.958 34.8612L250.452 33.992ZM246.084 29.624L245.211 30.1122L245.216 30.121L245.221 30.1297L246.084 29.624ZM246.132 16.616L246.995 17.1217L246.999 17.1153L246.132 16.616ZM250.5 12.2L250.006 11.3308L249.999 11.3346L250.5 12.2ZM262.884 12.2L262.383 13.0654L262.39 13.0692L262.884 12.2ZM267.252 16.616L266.379 17.1042L266.384 17.113L266.389 17.1217L267.252 16.616ZM267.252 29.624L266.386 29.1247L266.383 29.1295L267.252 29.624ZM262.884 33.992L262.39 33.1228L262.884 33.992ZM260.868 28.472L261.575 29.1792L261.585 29.1696L260.868 28.472ZM260.868 17.768L260.152 18.4657L260.161 18.4751L260.868 17.768ZM252.516 17.768L251.8 17.0704L251.799 17.0706L252.516 17.768ZM252.516 28.472L251.79 29.1597L251.8 29.1696L251.809 29.1791L252.516 28.472ZM256.692 34.576C254.547 34.576 252.64 34.0864 250.947 33.1228L249.958 34.8612C251.976 36.0096 254.229 36.576 256.692 36.576V34.576ZM250.953 33.1266C249.282 32.1591 247.949 30.8284 246.947 29.1183L245.221 30.1297C246.395 32.1316 247.974 33.7129 249.951 34.8574L250.953 33.1266ZM246.957 29.1358C245.995 27.4167 245.5 25.4132 245.5 23.096H243.5C243.5 25.7068 244.061 28.0553 245.211 30.1122L246.957 29.1358ZM245.5 23.096C245.5 20.7835 246.009 18.8032 246.995 17.1217L245.27 16.1103C244.079 18.1408 243.5 20.4805 243.5 23.096H245.5ZM246.999 17.1153C248.002 15.3739 249.334 14.0305 251.001 13.0654L249.999 11.3346C248.018 12.4815 246.438 14.0821 245.266 16.1167L246.999 17.1153ZM250.995 13.0692C252.688 12.1056 254.595 11.616 256.74 11.616V9.616C254.277 9.616 252.024 10.1824 250.006 11.3308L250.995 13.0692ZM256.74 11.616C258.85 11.616 260.723 12.1044 262.383 13.0654L263.385 11.3346C261.397 10.1836 259.174 9.616 256.74 9.616V11.616ZM262.39 13.0692C264.085 14.0338 265.411 15.3731 266.379 17.1042L268.125 16.1278C266.981 14.0829 265.395 12.4782 263.379 11.3308L262.39 13.0692ZM266.389 17.1217C267.375 18.8032 267.884 20.7835 267.884 23.096H269.884C269.884 20.4805 269.305 18.1408 268.115 16.1103L266.389 17.1217ZM267.884 23.096C267.884 25.4081 267.375 27.4076 266.386 29.1247L268.119 30.1233C269.305 28.0644 269.884 25.7119 269.884 23.096H267.884ZM266.383 29.1295C265.416 30.8292 264.089 32.1558 262.39 33.1228L263.379 34.8612C265.391 33.7162 266.976 32.1308 268.121 30.1185L266.383 29.1295ZM262.39 33.1228C260.694 34.0876 258.802 34.576 256.692 34.576V36.576C259.126 36.576 261.362 36.0084 263.379 34.8612L262.39 33.1228ZM256.692 31.248C258.571 31.248 260.213 30.5409 261.575 29.1791L260.161 27.7649C259.155 28.7711 258.014 29.248 256.692 29.248V31.248ZM261.585 29.1696C263.012 27.7036 263.644 25.6204 263.644 23.096H261.644C261.644 25.3076 261.092 26.8084 260.152 27.7744L261.585 29.1696ZM263.644 23.096C263.644 20.5739 263.013 18.4986 261.575 17.0609L260.161 18.4751C261.091 19.4054 261.644 20.8821 261.644 23.096H263.644ZM261.585 17.0704C260.23 15.6787 258.602 14.944 256.74 14.944V16.944C258.015 16.944 259.139 17.4253 260.152 18.4656L261.585 17.0704ZM256.74 14.944C254.827 14.944 253.164 15.6697 251.8 17.0704L253.233 18.4656C254.237 17.4343 255.39 16.944 256.74 16.944V14.944ZM251.799 17.0706C250.4 18.5091 249.788 20.5806 249.788 23.096H251.788C251.788 20.8754 252.329 19.3948 253.233 18.4654L251.799 17.0706ZM249.788 23.096C249.788 25.6137 250.401 27.6931 251.79 29.1597L253.242 27.7843C252.328 26.8189 251.788 25.3143 251.788 23.096H249.788ZM251.809 29.1791C253.171 30.5409 254.814 31.248 256.692 31.248V29.248C255.371 29.248 254.229 28.7711 253.223 27.7649L251.809 29.1791ZM274.378 45.56H273.378V46.56H274.378V45.56ZM274.378 11.192V10.192H273.378V11.192H274.378ZM279.85 11.192L280.831 10.9985L280.672 10.192H279.85V11.192ZM280.522 14.6L279.54 14.7935L279.983 17.0401L281.33 15.1882L280.522 14.6ZM283.546 11.816L283.016 10.9679L283.006 10.9741L283.546 11.816ZM294.49 12.248L295.015 11.3974L294.49 12.248ZM298.666 16.712L297.787 17.1888L298.666 16.712ZM298.666 29.576L299.541 30.0591L299.545 30.0528L298.666 29.576ZM294.49 33.992L295.004 34.8496L295.015 34.8426L294.49 33.992ZM280.522 31.736L281.347 31.1713L279.522 28.5036V31.736H280.522ZM280.522 45.56V46.56H281.522V45.56H280.522ZM292.042 28.232L292.757 28.9303L292.042 28.232ZM292.042 18.008L292.766 17.3183L292.042 18.008ZM282.298 18.008L281.573 17.3183L281.573 17.3188L282.298 18.008ZM282.298 28.232L281.565 28.9124L281.573 28.9215L281.582 28.9303L282.298 28.232ZM275.378 45.56V11.192H273.378V45.56H275.378ZM274.378 12.192H279.85V10.192H274.378V12.192ZM278.868 11.3855L279.54 14.7935L281.503 14.4065L280.831 10.9985L278.868 11.3855ZM281.33 15.1882C282.016 14.2454 282.928 13.3998 284.085 12.6579L283.006 10.9741C281.667 11.8322 280.563 12.8426 279.713 14.0118L281.33 15.1882ZM284.076 12.664C285.152 11.9914 286.6 11.616 288.49 11.616V9.616C286.347 9.616 284.499 10.0406 283.016 10.968L284.076 12.664ZM288.49 11.616C290.56 11.616 292.375 12.1163 293.964 13.0986L295.015 11.3974C293.084 10.2037 290.899 9.616 288.49 9.616V11.616ZM293.964 13.0986C295.57 14.0913 296.842 15.448 297.787 17.1888L299.545 16.2352C298.441 14.2 296.929 12.5807 295.015 11.3974L293.964 13.0986ZM297.787 17.1888C298.722 18.9139 299.202 20.8906 299.202 23.144H301.202C301.202 20.5974 300.657 18.2861 299.545 16.2352L297.787 17.1888ZM299.202 23.144C299.202 25.3974 298.722 27.3741 297.787 29.0992L299.545 30.0528C300.657 28.0019 301.202 25.6906 301.202 23.144H299.202ZM297.79 29.0929C296.847 30.8022 295.574 32.1461 293.964 33.1414L295.015 34.8426C296.925 33.6619 298.436 32.0618 299.541 30.0591L297.79 29.0929ZM293.975 33.1345C292.385 34.0888 290.565 34.576 288.49 34.576V36.576C290.894 36.576 293.075 36.0072 295.004 34.8495L293.975 33.1345ZM288.49 34.576C286.823 34.576 285.414 34.264 284.233 33.6736L283.338 35.4624C284.845 36.216 286.572 36.576 288.49 36.576V34.576ZM284.233 33.6736C283.038 33.076 282.081 32.2442 281.347 31.1713L279.696 32.3007C280.626 33.6598 281.846 34.716 283.338 35.4624L284.233 33.6736ZM279.522 31.736V45.56H281.522V31.736H279.522ZM280.522 44.56H274.378V46.56H280.522V44.56ZM287.194 31.2C289.396 31.2 291.276 30.4487 292.757 28.9303L291.326 27.5337C290.247 28.6393 288.896 29.2 287.194 29.2V31.2ZM292.757 28.9303C294.245 27.4059 294.962 25.4468 294.962 23.144H292.962C292.962 25.0012 292.399 26.4341 291.326 27.5337L292.757 28.9303ZM294.962 23.144C294.962 20.8408 294.245 18.8713 292.766 17.3183L291.317 18.6977C292.398 19.8327 292.962 21.2872 292.962 23.144H294.962ZM292.766 17.3183C291.286 15.765 289.403 14.992 287.194 14.992V16.992C288.888 16.992 290.237 17.563 291.317 18.6977L292.766 17.3183ZM287.194 14.992C284.957 14.992 283.056 15.7614 281.573 17.3183L283.022 18.6977C284.099 17.5666 285.462 16.992 287.194 16.992V14.992ZM281.573 17.3188C280.122 18.8444 279.426 20.8005 279.426 23.096H281.426C281.426 21.2315 281.977 19.7955 283.022 18.6972L281.573 17.3188ZM279.426 23.096C279.426 25.392 280.122 27.3584 281.565 28.9124L283.03 27.5515C281.977 26.4176 281.426 24.96 281.426 23.096H279.426ZM281.582 28.9303C283.066 30.4522 284.965 31.2 287.194 31.2V29.2C285.454 29.2 284.089 28.6358 283.013 27.5337L281.582 28.9303ZM305.69 35H304.69V36H305.69V35ZM305.69 11.192V10.192H304.69V11.192H305.69ZM311.114 11.192L312.101 11.03L311.963 10.192H311.114V11.192ZM311.642 14.408L310.655 14.57L311.066 17.0742L312.474 14.9627L311.642 14.408ZM314.666 11.672L315.14 12.5525L315.148 12.5482L314.666 11.672ZM326.906 14.888L326.026 15.3627L326.821 16.8361L327.741 15.438L326.906 14.888ZM330.362 11.768L329.899 10.8814L329.891 10.8856L330.362 11.768ZM342.314 13.4L343.059 12.7325L342.314 13.4ZM344.81 35V36H345.81V35H344.81ZM338.666 35H337.666V36H338.666V35ZM337.466 17.432L336.649 18.0087L336.655 18.0166L336.66 18.0244L337.466 17.432ZM329.834 17.624L329.069 16.9799L329.064 16.9858L329.059 16.9919L329.834 17.624ZM328.346 35V36H329.346V35H328.346ZM322.202 35H321.202V36H322.202V35ZM321.002 17.432L320.196 18.0244L321.002 17.432ZM313.322 17.624L312.557 16.9799L312.552 16.9858L312.547 16.9919L313.322 17.624ZM311.834 35V36H312.834V35H311.834ZM306.69 35V11.192H304.69V35H306.69ZM305.69 12.192H311.114V10.192H305.69V12.192ZM310.127 11.354L310.655 14.57L312.629 14.246L312.101 11.03L310.127 11.354ZM312.474 14.9627C313.149 13.9503 314.033 13.1487 315.14 12.5525L314.192 10.7915C312.803 11.5393 311.671 12.5617 310.81 13.8533L312.474 14.9627ZM315.148 12.5482C316.261 11.9361 317.563 11.616 319.082 11.616V9.616C317.273 9.616 315.631 9.99986 314.184 10.7958L315.148 12.5482ZM319.082 11.616C322.456 11.616 324.692 12.8889 326.026 15.3627L327.786 14.4133C326.048 11.1911 323.068 9.616 319.082 9.616V11.616ZM327.741 15.438C328.51 14.271 329.534 13.3429 330.833 12.6504L329.891 10.8856C328.31 11.7291 327.03 12.881 326.071 14.338L327.741 15.438ZM330.825 12.6546C332.148 11.9642 333.588 11.616 335.162 11.616V9.616C333.28 9.616 331.52 10.0358 329.9 10.8814L330.825 12.6546ZM335.162 11.616C338.057 11.616 340.14 12.4732 341.569 14.0675L343.059 12.7325C341.16 10.6148 338.475 9.616 335.162 9.616V11.616ZM341.569 14.0675C343.01 15.6738 343.81 18.1157 343.81 21.56H345.81C345.81 17.8363 344.947 14.8382 343.059 12.7325L341.569 14.0675ZM343.81 21.56V35H345.81V21.56H343.81ZM344.81 34H338.666V36H344.81V34ZM339.666 35V22.136H337.666V35H339.666ZM339.666 22.136C339.666 19.9788 339.248 18.1675 338.272 16.8396L336.66 18.0244C337.284 18.8725 337.666 20.1972 337.666 22.136H339.666ZM338.283 16.8553C337.285 15.4408 335.74 14.8 333.866 14.8V16.8C335.256 16.8 336.112 17.2472 336.649 18.0087L338.283 16.8553ZM333.866 14.8C331.923 14.8 330.293 15.5264 329.069 16.9799L330.599 18.2681C331.423 17.2896 332.481 16.8 333.866 16.8V14.8ZM329.059 16.9919C327.874 18.4444 327.346 20.3938 327.346 22.712H329.346C329.346 20.6782 329.81 19.2356 330.609 18.2561L329.059 16.9919ZM327.346 22.712V35H329.346V22.712H327.346ZM328.346 34H322.202V36H328.346V34ZM323.202 35V22.136H321.202V35H323.202ZM323.202 22.136C323.202 19.9788 322.784 18.1675 321.808 16.8396L320.196 18.0244C320.82 18.8725 321.202 20.1972 321.202 22.136H323.202ZM321.808 16.8396C320.775 15.4354 319.206 14.8 317.306 14.8V16.8C318.735 16.8 319.629 17.2526 320.196 18.0244L321.808 16.8396ZM317.306 14.8C315.388 14.8 313.777 15.5314 312.557 16.9799L314.087 18.2681C314.915 17.2846 315.96 16.8 317.306 16.8V14.8ZM312.547 16.9919C311.362 18.4444 310.834 20.3938 310.834 22.712H312.834C312.834 20.6782 313.298 19.2356 314.097 18.2561L312.547 16.9919ZM310.834 22.712V35H312.834V22.712H310.834ZM311.834 34H305.69V36H311.834V34ZM355.827 34.04L356.31 33.1644L355.827 34.04ZM351.411 16.712L350.535 16.23L350.529 16.2414L351.411 16.712ZM355.731 12.248L356.232 13.1134L356.237 13.1107L355.731 12.248ZM368.451 12.152L367.955 13.0202L368.451 12.152ZM372.627 16.376L371.752 16.8603L371.757 16.8697L371.763 16.8789L372.627 16.376ZM374.115 23.384L373.119 23.301L373.115 23.3424V23.384H374.115ZM374.067 24.584V25.584H374.993L375.064 24.6607L374.067 24.584ZM355.971 24.584V23.584H354.9L354.974 24.6528L355.971 24.584ZM357.891 28.952L357.215 29.6892L357.226 29.6983L357.891 28.952ZM365.283 29.72L365.83 30.557L365.838 30.5521L365.283 29.72ZM367.203 27.512V26.512H366.565L366.296 27.0909L367.203 27.512ZM373.443 27.512L374.402 27.7975L374.784 26.512H373.443V27.512ZM371.187 31.64L370.424 30.9941L370.422 30.9959L371.187 31.64ZM367.347 34.52L366.931 33.6109L366.923 33.6143L367.347 34.52ZM358.275 16.904L358.861 17.7147L358.868 17.7094L358.875 17.704L358.275 16.904ZM356.067 20.744L355.084 20.5619L354.865 21.744H356.067V20.744ZM367.923 20.744V21.744H368.986L368.921 20.6829L367.923 20.744ZM366.195 17L366.855 16.2488V16.2488L366.195 17ZM362.211 34.576C359.957 34.576 358 34.0965 356.31 33.1644L355.344 34.9156C357.367 36.0315 359.665 36.576 362.211 36.576V34.576ZM356.31 33.1644C354.617 32.2301 353.294 30.9226 352.328 29.2255L350.59 30.2145C351.736 32.2294 353.326 33.8019 355.344 34.9156L356.31 33.1644ZM352.328 29.2255C351.369 27.5401 350.875 25.5711 350.875 23.288H348.875C348.875 25.8689 349.437 28.1879 350.59 30.2145L352.328 29.2255ZM350.875 23.288C350.875 20.9662 351.357 18.9395 352.294 17.1826L350.529 16.2414C349.418 18.3245 348.875 20.6818 348.875 23.288H350.875ZM352.287 17.1939C353.259 15.4269 354.572 14.0744 356.232 13.1134L355.23 11.3826C353.242 12.5336 351.675 14.1571 350.535 16.2301L352.287 17.1939ZM356.237 13.1107C357.916 12.1261 359.912 11.616 362.259 11.616V9.616C359.614 9.616 357.258 10.1939 355.225 11.3853L356.237 13.1107ZM362.259 11.616C364.445 11.616 366.333 12.0935 367.955 13.0202L368.947 11.2838C366.985 10.1625 364.746 9.616 362.259 9.616V11.616ZM367.955 13.0202C369.589 13.9541 370.85 15.2299 371.752 16.8603L373.502 15.8917C372.421 13.9381 370.897 12.3979 368.947 11.2838L367.955 13.0202ZM371.763 16.8789C372.692 18.4757 373.163 20.2681 373.163 22.28H375.163C375.163 19.9399 374.611 17.7963 373.492 15.8731L371.763 16.8789ZM373.163 22.28C373.163 22.6018 373.149 22.942 373.119 23.301L375.112 23.467C375.146 23.058 375.163 22.6622 375.163 22.28H373.163ZM373.115 23.384C373.115 23.7403 373.1 24.1147 373.07 24.5073L375.064 24.6607C375.098 24.2213 375.115 23.7957 375.115 23.384H373.115ZM374.067 23.584H355.971V25.584H374.067V23.584ZM354.974 24.6528C355.116 26.7127 355.839 28.4277 357.215 29.6892L358.567 28.2148C357.639 27.3643 357.083 26.1673 356.969 24.5152L354.974 24.6528ZM357.226 29.6983C358.602 30.9262 360.267 31.536 362.163 31.536V29.536C360.732 29.536 359.548 29.0898 358.557 28.2057L357.226 29.6983ZM362.163 31.536C363.556 31.536 364.799 31.2316 365.83 30.557L364.736 28.883C364.104 29.2964 363.266 29.536 362.163 29.536V31.536ZM365.838 30.5521C366.847 29.8795 367.613 29.0046 368.11 27.9331L366.296 27.0909C365.962 27.8114 365.448 28.4085 364.728 28.888L365.838 30.5521ZM367.203 28.512H373.443V26.512H367.203V28.512ZM372.485 27.2265C372.078 28.5927 371.394 29.847 370.424 30.9941L371.951 32.2859C373.092 30.937 373.913 29.4393 374.402 27.7975L372.485 27.2265ZM370.422 30.9959C369.499 32.0919 368.341 32.9645 366.931 33.6109L367.764 35.4291C369.425 34.6675 370.827 33.6201 371.952 32.2841L370.422 30.9959ZM366.923 33.6143C365.571 34.2472 364.007 34.576 362.211 34.576V36.576C364.255 36.576 366.115 36.2008 367.771 35.4257L366.923 33.6143ZM362.259 14.608C360.549 14.608 359.008 15.1041 357.675 16.104L358.875 17.704C359.846 16.9759 360.961 16.608 362.259 16.608V14.608ZM357.69 16.0933C356.282 17.1096 355.439 18.644 355.084 20.5619L357.05 20.9261C357.335 19.388 357.964 18.3624 358.861 17.7147L357.69 16.0933ZM356.067 21.744H367.923V19.744H356.067V21.744ZM368.921 20.6829C368.811 18.8832 368.136 17.374 366.855 16.2488L365.535 17.7512C366.367 18.482 366.843 19.4688 366.925 20.8051L368.921 20.6829ZM366.855 16.2488C365.595 15.1416 364.04 14.608 362.259 14.608V16.608C363.614 16.608 364.683 17.0024 365.535 17.7512L366.855 16.2488ZM379.331 35H378.331V36H379.331V35ZM379.331 11.192V10.192H378.331V11.192H379.331ZM384.755 11.192L385.748 11.0738L385.643 10.192H384.755V11.192ZM385.235 15.224L384.242 15.3422L384.624 18.5514L386.121 15.6873L385.235 15.224ZM388.403 11.864L387.894 11.003L387.885 11.0083L388.403 11.864ZM400.211 13.4L399.46 14.0603L400.211 13.4ZM402.659 35V36H403.659V35H402.659ZM396.515 35H395.515V36H396.515V35ZM395.267 17.432L396.061 16.8245L395.267 17.432ZM387.107 17.624L386.371 16.9465L386.366 16.9518L386.361 16.9572L387.107 17.624ZM385.475 35V36H386.475V35H385.475ZM380.331 35V11.192H378.331V35H380.331ZM379.331 12.192H384.755V10.192H379.331V12.192ZM383.762 11.3102L384.242 15.3422L386.228 15.1058L385.748 11.0738L383.762 11.3102ZM386.121 15.6873C386.771 14.4434 387.699 13.4583 388.92 12.7197L387.885 11.0083C386.355 11.9337 385.17 13.1886 384.348 14.7607L386.121 15.6873ZM388.911 12.7249C390.143 11.9973 391.61 11.616 393.347 11.616V9.616C391.308 9.616 389.479 10.0667 387.894 11.0031L388.911 12.7249ZM393.347 11.616C396.063 11.616 398.054 12.4617 399.46 14.0603L400.962 12.7397C399.103 10.6263 396.518 9.616 393.347 9.616V11.616ZM399.46 14.0603C400.872 15.6666 401.659 18.1115 401.659 21.56H403.659C403.659 17.8405 402.813 14.8454 400.962 12.7397L399.46 14.0603ZM401.659 21.56V35H403.659V21.56H401.659ZM402.659 34H396.515V36H402.659V34ZM397.515 35V22.136H395.515V35H397.515ZM397.515 22.136C397.515 19.9722 397.078 18.1545 396.061 16.8245L394.472 18.0394C395.119 18.8855 395.515 20.2038 395.515 22.136H397.515ZM396.061 16.8245C394.988 15.421 393.353 14.8 391.379 14.8V16.8C392.924 16.8 393.882 17.267 394.472 18.0394L396.061 16.8245ZM391.379 14.8C389.385 14.8 387.69 15.5147 386.371 16.9465L387.842 18.3015C388.763 17.3013 389.916 16.8 391.379 16.8V14.8ZM386.361 16.9572C385.061 18.4104 384.475 20.3734 384.475 22.712H386.475C386.475 20.6986 386.976 19.2696 387.852 18.2908L386.361 16.9572ZM384.475 22.712V35H386.475V22.712H384.475ZM385.475 34H379.331V36H385.475V34ZM413.142 33.176L413.771 32.3984L413.142 33.176ZM410.886 16.328H411.886V15.328H410.886V16.328ZM406.806 16.328H405.806V17.328H406.806V16.328ZM406.806 11.192V10.192H405.806V11.192H406.806ZM410.886 11.192V12.192H411.779L411.88 11.3041L410.886 11.192ZM411.606 4.808V3.808H410.712L410.612 4.69593L411.606 4.808ZM417.03 4.808H418.03V3.808H417.03V4.808ZM417.03 11.192H416.03V12.192H417.03V11.192ZM423.462 11.192H424.462V10.192H423.462V11.192ZM423.462 16.328V17.328H424.462V16.328H423.462ZM417.03 16.328V15.328H416.03V16.328H417.03ZM417.75 29.144L417.068 29.8751L417.093 29.8985L417.119 29.9201L417.75 29.144ZM423.318 29.768H424.318V28.768H423.318V29.768ZM423.318 35V36H424.318V35H423.318ZM419.142 34C416.807 34 415.05 33.4332 413.771 32.3984L412.513 33.9536C414.241 35.3508 416.484 36 419.142 36V34ZM413.771 32.3984C412.613 31.4627 411.886 29.6797 411.886 26.696H409.886C409.886 29.9203 410.662 32.4573 412.513 33.9536L413.771 32.3984ZM411.886 26.696V16.328H409.886V26.696H411.886ZM410.886 15.328H406.806V17.328H410.886V15.328ZM407.806 16.328V11.192H405.806V16.328H407.806ZM406.806 12.192H410.886V10.192H406.806V12.192ZM411.88 11.3041L412.6 4.92007L410.612 4.69593L409.892 11.0799L411.88 11.3041ZM411.606 5.808H417.03V3.808H411.606V5.808ZM416.03 4.808V11.192H418.03V4.808H416.03ZM417.03 12.192H423.462V10.192H417.03V12.192ZM422.462 11.192V16.328H424.462V11.192H422.462ZM423.462 15.328H417.03V17.328H423.462V15.328ZM416.03 16.328V26.744H418.03V16.328H416.03ZM416.03 26.744C416.03 27.9779 416.276 29.1367 417.068 29.8751L418.432 28.4129C418.263 28.2553 418.03 27.8141 418.03 26.744H416.03ZM417.119 29.9201C417.907 30.5606 419.066 30.768 420.342 30.768V28.768C419.185 28.768 418.616 28.5594 418.38 28.3679L417.119 29.9201ZM420.342 30.768H423.318V28.768H420.342V30.768ZM422.318 29.768V35H424.318V29.768H422.318ZM423.318 34H419.142V36H423.318V34Z" fill="white"/>
</svg>
