<svg width="363" height="47" viewBox="0 0 363 47" fill="none" xmlns="http://www.w3.org/2000/svg">
<path d="M0.653893 35H-0.346107V36H0.653893V35ZM0.653893 1.4V0.399998H-0.346107V1.4H0.653893ZM21.8219 3.512L21.3353 4.38563L21.3419 4.38928L21.3484 4.39282L21.8219 3.512ZM27.4859 9.368L26.5847 9.80147L26.588 9.80837L26.5915 9.81521L27.4859 9.368ZM27.4859 27.08L26.5892 26.6373L26.5869 26.642L27.4859 27.08ZM21.8219 32.936L22.3 33.8143L22.3038 33.8122L21.8219 32.936ZM6.79789 29.72H5.79789V30.72H6.79789V29.72ZM18.5099 28.376L18.9912 29.2526L18.9977 29.249L19.0042 29.2453L18.5099 28.376ZM22.0139 24.44L22.9375 24.8234L22.94 24.8173L22.0139 24.44ZM22.0139 12.008L21.0878 12.3853L22.0139 12.008ZM6.79789 6.632V5.632H5.79789V6.632H6.79789ZM1.65389 35V1.4H-0.346107V35H1.65389ZM0.653893 2.4H12.1259V0.399998H0.653893V2.4ZM12.1259 2.4C15.9503 2.4 19.0001 3.08502 21.3353 4.38563L22.3085 2.63836C19.5877 1.12297 16.1735 0.399998 12.1259 0.399998V2.4ZM21.3484 4.39282C23.7293 5.67255 25.4639 7.47128 26.5847 9.80147L28.3871 8.93453C27.0759 6.20871 25.0345 4.10345 22.2953 2.63117L21.3484 4.39282ZM26.5915 9.81521C27.7567 12.1456 28.3579 14.9303 28.3579 18.2H30.3579C30.3579 14.6857 29.7111 11.5824 28.3803 8.92078L26.5915 9.81521ZM28.3579 18.2C28.3579 21.4693 27.7568 24.2722 26.5892 26.6373L28.3826 27.5227C29.711 24.8318 30.3579 21.7147 30.3579 18.2H28.3579ZM26.5869 26.642C25.4662 28.9423 23.7291 30.7458 21.34 32.0598L22.3038 33.8122C25.0347 32.3102 27.0736 30.2097 28.3849 27.518L26.5869 26.642ZM21.3438 32.0577C19.0065 33.3299 15.9534 34 12.1259 34V36C16.1704 36 19.5813 35.2941 22.3 33.8143L21.3438 32.0577ZM12.1259 34H0.653893V36H12.1259V34ZM6.79789 30.72H11.8379V28.72H6.79789V30.72ZM11.8379 30.72C14.7429 30.72 17.1551 30.2606 18.9912 29.2526L18.0286 27.4994C16.6007 28.2834 14.5649 28.72 11.8379 28.72V30.72ZM19.0042 29.2453C20.8246 28.2101 22.1463 26.7294 22.9375 24.8234L21.0903 24.0566C20.4735 25.5426 19.4592 26.6859 18.0156 27.5067L19.0042 29.2453ZM22.94 24.8173C23.7051 22.9392 24.0699 20.724 24.0699 18.2H22.0699C22.0699 20.54 21.7306 22.4848 21.0878 24.0627L22.94 24.8173ZM24.0699 18.2C24.0699 15.706 23.7046 13.5074 22.94 11.6307L21.0878 12.3853C21.7312 13.9646 22.0699 15.894 22.0699 18.2H24.0699ZM22.94 11.6307C22.1508 9.69352 20.8299 8.19288 19.0042 7.15471L18.0156 8.89329C19.4538 9.71112 20.469 10.8665 21.0878 12.3853L22.94 11.6307ZM19.0042 7.15471C17.1646 6.10864 14.7471 5.632 11.8379 5.632V7.632C14.5607 7.632 16.5912 8.08336 18.0156 8.89329L19.0042 7.15471ZM11.8379 5.632H6.79789V7.632H11.8379V5.632ZM5.79789 6.632V29.72H7.79789V6.632H5.79789ZM39.8189 34.04L40.302 33.1644L39.8189 34.04ZM35.4029 16.712L34.5266 16.23L34.5205 16.2414L35.4029 16.712ZM39.7229 12.248L40.2239 13.1134L40.2286 13.1107L39.7229 12.248ZM52.4429 12.152L51.9468 13.0202L52.4429 12.152ZM56.6189 16.376L55.744 16.8603L55.7492 16.8697L55.7545 16.8789L56.6189 16.376ZM58.1069 23.384L57.1103 23.301L57.1069 23.3424V23.384H58.1069ZM58.0589 24.584V25.584H58.9849L59.056 24.6607L58.0589 24.584ZM39.9629 24.584V23.584H38.8916L38.9653 24.6528L39.9629 24.584ZM41.8829 28.952L41.2071 29.6892L41.2173 29.6983L41.8829 28.952ZM49.2749 29.72L49.8222 30.557L49.8296 30.5521L49.2749 29.72ZM51.1949 27.512V26.512H50.5567L50.2879 27.0909L51.1949 27.512ZM57.4349 27.512L58.3933 27.7975L58.7762 26.512H57.4349V27.512ZM55.1789 31.64L54.4155 30.9941L54.414 30.9959L55.1789 31.64ZM51.3389 34.52L50.9222 33.6109L50.915 33.6143L51.3389 34.52ZM42.2669 16.904L42.8524 17.7147L42.8597 17.7094L42.8669 17.704L42.2669 16.904ZM40.0589 20.744L39.0756 20.5619L38.8567 21.744H40.0589V20.744ZM51.9149 20.744V21.744H52.978L52.913 20.6829L51.9149 20.744ZM50.1869 17L50.847 16.2488V16.2488L50.1869 17ZM46.2029 34.576C43.9492 34.576 41.9914 34.0965 40.302 33.1644L39.3358 34.9156C41.3584 36.0315 43.6566 36.576 46.2029 36.576V34.576ZM40.302 33.1644C38.6086 32.2301 37.2856 30.9226 36.3201 29.2255L34.5817 30.2145C35.7281 32.2294 37.3172 33.8019 39.3358 34.9156L40.302 33.1644ZM36.3201 29.2255C35.3611 27.5401 34.8669 25.5711 34.8669 23.288H32.8669C32.8669 25.8689 33.4286 28.1879 34.5817 30.2145L36.3201 29.2255ZM34.8669 23.288C34.8669 20.9662 35.3482 18.9395 36.2852 17.1826L34.5205 16.2414C33.4096 18.3245 32.8669 20.6818 32.8669 23.288H34.8669ZM36.2791 17.1939C37.251 15.4269 38.564 14.0744 40.2239 13.1134L39.2219 11.3826C37.2338 12.5336 35.6668 14.1571 34.5267 16.2301L36.2791 17.1939ZM40.2286 13.1107C41.9081 12.1261 43.9038 11.616 46.2509 11.616V9.616C43.606 9.616 41.2496 10.1939 39.2172 11.3853L40.2286 13.1107ZM46.2509 11.616C48.4362 11.616 50.3249 12.0935 51.9468 13.0202L52.939 11.2838C50.9769 10.1625 48.7376 9.616 46.2509 9.616V11.616ZM51.9468 13.0202C53.581 13.9541 54.8414 15.2299 55.744 16.8603L57.4938 15.8917C56.4124 13.9381 54.8888 12.3979 52.939 11.2838L51.9468 13.0202ZM55.7545 16.8789C56.6836 18.4757 57.1549 20.2681 57.1549 22.28H59.1549C59.1549 19.9399 58.6022 17.7963 57.4832 15.8731L55.7545 16.8789ZM57.1549 22.28C57.1549 22.6018 57.1403 22.942 57.1103 23.301L59.1034 23.467C59.1375 23.058 59.1549 22.6622 59.1549 22.28H57.1549ZM57.1069 23.384C57.1069 23.7403 57.092 24.1147 57.0618 24.5073L59.056 24.6607C59.0897 24.2213 59.1069 23.7957 59.1069 23.384H57.1069ZM58.0589 23.584H39.9629V25.584H58.0589V23.584ZM38.9653 24.6528C39.1073 26.7127 39.831 28.4277 41.2072 29.6892L42.5586 28.2148C41.6308 27.3643 41.0745 26.1673 40.9605 24.5152L38.9653 24.6528ZM41.2173 29.6983C42.594 30.9262 44.2585 31.536 46.1549 31.536V29.536C44.7233 29.536 43.5397 29.0898 42.5485 28.2057L41.2173 29.6983ZM46.1549 31.536C47.5477 31.536 48.7904 31.2316 49.8221 30.557L48.7276 28.883C48.0954 29.2964 47.2581 29.536 46.1549 29.536V31.536ZM49.8296 30.5521C50.8384 29.8795 51.6044 29.0046 52.1019 27.9331L50.2879 27.0909C49.9534 27.8114 49.4394 28.4085 48.7202 28.888L49.8296 30.5521ZM51.1949 28.512H57.4349V26.512H51.1949V28.512ZM56.4765 27.2265C56.0696 28.5927 55.3861 29.847 54.4155 30.9941L55.9423 32.2859C57.0837 30.937 57.9042 29.4393 58.3933 27.7975L56.4765 27.2265ZM54.414 30.9959C53.491 32.0919 52.3326 32.9645 50.9222 33.6109L51.7555 35.4291C53.4172 34.6675 54.8188 33.6201 55.9438 32.2841L54.414 30.9959ZM50.915 33.6143C49.5629 34.2472 47.9992 34.576 46.2029 34.576V36.576C48.2466 36.576 50.1069 36.2008 51.7628 35.4257L50.915 33.6143ZM46.2509 14.608C44.5408 14.608 43 15.1041 41.6669 16.104L42.8669 17.704C43.8377 16.9759 44.953 16.608 46.2509 16.608V14.608ZM41.6814 16.0933C40.2742 17.1096 39.4308 18.644 39.0756 20.5619L41.0422 20.9261C41.327 19.388 41.9556 18.3624 42.8524 17.7147L41.6814 16.0933ZM40.0589 21.744H51.9149V19.744H40.0589V21.744ZM52.913 20.6829C52.8028 18.8832 52.1274 17.374 50.847 16.2488L49.5268 17.7512C50.3584 18.482 50.8349 19.4688 50.9168 20.8051L52.913 20.6829ZM50.847 16.2488C49.5871 15.1416 48.0318 14.608 46.2509 14.608V16.608C47.606 16.608 48.6747 17.0024 49.5268 17.7512L50.847 16.2488ZM67.5944 34.568L67.1917 35.4833L67.1994 35.4867L67.2072 35.49L67.5944 34.568ZM63.7544 31.688L62.9695 32.3076L63.7544 31.688ZM62.0264 27.464V26.464H60.8992L61.0335 27.5831L62.0264 27.464ZM68.2184 27.464L69.1977 27.2614L69.0327 26.464H68.2184V27.464ZM69.7544 29.864L69.1261 30.6419L69.1423 30.6551L69.1592 30.6676L69.7544 29.864ZM75.9944 30.008L75.3467 29.2461L75.3371 29.2543L75.3276 29.2628L75.9944 30.008ZM75.6104 26.072L75.2165 26.9911L75.2305 26.9972L75.2447 27.0028L75.6104 26.072ZM71.8664 24.968L72.0813 23.9914L72.0801 23.9911L71.8664 24.968ZM68.7464 24.152L68.4564 25.109L68.7464 24.152ZM65.8184 22.952L65.3086 23.8123L65.3272 23.8233L65.3462 23.8335L65.8184 22.952ZM63.7064 21.032L62.8795 21.5943L62.8848 21.6022L62.8904 21.61L63.7064 21.032ZM65.3864 12.776L64.7391 12.0137L64.732 12.0198L65.3864 12.776ZM79.2104 12.584L78.5912 13.3693L78.5985 13.375L79.2104 12.584ZM82.2344 18.008V19.008H83.3829L83.2249 17.8704L82.2344 18.008ZM76.4264 18.008L75.4458 18.2041L75.6066 19.008H76.4264V18.008ZM69.7544 16.04L69.1809 15.2208L69.171 15.2277L69.1612 15.2349L69.7544 16.04ZM73.9304 20.552L74.1553 19.5776L74.1538 19.5773L73.9304 20.552ZM78.4904 21.848L78.161 22.7922L78.174 22.7967L78.1872 22.8009L78.4904 21.848ZM81.8504 23.912L81.1058 24.5795L81.1117 24.586L81.1176 24.5924L81.8504 23.912ZM83.0984 27.8H82.0984V27.8109L82.0986 27.8217L83.0984 27.8ZM81.9464 31.784L81.1178 31.2241L81.9464 31.784ZM78.4904 34.568L78.0825 33.655L78.4904 34.568ZM73.1624 34.576C71.1552 34.576 69.4355 34.2566 67.9816 33.646L67.2072 35.49C68.9533 36.2234 70.9455 36.576 73.1624 36.576V34.576ZM67.9971 33.6527C66.5273 33.006 65.3856 32.1404 64.5393 31.0684L62.9695 32.3076C64.0432 33.6677 65.4615 34.722 67.1917 35.4833L67.9971 33.6527ZM64.5393 31.0684C63.6981 30.0028 63.1903 28.7697 63.0193 27.3449L61.0335 27.5831C61.2465 29.3582 61.8907 30.9412 62.9695 32.3076L64.5393 31.0684ZM62.0264 28.464H68.2184V26.464H62.0264V28.464ZM67.2391 27.6666C67.484 28.8503 68.1386 29.8444 69.1261 30.6419L70.3827 29.0861C69.7062 28.5396 69.3368 27.9337 69.1977 27.2614L67.2391 27.6666ZM69.1592 30.6676C70.2344 31.4641 71.5624 31.824 73.0664 31.824V29.824C71.8824 29.824 71.0023 29.5439 70.3496 29.0604L69.1592 30.6676ZM73.0664 31.824C74.5075 31.824 75.783 31.539 76.6612 30.7532L75.3276 29.2628C74.9898 29.565 74.3133 29.824 73.0664 29.824V31.824ZM76.642 30.7699C77.458 30.0764 77.9544 29.1905 77.9544 28.136H75.9544C75.9544 28.4895 75.8108 28.8516 75.3467 29.2461L76.642 30.7699ZM77.9544 28.136C77.9544 27.4782 77.8095 26.8486 77.4564 26.3063C77.1002 25.7593 76.5833 25.3798 75.976 25.1412L75.2447 27.0028C75.5335 27.1162 75.6886 27.2567 75.7804 27.3977C75.8753 27.5434 75.9544 27.7698 75.9544 28.136H77.9544ZM76.0043 25.1529C75.0248 24.7331 73.7073 24.3491 72.0813 23.9914L71.6515 25.9446C73.2255 26.2909 74.404 26.6429 75.2165 26.9911L76.0043 25.1529ZM72.0801 23.9911C71.0831 23.773 70.0685 23.5077 69.0364 23.195L68.4564 25.109C69.5362 25.4363 70.6017 25.715 71.6527 25.9449L72.0801 23.9911ZM69.0364 23.195C68.0382 22.8925 67.1238 22.5169 66.2906 22.0705L65.3462 23.8335C66.305 24.3471 67.3426 24.7715 68.4564 25.109L69.0364 23.195ZM66.3282 22.0917C65.5767 21.6464 64.9799 21.0999 64.5224 20.454L62.8904 21.61C63.5209 22.5001 64.3321 23.2336 65.3086 23.8123L66.3282 22.0917ZM64.5333 20.4697C64.1222 19.8651 63.8904 19.0945 63.8904 18.104H61.8904C61.8904 19.4175 62.2026 20.5989 62.8795 21.5943L64.5333 20.4697ZM63.8904 18.104C63.8904 16.2959 64.5858 14.7913 66.0408 13.5322L64.732 12.0198C62.859 13.6407 61.8904 15.6881 61.8904 18.104H63.8904ZM66.0336 13.5383C67.4922 12.2999 69.6006 11.616 72.4904 11.616V9.616C69.3002 9.616 66.6726 10.3721 64.7392 12.0137L66.0336 13.5383ZM72.4904 11.616C75.1557 11.616 77.154 12.2361 78.5912 13.3693L79.8296 11.7987C77.9388 10.3079 75.4571 9.616 72.4904 9.616V11.616ZM78.5985 13.375C80.0693 14.5127 80.9565 16.0763 81.2439 18.1456L83.2249 17.8704C82.8723 15.3317 81.7435 13.2793 79.8223 11.793L78.5985 13.375ZM82.2344 17.008H76.4264V19.008H82.2344V17.008ZM77.407 17.8119C77.186 16.707 76.6336 15.8006 75.7188 15.1944C74.8331 14.6075 73.7075 14.368 72.4424 14.368V16.368C73.4813 16.368 74.1717 16.5685 74.614 16.8616C75.0272 17.1354 75.3148 17.549 75.4458 18.2041L77.407 17.8119ZM72.4424 14.368C71.1777 14.368 70.0515 14.6114 69.1809 15.2208L70.3279 16.8592C70.7373 16.5726 71.4031 16.368 72.4424 16.368V14.368ZM69.1612 15.2349C68.3338 15.8446 67.8424 16.6875 67.8424 17.72H69.8424C69.8424 17.4085 69.9589 17.1314 70.3476 16.8451L69.1612 15.2349ZM67.8424 17.72C67.8424 18.987 68.7227 19.8182 69.8253 20.3125L70.6434 18.4875C69.8901 18.1498 69.8424 17.861 69.8424 17.72H67.8424ZM69.8253 20.3125C70.8362 20.7656 72.1379 21.1671 73.707 21.5267L74.1538 19.5773C72.6509 19.2329 71.4886 18.8664 70.6434 18.4875L69.8253 20.3125ZM73.7055 21.5264C75.34 21.9036 76.8245 22.326 78.161 22.7922L78.8198 20.9038C77.4043 20.41 75.8488 19.9684 74.1553 19.5776L73.7055 21.5264ZM78.1872 22.8009C79.457 23.2049 80.4133 23.8071 81.1058 24.5795L82.595 23.2445C81.6235 22.1609 80.3398 21.3871 78.7936 20.8951L78.1872 22.8009ZM81.1176 24.5924C81.7209 25.2422 82.0984 26.258 82.0984 27.8H84.0984C84.0984 25.95 83.6439 24.3738 82.5832 23.2315L81.1176 24.5924ZM82.0986 27.8217C82.1263 29.0935 81.7982 30.2171 81.1178 31.2241L82.775 32.3439C83.6945 30.9829 84.1345 29.4505 84.0982 27.7783L82.0986 27.8217ZM81.1178 31.2241C80.4375 32.231 79.4426 33.0473 78.0825 33.655L78.8983 35.481C80.5462 34.7447 81.8553 33.705 82.775 32.3439L81.1178 31.2241ZM78.0825 33.655C76.734 34.2575 75.103 34.576 73.1624 34.576V36.576C75.3177 36.576 77.2388 36.2225 78.8983 35.481L78.0825 33.655ZM89.0691 6.488L88.3787 7.21135L88.3867 7.21901L88.3949 7.22648L89.0691 6.488ZM89.0691 1.448L89.7418 2.18794L89.7434 2.18648L89.0691 1.448ZM94.5891 1.448L93.8987 2.17135L93.9155 2.18738L93.933 2.2026L94.5891 1.448ZM94.5891 6.488L93.9149 5.74951L93.9067 5.75699L93.8987 5.76464L94.5891 6.488ZM88.7811 35H87.7811V36H88.7811V35ZM88.7811 11.192V10.192H87.7811V11.192H88.7811ZM94.9251 11.192H95.9251V10.192H94.9251V11.192ZM94.9251 35V36H95.9251V35H94.9251ZM91.8531 6.496C90.9494 6.496 90.272 6.23212 89.7434 5.74951L88.3949 7.22648C89.3383 8.08788 90.5169 8.496 91.8531 8.496V6.496ZM89.7596 5.76464C89.2646 5.29209 89.0131 4.71069 89.0131 3.944H87.0131C87.0131 5.22531 87.4657 6.33991 88.3787 7.21135L89.7596 5.76464ZM89.0131 3.944C89.0131 3.17762 89.2635 2.62277 89.7418 2.18794L88.3965 0.708057C87.4668 1.55322 87.0131 2.66238 87.0131 3.944H89.0131ZM89.7434 2.18648C90.272 1.70388 90.9494 1.44 91.8531 1.44V-0.560001C90.5169 -0.560001 89.3383 -0.151882 88.3949 0.709511L89.7434 2.18648ZM91.8531 1.44C92.7577 1.44 93.4088 1.70379 93.8987 2.17135L95.2796 0.724641C94.3614 -0.151798 93.1886 -0.560001 91.8531 -0.560001V1.44ZM93.933 2.2026C94.4384 2.64215 94.6931 3.193 94.6931 3.944H96.6931C96.6931 2.647 96.2118 1.53385 95.2453 0.693392L93.933 2.2026ZM94.6931 3.944C94.6931 4.69577 94.437 5.27281 93.9149 5.74951L95.2634 7.22648C96.2133 6.35919 96.6931 5.24023 96.6931 3.944H94.6931ZM93.8987 5.76464C93.4088 6.2322 92.7577 6.496 91.8531 6.496V8.496C93.1886 8.496 94.3614 8.0878 95.2796 7.21135L93.8987 5.76464ZM89.7811 35V11.192H87.7811V35H89.7811ZM88.7811 12.192H94.9251V10.192H88.7811V12.192ZM93.9251 11.192V35H95.9251V11.192H93.9251ZM94.9251 34H88.7811V36H94.9251V34ZM108.202 27.512L108.452 26.5437L107.899 26.401L107.495 26.8049L108.202 27.512ZM106.426 29.288L105.719 28.5809L104.762 29.5383L105.958 30.1718L106.426 29.288ZM108.634 30.008L108.431 30.9873L108.634 30.008ZM113.146 30.584L113.054 31.5798L113.055 31.5799L113.146 30.584ZM120.058 32.84L119.413 33.604L120.058 32.84ZM121.066 41.864L120.214 41.3399L120.209 41.3495L121.066 41.864ZM117.514 44.936L117.081 44.0345L117.074 44.038L117.067 44.0416L117.514 44.936ZM103.162 44.216L103.686 43.3643L103.677 43.3585L103.162 44.216ZM103.162 32.984L103.764 33.7825L105.113 32.7654L103.572 32.0721L103.162 32.984ZM101.482 32.072L100.901 32.8857L100.914 32.8951L100.927 32.904L101.482 32.072ZM100.282 31.064H99.282V31.4782L99.5749 31.7711L100.282 31.064ZM100.282 29.96L99.5554 29.2729L99.282 29.562V29.96H100.282ZM104.458 25.544L105.185 26.2311L105.897 25.4777L105.118 24.793L104.458 25.544ZM102.826 14.888L101.972 14.3674L101.968 14.3751L101.963 14.3828L102.826 14.888ZM106.186 11.768L105.715 10.8856V10.8856L106.186 11.768ZM115.162 11.192L114.846 12.1407L115 12.192H115.162V11.192ZM124.186 11.192H125.186V10.192H124.186V11.192ZM124.186 14.936L124.256 15.9335L125.186 15.8679V14.936H124.186ZM120.106 15.224L120.036 14.2265L118.508 14.3343L119.221 15.6897L120.106 15.224ZM116.554 26.744L116.091 25.8574L116.083 25.8616L116.554 26.744ZM114.49 22.184L113.862 21.4061L113.854 21.4121L113.847 21.4183L114.49 22.184ZM114.49 16.424L113.847 17.1897L113.854 17.1959L113.862 17.2019L114.49 16.424ZM108.25 16.424L107.607 15.6583L108.25 16.424ZM108.25 22.184L108.893 21.4183L108.25 22.184ZM107.29 40.568L107.767 39.6891L107.758 39.6842L107.29 40.568ZM115.114 40.52L114.579 39.6752L114.569 39.6814L114.559 39.688L115.114 40.52ZM115.594 35.864L114.906 36.59L114.916 36.5987L114.925 36.6073L115.594 35.864ZM111.898 34.808L111.825 35.8053L111.829 35.8056L111.898 34.808ZM108.25 34.376L108.419 33.3904L108.074 33.3312L107.767 33.5004L108.25 34.376ZM106.234 36.056L105.409 35.4913L105.398 35.5065L105.389 35.522L106.234 36.056ZM111.418 26.896C110.34 26.896 109.353 26.7762 108.452 26.5437L107.952 28.4803C109.035 28.7598 110.192 28.896 111.418 28.896V26.896ZM107.495 26.8049L105.719 28.5809L107.133 29.9951L108.909 28.2191L107.495 26.8049ZM105.958 30.1718C106.618 30.521 107.455 30.7853 108.431 30.9873L108.837 29.0287C107.957 28.8467 107.322 28.631 106.894 28.4042L105.958 30.1718ZM108.431 30.9873C109.418 31.1915 110.97 31.3874 113.054 31.5798L113.238 29.5882C111.162 29.3966 109.706 29.2085 108.837 29.0287L108.431 30.9873ZM113.055 31.5799C116.145 31.8608 118.204 32.5836 119.413 33.604L120.703 32.076C119.032 30.6644 116.483 29.8832 113.237 29.5881L113.055 31.5799ZM119.413 33.604C120.595 34.6026 121.218 35.9852 121.218 37.88H123.218C123.218 35.4868 122.401 33.5094 120.703 32.076L119.413 33.604ZM121.218 37.88C121.218 39.0952 120.89 40.2428 120.214 41.3399L121.918 42.3881C122.779 40.9892 123.218 39.4808 123.218 37.88H121.218ZM120.209 41.3495C119.559 42.4322 118.539 43.3349 117.081 44.0345L117.947 45.8375C119.689 45.0011 121.037 43.8558 121.924 42.3785L120.209 41.3495ZM117.067 44.0416C115.649 44.7503 113.769 45.136 111.37 45.136V47.136C113.964 47.136 116.179 46.7217 117.961 45.8304L117.067 44.0416ZM111.37 45.136C108.094 45.136 105.559 44.5166 103.686 43.3643L102.638 45.0677C104.925 46.4754 107.862 47.136 111.37 47.136V45.136ZM103.677 43.3585C101.913 42.3004 101.042 40.7468 101.042 38.552H99.042C99.042 41.4132 100.251 43.6356 102.648 45.0735L103.677 43.3585ZM101.042 38.552C101.042 36.7904 101.874 35.207 103.764 33.7825L102.56 32.1855C100.29 33.897 99.042 36.0256 99.042 38.552H101.042ZM103.572 32.0721C102.972 31.802 102.462 31.5237 102.037 31.2399L100.927 32.904C101.462 33.2603 102.072 33.59 102.752 33.8959L103.572 32.0721ZM102.063 31.2583C101.655 30.967 101.298 30.6661 100.989 30.3569L99.5749 31.7711C99.9697 32.1659 100.413 32.537 100.901 32.8857L102.063 31.2583ZM101.282 31.064V29.96H99.282V31.064H101.282ZM101.009 30.6471L105.185 26.2311L103.731 24.8569L99.5554 29.2729L101.009 30.6471ZM105.118 24.793C103.487 23.3585 102.674 21.5402 102.674 19.256H100.674C100.674 22.0918 101.717 24.4655 103.798 26.295L105.118 24.793ZM102.674 19.256C102.674 17.8239 103.016 16.5438 103.689 15.3932L101.963 14.3828C101.101 15.8562 100.674 17.4881 100.674 19.256H102.674ZM103.68 15.4086C104.381 14.2588 105.364 13.3396 106.657 12.6504L105.715 10.8856C104.128 11.7324 102.871 12.8932 101.972 14.3674L103.68 15.4086ZM106.657 12.6504C107.919 11.9768 109.493 11.616 111.418 11.616V9.616C109.247 9.616 107.333 10.0232 105.715 10.8856L106.657 12.6504ZM111.418 11.616C112.666 11.616 113.806 11.7941 114.846 12.1407L115.478 10.2433C114.214 9.8219 112.858 9.616 111.418 9.616V11.616ZM115.162 12.192H124.186V10.192H115.162V12.192ZM123.186 11.192V14.936H125.186V11.192H123.186ZM124.116 13.9385L120.036 14.2265L120.176 16.2215L124.256 15.9335L124.116 13.9385ZM119.221 15.6897C119.78 16.752 120.066 17.9344 120.066 19.256H122.066C122.066 17.6336 121.712 16.128 120.991 14.7583L119.221 15.6897ZM120.066 19.256C120.066 20.6881 119.725 21.9682 119.051 23.1188L120.777 24.1292C121.64 22.6558 122.066 21.0239 122.066 19.256H120.066ZM119.051 23.1188C118.387 24.2537 117.413 25.1681 116.091 25.8574L117.017 27.6306C118.639 26.7839 119.905 25.6183 120.777 24.1292L119.051 23.1188ZM116.083 25.8616C114.816 26.5374 113.273 26.896 111.418 26.896V28.896C113.531 28.896 115.412 28.4866 117.025 27.6264L116.083 25.8616ZM111.418 24.192C112.853 24.192 114.12 23.8012 115.133 22.9497L113.847 21.4183C113.26 21.9108 112.479 22.192 111.418 22.192V24.192ZM115.118 22.9619C116.226 22.0673 116.738 20.7977 116.738 19.304H114.738C114.738 20.3063 114.418 20.9567 113.862 21.4061L115.118 22.9619ZM116.738 19.304C116.738 17.8103 116.226 16.5407 115.118 15.6461L113.862 17.2019C114.418 17.6513 114.738 18.3017 114.738 19.304H116.738ZM115.133 15.6583C114.12 14.8068 112.853 14.416 111.418 14.416V16.416C112.479 16.416 113.26 16.6972 113.847 17.1897L115.133 15.6583ZM111.418 14.416C109.933 14.416 108.629 14.7994 107.607 15.6583L108.893 17.1897C109.471 16.7046 110.279 16.416 111.418 16.416V14.416ZM107.607 15.6583C106.536 16.5576 106.05 17.824 106.05 19.304H108.05C108.05 18.288 108.364 17.6344 108.893 17.1897L107.607 15.6583ZM106.05 19.304C106.05 20.784 106.536 22.0504 107.607 22.9497L108.893 21.4183C108.364 20.9736 108.05 20.32 108.05 19.304H106.05ZM107.607 22.9497C108.629 23.8086 109.933 24.192 111.418 24.192V22.192C110.279 22.192 109.471 21.9034 108.893 21.4183L107.607 22.9497ZM104.658 37.928C104.658 38.6783 104.832 39.382 105.215 40.0018C105.597 40.6195 106.151 41.0965 106.822 41.4518L107.758 39.6842C107.341 39.4635 107.079 39.2125 106.917 38.9502C106.756 38.69 106.658 38.3617 106.658 37.928H104.658ZM106.813 41.4469C108.112 42.1522 109.645 42.48 111.37 42.48V40.48C109.895 40.48 108.708 40.1998 107.767 39.6891L106.813 41.4469ZM111.37 42.48C113.039 42.48 114.498 42.1324 115.669 41.3521L114.559 39.688C113.81 40.1876 112.773 40.48 111.37 40.48V42.48ZM115.649 41.3648C116.872 40.5902 117.554 39.4528 117.554 38.024H115.554C115.554 38.7072 115.276 39.2338 114.579 39.6752L115.649 41.3648ZM117.554 38.024C117.554 36.8776 117.115 35.8871 116.263 35.1207L114.925 36.6073C115.354 36.9929 115.554 37.4424 115.554 38.024H117.554ZM116.282 35.138C115.815 34.6962 115.185 34.4053 114.489 34.2065C113.783 34.0048 112.936 33.8772 111.967 33.8104L111.829 35.8056C112.716 35.8668 113.413 35.9792 113.939 36.1295C114.475 36.2827 114.765 36.4558 114.906 36.59L116.282 35.138ZM111.971 33.8107C110.686 33.7167 109.503 33.5762 108.419 33.3904L108.081 35.3616C109.237 35.5598 110.486 35.7073 111.825 35.8053L111.971 33.8107ZM107.767 33.5004C106.758 34.0571 105.943 34.7104 105.409 35.4913L107.059 36.6207C107.357 36.1856 107.886 35.7189 108.733 35.2516L107.767 33.5004ZM105.389 35.522C104.916 36.2695 104.658 37.0763 104.658 37.928H106.658C106.658 37.4997 106.784 37.0585 107.08 36.59L105.389 35.522ZM128.666 35H127.666V36H128.666V35ZM128.666 11.192V10.192H127.666V11.192H128.666ZM134.09 11.192L135.083 11.0738L134.978 10.192H134.09V11.192ZM134.57 15.224L133.577 15.3422L133.959 18.5514L135.456 15.6873L134.57 15.224ZM137.738 11.864L137.229 11.003L137.221 11.0083L137.738 11.864ZM149.546 13.4L148.795 14.0603L149.546 13.4ZM151.994 35V36H152.994V35H151.994ZM145.85 35H144.85V36H145.85V35ZM144.602 17.432L145.396 16.8245L144.602 17.432ZM136.442 17.624L135.707 16.9465L135.702 16.9518L135.697 16.9572L136.442 17.624ZM134.81 35V36H135.81V35H134.81ZM129.666 35V11.192H127.666V35H129.666ZM128.666 12.192H134.09V10.192H128.666V12.192ZM133.097 11.3102L133.577 15.3422L135.563 15.1058L135.083 11.0738L133.097 11.3102ZM135.456 15.6873C136.107 14.4434 137.034 13.4583 138.256 12.7197L137.221 11.0083C135.69 11.9337 134.506 13.1886 133.684 14.7607L135.456 15.6873ZM138.247 12.7249C139.478 11.9973 140.945 11.616 142.682 11.616V9.616C140.643 9.616 138.814 10.0667 137.229 11.0031L138.247 12.7249ZM142.682 11.616C145.399 11.616 147.389 12.4617 148.795 14.0603L150.297 12.7397C148.439 10.6263 145.853 9.616 142.682 9.616V11.616ZM148.795 14.0603C150.208 15.6666 150.994 18.1115 150.994 21.56H152.994C152.994 17.8405 152.149 14.8454 150.297 12.7397L148.795 14.0603ZM150.994 21.56V35H152.994V21.56H150.994ZM151.994 34H145.85V36H151.994V34ZM146.85 35V22.136H144.85V35H146.85ZM146.85 22.136C146.85 19.9722 146.414 18.1545 145.396 16.8245L143.808 18.0394C144.455 18.8855 144.85 20.2038 144.85 22.136H146.85ZM145.396 16.8245C144.323 15.421 142.688 14.8 140.714 14.8V16.8C142.26 16.8 143.217 17.267 143.808 18.0394L145.396 16.8245ZM140.714 14.8C138.721 14.8 137.025 15.5147 135.707 16.9465L137.178 18.3015C138.099 17.3013 139.251 16.8 140.714 16.8V14.8ZM135.697 16.9572C134.397 18.4104 133.81 20.3734 133.81 22.712H135.81C135.81 20.6986 136.312 19.2696 137.187 18.2908L135.697 16.9572ZM133.81 22.712V35H135.81V22.712H133.81ZM134.81 34H128.666V36H134.81V34ZM174.395 34.328L173.979 35.2374L173.992 35.2431L174.395 34.328ZM169.931 30.68L169.104 31.2423L169.109 31.2501L169.931 30.68ZM168.251 24.872V23.872H167.237L167.251 24.8861L168.251 24.872ZM174.731 24.872L175.73 24.8312L175.691 23.872H174.731V24.872ZM176.411 28.856L175.693 29.5525L175.704 29.5632L175.714 29.5736L176.411 28.856ZM184.763 29.288L185.387 30.0689L185.395 30.0626L185.403 30.0562L184.763 29.288ZM184.907 22.904L184.228 23.6388L184.235 23.6452L184.242 23.6514L184.907 22.904ZM181.547 21.032L181.224 21.9785L181.547 21.032ZM177.035 19.496L176.708 20.4411L176.713 20.4428L177.035 19.496ZM171.083 16.04L170.359 16.7305L170.368 16.7389L171.083 16.04ZM169.067 10.424H170.067V10.4159L170.067 10.4079L169.067 10.424ZM170.459 5.336L169.635 4.76869L169.633 4.77266L170.459 5.336ZM174.491 2.024L174.903 2.93495L174.91 2.93175L174.917 2.92843L174.491 2.024ZM186.251 2.024L185.824 2.92845L185.831 2.93147L186.251 2.024ZM190.283 5.384L189.451 5.9387L189.455 5.94503L189.459 5.9513L190.283 5.384ZM191.867 10.52V11.52H192.9L192.866 10.4878L191.867 10.52ZM185.291 10.52L184.291 10.547L184.317 11.52H185.291V10.52ZM183.899 7.4L183.167 8.08142L183.179 8.09448L183.192 8.10711L183.899 7.4ZM180.251 6.008L180.227 7.00772L180.239 7.008H180.251V6.008ZM176.843 7.016L177.443 7.81601L177.447 7.81269L176.843 7.016ZM176.555 12.68L175.864 13.4034L175.873 13.4118L175.882 13.4199L176.555 12.68ZM179.435 14.312L179.78 13.3737L179.435 14.312ZM183.611 15.752L183.938 14.807L183.93 14.8041L183.921 14.8014L183.611 15.752ZM188.171 17.768L188.658 16.8948L188.171 17.768ZM191.483 20.84L190.644 21.385L190.651 21.3947L191.483 20.84ZM191.387 30.584L192.246 31.0958L191.387 30.584ZM187.403 34.232L187.856 35.1232L187.863 35.1199L187.869 35.1166L187.403 34.232ZM180.923 34.576C178.571 34.576 176.537 34.1791 174.798 33.4129L173.992 35.2431C176.029 36.1409 178.346 36.576 180.923 36.576V34.576ZM174.811 33.4187C173.071 32.6226 171.729 31.5177 170.752 30.1099L169.109 31.2501C170.308 32.9783 171.942 34.3054 173.979 35.2373L174.811 33.4187ZM170.758 30.1177C169.798 28.7061 169.28 26.969 169.251 24.8579L167.251 24.8861C167.285 27.319 167.888 29.4539 169.104 31.2423L170.758 30.1177ZM168.251 25.872H174.731V23.872H168.251V25.872ZM173.732 24.9128C173.805 26.7171 174.459 28.2813 175.693 29.5525L177.128 28.1595C176.25 27.2547 175.784 26.1629 175.73 24.8312L173.732 24.9128ZM175.714 29.5736C177.032 30.8526 178.794 31.44 180.875 31.44V29.44C179.18 29.44 177.965 28.9714 177.107 28.1384L175.714 29.5736ZM180.875 31.44C182.659 31.44 184.2 31.0192 185.387 30.0689L184.138 28.5071C183.406 29.0928 182.354 29.44 180.875 29.44V31.44ZM185.403 30.0562C186.604 29.0556 187.203 27.7118 187.203 26.12H185.203C185.203 27.1522 184.842 27.9204 184.123 28.5198L185.403 30.0562ZM187.203 26.12C187.203 24.5178 186.689 23.1506 185.571 22.1566L184.242 23.6514C184.852 24.1934 185.203 24.9702 185.203 26.12H187.203ZM185.585 22.1692C184.624 21.2819 183.37 20.597 181.869 20.0855L181.224 21.9785C182.54 22.427 183.526 22.9901 184.228 23.6388L185.585 22.1692ZM181.869 20.0855C180.461 19.6054 178.957 19.0933 177.357 18.5492L176.713 20.4428C178.313 20.9867 179.816 21.4986 181.224 21.9785L181.869 20.0855ZM177.361 18.5509C174.862 17.6869 173.031 16.6031 171.798 15.3411L170.368 16.7389C171.886 18.2929 174.024 19.5131 176.708 20.4411L177.361 18.5509ZM171.806 15.3495C170.674 14.1637 170.067 12.5575 170.067 10.424H168.067C168.067 12.9625 168.803 15.1003 170.359 16.7305L171.806 15.3495ZM170.067 10.4079C170.037 8.59534 170.46 7.10995 171.285 5.89934L169.633 4.77266C168.538 6.37805 168.032 8.28465 168.067 10.4401L170.067 10.4079ZM171.282 5.9033C172.164 4.62288 173.362 3.63297 174.903 2.93495L174.078 1.11304C172.228 1.95103 170.737 3.16912 169.635 4.76869L171.282 5.9033ZM174.917 2.92843C176.458 2.20157 178.26 1.824 180.347 1.824V-0.176001C178.017 -0.176001 175.915 0.246428 174.064 1.11957L174.917 2.92843ZM180.347 1.824C182.468 1.824 184.285 2.20242 185.824 2.92843L186.677 1.11957C184.825 0.245575 182.706 -0.176001 180.347 -0.176001V1.824ZM185.831 2.93147C187.409 3.66208 188.603 4.66712 189.451 5.9387L191.115 4.8293C190.043 3.22088 188.549 1.98592 186.671 1.11653L185.831 2.93147ZM189.459 5.9513C190.328 7.2129 190.809 8.73315 190.867 10.5522L192.866 10.4878C192.797 8.33885 192.221 6.43509 191.106 4.81669L189.459 5.9513ZM191.867 9.52H185.291V11.52H191.867V9.52ZM186.29 10.493C186.251 9.03425 185.669 7.75594 184.606 6.69289L183.192 8.10711C183.921 8.83605 184.267 9.63775 184.291 10.547L186.29 10.493ZM184.631 6.71858C183.534 5.54102 182.026 5.008 180.251 5.008V7.008C181.612 7.008 182.535 7.40297 183.167 8.08142L184.631 6.71858ZM180.275 5.00828C178.741 4.97176 177.374 5.35788 176.238 6.21931L177.447 7.81269C178.168 7.26612 179.073 6.98023 180.227 7.00772L180.275 5.00828ZM176.243 6.216C175.05 7.11074 174.499 8.42636 174.499 9.992H176.499C176.499 8.93364 176.844 8.26526 177.443 7.816L176.243 6.216ZM174.499 9.992C174.499 11.3403 174.932 12.5137 175.864 13.4034L177.245 11.9566C176.769 11.5023 176.499 10.8837 176.499 9.992H174.499ZM175.882 13.4199C176.709 14.1717 177.793 14.773 179.089 15.2503L179.78 13.3737C178.644 12.955 177.809 12.4683 177.227 11.9401L175.882 13.4199ZM179.089 15.2503C180.319 15.7036 181.724 16.1877 183.3 16.7026L183.921 14.8014C182.362 14.2923 180.982 13.8164 179.78 13.3737L179.089 15.2503ZM183.284 16.697C184.899 17.256 186.364 17.9049 187.683 18.6412L188.658 16.8948C187.225 16.0951 185.651 15.4 183.938 14.807L183.284 16.697ZM187.683 18.6412C188.922 19.3326 189.904 20.2458 190.644 21.385L192.321 20.295C191.398 18.8742 190.171 17.7394 188.658 16.8948L187.683 18.6412ZM190.651 21.3947C191.343 22.4331 191.731 23.8388 191.731 25.688H193.731C193.731 23.5692 193.287 21.7429 192.315 20.2853L190.651 21.3947ZM191.731 25.688C191.731 27.2688 191.331 28.7239 190.528 30.0722L192.246 31.0958C193.235 29.4361 193.731 27.6272 193.731 25.688H191.731ZM190.528 30.0722C189.738 31.3975 188.556 32.4932 186.936 33.3474L187.869 35.1166C189.769 34.1148 191.243 32.7785 192.246 31.0958L190.528 30.0722ZM186.949 33.3408C185.365 34.1473 183.37 34.576 180.923 34.576V36.576C183.595 36.576 185.921 36.1087 187.856 35.1232L186.949 33.3408ZM203.131 34.04L203.614 33.1644L203.131 34.04ZM198.715 16.712L197.839 16.23L197.833 16.2414L198.715 16.712ZM203.035 12.248L203.536 13.1134L203.541 13.1107L203.035 12.248ZM215.755 12.152L215.259 13.0202L215.755 12.152ZM219.931 16.376L219.057 16.8603L219.062 16.8697L219.067 16.8789L219.931 16.376ZM221.419 23.384L220.423 23.301L220.419 23.3424V23.384H221.419ZM221.371 24.584V25.584H222.297L222.368 24.6607L221.371 24.584ZM203.275 24.584V23.584H202.204L202.278 24.6528L203.275 24.584ZM205.195 28.952L204.52 29.6892L204.53 29.6983L205.195 28.952ZM212.587 29.72L213.135 30.557L213.142 30.5521L212.587 29.72ZM214.507 27.512V26.512H213.869L213.6 27.0909L214.507 27.512ZM220.747 27.512L221.706 27.7975L222.089 26.512H220.747V27.512ZM218.491 31.64L217.728 30.9941L217.726 30.9959L218.491 31.64ZM214.651 34.52L214.235 33.6109L214.227 33.6143L214.651 34.52ZM205.579 16.904L206.165 17.7147L206.172 17.7094L206.179 17.704L205.579 16.904ZM203.371 20.744L202.388 20.5619L202.169 21.744H203.371V20.744ZM215.227 20.744V21.744H216.29L216.226 20.6829L215.227 20.744ZM213.499 17L214.16 16.2488V16.2488L213.499 17ZM209.515 34.576C207.262 34.576 205.304 34.0965 203.614 33.1644L202.648 34.9156C204.671 36.0315 206.969 36.576 209.515 36.576V34.576ZM203.614 33.1644C201.921 32.2301 200.598 30.9226 199.633 29.2255L197.894 30.2145C199.041 32.2294 200.63 33.8019 202.648 34.9156L203.614 33.1644ZM199.633 29.2255C198.674 27.5401 198.179 25.5711 198.179 23.288H196.179C196.179 25.8689 196.741 28.1879 197.894 30.2145L199.633 29.2255ZM198.179 23.288C198.179 20.9662 198.661 18.9395 199.598 17.1826L197.833 16.2414C196.722 18.3245 196.179 20.6818 196.179 23.288H198.179ZM199.592 17.1939C200.563 15.4269 201.877 14.0744 203.536 13.1134L202.534 11.3826C200.546 12.5336 198.979 14.1571 197.839 16.2301L199.592 17.1939ZM203.541 13.1107C205.221 12.1261 207.216 11.616 209.563 11.616V9.616C206.918 9.616 204.562 10.1939 202.53 11.3853L203.541 13.1107ZM209.563 11.616C211.749 11.616 213.637 12.0935 215.259 13.0202L216.252 11.2838C214.289 10.1625 212.05 9.616 209.563 9.616V11.616ZM215.259 13.0202C216.894 13.9541 218.154 15.2299 219.057 16.8603L220.806 15.8917C219.725 13.9381 218.201 12.3979 216.252 11.2838L215.259 13.0202ZM219.067 16.8789C219.996 18.4757 220.467 20.2681 220.467 22.28H222.467C222.467 19.9399 221.915 17.7963 220.796 15.8731L219.067 16.8789ZM220.467 22.28C220.467 22.6018 220.453 22.942 220.423 23.301L222.416 23.467C222.45 23.058 222.467 22.6622 222.467 22.28H220.467ZM220.419 23.384C220.419 23.7403 220.405 24.1147 220.374 24.5073L222.368 24.6607C222.402 24.2213 222.419 23.7957 222.419 23.384H220.419ZM221.371 23.584H203.275V25.584H221.371V23.584ZM202.278 24.6528C202.42 26.7127 203.144 28.4277 204.52 29.6892L205.871 28.2148C204.943 27.3643 204.387 26.1673 204.273 24.5152L202.278 24.6528ZM204.53 29.6983C205.907 30.9262 207.571 31.536 209.467 31.536V29.536C208.036 29.536 206.852 29.0898 205.861 28.2057L204.53 29.6983ZM209.467 31.536C210.86 31.536 212.103 31.2316 213.135 30.557L212.04 28.883C211.408 29.2964 210.571 29.536 209.467 29.536V31.536ZM213.142 30.5521C214.151 29.8795 214.917 29.0046 215.414 27.9331L213.6 27.0909C213.266 27.8114 212.752 28.4085 212.033 28.888L213.142 30.5521ZM214.507 28.512H220.747V26.512H214.507V28.512ZM219.789 27.2265C219.382 28.5927 218.699 29.847 217.728 30.9941L219.255 32.2859C220.396 30.937 221.217 29.4393 221.706 27.7975L219.789 27.2265ZM217.726 30.9959C216.804 32.0919 215.645 32.9645 214.235 33.6109L215.068 35.4291C216.73 34.6675 218.131 33.6201 219.256 32.2841L217.726 30.9959ZM214.227 33.6143C212.875 34.2472 211.312 34.576 209.515 34.576V36.576C211.559 36.576 213.419 36.2008 215.075 35.4257L214.227 33.6143ZM209.563 14.608C207.853 14.608 206.313 15.1041 204.979 16.104L206.179 17.704C207.15 16.9759 208.265 16.608 209.563 16.608V14.608ZM204.994 16.0933C203.587 17.1096 202.743 18.644 202.388 20.5619L204.355 20.9261C204.64 19.388 205.268 18.3624 206.165 17.7147L204.994 16.0933ZM203.371 21.744H215.227V19.744H203.371V21.744ZM216.226 20.6829C216.115 18.8832 215.44 17.374 214.16 16.2488L212.839 17.7512C213.671 18.482 214.147 19.4688 214.229 20.8051L216.226 20.6829ZM214.16 16.2488C212.9 15.1416 211.344 14.608 209.563 14.608V16.608C210.919 16.608 211.987 17.0024 212.839 17.7512L214.16 16.2488ZM226.635 35H225.635V36H226.635V35ZM226.635 11.192V10.192H225.635V11.192H226.635ZM232.107 11.192L233.099 11.064L232.986 10.192H232.107V11.192ZM232.683 15.656L231.691 15.784L232.077 18.7732L233.554 16.1463L232.683 15.656ZM236.187 12.008L236.707 12.8622L236.712 12.859L236.187 12.008ZM241.467 10.616H242.467V9.616H241.467V10.616ZM241.467 17.096V18.096H242.467V17.096H241.467ZM236.139 17.72L236.505 18.6504L236.139 17.72ZM233.643 19.88L232.783 19.3695L232.777 19.3795L232.771 19.3897L233.643 19.88ZM232.779 35V36H233.779V35H232.779ZM227.635 35V11.192H225.635V35H227.635ZM226.635 12.192H232.107V10.192H226.635V12.192ZM231.115 11.32L231.691 15.784L233.675 15.528L233.099 11.064L231.115 11.32ZM233.554 16.1463C234.336 14.7562 235.385 13.667 236.707 12.8622L235.667 11.1538C234.045 12.141 232.757 13.4838 231.811 15.1657L233.554 16.1463ZM236.712 12.859C238.037 12.0415 239.61 11.616 241.467 11.616V9.616C239.292 9.616 237.345 10.1185 235.662 11.157L236.712 12.859ZM240.467 10.616V17.096H242.467V10.616H240.467ZM241.467 16.096H239.739V18.096H241.467V16.096ZM239.739 16.096C238.292 16.096 236.964 16.32 235.772 16.7896L236.505 18.6504C237.425 18.288 238.498 18.096 239.739 18.096V16.096ZM235.772 16.7896C234.499 17.2911 233.498 18.1647 232.783 19.3695L234.503 20.3905C235.003 19.5473 235.667 18.9809 236.505 18.6504L235.772 16.7896ZM232.771 19.3897C232.077 20.6241 231.779 22.2427 231.779 24.152H233.779C233.779 22.4133 234.057 21.1839 234.514 20.3703L232.771 19.3897ZM231.779 24.152V35H233.779V24.152H231.779ZM232.779 34H226.635V36H232.779V34ZM252.098 35L251.159 35.3445L251.4 36H252.098V35ZM243.362 11.192V10.192H241.93L242.423 11.5365L243.362 11.192ZM249.794 11.192L250.742 10.8735L250.513 10.192H249.794V11.192ZM255.842 29.192L254.894 29.5105L255.842 32.3317L256.79 29.5105L255.842 29.192ZM261.89 11.192V10.192H261.171L260.942 10.8735L261.89 11.192ZM268.322 11.192L269.26 11.5381L269.757 10.192H268.322V11.192ZM259.538 35V36H260.235L260.476 35.3461L259.538 35ZM253.037 34.6555L244.301 10.8475L242.423 11.5365L251.159 35.3445L253.037 34.6555ZM243.362 12.192H249.794V10.192H243.362V12.192ZM248.846 11.5105L254.894 29.5105L256.79 28.8735L250.742 10.8735L248.846 11.5105ZM256.79 29.5105L262.838 11.5105L260.942 10.8735L254.894 28.8735L256.79 29.5105ZM261.89 12.192H268.322V10.192H261.89V12.192ZM267.384 10.8459L258.6 34.6539L260.476 35.3461L269.26 11.5381L267.384 10.8459ZM259.538 34H252.098V36H259.538V34ZM272.725 6.488L272.035 7.21135L272.043 7.21901L272.051 7.22648L272.725 6.488ZM272.725 1.448L273.398 2.18794L273.4 2.18648L272.725 1.448ZM278.245 1.448L277.555 2.17135L277.572 2.18738L277.589 2.2026L278.245 1.448ZM278.245 6.488L277.571 5.74951L277.563 5.75699L277.555 5.76464L278.245 6.488ZM272.437 35H271.437V36H272.437V35ZM272.437 11.192V10.192H271.437V11.192H272.437ZM278.581 11.192H279.581V10.192H278.581V11.192ZM278.581 35V36H279.581V35H278.581ZM275.509 6.496C274.606 6.496 273.928 6.23212 273.4 5.74951L272.051 7.22648C272.995 8.08788 274.173 8.496 275.509 8.496V6.496ZM273.416 5.76464C272.921 5.29209 272.669 4.71069 272.669 3.944H270.669C270.669 5.22531 271.122 6.33991 272.035 7.21135L273.416 5.76464ZM272.669 3.944C272.669 3.17762 272.92 2.62277 273.398 2.18794L272.053 0.708057C271.123 1.55322 270.669 2.66238 270.669 3.944H272.669ZM273.4 2.18648C273.928 1.70388 274.606 1.44 275.509 1.44V-0.560001C274.173 -0.560001 272.995 -0.151882 272.051 0.709511L273.4 2.18648ZM275.509 1.44C276.414 1.44 277.065 1.70379 277.555 2.17135L278.936 0.724641C278.018 -0.151798 276.845 -0.560001 275.509 -0.560001V1.44ZM277.589 2.2026C278.095 2.64215 278.349 3.193 278.349 3.944H280.349C280.349 2.647 279.868 1.53385 278.902 0.693392L277.589 2.2026ZM278.349 3.944C278.349 4.69577 278.093 5.27281 277.571 5.74951L278.92 7.22648C279.87 6.35919 280.349 5.24023 280.349 3.944H278.349ZM277.555 5.76464C277.065 6.2322 276.414 6.496 275.509 6.496V8.496C276.845 8.496 278.018 8.0878 278.936 7.21135L277.555 5.76464ZM273.437 35V11.192H271.437V35H273.437ZM272.437 12.192H278.581V10.192H272.437V12.192ZM277.581 11.192V35H279.581V11.192H277.581ZM278.581 34H272.437V36H278.581V34ZM290.226 33.992L290.721 33.1228L290.226 33.992ZM285.81 29.576L284.937 30.0642L284.944 30.0753L285.81 29.576ZM285.81 16.616L284.944 16.1167L284.938 16.1278L285.81 16.616ZM290.226 12.2L290.721 13.0692L290.226 12.2ZM304.338 13.016L303.729 13.8087L303.736 13.8145L304.338 13.016ZM308.322 19.544V20.544H309.55L309.302 19.3414L308.322 19.544ZM301.842 19.544L300.879 19.8116L301.082 20.544H301.842V19.544ZM299.922 16.856L299.336 17.6659L299.351 17.6773L299.368 17.688L299.922 16.856ZM292.29 17.768L291.556 17.089L292.29 17.768ZM292.29 28.424L293.024 27.745L292.29 28.424ZM299.922 29.384L299.368 28.5519L299.361 28.5563L299.355 28.5608L299.922 29.384ZM301.842 26.648V25.648H301.077L300.877 26.3871L301.842 26.648ZM308.322 26.648L309.3 26.8575L309.559 25.648H308.322V26.648ZM304.338 33.128L303.721 32.3413L304.338 33.128ZM296.658 34.576C294.375 34.576 292.406 34.0817 290.721 33.1228L289.732 34.8612C291.758 36.0142 294.077 36.576 296.658 36.576V34.576ZM290.721 33.1228C289.023 32.1567 287.678 30.8138 286.677 29.0767L284.944 30.0753C286.119 32.1142 287.718 33.7153 289.732 34.8612L290.721 33.1228ZM286.683 29.0878C285.72 27.3668 285.226 25.3787 285.226 23.096H283.226C283.226 25.6773 283.788 28.0092 284.938 30.0642L286.683 29.0878ZM285.226 23.096C285.226 20.8133 285.72 18.8252 286.683 17.1042L284.938 16.1278C283.788 18.1828 283.226 20.5147 283.226 23.096H285.226ZM286.677 17.1153C287.678 15.3782 289.023 14.0353 290.721 13.0692L289.732 11.3308C287.718 12.4767 286.119 14.0778 284.944 16.1167L286.677 17.1153ZM290.721 13.0692C292.406 12.1102 294.375 11.616 296.658 11.616V9.616C294.077 9.616 291.758 10.1777 289.732 11.3308L290.721 13.0692ZM296.658 11.616C299.514 11.616 301.85 12.3637 303.729 13.8086L304.948 12.2234C302.666 10.4683 299.882 9.616 296.658 9.616V11.616ZM303.736 13.8145C305.604 15.2225 306.811 17.177 307.343 19.7466L309.302 19.3414C308.681 16.343 307.233 13.9455 304.94 12.2175L303.736 13.8145ZM308.322 18.544H301.842V20.544H308.322V18.544ZM302.806 19.2764C302.424 17.9024 301.644 16.8022 300.477 16.0239L299.368 17.688C300.12 18.1898 300.62 18.8816 300.879 19.8116L302.806 19.2764ZM300.509 16.0461C299.39 15.2362 298.075 14.848 296.61 14.848V16.848C297.705 16.848 298.598 17.1318 299.336 17.6659L300.509 16.0461ZM296.61 14.848C294.627 14.848 292.923 15.6108 291.556 17.089L293.024 18.447C294.025 17.3651 295.202 16.848 296.61 16.848V14.848ZM291.556 17.089C290.154 18.6043 289.514 20.6508 289.514 23.096H291.514C291.514 20.9972 292.058 19.4917 293.024 18.447L291.556 17.089ZM289.514 23.096C289.514 25.5412 290.154 27.5877 291.556 29.103L293.024 27.745C292.058 26.7003 291.514 25.1948 291.514 23.096H289.514ZM291.556 29.103C292.923 30.5812 294.627 31.344 296.61 31.344V29.344C295.202 29.344 294.025 28.8269 293.024 27.745L291.556 29.103ZM296.61 31.344C298.065 31.344 299.373 30.9775 300.49 30.2072L299.355 28.5608C298.615 29.0705 297.716 29.344 296.61 29.344V31.344ZM300.477 30.216C301.652 29.4328 302.429 28.3107 302.808 26.9089L300.877 26.3871C300.616 27.3533 300.113 28.0552 299.368 28.5519L300.477 30.216ZM301.842 27.648H308.322V25.648H301.842V27.648ZM307.344 26.4385C306.815 28.9077 305.609 30.8597 303.721 32.3413L304.956 33.9147C307.227 32.1323 308.677 29.7643 309.3 26.8575L307.344 26.4385ZM303.721 32.3413C301.843 33.8149 299.51 34.576 296.658 34.576V36.576C299.887 36.576 302.674 35.7051 304.956 33.9147L303.721 32.3413ZM318.96 34.04L319.443 33.1644L318.96 34.04ZM314.544 16.712L313.667 16.23L313.661 16.2414L314.544 16.712ZM318.864 12.248L319.365 13.1134L319.369 13.1107L318.864 12.248ZM331.584 12.152L331.087 13.0202L331.584 12.152ZM335.76 16.376L334.885 16.8603L334.89 16.8697L334.895 16.8789L335.76 16.376ZM337.248 23.384L336.251 23.301L336.248 23.3424V23.384H337.248ZM337.2 24.584V25.584H338.126L338.197 24.6607L337.2 24.584ZM319.104 24.584V23.584H318.032L318.106 24.6528L319.104 24.584ZM321.024 28.952L320.348 29.6892L320.358 29.6983L321.024 28.952ZM328.416 29.72L328.963 30.557L328.97 30.5521L328.416 29.72ZM330.336 27.512V26.512H329.697L329.428 27.0909L330.336 27.512ZM336.576 27.512L337.534 27.7975L337.917 26.512H336.576V27.512ZM334.32 31.64L333.556 30.9941L333.555 30.9959L334.32 31.64ZM330.48 34.52L330.063 33.6109L330.056 33.6143L330.48 34.52ZM321.408 16.904L321.993 17.7147L322 17.7094L322.008 17.704L321.408 16.904ZM319.2 20.744L318.216 20.5619L317.997 21.744H319.2V20.744ZM331.056 20.744V21.744H332.119L332.054 20.6829L331.056 20.744ZM329.328 17L329.988 16.2488V16.2488L329.328 17ZM325.344 34.576C323.09 34.576 321.132 34.0965 319.443 33.1644L318.476 34.9156C320.499 36.0315 322.797 36.576 325.344 36.576V34.576ZM319.443 33.1644C317.749 32.2301 316.426 30.9226 315.461 29.2255L313.722 30.2145C314.869 32.2294 316.458 33.8019 318.476 34.9156L319.443 33.1644ZM315.461 29.2255C314.502 27.5401 314.008 25.5711 314.008 23.288H312.008C312.008 25.8689 312.569 28.1879 313.722 30.2145L315.461 29.2255ZM314.008 23.288C314.008 20.9662 314.489 18.9395 315.426 17.1826L313.661 16.2414C312.55 18.3245 312.008 20.6818 312.008 23.288H314.008ZM315.42 17.1939C316.392 15.4269 317.705 14.0744 319.365 13.1134L318.362 11.3826C316.374 12.5336 314.807 14.1571 313.667 16.2301L315.42 17.1939ZM319.369 13.1107C321.049 12.1261 323.044 11.616 325.392 11.616V9.616C322.747 9.616 320.39 10.1939 318.358 11.3853L319.369 13.1107ZM325.392 11.616C327.577 11.616 329.466 12.0935 331.087 13.0202L332.08 11.2838C330.117 10.1625 327.878 9.616 325.392 9.616V11.616ZM331.087 13.0202C332.722 13.9541 333.982 15.2299 334.885 16.8603L336.634 15.8917C335.553 13.9381 334.029 12.3979 332.08 11.2838L331.087 13.0202ZM334.895 16.8789C335.824 18.4757 336.296 20.2681 336.296 22.28H338.296C338.296 19.9399 337.743 17.7963 336.624 15.8731L334.895 16.8789ZM336.296 22.28C336.296 22.6018 336.281 22.942 336.251 23.301L338.244 23.467C338.278 23.058 338.296 22.6622 338.296 22.28H336.296ZM336.248 23.384C336.248 23.7403 336.233 24.1147 336.202 24.5073L338.197 24.6607C338.23 24.2213 338.248 23.7957 338.248 23.384H336.248ZM337.2 23.584H319.104V25.584H337.2V23.584ZM318.106 24.6528C318.248 26.7127 318.972 28.4277 320.348 29.6892L321.699 28.2148C320.771 27.3643 320.215 26.1673 320.101 24.5152L318.106 24.6528ZM320.358 29.6983C321.735 30.9262 323.399 31.536 325.296 31.536V29.536C323.864 29.536 322.68 29.0898 321.689 28.2057L320.358 29.6983ZM325.296 31.536C326.688 31.536 327.931 31.2316 328.963 30.557L327.868 28.883C327.236 29.2964 326.399 29.536 325.296 29.536V31.536ZM328.97 30.5521C329.979 29.8795 330.745 29.0046 331.243 27.9331L329.428 27.0909C329.094 27.8114 328.58 28.4085 327.861 28.888L328.97 30.5521ZM330.336 28.512H336.576V26.512H330.336V28.512ZM335.617 27.2265C335.21 28.5927 334.527 29.847 333.556 30.9941L335.083 32.2859C336.224 30.937 337.045 29.4393 337.534 27.7975L335.617 27.2265ZM333.555 30.9959C332.632 32.0919 331.473 32.9645 330.063 33.6109L330.896 35.4291C332.558 34.6675 333.959 33.6201 335.084 32.2841L333.555 30.9959ZM330.056 33.6143C328.703 34.2472 327.14 34.576 325.344 34.576V36.576C327.387 36.576 329.248 36.2008 330.903 35.4257L330.056 33.6143ZM325.392 14.608C323.681 14.608 322.141 15.1041 320.808 16.104L322.008 17.704C322.978 16.9759 324.094 16.608 325.392 16.608V14.608ZM320.822 16.0933C319.415 17.1096 318.571 18.644 318.216 20.5619L320.183 20.9261C320.468 19.388 321.096 18.3624 321.993 17.7147L320.822 16.0933ZM319.2 21.744H331.056V19.744H319.2V21.744ZM332.054 20.6829C331.943 18.8832 331.268 17.374 329.988 16.2488L328.667 17.7512C329.499 18.482 329.976 19.4688 330.057 20.8051L332.054 20.6829ZM329.988 16.2488C328.728 15.1416 327.172 14.608 325.392 14.608V16.608C326.747 16.608 327.815 17.0024 328.667 17.7512L329.988 16.2488ZM346.735 34.568L346.332 35.4833L346.34 35.4867L346.348 35.49L346.735 34.568ZM342.895 31.688L342.11 32.3076L342.895 31.688ZM341.167 27.464V26.464H340.04L340.174 27.5831L341.167 27.464ZM347.359 27.464L348.338 27.2614L348.173 26.464H347.359V27.464ZM348.895 29.864L348.267 30.6419L348.283 30.6551L348.3 30.6676L348.895 29.864ZM355.135 30.008L354.487 29.2461L354.478 29.2543L354.468 29.2628L355.135 30.008ZM354.751 26.072L354.357 26.9911L354.371 26.9972L354.385 27.0028L354.751 26.072ZM351.007 24.968L351.222 23.9914L351.221 23.9911L351.007 24.968ZM347.887 24.152L347.597 25.109L347.887 24.152ZM344.959 22.952L344.449 23.8123L344.468 23.8233L344.487 23.8335L344.959 22.952ZM342.847 21.032L342.02 21.5943L342.025 21.6022L342.031 21.61L342.847 21.032ZM344.527 12.776L343.88 12.0137L343.873 12.0198L344.527 12.776ZM358.351 12.584L357.732 13.3693L357.739 13.375L358.351 12.584ZM361.375 18.008V19.008H362.523L362.366 17.8704L361.375 18.008ZM355.567 18.008L354.586 18.2041L354.747 19.008H355.567V18.008ZM348.895 16.04L348.322 15.2208L348.312 15.2277L348.302 15.2349L348.895 16.04ZM353.071 20.552L353.296 19.5776L353.294 19.5773L353.071 20.552ZM357.631 21.848L357.302 22.7922L357.315 22.7967L357.328 22.8009L357.631 21.848ZM360.991 23.912L360.246 24.5795L360.252 24.586L360.258 24.5924L360.991 23.912ZM362.239 27.8H361.239V27.8109L361.239 27.8217L362.239 27.8ZM361.087 31.784L360.258 31.2241L361.087 31.784ZM357.631 34.568L357.223 33.655L357.631 34.568ZM352.303 34.576C350.296 34.576 348.576 34.2566 347.122 33.646L346.348 35.49C348.094 36.2234 350.086 36.576 352.303 36.576V34.576ZM347.138 33.6527C345.668 33.006 344.526 32.1404 343.68 31.0684L342.11 32.3076C343.184 33.6677 344.602 34.722 346.332 35.4833L347.138 33.6527ZM343.68 31.0684C342.839 30.0028 342.331 28.7697 342.16 27.3449L340.174 27.5831C340.387 29.3582 341.031 30.9412 342.11 32.3076L343.68 31.0684ZM341.167 28.464H347.359V26.464H341.167V28.464ZM346.38 27.6666C346.625 28.8503 347.279 29.8444 348.267 30.6419L349.523 29.0861C348.847 28.5396 348.477 27.9337 348.338 27.2614L346.38 27.6666ZM348.3 30.6676C349.375 31.4641 350.703 31.824 352.207 31.824V29.824C351.023 29.824 350.143 29.5439 349.49 29.0604L348.3 30.6676ZM352.207 31.824C353.648 31.824 354.924 31.539 355.802 30.7532L354.468 29.2628C354.13 29.565 353.454 29.824 352.207 29.824V31.824ZM355.783 30.7699C356.599 30.0764 357.095 29.1905 357.095 28.136H355.095C355.095 28.4895 354.951 28.8516 354.487 29.2461L355.783 30.7699ZM357.095 28.136C357.095 27.4782 356.95 26.8486 356.597 26.3063C356.241 25.7593 355.724 25.3798 355.117 25.1412L354.385 27.0028C354.674 27.1162 354.829 27.2567 354.921 27.3977C355.016 27.5434 355.095 27.7698 355.095 28.136H357.095ZM355.145 25.1529C354.165 24.7331 352.848 24.3491 351.222 23.9914L350.792 25.9446C352.366 26.2909 353.545 26.6429 354.357 26.9911L355.145 25.1529ZM351.221 23.9911C350.224 23.773 349.209 23.5077 348.177 23.195L347.597 25.109C348.677 25.4363 349.742 25.715 350.793 25.9449L351.221 23.9911ZM348.177 23.195C347.179 22.8925 346.264 22.5169 345.431 22.0705L344.487 23.8335C345.446 24.3471 346.483 24.7715 347.597 25.109L348.177 23.195ZM345.469 22.0917C344.717 21.6464 344.121 21.0999 343.663 20.454L342.031 21.61C342.661 22.5001 343.473 23.2336 344.449 23.8123L345.469 22.0917ZM343.674 20.4697C343.263 19.8651 343.031 19.0945 343.031 18.104H341.031C341.031 19.4175 341.343 20.5989 342.02 21.5943L343.674 20.4697ZM343.031 18.104C343.031 16.2959 343.726 14.7913 345.181 13.5322L343.873 12.0198C342 13.6407 341.031 15.6881 341.031 18.104H343.031ZM345.174 13.5383C346.633 12.2999 348.741 11.616 351.631 11.616V9.616C348.441 9.616 345.813 10.3721 343.88 12.0137L345.174 13.5383ZM351.631 11.616C354.296 11.616 356.295 12.2361 357.732 13.3693L358.97 11.7987C357.079 10.3079 354.598 9.616 351.631 9.616V11.616ZM357.739 13.375C359.21 14.5127 360.097 16.0763 360.385 18.1456L362.366 17.8704C362.013 15.3317 360.884 13.2793 358.963 11.793L357.739 13.375ZM361.375 17.008H355.567V19.008H361.375V17.008ZM356.548 17.8119C356.327 16.707 355.774 15.8006 354.859 15.1944C353.974 14.6075 352.848 14.368 351.583 14.368V16.368C352.622 16.368 353.312 16.5685 353.755 16.8616C354.168 17.1354 354.455 17.549 354.586 18.2041L356.548 17.8119ZM351.583 14.368C350.318 14.368 349.192 14.6114 348.322 15.2208L349.468 16.8592C349.878 16.5726 350.544 16.368 351.583 16.368V14.368ZM348.302 15.2349C347.474 15.8446 346.983 16.6875 346.983 17.72H348.983C348.983 17.4085 349.1 17.1314 349.488 16.8451L348.302 15.2349ZM346.983 17.72C346.983 18.987 347.863 19.8182 348.966 20.3125L349.784 18.4875C349.031 18.1498 348.983 17.861 348.983 17.72H346.983ZM348.966 20.3125C349.977 20.7656 351.279 21.1671 352.848 21.5267L353.294 19.5773C351.792 19.2329 350.629 18.8664 349.784 18.4875L348.966 20.3125ZM352.846 21.5264C354.481 21.9036 355.965 22.326 357.302 22.7922L357.96 20.9038C356.545 20.41 354.989 19.9684 353.296 19.5776L352.846 21.5264ZM357.328 22.8009C358.598 23.2049 359.554 23.8071 360.246 24.5795L361.736 23.2445C360.764 22.1609 359.48 21.3871 357.934 20.8951L357.328 22.8009ZM360.258 24.5924C360.862 25.2422 361.239 26.258 361.239 27.8H363.239C363.239 25.95 362.784 24.3738 361.724 23.2315L360.258 24.5924ZM361.239 27.8217C361.267 29.0935 360.939 30.2171 360.258 31.2241L361.916 32.3439C362.835 30.9829 363.275 29.4505 363.239 27.7783L361.239 27.8217ZM360.258 31.2241C359.578 32.231 358.583 33.0473 357.223 33.655L358.039 35.481C359.687 34.7447 360.996 33.705 361.916 32.3439L360.258 31.2241ZM357.223 33.655C355.875 34.2575 354.244 34.576 352.303 34.576V36.576C354.458 36.576 356.379 36.2225 358.039 35.481L357.223 33.655Z" fill="white"/>
</svg>
