<svg width="70" height="70" viewBox="0 0 70 70" fill="none" xmlns="http://www.w3.org/2000/svg">
<rect width="70" height="70" rx="20" fill="#1E1E1E"/>
<rect width="70" height="70" rx="20" fill="#1E1E1E"/>
<path d="M47.5 35C47.5021 36.6465 47.1779 38.277 46.5462 39.7974C45.9144 41.3178 44.9877 42.698 43.8194 43.8581C42.6607 45.0148 41.2854 45.9318 39.7721 46.5567C38.2588 47.1816 36.6372 47.5021 35 47.5C28.0963 47.5 22.5 41.9038 22.5 35C22.4956 31.7949 23.7268 28.7114 25.9375 26.3906C27.104 25.1598 28.5093 24.1798 30.0676 23.5109C31.6258 22.8419 33.3042 22.4979 35 22.5C36.6372 22.4979 38.2588 22.8184 39.7721 23.4433C41.2854 24.0682 42.6607 24.9852 43.8194 26.1419C44.9877 27.302 45.9144 28.6822 46.5462 30.2026C47.1779 31.723 47.5021 33.3536 47.5 35V35Z" stroke="white" stroke-width="4" stroke-linecap="round" stroke-linejoin="round"/>
<path d="M47.5001 35C45.6763 35 40.6451 34.3125 36.1419 36.2893C31.2501 38.4375 27.7082 41.7693 26.1644 43.8418" stroke="white" stroke-width="4" stroke-linecap="round" stroke-linejoin="round"/>
<path d="M30.3125 23.4087C32.2688 25.2143 36.5375 29.8112 38.125 34.3749C39.7125 38.9387 40.3 44.5499 40.6625 46.1468" stroke="white" stroke-width="4" stroke-linecap="round" stroke-linejoin="round"/>
<path d="M23.4376 39.7581C24.539 42.4243 26.5255 44.6295 29.0626 46.0025M22.5963 33.4375C24.9576 33.58 31.2082 33.7081 35.2082 32C39.2082 30.2918 42.6501 27.15 43.8307 26.1531L22.5963 33.4375Z" stroke="white" stroke-width="4" stroke-linecap="round" stroke-linejoin="round"/>
<path d="M35 47.5C36.6372 47.5021 38.2588 47.1816 39.7721 46.5567C41.2854 45.9318 42.6607 45.0148 43.8194 43.8581M22.5 35C22.4956 31.7949 23.7268 28.7114 25.9375 26.3906L22.5 35ZM35 22.5C33.3042 22.4979 31.6258 22.8419 30.0676 23.5109C28.5093 24.1798 27.104 25.1598 25.9375 26.3906L35 22.5ZM40 23.54C41.4235 24.1628 42.7187 25.0452 43.8194 26.1419C44.9877 27.302 45.9144 28.6822 46.5462 30.2026C47.1779 31.723 47.5021 33.3536 47.5 35C47.5 36.5388 47.2219 38.0131 46.7125 39.375L40 23.54Z" stroke="white" stroke-width="4" stroke-linecap="round" stroke-linejoin="round"/>
</svg>
