<svg width="70" height="70" viewBox="0 0 70 70" fill="none" xmlns="http://www.w3.org/2000/svg">
<rect width="70" height="70" rx="20" fill="#1E1E1E"/>
<rect width="70" height="70" rx="20" fill="#1E1E1E"/>
<g clip-path="url(#clip0_124_18)">
<path d="M47.5 28.75H38.75V26.25H47.5V28.75ZM49.6575 41.25C49.105 42.8713 47.1212 45 43.2812 45C39.4387 45 36.3262 42.8387 36.3262 37.9062C36.3262 33.0187 39.2325 30.5062 43.1587 30.5062C47.0112 30.5062 49.3637 32.7338 49.8775 36.0388C49.975 36.6713 50.0137 37.5237 49.9962 38.7137H39.9625C40.125 42.7275 44.3162 42.8538 45.6975 41.25H49.6575ZM40.05 36.25H46.2562C46.125 34.3162 44.8362 33.4763 43.16 33.4763C41.3275 33.4763 40.3137 34.4362 40.05 36.25ZM28.0825 44.985H20V26.2762H28.6912C35.5362 26.3775 35.6662 33.0813 32.0912 34.9088C36.4175 36.4838 36.5625 44.985 28.0825 44.985ZM23.75 33.75H28.23C31.365 33.75 31.8625 30 27.84 30H23.75V33.75ZM27.9887 37.5H23.75V41.27H27.9262C31.745 41.27 31.5112 37.5 27.9887 37.5Z" fill="white"/>
</g>
<defs>
<clipPath id="clip0_124_18">
<rect width="30" height="30" fill="white" transform="translate(20 20)"/>
</clipPath>
</defs>
</svg>
