<svg width="70" height="70" viewBox="0 0 70 70" fill="none" xmlns="http://www.w3.org/2000/svg">
<rect width="70" height="70" rx="20" fill="#1E1E1E"/>
<rect width="70" height="70" rx="20" fill="#1E1E1E"/>
<path d="M47.1875 24.6875H22.8125C22.2939 24.6875 21.875 25.1064 21.875 25.625V44.375C21.875 44.8936 22.2939 45.3125 22.8125 45.3125H47.1875C47.7061 45.3125 48.125 44.8936 48.125 44.375V25.625C48.125 25.1064 47.7061 24.6875 47.1875 24.6875ZM46.0156 27.9336V43.2031H23.9844V27.9336L23.1758 27.3037L24.3271 25.8242L25.5811 26.7998H44.4219L45.6758 25.8242L46.8271 27.3037L46.0156 27.9336ZM44.4219 26.7969L35 34.1211L25.5781 26.7969L24.3242 25.8213L23.1729 27.3008L23.9814 27.9307L33.9893 35.7119C34.2771 35.9355 34.6311 36.0569 34.9956 36.0569C35.3601 36.0569 35.7141 35.9355 36.002 35.7119L46.0156 27.9336L46.8242 27.3037L45.6729 25.8242L44.4219 26.7969Z" fill="white"/>
</svg>
