<svg width="70" height="70" viewBox="0 0 70 70" fill="none" xmlns="http://www.w3.org/2000/svg">
<rect width="70" height="70" rx="20" fill="#1E1E1E"/>
<rect width="70" height="70" rx="20" fill="#1E1E1E"/>
<path fill-rule="evenodd" clip-rule="evenodd" d="M29.3313 21.3325C30.7975 21.265 31.265 21.25 35 21.25C38.735 21.25 39.2025 21.2662 40.6675 21.3325C42.1325 21.3987 43.1325 21.6325 44.0075 21.9713C44.9238 22.3175 45.755 22.8587 46.4425 23.5588C47.1425 24.245 47.6825 25.075 48.0275 25.9925C48.3675 26.8675 48.6 27.8675 48.6675 29.33C48.735 30.7988 48.75 31.2663 48.75 35C48.75 38.735 48.7338 39.2025 48.6675 40.6688C48.6013 42.1313 48.3675 43.1313 48.0275 44.0063C47.6825 44.9239 47.1416 45.7553 46.4425 46.4425C45.755 47.1425 44.9238 47.6825 44.0075 48.0275C43.1325 48.3675 42.1325 48.6 40.67 48.6675C39.2025 48.735 38.735 48.75 35 48.75C31.265 48.75 30.7975 48.7338 29.3313 48.6675C27.8688 48.6013 26.8688 48.3675 25.9938 48.0275C25.0762 47.6825 24.2448 47.1416 23.5575 46.4425C22.858 45.7558 22.3166 44.9249 21.9713 44.0075C21.6325 43.1325 21.4 42.1325 21.3325 40.67C21.265 39.2013 21.25 38.7338 21.25 35C21.25 31.265 21.2662 30.7975 21.3325 29.3325C21.3987 27.8675 21.6325 26.8675 21.9713 25.9925C22.3172 25.0751 22.8589 24.2441 23.5588 23.5575C24.2451 22.8581 25.0756 22.3168 25.9925 21.9713C26.8675 21.6325 27.8675 21.4 29.33 21.3325H29.3313ZM40.5563 23.8075C39.1063 23.7413 38.6713 23.7275 35 23.7275C31.3288 23.7275 30.8938 23.7413 29.4438 23.8075C28.1025 23.8688 27.375 24.0925 26.89 24.2813C26.2488 24.5313 25.79 24.8275 25.3088 25.3088C24.8526 25.7526 24.5015 26.2929 24.2813 26.89C24.0925 27.375 23.8688 28.1025 23.8075 29.4438C23.7413 30.8938 23.7275 31.3288 23.7275 35C23.7275 38.6713 23.7413 39.1063 23.8075 40.5563C23.8688 41.8975 24.0925 42.625 24.2813 43.11C24.5013 43.7063 24.8525 44.2475 25.3088 44.6913C25.7525 45.1475 26.2938 45.4988 26.89 45.7188C27.375 45.9075 28.1025 46.1313 29.4438 46.1925C30.8938 46.2588 31.3275 46.2725 35 46.2725C38.6725 46.2725 39.1063 46.2588 40.5563 46.1925C41.8975 46.1313 42.625 45.9075 43.11 45.7188C43.7513 45.4688 44.21 45.1725 44.6913 44.6913C45.1475 44.2475 45.4988 43.7063 45.7188 43.11C45.9075 42.625 46.1313 41.8975 46.1925 40.5563C46.2588 39.1063 46.2725 38.6713 46.2725 35C46.2725 31.3288 46.2588 30.8938 46.1925 29.4438C46.1313 28.1025 45.9075 27.375 45.7188 26.89C45.4688 26.2488 45.1725 25.79 44.6913 25.3088C44.2474 24.8526 43.7071 24.5015 43.11 24.2813C42.625 24.0925 41.8975 23.8688 40.5563 23.8075ZM33.2438 39.2388C34.2246 39.647 35.3167 39.7021 36.3337 39.3947C37.3506 39.0872 38.2292 38.4361 38.8195 37.5528C39.4098 36.6695 39.6751 35.6086 39.5701 34.5514C39.465 33.4942 38.9963 32.5062 38.2438 31.7563C37.764 31.2768 37.184 30.9098 36.5454 30.6814C35.9068 30.4531 35.2255 30.3692 34.5506 30.4358C33.8757 30.5023 33.2239 30.7177 32.6423 31.0664C32.0606 31.4151 31.5634 31.8884 31.1866 32.4523C30.8098 33.0162 30.5627 33.6566 30.4631 34.3275C30.3636 34.9983 30.4139 35.6829 30.6107 36.3319C30.8074 36.9809 31.1456 37.5783 31.6009 38.0809C32.0562 38.5835 32.6173 38.979 33.2438 39.2388ZM30.0025 30.0025C30.6588 29.3462 31.4379 28.8256 32.2954 28.4705C33.1528 28.1153 34.0719 27.9325 35 27.9325C35.9281 27.9325 36.8472 28.1153 37.7046 28.4705C38.5621 28.8256 39.3412 29.3462 39.9975 30.0025C40.6538 30.6588 41.1744 31.4379 41.5296 32.2954C41.8847 33.1528 42.0675 34.0719 42.0675 35C42.0675 35.9281 41.8847 36.8472 41.5296 37.7046C41.1744 38.5621 40.6538 39.3412 39.9975 39.9975C38.6721 41.3229 36.8744 42.0675 35 42.0675C33.1256 42.0675 31.3279 41.3229 30.0025 39.9975C28.6771 38.6721 27.9325 36.8744 27.9325 35C27.9325 33.1256 28.6771 31.3279 30.0025 30.0025ZM43.635 28.985C43.7976 28.8316 43.9278 28.6471 44.0179 28.4425C44.1079 28.2378 44.156 28.0172 44.1593 27.7937C44.1625 27.5701 44.1209 27.3482 44.0369 27.141C43.9528 26.9338 43.828 26.7456 43.67 26.5875C43.5119 26.4295 43.3237 26.3047 43.1165 26.2206C42.9093 26.1366 42.6874 26.095 42.4638 26.0982C42.2403 26.1015 42.0197 26.1496 41.815 26.2396C41.6104 26.3297 41.4259 26.4599 41.2725 26.6225C40.9741 26.9388 40.8108 27.3589 40.8171 27.7937C40.8235 28.2284 40.999 28.6436 41.3064 28.9511C41.6139 29.2585 42.0291 29.434 42.4638 29.4404C42.8986 29.4467 43.3187 29.2834 43.635 28.985Z" fill="white"/>
</svg>
