<svg width="70" height="70" viewBox="0 0 70 70" fill="none" xmlns="http://www.w3.org/2000/svg">
<rect width="70" height="70" rx="20" fill="#1E1E1E"/>
<rect width="70" height="70" rx="20" fill="#1E1E1E"/>
<path fill-rule="evenodd" clip-rule="evenodd" d="M31.7862 31.2112H36.4287V33.5237C37.0975 32.1937 38.8125 30.9987 41.3887 30.9987C46.3275 30.9987 47.5 33.6462 47.5 38.5037V47.5H42.5V39.61C42.5 36.8437 41.8312 35.2837 40.1287 35.2837C37.7675 35.2837 36.7862 36.965 36.7862 39.6087V47.5H31.7862V31.2112ZM23.2125 47.2875H28.2125V30.9987H23.2125V47.2875ZM28.9287 25.6875C28.9289 26.1066 28.8458 26.5215 28.6842 26.9082C28.5226 27.2949 28.2858 27.6456 27.9875 27.94C27.383 28.5408 26.5648 28.8771 25.7125 28.875C24.8617 28.8744 24.0454 28.539 23.44 27.9413C23.1428 27.6459 22.9067 27.2948 22.7454 26.908C22.5841 26.5213 22.5007 26.1065 22.5 25.6875C22.5 24.8413 22.8375 24.0313 23.4412 23.4338C24.0461 22.8352 24.8628 22.4996 25.7137 22.5C26.5662 22.5 27.3837 22.8363 27.9875 23.4338C28.59 24.0313 28.9287 24.8413 28.9287 25.6875Z" fill="white"/>
</svg>
