<svg width="160" height="71" viewBox="0 0 160 71" fill="none" xmlns="http://www.w3.org/2000/svg">
<path d="M0.296 55.848L-0.388435 55.1189L-2.23027 56.848H0.296V55.848ZM23.816 33.768L24.5004 34.4971L25.2754 33.7696L24.502 33.0404L23.816 33.768ZM0.296 11.592V10.592H-2.2223L-0.390012 12.3196L0.296 11.592ZM10.568 11.592L11.2555 10.8658L10.9663 10.592H10.568V11.592ZM33.992 33.768L34.6779 34.4957L35.4482 33.7696L34.6795 33.0418L33.992 33.768ZM10.568 55.848V56.848H10.965L11.2539 56.5757L10.568 55.848ZM0.980436 56.5771L24.5004 34.4971L23.1316 33.0389L-0.388435 55.1189L0.980436 56.5771ZM24.502 33.0404L0.982013 10.8644L-0.390012 12.3196L23.13 34.4956L24.502 33.0404ZM0.296 12.592H10.568V10.592H0.296V12.592ZM9.8805 12.3182L33.3045 34.4942L34.6795 33.0418L11.2555 10.8658L9.8805 12.3182ZM33.3061 33.0403L9.88208 55.1203L11.2539 56.5757L34.6779 34.4957L33.3061 33.0403ZM10.568 54.848H0.296V56.848H10.568V54.848ZM57.3223 67.848L56.9021 68.7555L56.9091 68.7587L56.9161 68.7618L57.3223 67.848ZM48.9702 60.744L48.133 61.2908L48.1369 61.2967L48.1408 61.3026L48.9702 60.744ZM45.7062 49.032V48.032H44.6785L44.7066 49.0594L45.7062 49.032ZM53.8662 49.032L54.8661 49.0153L54.8497 48.032H53.8662V49.032ZM57.8982 59.016L57.1666 59.6978L57.1745 59.7061L57.8982 59.016ZM79.5943 59.208L78.8608 58.5282L78.8519 58.538L79.5943 59.208ZM80.9383 42.024L80.1352 42.6198L80.1413 42.6281L80.1475 42.6362L80.9383 42.024ZM74.8903 37.608L74.5313 38.5414L74.5391 38.5443L74.8903 37.608ZM61.6423 36.168H60.6423V37.168H61.6423V36.168ZM61.6423 29.352V28.352H60.6423V29.352H61.6423ZM76.8102 26.376L76.188 25.5931L76.1781 25.6011L76.8102 26.376ZM77.5783 10.632L76.8596 11.3274L76.871 11.3392L76.8828 11.3506L77.5783 10.632ZM60.0103 11.016L60.707 11.7333L60.7122 11.7282L60.7174 11.7231L60.0103 11.016ZM56.2663 19.272V20.272H57.1923L57.2633 19.3487L56.2663 19.272ZM48.1063 19.272L47.1076 19.2194L47.0522 20.272H48.1063V19.272ZM50.9863 9.576L50.1426 9.03912L50.1382 9.04602L50.1339 9.05298L50.9863 9.576ZM58.2822 3.048L58.7295 3.94242L58.7369 3.93873L58.7442 3.93491L58.2822 3.048ZM79.7863 2.952L79.3156 3.83439L79.3237 3.83858L79.7863 2.952ZM86.4103 9.096L85.5434 9.59447L85.548 9.60253L85.5528 9.6105L86.4103 9.096ZM85.9303 26.856L86.7594 27.4152L86.7652 27.4063L85.9303 26.856ZM77.5783 32.424L77.3279 31.4559L77.373 33.4027L77.5783 32.424ZM87.4662 38.088L86.7197 38.7534H86.7197L87.4662 38.088ZM88.8102 59.976L87.9344 59.4934L87.931 59.4997L88.8102 59.976ZM81.3223 67.368L81.8093 68.2414L81.3223 67.368ZM68.9383 69.152C64.7715 69.152 61.0405 68.4062 57.7284 66.9342L56.9161 68.7618C60.516 70.3618 64.529 71.152 68.9383 71.152V69.152ZM57.7424 66.9405C54.4508 65.4167 51.8089 63.1688 49.7997 60.1854L48.1408 61.3026C50.3556 64.5912 53.2817 67.0793 56.9021 68.7555L57.7424 66.9405ZM49.8075 60.1972C47.8829 57.2502 46.8301 53.5373 46.7059 49.0046L44.7066 49.0594C44.8384 53.8707 45.9616 57.9658 48.133 61.2908L49.8075 60.1972ZM45.7062 50.032H53.8662V48.032H45.7062V50.032ZM52.8664 49.0487C52.9345 53.1365 54.3745 56.7013 57.1666 59.6977L58.6299 58.3343C56.174 55.6987 54.926 52.6075 54.8661 49.0153L52.8664 49.0487ZM57.1745 59.7061C60.0315 62.7024 64.0003 64.144 68.9383 64.144V62.144C64.4042 62.144 61.013 60.8336 58.622 58.3259L57.1745 59.7061ZM68.9383 64.144C73.8564 64.144 77.7206 62.7768 80.3366 59.878L78.8519 58.538C76.7319 60.8872 73.4921 62.144 68.9383 62.144V64.144ZM80.3277 59.8878C82.938 57.0714 84.2422 53.6576 84.2422 49.704H82.2422C82.2422 53.1744 81.1145 56.0966 78.8608 58.5282L80.3277 59.8878ZM84.2422 49.704C84.2422 46.4028 83.4315 43.611 81.729 41.4118L80.1475 42.6362C81.517 44.405 82.2422 46.7332 82.2422 49.704H84.2422ZM81.7413 41.4282C80.1426 39.2733 77.9617 37.6918 75.2414 36.6717L74.5391 38.5443C76.9388 39.4442 78.79 40.8067 80.1352 42.6198L81.7413 41.4282ZM75.2492 36.6747C72.6253 35.6654 69.7498 35.168 66.6342 35.168V37.168C69.5347 37.168 72.1632 37.6306 74.5313 38.5413L75.2492 36.6747ZM66.6342 35.168H61.6423V37.168H66.6342V35.168ZM62.6423 36.168V29.352H60.6423V36.168H62.6423ZM61.6423 30.352H66.6342V28.352H61.6423V30.352ZM66.6342 30.352C71.1285 30.352 74.7738 29.3278 77.4424 27.1509L76.1781 25.6011C73.9827 27.3922 70.844 28.352 66.6342 28.352V30.352ZM77.4325 27.1588C80.1989 24.9599 81.5543 21.87 81.5543 18.024H79.5543C79.5543 21.346 78.4136 23.8241 76.188 25.5932L77.4325 27.1588ZM81.5543 18.024C81.5543 14.7719 80.4708 12.0397 78.2737 9.91339L76.8828 11.3506C78.6537 13.0643 79.5543 15.2601 79.5543 18.024H81.5543ZM78.2969 9.93657C76.1245 7.69184 72.9409 6.65599 68.9383 6.65599V8.65599C72.6156 8.65599 75.192 9.60415 76.8596 11.3274L78.2969 9.93657ZM68.9383 6.65599C65.0102 6.65599 61.7628 7.84926 59.3031 10.3089L60.7174 11.7231C62.7377 9.70273 65.4423 8.65599 68.9383 8.65599V6.65599ZM59.3135 10.2987C56.886 12.6568 55.5425 15.6425 55.2692 19.1953L57.2633 19.3487C57.502 16.2455 58.6545 13.7272 60.707 11.7333L59.3135 10.2987ZM56.2663 18.272H48.1063V20.272H56.2663V18.272ZM49.1049 19.3246C49.289 15.8252 50.2068 12.7583 51.8386 10.099L50.1339 9.05298C48.3097 12.0257 47.3075 15.4228 47.1076 19.2194L49.1049 19.3246ZM51.8299 10.1129C53.5217 7.45437 55.8146 5.39983 58.7295 3.94242L57.835 2.15357C54.6059 3.76816 52.0348 6.06562 50.1426 9.03912L51.8299 10.1129ZM58.7442 3.93491C61.6518 2.42053 65.0406 1.648 68.9383 1.648V-0.352001C64.7719 -0.352001 61.0567 0.47547 57.8203 2.16108L58.7442 3.93491ZM68.9383 1.648C73.1787 1.648 76.6207 2.39703 79.3157 3.83435L80.2568 2.06964C77.1918 0.434967 73.4018 -0.352001 68.9383 -0.352001V1.648ZM79.3237 3.83858C82.1203 5.29771 84.1779 7.21973 85.5434 9.59447L87.2772 8.59753C85.6986 5.85227 83.3402 3.67829 80.2488 2.06541L79.3237 3.83858ZM85.5528 9.6105C86.9927 12.0104 87.7142 14.6477 87.7142 17.544H89.7142C89.7142 14.2963 88.8998 11.3016 87.2677 8.5815L85.5528 9.6105ZM87.7142 17.544C87.7142 20.7416 86.843 23.654 85.0953 26.3057L86.7652 27.4063C88.7295 24.426 89.7142 21.1304 89.7142 17.544H87.7142ZM85.1012 26.2969C83.4026 28.8154 80.8425 30.5469 77.3279 31.4559L77.8286 33.3921C81.738 32.3811 84.7459 30.4006 86.7593 27.4151L85.1012 26.2969ZM77.373 33.4027C81.138 34.1922 84.2422 35.9737 86.7197 38.7534L88.2128 37.4226C85.4423 34.3142 81.9545 32.3198 77.7835 31.4453L77.373 33.4027ZM86.7197 38.7534C89.1468 41.4764 90.4023 45.0936 90.4023 49.704H92.4023C92.4023 44.7144 91.0337 40.5876 88.2128 37.4226L86.7197 38.7534ZM90.4023 49.704C90.4023 53.2537 89.5779 56.5107 87.9344 59.4934L89.6861 60.4586C91.4986 57.1693 92.4023 53.5783 92.4023 49.704H90.4023ZM87.931 59.4997C86.3655 62.3898 84.013 64.7224 80.8352 66.4946L81.8093 68.2414C85.2875 66.3016 87.927 63.7062 89.6895 60.4523L87.931 59.4997ZM80.8352 66.4946C77.6935 68.2467 73.7445 69.152 68.9383 69.152V71.152C73.988 71.152 78.295 70.2013 81.8093 68.2414L80.8352 66.4946ZM115.2 65.832L114.634 66.6564L114.641 66.6612L114.648 66.6659L115.2 65.832ZM105.312 53.64L104.396 54.042L104.398 54.0461L105.312 53.64ZM105.312 17.256L106.226 17.6621L106.227 17.658L105.312 17.256ZM115.2 5.064L115.757 5.89414L115.76 5.89228L115.2 5.064ZM146.016 5.064L145.45 5.88844L145.458 5.89414L146.016 5.064ZM155.904 17.256L154.988 17.658L154.99 17.6621L155.904 17.256ZM155.904 53.64L156.818 54.0461L156.819 54.042L155.904 53.64ZM146.016 65.832L146.573 66.6622L146.582 66.6564L146.016 65.832ZM141.12 59.784L141.698 60.6L141.701 60.5977L141.12 59.784ZM148.416 50.28L147.497 49.8844L147.494 49.8913L148.416 50.28ZM148.416 20.616L147.494 21.0047L147.5 21.0168L148.416 20.616ZM141.12 11.208L140.531 12.016L140.54 12.0229L140.55 12.0296L141.12 11.208ZM120.096 11.208L120.674 12.0241L120.685 12.016L120.096 11.208ZM112.8 20.616L113.716 21.0168L112.8 20.616ZM112.8 50.28L111.881 50.6756L111.884 50.6808L112.8 50.28ZM120.096 59.784L119.507 60.5921L119.518 60.6L120.096 59.784ZM130.656 69.152C124.872 69.152 119.918 67.7551 115.752 64.9981L114.648 66.6659C119.186 69.6689 124.536 71.152 130.656 71.152V69.152ZM115.766 65.0076C111.644 62.1776 108.462 58.2648 106.226 53.2339L104.398 54.0461C106.77 59.3832 110.18 63.5984 114.634 66.6564L115.766 65.0076ZM106.227 53.238C103.989 48.14 102.856 42.2015 102.856 35.4H100.856C100.856 42.4225 102.026 48.644 104.396 54.042L106.227 53.238ZM102.856 35.4C102.856 28.598 103.989 22.6935 106.226 17.6621L104.398 16.8499C102.026 22.1865 100.856 28.378 100.856 35.4H102.856ZM106.227 17.658C108.464 12.5641 111.644 8.65691 115.757 5.89414L114.642 4.23386C110.18 7.23108 106.768 11.4519 104.396 16.854L106.227 17.658ZM115.76 5.89228C119.925 3.07463 124.876 1.648 130.656 1.648V-0.352001C124.531 -0.352001 119.178 1.16536 114.639 4.23572L115.76 5.89228ZM130.656 1.648C136.436 1.648 141.352 3.07472 145.45 5.8884L146.582 4.2396C142.104 1.16528 136.78 -0.352001 130.656 -0.352001V1.648ZM145.458 5.89414C149.572 8.65691 152.752 12.5641 154.988 17.658L156.819 16.854C154.448 11.4519 151.036 7.23108 146.573 4.23386L145.458 5.89414ZM154.99 17.6621C157.226 22.6935 158.36 28.598 158.36 35.4H160.36C160.36 28.378 159.189 22.1865 156.818 16.8499L154.99 17.6621ZM158.36 35.4C158.36 42.2015 157.226 48.14 154.988 53.238L156.819 54.042C159.189 48.644 160.36 42.4225 160.36 35.4H158.36ZM154.99 53.2339C152.754 58.2648 149.572 62.1776 145.45 65.0076L146.582 66.6564C151.036 63.5984 154.446 59.3832 156.818 54.0461L154.99 53.2339ZM145.458 65.0019C141.359 67.755 136.44 69.152 130.656 69.152V71.152C136.775 71.152 142.096 69.669 146.573 66.6621L145.458 65.0019ZM130.656 64.048C134.759 64.048 138.45 62.9004 141.698 60.6L140.542 58.968C137.645 61.0196 134.361 62.048 130.656 62.048V64.048ZM141.701 60.5977C145.009 58.2346 147.548 54.9084 149.337 50.6687L147.494 49.8913C145.827 53.8436 143.502 56.8534 140.539 58.9703L141.701 60.5977ZM149.334 50.6756C151.192 46.3617 152.104 41.2605 152.104 35.4H150.104C150.104 41.0595 149.223 45.8783 147.497 49.8844L149.334 50.6756ZM152.104 35.4C152.104 29.5402 151.193 24.4684 149.332 20.2152L147.5 21.0168C149.223 24.9556 150.104 29.7398 150.104 35.4H152.104ZM149.337 20.2273C147.548 15.9859 145.006 12.6873 141.69 10.3864L140.55 12.0296C143.506 14.0807 145.828 17.0541 147.494 21.0047L149.337 20.2273ZM141.709 10.4C138.461 8.03168 134.765 6.848 130.656 6.848V8.848C134.354 8.848 137.635 9.90431 140.531 12.016L141.709 10.4ZM130.656 6.848C126.486 6.848 122.757 8.02953 119.507 10.4L120.685 12.016C123.578 9.90646 126.89 8.848 130.656 8.848V6.848ZM119.518 10.392C116.272 12.6913 113.735 15.9841 111.884 20.2152L113.716 21.0168C115.449 17.0559 117.776 14.0767 120.674 12.024L119.518 10.392ZM111.884 20.2152C110.023 24.4684 109.112 29.5402 109.112 35.4H111.112C111.112 29.7398 111.993 24.9556 113.716 21.0168L111.884 20.2152ZM109.112 35.4C109.112 41.2605 110.023 46.3617 111.881 50.6756L113.718 49.8844C111.992 45.8783 111.112 41.0595 111.112 35.4H109.112ZM111.884 50.6808C113.734 54.9103 116.268 58.2306 119.507 60.592L120.685 58.976C117.779 56.8574 115.45 53.8417 113.716 49.8792L111.884 50.6808ZM119.518 60.6C122.768 62.9024 126.493 64.048 130.656 64.048V62.048C126.883 62.048 123.567 61.0176 120.674 58.968L119.518 60.6Z" fill="#D53FC6"/>
</svg>
