<svg width="162" height="71" viewBox="0 0 162 71" fill="none" xmlns="http://www.w3.org/2000/svg">
<path d="M0.296 55.848L-0.388435 55.1189L-2.23027 56.848H0.296V55.848ZM23.816 33.768L24.5004 34.4971L25.2754 33.7696L24.502 33.0404L23.816 33.768ZM0.296 11.592V10.592H-2.2223L-0.390012 12.3196L0.296 11.592ZM10.568 11.592L11.2555 10.8658L10.9663 10.592H10.568V11.592ZM33.992 33.768L34.6779 34.4957L35.4482 33.7696L34.6795 33.0418L33.992 33.768ZM10.568 55.848V56.848H10.965L11.2539 56.5757L10.568 55.848ZM0.980436 56.5771L24.5004 34.4971L23.1316 33.0389L-0.388435 55.1189L0.980436 56.5771ZM24.502 33.0404L0.982013 10.8644L-0.390012 12.3196L23.13 34.4956L24.502 33.0404ZM0.296 12.592H10.568V10.592H0.296V12.592ZM9.8805 12.3182L33.3045 34.4942L34.6795 33.0418L11.2555 10.8658L9.8805 12.3182ZM33.3061 33.0403L9.88208 55.1203L11.2539 56.5757L34.6779 34.4957L33.3061 33.0403ZM10.568 54.848H0.296V56.848H10.568V54.848ZM58.8583 67.656L58.4178 68.5538L58.8583 67.656ZM50.6982 60.84L49.869 61.3989L49.876 61.4093L49.8833 61.4195L50.6982 60.84ZM47.0503 50.856V49.856H45.9223L46.0575 50.9758L47.0503 50.856ZM54.9223 50.856L55.9015 50.6534L55.7365 49.856H54.9223V50.856ZM60.2982 59.88L59.665 60.654L59.6757 60.6626L60.2982 59.88ZM79.2103 61.032L79.7486 61.8747L79.7569 61.8695L79.765 61.8641L79.2103 61.032ZM84.4902 54.888L83.5958 54.4408L83.5913 54.4498L83.587 54.4589L84.4902 54.888ZM82.1862 34.248L81.4491 34.9237L82.1862 34.248ZM61.7383 32.136L62.2738 32.9805L61.7383 32.136ZM55.9782 38.664V39.664H56.6234L56.8894 39.0762L55.9782 38.664ZM48.2983 38.664L47.3102 38.5096L47.1299 39.664H48.2983V38.664ZM54.0583 1.8V0.799995H53.2024L53.0702 1.64562L54.0583 1.8ZM89.2903 1.8H90.2903V0.799995H89.2903V1.8ZM89.2903 8.808V9.808H90.2903V8.808H89.2903ZM60.2982 8.808V7.808H59.4724L59.3163 8.61898L60.2982 8.808ZM56.3623 29.256L55.3803 29.067L57.1326 29.8936L56.3623 29.256ZM62.6982 24.648L62.2941 23.7333L62.2861 23.7369L62.6982 24.648ZM83.6263 25.896L83.0947 26.7431L83.1022 26.7477L83.6263 25.896ZM91.4023 34.248L92.2868 33.7816L91.4023 34.248ZM91.4023 58.152L90.5109 57.6985L90.5047 57.7111L91.4023 58.152ZM83.4342 66.888L82.9084 66.0374L82.9014 66.0418L83.4342 66.888ZM70.8583 69.152C66.37 69.152 62.5268 68.3418 59.2987 66.7582L58.4178 68.5538C61.9737 70.2982 66.1305 71.152 70.8583 71.152V69.152ZM59.2987 66.7582C56.0454 65.1623 53.4581 62.9956 51.5132 60.2605L49.8833 61.4195C52.0344 64.4445 54.8871 66.8217 58.4178 68.5538L59.2987 66.7582ZM51.5275 60.2811C49.6367 57.4755 48.4731 54.2996 48.043 50.7362L46.0575 50.9758C46.5234 54.8364 47.7918 58.3165 49.869 61.3989L51.5275 60.2811ZM47.0503 51.856H54.9223V49.856H47.0503V51.856ZM53.943 51.0586C54.7553 54.9849 56.6637 58.1984 59.665 60.654L60.9315 59.106C58.3008 56.9536 56.6252 54.1511 55.9015 50.6534L53.943 51.0586ZM59.6757 60.6626C62.701 63.069 66.4851 64.24 70.9543 64.24V62.24C66.8474 62.24 63.5275 61.171 60.9208 59.0974L59.6757 60.6626ZM70.9543 64.24C74.3119 64.24 77.2581 63.4659 79.7486 61.8747L78.6719 60.1893C76.5544 61.5421 73.9966 62.24 70.9543 62.24V64.24ZM79.765 61.8641C82.2231 60.2253 84.1018 58.0364 85.3935 55.3171L83.587 54.4589C82.4467 56.8596 80.8054 58.7667 78.6555 60.2L79.765 61.8641ZM85.3847 55.3352C86.7406 52.6235 87.4103 49.6201 87.4103 46.344H85.4103C85.4103 49.3399 84.7999 52.0325 83.5958 54.4408L85.3847 55.3352ZM87.4103 46.344C87.4103 41.1541 85.9408 36.864 82.9234 33.5723L81.4491 34.9237C84.0637 37.776 85.4103 41.5499 85.4103 46.344H87.4103ZM82.9234 33.5723C79.9026 30.2769 75.979 28.64 71.2422 28.64V30.64C75.4655 30.64 78.8379 32.0751 81.4491 34.9237L82.9234 33.5723ZM71.2422 28.64C67.3779 28.64 64.0157 29.5076 61.2027 31.2915L62.2738 32.9805C64.7088 31.4364 67.6826 30.64 71.2422 30.64V28.64ZM61.2027 31.2915C58.4233 33.0541 56.3679 35.3765 55.0671 38.2518L56.8894 39.0762C58.0206 36.5755 59.8052 34.5459 62.2738 32.9805L61.2027 31.2915ZM55.9782 37.664H48.2983V39.664H55.9782V37.664ZM49.2863 38.8184L55.0463 1.95437L53.0702 1.64562L47.3102 38.5096L49.2863 38.8184ZM54.0583 2.8H89.2903V0.799995H54.0583V2.8ZM88.2903 1.8V8.808H90.2903V1.8H88.2903ZM89.2903 7.808H60.2982V9.808H89.2903V7.808ZM59.3163 8.61898L55.3803 29.067L57.3442 29.445L61.2802 8.99702L59.3163 8.61898ZM57.1326 29.8936C58.5523 28.1782 60.5305 26.7262 63.1104 25.5591L62.2861 23.7369C59.49 25.0018 57.2442 26.6218 55.5919 28.6184L57.1326 29.8936ZM63.1024 25.5627C65.7073 24.4117 68.702 23.824 72.1063 23.824V21.824C68.4705 21.824 65.1932 22.4523 62.2941 23.7333L63.1024 25.5627ZM72.1063 23.824C76.3623 23.824 80.0122 24.8089 83.0948 26.7431L84.1577 25.0489C80.7123 22.8871 76.6822 21.824 72.1063 21.824V23.824ZM83.1022 26.7477C86.2748 28.7 88.7436 31.3497 90.5177 34.7144L92.2868 33.7816C90.3489 30.1063 87.6337 27.188 84.1504 25.0443L83.1022 26.7477ZM90.5177 34.7144C92.2888 38.0734 93.1862 41.9098 93.1862 46.248H95.1862C95.1862 41.6262 94.2277 37.4626 92.2868 33.7816L90.5177 34.7144ZM93.1862 46.248C93.1862 50.3861 92.2921 54.1978 90.511 57.6985L92.2935 58.6055C94.2244 54.8102 95.1862 50.6859 95.1862 46.248H93.1862ZM90.5047 57.7111C88.7972 61.1871 86.2715 63.9584 82.9084 66.0374L83.9601 67.7386C87.637 65.4656 90.4233 62.4129 92.2998 58.5929L90.5047 57.7111ZM82.9014 66.0418C79.6352 68.0983 75.637 69.152 70.8583 69.152V71.152C75.9356 71.152 80.3213 70.0297 83.9671 67.7342L82.9014 66.0418ZM117.544 65.832L116.977 66.6564L116.985 66.6612L116.992 66.6659L117.544 65.832ZM107.656 53.64L106.74 54.042L106.742 54.0461L107.656 53.64ZM107.656 17.256L108.569 17.6621L108.571 17.658L107.656 17.256ZM117.544 5.064L118.101 5.89414L118.104 5.89228L117.544 5.064ZM148.359 5.064L147.793 5.88844L147.802 5.89414L148.359 5.064ZM158.247 17.256L157.332 17.658L157.334 17.6621L158.247 17.256ZM158.247 53.64L159.161 54.0461L159.163 54.042L158.247 53.64ZM148.359 65.832L148.917 66.6622L148.926 66.6564L148.359 65.832ZM143.464 59.784L144.042 60.6L144.045 60.5977L143.464 59.784ZM150.76 50.28L149.841 49.8844L149.838 49.8913L150.76 50.28ZM150.76 20.616L149.838 21.0047L149.843 21.0168L150.76 20.616ZM143.464 11.208L142.874 12.016L142.884 12.0229L142.893 12.0296L143.464 11.208ZM122.439 11.208L123.018 12.0241L123.029 12.016L122.439 11.208ZM115.144 20.616L116.06 21.0168L115.144 20.616ZM115.144 50.28L114.225 50.6756L114.227 50.6808L115.144 50.28ZM122.439 59.784L121.85 60.5921L121.861 60.6L122.439 59.784ZM132.999 69.152C127.215 69.152 122.262 67.7551 118.095 64.9981L116.992 66.6659C121.529 69.6689 126.88 71.152 132.999 71.152V69.152ZM118.11 65.0076C113.988 62.1776 110.805 58.2648 108.569 53.2339L106.742 54.0461C109.114 59.3832 112.523 63.5984 116.977 66.6564L118.11 65.0076ZM108.571 53.238C106.333 48.14 105.2 42.2015 105.2 35.4H103.2C103.2 42.4225 104.37 48.644 106.74 54.042L108.571 53.238ZM105.2 35.4C105.2 28.598 106.333 22.6935 108.569 17.6621L106.742 16.8499C104.37 22.1865 103.2 28.378 103.2 35.4H105.2ZM108.571 17.658C110.807 12.5641 113.988 8.65691 118.101 5.89414L116.986 4.23386C112.523 7.23108 109.112 11.4519 106.74 16.854L108.571 17.658ZM118.104 5.89228C122.269 3.07463 127.22 1.648 132.999 1.648V-0.352001C126.875 -0.352001 121.522 1.16536 116.983 4.23572L118.104 5.89228ZM132.999 1.648C138.78 1.648 143.695 3.07472 147.794 5.8884L148.926 4.2396C144.448 1.16528 139.123 -0.352001 132.999 -0.352001V1.648ZM147.802 5.89414C151.915 8.65691 155.096 12.5641 157.332 17.658L159.163 16.854C156.791 11.4519 153.38 7.23108 148.917 4.23386L147.802 5.89414ZM157.334 17.6621C159.57 22.6935 160.704 28.598 160.704 35.4H162.704C162.704 28.378 161.533 22.1865 159.161 16.8499L157.334 17.6621ZM160.704 35.4C160.704 42.2015 159.57 48.14 157.332 53.238L159.163 54.042C161.533 48.644 162.704 42.4225 162.704 35.4H160.704ZM157.334 53.2339C155.098 58.2648 151.915 62.1776 147.794 65.0076L148.926 66.6564C153.38 63.5984 156.789 59.3832 159.161 54.0461L157.334 53.2339ZM147.802 65.0019C143.703 67.755 138.784 69.152 132.999 69.152V71.152C139.119 71.152 144.44 69.669 148.917 66.6621L147.802 65.0019ZM132.999 64.048C137.102 64.048 140.794 62.9004 144.042 60.6L142.885 58.968C139.989 61.0196 136.705 62.048 132.999 62.048V64.048ZM144.045 60.5977C147.353 58.2346 149.892 54.9084 151.681 50.6687L149.838 49.8913C148.171 53.8436 145.846 56.8534 142.882 58.9703L144.045 60.5977ZM151.678 50.6756C153.536 46.3617 154.447 41.2605 154.447 35.4H152.447C152.447 41.0595 151.567 45.8783 149.841 49.8844L151.678 50.6756ZM154.447 35.4C154.447 29.5402 153.536 24.4684 151.676 20.2152L149.843 21.0168C151.567 24.9556 152.447 29.7398 152.447 35.4H154.447ZM151.681 20.2273C149.892 15.9859 147.35 12.6873 144.034 10.3864L142.893 12.0296C145.849 14.0807 148.171 17.0541 149.838 21.0047L151.681 20.2273ZM144.053 10.4C140.805 8.03168 137.109 6.848 132.999 6.848V8.848C136.698 8.848 139.978 9.90431 142.874 12.016L144.053 10.4ZM132.999 6.848C128.83 6.848 125.101 8.02953 121.85 10.4L123.029 12.016C125.922 9.90646 129.233 8.848 132.999 8.848V6.848ZM121.861 10.392C118.615 12.6913 116.078 15.9841 114.227 20.2152L116.06 21.0168C117.793 17.0559 120.12 14.0767 123.018 12.024L121.861 10.392ZM114.227 20.2152C112.367 24.4684 111.455 29.5402 111.455 35.4H113.455C113.455 29.7398 114.336 24.9556 116.06 21.0168L114.227 20.2152ZM111.455 35.4C111.455 41.2605 112.367 46.3617 114.225 50.6756L116.062 49.8844C114.336 45.8783 113.455 41.0595 113.455 35.4H111.455ZM114.227 50.6808C116.078 54.9103 118.612 58.2306 121.85 60.592L123.029 58.976C120.123 56.8574 117.793 53.8417 116.06 49.8792L114.227 50.6808ZM121.861 60.6C125.112 62.9024 128.836 64.048 132.999 64.048V62.048C129.227 62.048 125.911 61.0176 123.018 58.968L121.861 60.6Z" fill="#FF9141"/>
</svg>
