<svg width="211" height="82" viewBox="0 0 211 82" fill="none" xmlns="http://www.w3.org/2000/svg">
<path d="M7.15229 26.4443L6.18548 26.6998L6.38224 27.4443H7.15229V26.4443ZM0.492285 1.24433V0.244334H-0.806335L-0.47452 1.49985L0.492285 1.24433ZM5.42429 1.24433L6.39964 1.0237L6.22334 0.244334H5.42429V1.24433ZM9.96029 21.2963L8.98493 21.517L10.9268 21.5531L9.96029 21.2963ZM15.2883 1.24433V0.244334H14.5193L14.3218 0.987536L15.2883 1.24433ZM20.3643 1.24433L21.3325 0.994036L21.1386 0.244334H20.3643V1.24433ZM25.5483 21.2963L24.5801 21.5466L26.5236 21.517L25.5483 21.2963ZM30.0843 1.24433V0.244334H29.2852L29.1089 1.0237L30.0843 1.24433ZM35.0523 1.24433L36.0174 1.50628L36.3599 0.244334H35.0523V1.24433ZM28.2123 26.4443V27.4443H28.977L29.1774 26.7063L28.2123 26.4443ZM22.7403 26.4443L21.7743 26.703L21.9729 27.4443H22.7403V26.4443ZM17.7363 7.76033L18.7022 7.50163L17.75 3.94604L16.7722 7.4947L17.7363 7.76033ZM12.5883 26.4443V27.4443H13.35L13.5524 26.71L12.5883 26.4443ZM8.11909 26.1888L1.45909 0.988821L-0.47452 1.49985L6.18548 26.6998L8.11909 26.1888ZM0.492285 2.24433H5.42429V0.244334H0.492285V2.24433ZM4.44893 1.46497L8.98493 21.517L10.9356 21.0757L6.39964 1.0237L4.44893 1.46497ZM10.9268 21.5531L16.2548 1.50113L14.3218 0.987536L8.99382 21.0395L10.9268 21.5531ZM15.2883 2.24433H20.3643V0.244334H15.2883V2.24433ZM19.3961 1.49463L24.5801 21.5466L26.5165 21.046L21.3325 0.994036L19.3961 1.49463ZM26.5236 21.517L31.0596 1.46497L29.1089 1.0237L24.5729 21.0757L26.5236 21.517ZM30.0843 2.24433H35.0523V0.244334H30.0843V2.24433ZM34.0872 0.982384L27.2472 26.1824L29.1774 26.7063L36.0174 1.50628L34.0872 0.982384ZM28.2123 25.4443H22.7403V27.4443H28.2123V25.4443ZM23.7062 26.1856L18.7022 7.50163L16.7703 8.01904L21.7743 26.703L23.7062 26.1856ZM16.7722 7.4947L11.6242 26.1787L13.5524 26.71L18.7004 8.02597L16.7722 7.4947ZM12.5883 25.4443H7.15229V27.4443H12.5883V25.4443ZM40.2734 25.7243L40.7565 24.8488L40.7565 24.8488L40.2734 25.7243ZM36.9614 12.7283L36.0851 12.2464L36.0791 12.2577L36.9614 12.7283ZM40.2014 9.38033L40.7025 10.2458L40.7071 10.243L40.2014 9.38033ZM49.7414 9.30834L49.2453 10.1766L49.2453 10.1766L49.7414 9.30834ZM52.8734 12.4763L51.9985 12.9607L52.0037 12.97L52.0091 12.9792L52.8734 12.4763ZM53.9894 17.7323L52.9929 17.6493L52.9894 17.6907V17.7323H53.9894ZM53.9534 18.6323V19.6323H54.8794L54.9505 18.709L53.9534 18.6323ZM40.3814 18.6323V17.6323H39.3101L39.3838 18.7011L40.3814 18.6323ZM41.8214 21.9083L41.1456 22.6456L41.1558 22.6546L41.8214 21.9083ZM47.3654 22.4843L47.9127 23.3213L47.9201 23.3164L47.3654 22.4843ZM48.8054 20.8283V19.8283H48.1672L47.8984 20.4072L48.8054 20.8283ZM53.4854 20.8283L54.4438 21.1138L54.8267 19.8283H53.4854V20.8283ZM51.7934 23.9243L51.03 23.2784L51.0285 23.2802L51.7934 23.9243ZM48.9134 26.0843L48.4967 25.1752L48.4895 25.1786L48.9134 26.0843ZM42.1094 12.8723L42.6949 13.683L42.7022 13.6777L42.7094 13.6723L42.1094 12.8723ZM40.4534 15.7523L39.4701 15.5702L39.2512 16.7523H40.4534V15.7523ZM49.3454 15.7523V16.7523H50.4085L50.3435 15.6912L49.3454 15.7523ZM48.0494 12.9443L48.7095 12.1932L48.7095 12.1932L48.0494 12.9443ZM45.0614 25.8763C43.4077 25.8763 41.9819 25.5248 40.7565 24.8488L39.7903 26.5999C41.3489 27.4598 43.1151 27.8763 45.0614 27.8763V25.8763ZM40.7565 24.8488C39.5271 24.1705 38.5682 23.2229 37.8666 21.9898L36.1282 22.9789C37.0107 24.5298 38.2357 25.7422 39.7903 26.5999L40.7565 24.8488ZM37.8666 21.9898C37.1717 20.7684 36.8094 19.3354 36.8094 17.6603H34.8094C34.8094 19.6333 35.2392 21.4162 36.1282 22.9789L37.8666 21.9898ZM36.8094 17.6603C36.8094 15.9545 37.1627 14.4759 37.8438 13.1989L36.0791 12.2577C35.2241 13.8608 34.8094 15.6702 34.8094 17.6603H36.8094ZM37.8376 13.2103C38.5455 11.9232 39.4985 10.9428 40.7024 10.2458L39.7004 8.51491C38.1683 9.4019 36.9613 10.6534 36.0852 12.2464L37.8376 13.2103ZM40.7071 10.243C41.9227 9.53048 43.3744 9.15634 45.0974 9.15634V7.15634C43.0765 7.15634 41.2642 7.59819 39.6957 8.51764L40.7071 10.243ZM45.0974 9.15634C46.6987 9.15634 48.0714 9.50581 49.2453 10.1766L50.2375 8.44009C48.7234 7.57486 47.0001 7.15634 45.0974 7.15634V9.15634ZM49.2453 10.1766C50.4315 10.8544 51.3439 11.7782 51.9985 12.9607L53.7483 11.992C52.9149 10.4865 51.7393 9.29823 50.2375 8.44009L49.2453 10.1766ZM52.0091 12.9792C52.6821 14.136 53.0254 15.4364 53.0254 16.9043H55.0254C55.0254 15.1082 54.6007 13.4567 53.7378 11.9734L52.0091 12.9792ZM53.0254 16.9043C53.0254 17.1382 53.0148 17.3864 52.9929 17.6493L54.986 17.8154C55.012 17.5023 55.0254 17.1985 55.0254 16.9043H53.0254ZM52.9894 17.7323C52.9894 17.9927 52.9786 18.267 52.9564 18.5556L54.9505 18.709C54.9763 18.3737 54.9894 18.048 54.9894 17.7323H52.9894ZM53.9534 17.6323H40.3814V19.6323H53.9534V17.6323ZM39.3838 18.7011C39.4938 20.2971 40.0575 21.648 41.1457 22.6455L42.4971 21.1712C41.8573 20.5847 41.461 19.7516 41.379 18.5635L39.3838 18.7011ZM41.1558 22.6546C42.2366 23.6186 43.545 24.0963 45.0254 24.0963V22.0963C44.0098 22.0963 43.1823 21.7821 42.487 21.162L41.1558 22.6546ZM45.0254 24.0963C46.1062 24.0963 47.0889 23.8599 47.9127 23.3213L46.8182 21.6474C46.3939 21.9248 45.8166 22.0963 45.0254 22.0963V24.0963ZM47.9201 23.3164C48.7129 22.7879 49.319 22.0969 49.7124 21.2494L47.8984 20.4072C47.6679 20.9038 47.3139 21.3168 46.8107 21.6523L47.9201 23.3164ZM48.8054 21.8283H53.4854V19.8283H48.8054V21.8283ZM52.527 20.5429C52.2321 21.533 51.7366 22.4433 51.03 23.2784L52.5568 24.5703C53.4342 23.5334 54.0667 22.3797 54.4438 21.1138L52.527 20.5429ZM51.0285 23.2802C50.3615 24.0722 49.5232 24.7048 48.4968 25.1753L49.3301 26.9934C50.6077 26.4078 51.6893 25.6004 52.5583 24.5685L51.0285 23.2802ZM48.4895 25.1786C47.5134 25.6355 46.3777 25.8763 45.0614 25.8763V27.8763C46.6251 27.8763 48.0574 27.5891 49.3374 26.99L48.4895 25.1786ZM45.0974 10.9003C43.7633 10.9003 42.5546 11.2885 41.5094 12.0723L42.7094 13.6723C43.3923 13.1602 44.1755 12.9003 45.0974 12.9003V10.9003ZM41.5239 12.0617C40.4047 12.87 39.7453 14.0844 39.4701 15.5702L41.4367 15.9344C41.6415 14.8283 42.0861 14.1227 42.6949 13.683L41.5239 12.0617ZM40.4534 16.7523H49.3454V14.7523H40.4534V16.7523ZM50.3435 15.6912C50.2574 14.2836 49.7259 13.0864 48.7095 12.1932L47.3893 13.6955C47.9569 14.1943 48.2895 14.8691 48.3473 15.8134L50.3435 15.6912ZM48.7095 12.1932C47.7136 11.318 46.4863 10.9003 45.0974 10.9003V12.9003C46.0605 12.9003 46.8012 13.1787 47.3893 13.6955L48.7095 12.1932ZM62.509 23.9963L63.3343 23.4317L62.0045 21.488L61.5296 23.7947L62.509 23.9963ZM62.005 26.4443V27.4443H62.8201L62.9845 26.646L62.005 26.4443ZM57.901 26.4443H56.901V27.4443H57.901V26.4443ZM57.901 0.524335V-0.475665H56.901V0.524335H57.901ZM62.509 0.524335H63.509V-0.475665H62.509V0.524335ZM62.509 11.1443H61.509V14.2195L63.3178 11.7325L62.509 11.1443ZM64.777 9.05634L64.247 8.20828L64.2374 8.21446L64.777 9.05634ZM72.985 9.38033L73.5109 8.52974L73.5109 8.52974L72.985 9.38033ZM76.117 12.7283L75.238 13.2051L75.238 13.2051L76.117 12.7283ZM76.117 22.3763L76.9926 22.8594L76.9961 22.8531L76.117 22.3763ZM72.985 25.6883L73.4996 26.5459L73.5109 26.5389L72.985 25.6883ZM71.149 21.3683L71.8648 22.0667L71.8648 22.0667L71.149 21.3683ZM71.149 13.7003L71.8732 13.0107L71.8732 13.0107L71.149 13.7003ZM63.841 13.7003L63.1169 13.0107L63.1165 13.0111L63.841 13.7003ZM63.841 21.3683L63.1082 22.0488L63.1166 22.0578L63.1253 22.0667L63.841 21.3683ZM68.485 25.8763C67.2666 25.8763 66.2491 25.6483 65.4042 25.2259L64.5098 27.0148C65.681 27.6003 67.0154 27.8763 68.485 27.8763V25.8763ZM65.4042 25.2259C64.5451 24.7963 63.8604 24.2005 63.3343 23.4317L61.6837 24.561C62.4057 25.6162 63.353 26.4363 64.5098 27.0148L65.4042 25.2259ZM61.5296 23.7947L61.0256 26.2427L62.9845 26.646L63.4885 24.198L61.5296 23.7947ZM62.005 25.4443H57.901V27.4443H62.005V25.4443ZM58.901 26.4443V0.524335H56.901V26.4443H58.901ZM57.901 1.52433H62.509V-0.475665H57.901V1.52433ZM61.509 0.524335V11.1443H63.509V0.524335H61.509ZM63.3178 11.7325C63.8114 11.0537 64.4713 10.4401 65.3167 9.89821L64.2374 8.21446C63.2107 8.87256 62.3586 9.65094 61.7003 10.5562L63.3178 11.7325ZM65.307 9.90433C66.0631 9.43176 67.0992 9.15634 68.485 9.15634V7.15634C66.8468 7.15634 65.4109 7.48091 64.247 8.20834L65.307 9.90433ZM68.485 9.15634C69.9952 9.15634 71.3102 9.52065 72.4592 10.2309L73.5109 8.52974C72.0198 7.60802 70.3349 7.15634 68.485 7.15634V9.15634ZM72.4592 10.2309C73.6251 10.9517 74.5498 11.9363 75.238 13.2051L76.9961 12.2516C76.1482 10.6884 74.9849 9.44099 73.5109 8.52974L72.4592 10.2309ZM75.238 13.2051C75.9176 14.4582 76.269 15.899 76.269 17.5523H78.269C78.269 15.6057 77.8524 13.8305 76.9961 12.2516L75.238 13.2051ZM76.269 17.5523C76.269 19.2057 75.9176 20.6465 75.238 21.8996L76.9961 22.8531C77.8524 21.2742 78.269 19.499 78.269 17.5523H76.269ZM75.2415 21.8933C74.5544 23.1386 73.6293 24.1144 72.4592 24.8377L73.5109 26.5389C74.9808 25.6302 76.1437 24.3981 76.9926 22.8594L75.2415 21.8933ZM72.4705 24.8308C71.32 25.5212 70.0009 25.8763 68.485 25.8763V27.8763C70.3292 27.8763 72.0101 27.4395 73.4995 26.5458L72.4705 24.8308ZM67.513 23.8443C69.2271 23.8443 70.7034 23.2571 71.8648 22.0667L70.4333 20.67C69.6746 21.4476 68.727 21.8443 67.513 21.8443V23.8443ZM71.8648 22.0667C73.032 20.8702 73.589 19.3351 73.589 17.5523H71.589C71.589 18.8895 71.186 19.8984 70.4333 20.67L71.8648 22.0667ZM73.589 17.5523C73.589 15.7692 73.0322 14.2276 71.8732 13.0107L70.4249 14.39C71.1859 15.1891 71.589 16.2155 71.589 17.5523H73.589ZM71.8732 13.0107C70.7138 11.7933 69.2348 11.1883 67.513 11.1883V13.1883C68.7192 13.1883 69.6643 13.5914 70.4249 14.39L71.8732 13.0107ZM67.513 11.1883C65.7724 11.1883 64.2797 11.7897 63.1169 13.0107L64.5652 14.39C65.3224 13.5949 66.2776 13.1883 67.513 13.1883V11.1883ZM63.1165 13.0111C61.9772 14.2088 61.437 15.7408 61.437 17.5163H63.437C63.437 16.1718 63.8328 15.1599 64.5656 14.3895L63.1165 13.0111ZM61.437 17.5163C61.437 19.2923 61.9772 20.8307 63.1082 22.0488L64.5738 20.6879C63.8329 19.8899 63.437 18.8604 63.437 17.5163H61.437ZM63.1253 22.0667C64.29 23.2605 65.7801 23.8443 67.513 23.8443V21.8443C66.2699 21.8443 65.3121 21.4442 64.5568 20.67L63.1253 22.0667ZM2.04029 73.4443H1.04029V74.4443H2.04029V73.4443ZM2.04029 48.2443V47.2443H1.04029V48.2443H2.04029ZM18.4923 48.2443H19.4923V47.2443H18.4923V48.2443ZM18.4923 51.9523V52.9523H19.4923V51.9523H18.4923ZM6.64829 51.9523V50.9523H5.64829V51.9523H6.64829ZM6.64829 58.8643H5.64829V59.8643H6.64829V58.8643ZM17.4123 58.8643H18.4123V57.8643H17.4123V58.8643ZM17.4123 62.4643V63.4643H18.4123V62.4643H17.4123ZM6.64829 62.4643V61.4643H5.64829V62.4643H6.64829ZM6.64829 69.7363H5.64829V70.7363H6.64829V69.7363ZM18.4923 69.7363H19.4923V68.7363H18.4923V69.7363ZM18.4923 73.4443V74.4443H19.4923V73.4443H18.4923ZM3.04029 73.4443V48.2443H1.04029V73.4443H3.04029ZM2.04029 49.2443H18.4923V47.2443H2.04029V49.2443ZM17.4923 48.2443V51.9523H19.4923V48.2443H17.4923ZM18.4923 50.9523H6.64829V52.9523H18.4923V50.9523ZM5.64829 51.9523V58.8643H7.64829V51.9523H5.64829ZM6.64829 59.8643H17.4123V57.8643H6.64829V59.8643ZM16.4123 58.8643V62.4643H18.4123V58.8643H16.4123ZM17.4123 61.4643H6.64829V63.4643H17.4123V61.4643ZM5.64829 62.4643V69.7363H7.64829V62.4643H5.64829ZM6.64829 70.7363H18.4923V68.7363H6.64829V70.7363ZM17.4923 69.7363V73.4443H19.4923V69.7363H17.4923ZM18.4923 72.4443H2.04029V74.4443H18.4923V72.4443ZM22.7448 73.4443H21.7448V74.4443H22.7448V73.4443ZM22.7448 55.5883V54.5883H21.7448V55.5883H22.7448ZM26.8128 55.5883L27.8058 55.4701L27.7008 54.5883H26.8128V55.5883ZM27.1728 58.6123L26.1798 58.7305L26.5618 61.9397L28.059 59.0756L27.1728 58.6123ZM29.5488 56.0923L29.04 55.2314L29.0314 55.2366L29.5488 56.0923ZM38.4048 57.2443L37.6538 57.9047L37.6538 57.9047L38.4048 57.2443ZM40.2408 73.4443V74.4443H41.2408V73.4443H40.2408ZM35.6328 73.4443H34.6328V74.4443H35.6328V73.4443ZM34.6968 60.2683L35.4911 59.6609L35.4911 59.6609L34.6968 60.2683ZM28.5768 60.4123L27.8412 59.7349L27.8364 59.7402L27.8315 59.7455L28.5768 60.4123ZM27.3528 73.4443V74.4443H28.3528V73.4443H27.3528ZM23.7448 73.4443V55.5883H21.7448V73.4443H23.7448ZM22.7448 56.5883H26.8128V54.5883H22.7448V56.5883ZM25.8198 55.7065L26.1798 58.7305L28.1658 58.4941L27.8058 55.4701L25.8198 55.7065ZM28.059 59.0756C28.5252 58.1837 29.1887 57.4786 30.0662 56.9481L29.0314 55.2366C27.8448 55.954 26.9244 56.9289 26.2866 58.1491L28.059 59.0756ZM30.0575 56.9533C30.937 56.4336 31.9917 56.1563 33.2568 56.1563V54.1563C31.6899 54.1563 30.2726 54.5031 29.0401 55.2314L30.0575 56.9533ZM33.2568 56.1563C35.2375 56.1563 36.6561 56.77 37.6538 57.9047L39.1558 56.584C37.7055 54.9346 35.6921 54.1563 33.2568 54.1563V56.1563ZM37.6538 57.9047C38.6582 59.047 39.2408 60.8119 39.2408 63.3643H41.2408C41.2408 60.5408 40.5993 58.2257 39.1558 56.584L37.6538 57.9047ZM39.2408 63.3643V73.4443H41.2408V63.3643H39.2408ZM40.2408 72.4443H35.6328V74.4443H40.2408V72.4443ZM36.6328 73.4443V63.7963H34.6328V73.4443H36.6328ZM36.6328 63.7963C36.6328 62.1445 36.3002 60.7188 35.4911 59.6609L33.9024 60.8758C34.3414 61.4498 34.6328 62.3762 34.6328 63.7963H36.6328ZM35.4911 59.6609C34.6258 58.5293 33.3151 58.0443 31.7808 58.0443V60.0443C32.8865 60.0443 33.5197 60.3754 33.9024 60.8758L35.4911 59.6609ZM31.7808 58.0443C30.2196 58.0443 28.88 58.607 27.8412 59.7349L29.3123 61.0898C29.9535 60.3937 30.75 60.0443 31.7808 60.0443V58.0443ZM27.8315 59.7455C26.8033 60.8948 26.3528 62.4337 26.3528 64.2283H28.3528C28.3528 62.759 28.7183 61.7539 29.322 61.0791L27.8315 59.7455ZM26.3528 64.2283V73.4443H28.3528V64.2283H26.3528ZM27.3528 72.4443H22.7448V74.4443H27.3528V72.4443ZM48.1031 72.0763L48.7319 71.2987L48.7319 71.2987L48.1031 72.0763ZM46.4111 59.4403H47.4111V58.4403H46.4111V59.4403ZM43.3511 59.4403H42.3511V60.4403H43.3511V59.4403ZM43.3511 55.5883V54.5883H42.3511V55.5883H43.3511ZM46.4111 55.5883V56.5883H47.3047L47.4048 55.7004L46.4111 55.5883ZM46.9511 50.8003V49.8003H46.0576L45.9574 50.6883L46.9511 50.8003ZM51.0191 50.8003H52.0191V49.8003H51.0191V50.8003ZM51.0191 55.5883H50.0191V56.5883H51.0191V55.5883ZM55.8431 55.5883H56.8431V54.5883H55.8431V55.5883ZM55.8431 59.4403V60.4403H56.8431V59.4403H55.8431ZM51.0191 59.4403V58.4403H50.0191V59.4403H51.0191ZM51.5591 69.0523L50.8768 69.7834L50.9019 69.8068L50.9285 69.8284L51.5591 69.0523ZM55.7351 69.5203H56.7351V68.5203H55.7351V69.5203ZM55.7351 73.4443V74.4443H56.7351V73.4443H55.7351ZM52.6031 72.4443C50.8926 72.4443 49.6357 72.0295 48.7319 71.2987L47.4744 72.854C48.8265 73.9472 50.5697 74.4443 52.6031 74.4443V72.4443ZM48.7319 71.2987C47.9506 70.6671 47.4111 69.424 47.4111 67.2163H45.4111C45.4111 69.6646 45.9996 71.6616 47.4744 72.854L48.7319 71.2987ZM47.4111 67.2163V59.4403H45.4111V67.2163H47.4111ZM46.4111 58.4403H43.3511V60.4403H46.4111V58.4403ZM44.3511 59.4403V55.5883H42.3511V59.4403H44.3511ZM43.3511 56.5883H46.4111V54.5883H43.3511V56.5883ZM47.4048 55.7004L47.9448 50.9124L45.9574 50.6883L45.4174 55.4763L47.4048 55.7004ZM46.9511 51.8003H51.0191V49.8003H46.9511V51.8003ZM50.0191 50.8003V55.5883H52.0191V50.8003H50.0191ZM51.0191 56.5883H55.8431V54.5883H51.0191V56.5883ZM54.8431 55.5883V59.4403H56.8431V55.5883H54.8431ZM55.8431 58.4403H51.0191V60.4403H55.8431V58.4403ZM50.0191 59.4403V67.2523H52.0191V59.4403H50.0191ZM50.0191 67.2523C50.0191 68.1982 50.2057 69.157 50.8768 69.7834L52.2414 68.3213C52.1926 68.2757 52.0191 68.0344 52.0191 67.2523H50.0191ZM50.9285 69.8284C51.5888 70.3649 52.5315 70.5203 53.5031 70.5203V68.5203C52.6507 68.5203 52.2975 68.3638 52.1897 68.2762L50.9285 69.8284ZM53.5031 70.5203H55.7351V68.5203H53.5031V70.5203ZM54.7351 69.5203V73.4443H56.7351V69.5203H54.7351ZM55.7351 72.4443H52.6031V74.4443H55.7351V72.4443ZM63.2915 73.4443L62.3316 73.7249L62.542 74.4443H63.2915V73.4443ZM58.0715 55.5883V54.5883H56.7373L57.1116 55.8689L58.0715 55.5883ZM62.6435 55.5883L63.6157 55.3541L63.4312 54.5883H62.6435V55.5883ZM65.7395 68.4403L64.7673 68.6745L65.6666 72.4078L66.7024 68.7101L65.7395 68.4403ZM69.3395 55.5883V54.5883H68.5811L68.3765 55.3186L69.3395 55.5883ZM74.4515 55.5883L75.4144 55.3186L75.2099 54.5883H74.4515V55.5883ZM78.0515 68.4403L77.0885 68.7101L78.1187 72.3879L79.023 68.6771L78.0515 68.4403ZM81.1835 55.5883V54.5883H80.3979L80.2119 55.3516L81.1835 55.5883ZM85.7555 55.5883L86.7148 55.8707L87.0923 54.5883H85.7555V55.5883ZM80.4995 73.4443V74.4443H81.2475L81.4588 73.7267L80.4995 73.4443ZM75.7115 73.4443L74.7499 73.7191L74.9572 74.4443H75.7115V73.4443ZM71.8955 60.0883L72.857 59.8136L71.8955 56.4483L70.9339 59.8136L71.8955 60.0883ZM68.0795 73.4443V74.4443H68.8338L69.041 73.7191L68.0795 73.4443ZM64.2513 73.1637L59.0313 55.3077L57.1116 55.8689L62.3316 73.7249L64.2513 73.1637ZM58.0715 56.5883H62.6435V54.5883H58.0715V56.5883ZM61.6713 55.8225L64.7673 68.6745L66.7117 68.2061L63.6157 55.3541L61.6713 55.8225ZM66.7024 68.7101L70.3024 55.8581L68.3765 55.3186L64.7765 68.1706L66.7024 68.7101ZM69.3395 56.5883H74.4515V54.5883H69.3395V56.5883ZM73.4885 55.8581L77.0885 68.7101L79.0144 68.1706L75.4144 55.3186L73.4885 55.8581ZM79.023 68.6771L82.155 55.8251L80.2119 55.3516L77.0799 68.2036L79.023 68.6771ZM81.1835 56.5883H85.7555V54.5883H81.1835V56.5883ZM84.7962 55.306L79.5402 73.162L81.4588 73.7267L86.7148 55.8707L84.7962 55.306ZM80.4995 72.4443H75.7115V74.4443H80.4995V72.4443ZM76.673 73.1696L72.857 59.8136L70.9339 60.3631L74.7499 73.7191L76.673 73.1696ZM70.9339 59.8136L67.1179 73.1696L69.041 73.7191L72.857 60.3631L70.9339 59.8136ZM68.0795 72.4443H63.2915V74.4443H68.0795V72.4443ZM89.0588 52.0603L88.3683 52.7837L88.3763 52.7913L88.3845 52.7988L89.0588 52.0603ZM89.0588 48.2803L89.7314 49.0203L89.733 49.0188L89.0588 48.2803ZM93.1988 48.2803L92.5083 49.0037L92.5251 49.0197L92.5426 49.0349L93.1988 48.2803ZM93.1988 52.0603L92.5245 51.3218L92.5163 51.3293L92.5083 51.337L93.1988 52.0603ZM88.8428 73.4443H87.8428V74.4443H88.8428V73.4443ZM88.8428 55.5883V54.5883H87.8428V55.5883H88.8428ZM93.4508 55.5883H94.4508V54.5883H93.4508V55.5883ZM93.4508 73.4443V74.4443H94.4508V73.4443H93.4508ZM91.1468 51.8163C90.523 51.8163 90.0776 51.6365 89.733 51.3218L88.3845 52.7988C89.1439 53.4922 90.0905 53.8163 91.1468 53.8163V51.8163ZM89.7492 51.337C89.4302 51.0324 89.2668 50.663 89.2668 50.1523H87.2668C87.2668 51.1776 87.6313 52.0802 88.3683 52.7837L89.7492 51.337ZM89.2668 50.1523C89.2668 49.642 89.4291 49.2951 89.7314 49.0203L88.3861 47.5404C87.6324 48.2256 87.2668 49.1267 87.2668 50.1523H89.2668ZM89.733 49.0188C90.0776 48.7042 90.523 48.5243 91.1468 48.5243V46.5243C90.0905 46.5243 89.1439 46.8485 88.3845 47.5418L89.733 49.0188ZM91.1468 48.5243C91.7713 48.5243 92.1945 48.7041 92.5083 49.0037L93.8892 47.557C93.1471 46.8485 92.2022 46.5243 91.1468 46.5243V48.5243ZM92.5426 49.0349C92.8641 49.3145 93.0268 49.6573 93.0268 50.1523H95.0268C95.0268 49.1113 94.6375 48.2062 93.8549 47.5257L92.5426 49.0349ZM93.0268 50.1523C93.0268 50.6481 92.8626 51.0131 92.5245 51.3218L93.873 52.7988C94.6389 52.0995 95.0268 51.1926 95.0268 50.1523H93.0268ZM92.5083 51.337C92.1945 51.6365 91.7713 51.8163 91.1468 51.8163V53.8163C92.2022 53.8163 93.1471 53.4921 93.8892 52.7837L92.5083 51.337ZM89.8428 73.4443V55.5883H87.8428V73.4443H89.8428ZM88.8428 56.5883H93.4508V54.5883H88.8428V56.5883ZM92.4508 55.5883V73.4443H94.4508V55.5883H92.4508ZM93.4508 72.4443H88.8428V74.4443H93.4508V72.4443ZM102.184 72.6883L102.679 71.8192L102.679 71.8192L102.184 72.6883ZM98.8724 69.3763L97.9996 69.8645L98.006 69.8756L98.8724 69.3763ZM98.8724 59.6563L98.0059 59.157L97.9997 59.1682L98.8724 59.6563ZM102.184 56.3443L102.679 57.2135L102.679 57.2135L102.184 56.3443ZM112.768 56.9563L112.159 57.749L112.166 57.7549L112.768 56.9563ZM115.756 61.8523V62.8523H116.984L116.736 61.6497L115.756 61.8523ZM110.896 61.8523L109.933 62.12L110.136 62.8523H110.896V61.8523ZM109.456 59.8363L108.87 60.6463L108.886 60.6576L108.902 60.6684L109.456 59.8363ZM103.732 60.5203L102.998 59.8413L102.998 59.8413L103.732 60.5203ZM103.732 68.5123L104.467 67.8333L104.467 67.8333L103.732 68.5123ZM109.456 69.2323L108.902 68.4003L108.895 68.4047L108.889 68.4091L109.456 69.2323ZM110.896 67.1803V66.1803H110.131L109.931 66.9194L110.896 67.1803ZM115.756 67.1803L116.734 67.3899L116.993 66.1803H115.756V67.1803ZM112.768 72.0403L112.151 71.2536L112.151 71.2536L112.768 72.0403ZM107.008 72.8763C105.333 72.8763 103.9 72.5141 102.679 71.8192L101.69 73.5575C103.253 74.4466 105.035 74.8763 107.008 74.8763V72.8763ZM102.679 71.8192C101.445 71.117 100.468 70.1422 99.7388 68.877L98.006 69.8756C98.9089 71.4425 100.14 72.6756 101.69 73.5575L102.679 71.8192ZM99.7452 68.8882C99.0466 67.6391 98.6844 66.191 98.6844 64.5163H96.6844C96.6844 66.4896 97.1143 68.2815 97.9997 69.8645L99.7452 68.8882ZM98.6844 64.5163C98.6844 62.8416 99.0466 61.3935 99.7452 60.1445L97.9997 59.1682C97.1143 60.7511 96.6844 62.543 96.6844 64.5163H98.6844ZM99.7388 60.1556C100.468 58.8905 101.445 57.9156 102.679 57.2135L101.69 55.4752C100.14 56.357 98.9089 57.5902 98.006 59.157L99.7388 60.1556ZM102.679 57.2135C103.9 56.5186 105.333 56.1563 107.008 56.1563V54.1563C105.035 54.1563 103.253 54.5861 101.69 55.4752L102.679 57.2135ZM107.008 56.1563C109.104 56.1563 110.8 56.7041 112.159 57.749L113.378 56.1637C111.616 54.8086 109.473 54.1563 107.008 54.1563V56.1563ZM112.166 57.7549C113.514 58.7708 114.39 60.1813 114.777 62.0549L116.736 61.6497C116.259 59.3473 115.143 57.4939 113.37 56.1578L112.166 57.7549ZM115.756 60.8523H110.896V62.8523H115.756V60.8523ZM111.86 61.5847C111.558 60.4988 110.938 59.6225 110.011 59.0043L108.902 60.6684C109.414 61.0102 109.755 61.4779 109.933 62.12L111.86 61.5847ZM110.043 59.0264C109.157 58.3845 108.117 58.0803 106.972 58.0803V60.0803C107.748 60.0803 108.364 60.2802 108.87 60.6463L110.043 59.0264ZM106.972 58.0803C105.413 58.0803 104.07 58.6832 102.998 59.8413L104.467 61.1994C105.171 60.4375 105.988 60.0803 106.972 60.0803V58.0803ZM102.998 59.8413C101.893 61.0366 101.4 62.6391 101.4 64.5163H103.4C103.4 62.9856 103.796 61.924 104.467 61.1994L102.998 59.8413ZM101.4 64.5163C101.4 66.3936 101.893 67.996 102.998 69.1914L104.467 67.8333C103.796 67.1086 103.4 66.0471 103.4 64.5163H101.4ZM102.998 69.1914C104.07 70.3495 105.413 70.9523 106.972 70.9523V68.9523C105.988 68.9523 105.171 68.5952 104.467 67.8333L102.998 69.1914ZM106.972 70.9523C108.107 70.9523 109.139 70.6658 110.024 70.0555L108.889 68.4091C108.382 68.7588 107.758 68.9523 106.972 68.9523V70.9523ZM110.011 70.0644C110.946 69.4411 111.563 68.5471 111.862 67.4412L109.931 66.9194C109.75 67.5896 109.407 68.0636 108.902 68.4003L110.011 70.0644ZM110.896 68.1803H115.756V66.1803H110.896V68.1803ZM114.779 66.9708C114.393 68.7681 113.519 70.1801 112.151 71.2536L113.386 72.8271C115.137 71.4526 116.255 69.6246 116.734 67.3899L114.779 66.9708ZM112.151 71.2536C110.793 72.3192 109.1 72.8763 107.008 72.8763V74.8763C109.477 74.8763 111.624 74.2095 113.386 72.8271L112.151 71.2536ZM119.846 73.4443H118.846V74.4443H119.846V73.4443ZM119.846 47.5243V46.5243H118.846V47.5243H119.846ZM124.454 47.5243H125.454V46.5243H124.454V47.5243ZM124.454 62.8243H123.454V65.4844L125.207 63.4831L124.454 62.8243ZM130.79 55.5883V54.5883H130.337L130.038 54.9296L130.79 55.5883ZM136.262 55.5883L137.006 56.2566L138.505 54.5883H136.262V55.5883ZM128.954 63.7243L128.21 63.0561L127.618 63.7153L128.201 64.3824L128.954 63.7243ZM137.45 73.4443V74.4443H139.653L138.203 72.7862L137.45 73.4443ZM131.69 73.4443L130.912 74.0725L131.212 74.4443H131.69V73.4443ZM124.454 64.4803L125.232 63.8522L123.454 61.6495V64.4803H124.454ZM124.454 73.4443V74.4443H125.454V73.4443H124.454ZM120.846 73.4443V47.5243H118.846V73.4443H120.846ZM119.846 48.5243H124.454V46.5243H119.846V48.5243ZM123.454 47.5243V62.8243H125.454V47.5243H123.454ZM125.207 63.4831L131.543 56.2471L130.038 54.9296L123.702 62.1656L125.207 63.4831ZM130.79 56.5883H136.262V54.5883H130.79V56.5883ZM135.518 54.9201L128.21 63.0561L129.698 64.3926L137.006 56.2566L135.518 54.9201ZM128.201 64.3824L136.697 74.1024L138.203 72.7862L129.707 63.0662L128.201 64.3824ZM137.45 72.4443H131.69V74.4443H137.45V72.4443ZM132.468 72.8162L125.232 63.8522L123.676 65.1085L130.912 74.0725L132.468 72.8162ZM123.454 64.4803V73.4443H125.454V64.4803H123.454ZM124.454 72.4443H119.846V74.4443H124.454V72.4443ZM140.307 73.4443H139.307V74.4443H140.307V73.4443ZM140.307 47.5243V46.5243H139.307V47.5243H140.307ZM144.915 47.5243H145.915V46.5243H144.915V47.5243ZM144.915 73.4443V74.4443H145.915V73.4443H144.915ZM141.307 73.4443V47.5243H139.307V73.4443H141.307ZM140.307 48.5243H144.915V46.5243H140.307V48.5243ZM143.915 47.5243V73.4443H145.915V47.5243H143.915ZM144.915 72.4443H140.307V74.4443H144.915V72.4443ZM151.136 71.7883L150.378 72.4413L150.385 72.4487L151.136 71.7883ZM149.336 55.5883V54.5883H148.336V55.5883H149.336ZM153.908 55.5883H154.908V54.5883H153.908V55.5883ZM154.844 68.7643L154.049 69.3718L154.049 69.3718L154.844 68.7643ZM160.928 68.6203L160.192 67.9429L160.187 67.9482L160.182 67.9535L160.928 68.6203ZM162.188 55.5883V54.5883H161.188V55.5883H162.188ZM166.796 55.5883H167.796V54.5883H166.796V55.5883ZM166.796 73.4443V74.4443H167.796V73.4443H166.796ZM162.728 73.4443L161.735 73.5625L161.84 74.4443H162.728V73.4443ZM162.368 70.4203L163.361 70.3021L162.979 67.0929L161.481 69.9571L162.368 70.4203ZM159.956 72.9403L159.447 72.0794L159.438 72.0846L159.956 72.9403ZM156.32 72.8763C154.311 72.8763 152.882 72.2602 151.887 71.128L150.385 72.4487C151.837 74.1005 153.864 74.8763 156.32 74.8763V72.8763ZM151.893 71.1354C150.908 69.9929 150.336 68.225 150.336 65.6683H148.336C148.336 68.4877 148.963 70.7998 150.378 72.4413L151.893 71.1354ZM150.336 65.6683V55.5883H148.336V65.6683H150.336ZM149.336 56.5883H153.908V54.5883H149.336V56.5883ZM152.908 55.5883V65.2363H154.908V55.5883H152.908ZM152.908 65.2363C152.908 66.8882 153.24 68.3138 154.049 69.3718L155.638 68.1569C155.199 67.5828 154.908 66.6565 154.908 65.2363H152.908ZM154.049 69.3718C154.918 70.5078 156.245 70.9883 157.796 70.9883V68.9883C156.659 68.9883 156.017 68.6528 155.638 68.1569L154.049 69.3718ZM157.796 70.9883C159.339 70.9883 160.659 70.4205 161.673 69.2871L160.182 67.9535C159.564 68.6442 158.796 68.9883 157.796 68.9883V70.9883ZM161.663 69.2978C162.721 68.149 163.188 66.606 163.188 64.8043H161.188C161.188 66.2667 160.814 67.2677 160.192 67.9429L161.663 69.2978ZM163.188 64.8043V55.5883H161.188V64.8043H163.188ZM162.188 56.5883H166.796V54.5883H162.188V56.5883ZM165.796 55.5883V73.4443H167.796V55.5883H165.796ZM166.796 72.4443H162.728V74.4443H166.796V72.4443ZM163.721 73.3261L163.361 70.3021L161.375 70.5385L161.735 73.5625L163.721 73.3261ZM161.481 69.9571C161.018 70.8429 160.348 71.5473 159.447 72.0794L160.464 73.8013C161.676 73.0854 162.613 72.1098 163.254 70.8836L161.481 69.9571ZM159.438 72.0846C158.585 72.6004 157.558 72.8763 156.32 72.8763V74.8763C157.865 74.8763 159.262 74.5282 160.473 73.7961L159.438 72.0846ZM171.526 73.4443H170.526V74.4443H171.526V73.4443ZM171.526 55.5883V54.5883H170.526V55.5883H171.526ZM175.594 55.5883L176.587 55.4701L176.482 54.5883H175.594V55.5883ZM175.954 58.6123L174.961 58.7305L175.343 61.9397L176.84 59.0756L175.954 58.6123ZM178.33 56.0923L177.821 55.2314L177.813 55.2366L178.33 56.0923ZM187.186 57.2443L186.435 57.9047L186.435 57.9047L187.186 57.2443ZM189.022 73.4443V74.4443H190.022V73.4443H189.022ZM184.414 73.4443H183.414V74.4443H184.414V73.4443ZM183.478 60.2683L184.272 59.6609L184.272 59.6609L183.478 60.2683ZM177.358 60.4123L176.622 59.7349L176.618 59.7402L176.613 59.7455L177.358 60.4123ZM176.134 73.4443V74.4443H177.134V73.4443H176.134ZM172.526 73.4443V55.5883H170.526V73.4443H172.526ZM171.526 56.5883H175.594V54.5883H171.526V56.5883ZM174.601 55.7065L174.961 58.7305L176.947 58.4941L176.587 55.4701L174.601 55.7065ZM176.84 59.0756C177.306 58.1837 177.97 57.4786 178.847 56.9481L177.813 55.2366C176.626 55.954 175.706 56.9289 175.068 58.1491L176.84 59.0756ZM178.839 56.9533C179.718 56.4336 180.773 56.1563 182.038 56.1563V54.1563C180.471 54.1563 179.054 54.5031 177.821 55.2314L178.839 56.9533ZM182.038 56.1563C184.019 56.1563 185.437 56.77 186.435 57.9047L187.937 56.584C186.487 54.9346 184.473 54.1563 182.038 54.1563V56.1563ZM186.435 57.9047C187.439 59.047 188.022 60.8119 188.022 63.3643H190.022C190.022 60.5408 189.381 58.2257 187.937 56.584L186.435 57.9047ZM188.022 63.3643V73.4443H190.022V63.3643H188.022ZM189.022 72.4443H184.414V74.4443H189.022V72.4443ZM185.414 73.4443V63.7963H183.414V73.4443H185.414ZM185.414 63.7963C185.414 62.1445 185.081 60.7188 184.272 59.6609L182.684 60.8758C183.123 61.4498 183.414 62.3762 183.414 63.7963H185.414ZM184.272 59.6609C183.407 58.5293 182.096 58.0443 180.562 58.0443V60.0443C181.668 60.0443 182.301 60.3754 182.684 60.8758L184.272 59.6609ZM180.562 58.0443C179.001 58.0443 177.661 58.607 176.622 59.7349L178.094 61.0898C178.735 60.3937 179.531 60.0443 180.562 60.0443V58.0443ZM176.613 59.7455C175.585 60.8948 175.134 62.4337 175.134 64.2283H177.134C177.134 62.759 177.5 61.7539 178.103 61.0791L176.613 59.7455ZM175.134 64.2283V73.4443H177.134V64.2283H175.134ZM176.134 72.4443H171.526V74.4443H176.134V72.4443ZM198.576 67.8283L198.826 66.8601L198.273 66.7173L197.869 67.1212L198.576 67.8283ZM197.244 69.1603L196.537 68.4532L195.58 69.4106L196.776 70.0441L197.244 69.1603ZM198.9 69.7003L198.698 70.6796L198.698 70.6796L198.9 69.7003ZM202.284 70.1323L202.192 71.1281L202.194 71.1282L202.284 70.1323ZM207.468 71.8243L206.823 72.5884L207.468 71.8243ZM208.224 78.5923L207.373 78.0682L207.367 78.0778L208.224 78.5923ZM205.56 80.8963L205.128 79.9948L205.12 79.9983L205.113 80.0019L205.56 80.8963ZM194.796 80.3563L195.321 79.5046L195.311 79.4988L194.796 80.3563ZM194.796 71.9323L195.398 72.7309L196.748 71.7138L195.207 71.0204L194.796 71.9323ZM193.536 71.2483L192.955 72.0621L192.968 72.0714L192.982 72.0804L193.536 71.2483ZM192.636 70.4923H191.636V70.9065L191.929 71.1994L192.636 70.4923ZM192.636 69.6643L191.91 68.9772L191.636 69.2664V69.6643H192.636ZM195.768 66.3523L196.495 67.0394L197.207 66.2861L196.429 65.6014L195.768 66.3523ZM194.544 58.3603L193.691 57.8397L193.686 57.8474L193.681 57.8552L194.544 58.3603ZM197.064 56.0203L196.594 55.138L196.594 55.138L197.064 56.0203ZM203.796 55.5883L203.48 56.537L203.634 56.5883H203.796V55.5883ZM210.564 55.5883H211.564V54.5883H210.564V55.5883ZM210.564 58.3963L210.635 59.3939L211.564 59.3282V58.3963H210.564ZM207.504 58.6123L207.434 57.6148L205.906 57.7227L206.619 59.0781L207.504 58.6123ZM204.84 67.2523L204.378 66.3657L204.37 66.37L204.84 67.2523ZM203.292 63.8323L202.664 63.0544L202.657 63.0604L202.649 63.0666L203.292 63.8323ZM203.292 59.5123L202.649 60.278L202.657 60.2842L202.664 60.2903L203.292 59.5123ZM198.612 59.5123L197.969 58.7466L197.969 58.7466L198.612 59.5123ZM198.612 63.8323L199.256 63.0666L199.256 63.0666L198.612 63.8323ZM197.892 77.6203L198.369 76.7414L198.36 76.7365L197.892 77.6203ZM203.76 77.5843L203.225 76.7395L203.215 76.7458L203.206 76.7523L203.76 77.5843ZM204.12 74.0923L203.433 74.8183L203.442 74.8271L203.451 74.8356L204.12 74.0923ZM201.348 73.3003L201.275 74.2977L201.28 74.298L201.348 73.3003ZM198.612 72.9763L198.781 71.9907L198.436 71.9315L198.129 72.1008L198.612 72.9763ZM197.1 74.2363L196.275 73.6717L196.265 73.6868L196.255 73.7023L197.1 74.2363ZM200.988 67.1163C200.198 67.1163 199.479 67.0286 198.826 66.8601L198.327 68.7966C199.162 69.0121 200.05 69.1163 200.988 69.1163V67.1163ZM197.869 67.1212L196.537 68.4532L197.951 69.8674L199.283 68.5354L197.869 67.1212ZM196.776 70.0441C197.3 70.3213 197.953 70.5256 198.698 70.6796L199.103 68.7211C198.455 68.5871 198.005 68.4313 197.712 68.2765L196.776 70.0441ZM198.698 70.6796C199.453 70.8358 200.629 70.9837 202.192 71.1281L202.376 69.1366C200.82 68.9929 199.74 68.8529 199.103 68.7211L198.698 70.6796ZM202.194 71.1282C204.492 71.3371 205.975 71.872 206.823 72.5884L208.114 71.0603C206.802 69.9527 204.829 69.3595 202.375 69.1364L202.194 71.1282ZM206.823 72.5884C207.646 73.2829 208.088 74.2455 208.088 75.6043H210.088C210.088 73.7472 209.451 72.1897 208.114 71.0603L206.823 72.5884ZM208.088 75.6043C208.088 76.4675 207.856 77.2831 207.373 78.0682L209.076 79.1164C209.745 78.0296 210.088 76.8531 210.088 75.6043H208.088ZM207.367 78.0778C206.909 78.8405 206.185 79.4872 205.128 79.9948L205.993 81.7979C207.336 81.1535 208.387 80.2642 209.082 79.1068L207.367 78.0778ZM205.113 80.0019C204.096 80.5106 202.727 80.7963 200.952 80.7963V82.7963C202.922 82.7963 204.625 82.4821 206.008 81.7908L205.113 80.0019ZM200.952 80.7963C198.524 80.7963 196.673 80.337 195.32 79.5047L194.272 81.208C196.04 82.2957 198.292 82.7963 200.952 82.7963V80.7963ZM195.311 79.4988C194.067 78.7527 193.456 77.6712 193.456 76.1083H191.456C191.456 78.3375 192.405 80.088 194.282 81.2138L195.311 79.4988ZM193.456 76.1083C193.456 74.8827 194.029 73.7633 195.398 72.7309L194.194 71.1338C192.444 72.4533 191.456 74.118 191.456 76.1083H193.456ZM195.207 71.0204C194.767 70.8224 194.397 70.62 194.091 70.4163L192.982 72.0804C193.396 72.3566 193.866 72.6103 194.386 72.8443L195.207 71.0204ZM194.118 70.4346C193.822 70.2233 193.565 70.0064 193.343 69.7852L191.929 71.1994C192.236 71.5062 192.579 71.7934 192.955 72.0621L194.118 70.4346ZM193.636 70.4923V69.6643H191.636V70.4923H193.636ZM193.363 70.3514L196.495 67.0394L195.042 65.6652L191.91 68.9772L193.363 70.3514ZM196.429 65.6014C195.261 64.5748 194.68 63.2806 194.68 61.6363H192.68C192.68 63.8321 193.491 65.6818 195.108 67.1033L196.429 65.6014ZM194.68 61.6363C194.68 60.6042 194.926 59.6881 195.407 58.8655L193.681 57.8552C193.011 59.0006 192.68 60.2685 192.68 61.6363H194.68ZM195.398 58.8809C195.899 58.0592 196.603 57.4 197.535 56.9027L196.594 55.138C195.366 55.7927 194.39 56.6935 193.691 57.8397L195.398 58.8809ZM197.535 56.9027C198.438 56.4212 199.576 56.1563 200.988 56.1563V54.1563C199.329 54.1563 197.851 54.4675 196.594 55.138L197.535 56.9027ZM200.988 56.1563C201.9 56.1563 202.728 56.2864 203.48 56.537L204.113 54.6397C203.136 54.3142 202.092 54.1563 200.988 54.1563V56.1563ZM203.796 56.5883H210.564V54.5883H203.796V56.5883ZM209.564 55.5883V58.3963H211.564V55.5883H209.564ZM210.494 57.3988L207.434 57.6148L207.575 59.6099L210.635 59.3939L210.494 57.3988ZM206.619 59.0781C207.019 59.8363 207.224 60.6828 207.224 61.6363H209.224C209.224 60.3819 208.95 59.2123 208.389 58.1466L206.619 59.0781ZM207.224 61.6363C207.224 62.6685 206.979 63.5846 206.497 64.4072L208.223 65.4175C208.894 64.2721 209.224 63.0042 209.224 61.6363H207.224ZM206.497 64.4072C206.025 65.2141 205.331 65.8684 204.378 66.3658L205.303 68.1389C206.558 67.4843 207.544 66.5786 208.223 65.4175L206.497 64.4072ZM204.37 66.37C203.463 66.8538 202.347 67.1163 200.988 67.1163V69.1163C202.605 69.1163 204.058 68.8029 205.311 68.1347L204.37 66.37ZM200.988 65.5883C202.112 65.5883 203.122 65.2815 203.936 64.598L202.649 63.0666C202.263 63.3912 201.737 63.5883 200.988 63.5883V65.5883ZM203.921 64.6103C204.82 63.8836 205.228 62.854 205.228 61.6723H203.228C203.228 62.3626 203.012 62.7731 202.664 63.0544L203.921 64.6103ZM205.228 61.6723C205.228 60.4906 204.82 59.4611 203.921 58.7344L202.664 60.2903C203.012 60.5716 203.228 60.982 203.228 61.6723H205.228ZM203.936 58.7466C203.122 58.0632 202.112 57.7563 200.988 57.7563V59.7563C201.737 59.7563 202.263 59.9535 202.649 60.278L203.936 58.7466ZM200.988 57.7563C199.831 57.7563 198.792 58.0558 197.969 58.7466L199.256 60.278C199.633 59.9609 200.178 59.7563 200.988 59.7563V57.7563ZM197.969 58.7466C197.099 59.4779 196.712 60.5043 196.712 61.6723H198.712C198.712 60.9684 198.926 60.5547 199.256 60.278L197.969 58.7466ZM196.712 61.6723C196.712 62.8404 197.099 63.8667 197.969 64.598L199.256 63.0666C198.926 62.7899 198.712 62.3763 198.712 61.6723H196.712ZM197.969 64.598C198.792 65.2889 199.831 65.5883 200.988 65.5883V63.5883C200.178 63.5883 199.633 63.3838 199.256 63.0666L197.969 64.598ZM195.668 75.6403C195.668 76.2427 195.809 76.8174 196.124 77.3272C196.438 77.8348 196.889 78.2208 197.424 78.5041L198.36 76.7365C198.079 76.5879 197.919 76.4278 197.825 76.2755C197.732 76.1253 197.668 75.926 197.668 75.6403H195.668ZM197.415 78.4992C198.435 79.0525 199.628 79.3043 200.952 79.3043V77.3043C199.877 77.3043 199.03 77.1002 198.369 76.7415L197.415 78.4992ZM200.952 79.3043C202.238 79.3043 203.385 79.0368 204.315 78.4164L203.206 76.7523C202.696 77.0919 201.971 77.3043 200.952 77.3043V79.3043ZM204.295 78.4292C205.279 77.8065 205.84 76.8771 205.84 75.7123H203.84C203.84 76.1315 203.682 76.4501 203.225 76.7395L204.295 78.4292ZM205.84 75.7123C205.84 74.782 205.481 73.9714 204.789 73.349L203.451 74.8356C203.72 75.0772 203.84 75.3467 203.84 75.7123H205.84ZM204.808 73.3664C204.418 72.9965 203.902 72.7637 203.36 72.6088C202.808 72.4511 202.155 72.3536 201.417 72.3027L201.28 74.298C201.934 74.3431 202.439 74.4255 202.811 74.5319C203.193 74.641 203.367 74.7562 203.433 74.8183L204.808 73.3664ZM201.421 72.303C200.465 72.233 199.585 72.1285 198.781 71.9907L198.443 73.962C199.32 74.1122 200.264 74.2237 201.275 74.2977L201.421 72.303ZM198.129 72.1008C197.352 72.5294 196.705 73.0428 196.275 73.6717L197.926 74.801C198.119 74.5179 198.48 74.1913 199.095 73.8519L198.129 72.1008ZM196.255 73.7023C195.879 74.2978 195.668 74.9486 195.668 75.6403H197.668C197.668 75.3721 197.746 75.0868 197.946 74.7703L196.255 73.7023Z" fill="white"/>
</svg>
